<?xml version="1.0" encoding="UTF-8" standalone="no"?>
<!-- Created with Inkscape (http://www.inkscape.org/) -->

<svg
   width="210mm"
   height="297mm"
   viewBox="0 0 210 297"
   version="1.1"
   id="svg1"
   xml:space="preserve"
   inkscape:version="1.3 (0e150ed6c4, 2023-07-21)"
   sodipodi:docname="familia.svg"
   xmlns:inkscape="http://www.inkscape.org/namespaces/inkscape"
   xmlns:sodipodi="http://sodipodi.sourceforge.net/DTD/sodipodi-0.dtd"
   xmlns="http://www.w3.org/2000/svg"
   xmlns:svg="http://www.w3.org/2000/svg"><sodipodi:namedview
     id="namedview1"
     pagecolor="#ffffff"
     bordercolor="#000000"
     borderopacity="0.25"
     inkscape:showpageshadow="2"
     inkscape:pageopacity="0.0"
     inkscape:pagecheckerboard="0"
     inkscape:deskcolor="#d1d1d1"
     inkscape:document-units="mm"
     inkscape:zoom="0.57103676"
     inkscape:cx="396.64697"
     inkscape:cy="561.25984"
     inkscape:window-width="1600"
     inkscape:window-height="837"
     inkscape:window-x="-8"
     inkscape:window-y="288"
     inkscape:window-maximized="1"
     inkscape:current-layer="layer1" /><defs
     id="defs1" /><g
     inkscape:label="Capa 1"
     inkscape:groupmode="layer"
     id="layer1"><g
       id="g1"
       transform="matrix(1.5727257,0,0,1.8822445,-364.15491,46.886925)"><path
         style="fill:#870014"
         d="m 297.74711,106.35797 c -0.0715,-0.18638 -0.0975,-2.5974 -0.0578,-5.35781 0.0693,-4.81848 0.0933,-5.01894 0.60136,-5.01894 0.50854,0 0.53197,0.2004 0.60119,5.14013 0.0551,3.93532 -0.007,5.1902 -0.26458,5.35376 -0.48021,0.30477 -0.73104,0.27139 -0.88013,-0.11714 z m -9.24606,-2.96191 c -4.98669,-2.07765 -10.75125,-5.20471 -14.75052,-8.00162 l -2.05052,-1.43404 v -6.85439 -6.85439 l 4.29612,-0.0727 c 3.83883,-0.065 4.30552,-0.12173 4.38456,-0.53333 0.0487,-0.25336 -2.41204,-8.64726 -5.46819,-18.65313 -3.05616,-10.00587 -5.63743,-18.51991 -5.73617,-18.92009 -0.15185,-0.61546 -0.0959,-0.7276 0.36272,-0.7276 0.29823,0 0.63855,0.14883 0.75628,0.33073 0.11773,0.1819 1.54563,4.66045 3.17311,9.95233 2.11755,6.88539 3.13333,9.80819 3.57187,10.27774 1.8217,1.95047 4.39938,1.86703 6.13756,-0.19868 1.21632,-1.44552 1.05568,-2.30483 -2.75188,-14.72098 -1.89468,-6.17836 -3.80314,-11.94312 -4.24103,-12.81058 -0.92588,-1.83416 -2.40337,-3.40443 -4.01095,-4.262809 -1.12712,-0.60184 -1.21026,-0.60629 -11.32192,-0.60629 -10.00193,0 -10.20625,0.0106 -11.27927,0.58453 -1.69294,0.905539 -3.36153,2.757099 -4.40188,4.884539 -0.76261,1.55951 -2.41937,6.67631 -6.10845,18.8656 -0.0983,0.32483 -1.59058,-3.77731 -2.44286,-6.71522 -2.74684,-9.46876 -2.74497,-18.757529 0.005,-26.064249 4.93363,-13.10743 18.19897,-21.76064003 31.07647,-20.27169703 9.37937,1.08447703 19.18014,6.13517703 28.1275,14.49513703 1.12915,1.05503 2.17741,1.91823 2.32947,1.91823 0.15205,0 1.20032,-0.8632 2.32947,-1.91823 8.94736,-8.35996 18.74813,-13.41066 28.1275,-14.49513703 13.28427,-1.535976 26.92322,7.73925703 31.44099,21.38157703 2.21675,6.69392 2.2305,15.140549 0.0382,23.474499 -0.96539,3.66992 -2.84723,8.74618 -4.5119,12.17083 l -1.2861,2.64583 -0.0233,-10.86546 c -0.0141,-6.60237 -0.13636,-11.47727 -0.31151,-12.42478 -0.74709,-4.04135 -3.49754,-6.813079 -7.49389,-7.551839 -0.94417,-0.17454 -5.8916,-0.24362 -13.45805,-0.18792 -10.48923,0.0772 -12.1053,0.14343 -13.10237,0.53675 -1.73334,0.68377 -3.38862,1.991659 -4.40756,3.482569 -1.69484,2.47991 -1.73113,2.87396 -1.73113,18.80217 0,13.41438 0.0304,14.35889 0.48987,15.21559 0.69062,1.28774 1.64913,1.91288 3.12845,2.04035 1.4935,0.1287 2.79356,-0.44009 3.63892,-1.59208 0.53144,-0.72421 0.55196,-1.12728 0.68026,-13.36146 l 0.1323,-12.61472 0.59531,-0.0846 0.59531,-0.0845 v 26.80821 26.80822 l -1.65365,1.04092 c -3.91995,2.46749 -5.27897,3.24273 -8.45109,4.82081 -2.89336,1.4394 -7.08885,3.26489 -7.50366,3.26489 -0.0727,0 -0.0993,-1.87524 -0.0592,-4.16719 l 0.0729,-4.16719 2.57969,-0.0757 c 1.41883,-0.0417 2.57968,-0.13074 2.57968,-0.19798 0,-0.0911 -6.11377,-20.26088 -7.03472,-23.20807 -0.11123,-0.35596 0.008,-0.46302 0.51583,-0.46302 0.56831,0 0.7178,0.19391 1.0709,1.38906 1.84188,6.23423 3.31027,10.6248 3.74249,11.19019 0.70784,0.92596 2.10396,1.10441 3.2125,0.41061 1.50331,-0.94088 1.44321,-1.51784 -0.97115,-9.32221 -2.26716,-7.32856 -2.8385,-8.63546 -4.35872,-9.97023 -1.44468,-1.26844 -2.45263,-1.4148 -9.10315,-1.32182 -6.59886,0.0923 -6.88608,0.15535 -8.48198,1.86296 -1.37821,1.47468 -2.0464,3.06621 -4.12912,9.83496 -2.26976,7.37662 -2.32722,7.98597 -0.8407,8.91634 1.10795,0.69343 2.50467,0.51533 3.2117,-0.40953 0.44902,-0.58736 1.5302,-3.81868 3.56748,-10.6621 0.50788,-1.706 0.643,-1.91823 1.22131,-1.91823 0.35764,0 0.64529,0.0893 0.63922,0.19844 -0.006,0.10914 -1.59574,5.37766 -3.53261,11.70781 -1.93688,6.33016 -3.4727,11.59867 -3.41294,11.70781 0.0598,0.10914 1.23645,0.19844 2.61488,0.19844 1.80435,0 2.54297,0.0957 2.6374,0.34184 0.0721,0.18801 0.0982,2.13414 0.0578,4.32474 l -0.0733,3.9829 z m 12.43826,-40.7518 c 1.36728,-0.78609 2.26534,-2.37175 2.35574,-4.15939 0.0827,-1.63575 0.71626,-2.28008 1.37402,-1.3974 0.30168,0.40483 0.35296,0.91773 0.21827,2.18282 -0.1172,1.10081 -0.0821,1.65364 0.10489,1.65364 0.15452,0 0.72037,-0.8891 1.25744,-1.97578 0.81143,-1.64183 0.95141,-2.16268 0.82817,-3.08153 -0.19752,-1.47262 -0.96559,-2.21714 -2.25247,-2.18339 -0.55016,0.0144 -1.39728,0.23152 -1.8825,0.48244 -0.86343,0.44649 -0.90903,0.44161 -2.14157,-0.22922 -1.67125,-0.90961 -3.44232,-0.92191 -5.10946,-0.0355 l -1.2224,0.64996 -1.21132,-0.53582 c -3.28196,-1.45177 -4.77059,1.27033 -2.75676,5.04102 1.06257,1.98955 1.70129,2.43147 1.43087,0.99 -0.30917,-1.64801 -0.24961,-2.84945 0.1539,-3.10446 0.68172,-0.43083 0.91009,-0.10791 1.05334,1.4895 0.0773,0.8617 0.34088,1.93949 0.5858,2.3951 0.56542,1.0518 1.88523,2.16893 2.79981,2.36984 0.38897,0.0855 0.82628,0.19776 0.9718,0.24958 0.58181,0.2072 2.4409,-0.22562 3.44243,-0.80143 z M 263.69796,26.649141 c 1.48234,-0.61936 2.82047,-1.84523 3.64883,-3.34272 0.67974,-1.22882 0.77928,-1.67859 0.78025,-3.52519 8.8e-4,-1.70393 -0.11949,-2.34884 -0.61731,-3.30729 -1.28303,-2.47023 -3.51124,-3.98974 -6.13138,-4.18123 -7.671,-0.56062 -11.12638,9.33537 -4.77337,13.67063 1.98266,1.35296 4.83597,1.62884 7.09298,0.6858 z m 73.48916,-0.095 c 3.703,-1.63802 5.32627,-6.37434 3.47882,-10.15039 -2.65227,-5.42106 -10.58927,-5.48684 -13.31374,-0.11035 -2.16729,4.27695 0.0441,9.38744 4.61786,10.672 1.51787,0.4263 3.71519,0.25309 5.21706,-0.41126 z m -3.8392,51.349239 v -9.04196 h 0.66146 0.66146 v 8.42055 8.42054 l -0.66146,0.62141 -0.66146,0.62141 z m -72.69426,6.91918 c -0.53184,-0.37099 -0.59532,-0.6375 -0.59532,-2.49966 0,-2.04697 0.0119,-2.08439 0.66146,-2.08439 0.65914,0 0.66146,0.009 0.66146,2.51354 0,1.38244 -0.0298,2.50729 -0.0661,2.49966 -0.0364,-0.008 -0.33403,-0.20075 -0.66146,-0.42915 z m 84.07539,-26.29312 c 0.002,-8.94225 0.1058,-16.41918 0.23015,-16.6154 0.12435,-0.19622 0.44994,-0.3137 0.72355,-0.26107 0.47634,0.0916 0.50308,0.62966 0.62975,12.67185 0.12229,11.62511 0.16903,12.63218 0.61801,13.31712 0.26715,0.40754 0.81631,0.93071 1.22036,1.1626 l 0.73463,0.42162 -0.94491,1.33899 c -0.83728,1.18646 -2.41384,3.2709 -3.00391,3.97158 -0.11642,0.13825 -0.20985,-7.06503 -0.20763,-16.00729 z m -100.47966,5.69589 c -0.79891,-1.39094 -0.81111,-1.45676 -0.31882,-1.72023 0.8479,-0.45378 1.27362,-1.58738 4.265,-11.35663 1.57946,-5.15822 3.01949,-9.47241 3.20007,-9.58709 0.51198,-0.32515 0.98979,-0.25318 0.98979,0.14908 0,0.32679 -7.10438,23.75892 -7.24696,23.90241 -0.0321,0.0323 -0.43219,-0.59208 -0.88908,-1.38754 z"
         id="path3" /></g></g></svg>
