<?xml version="1.0" encoding="UTF-8" standalone="no"?>
<!-- Created with Inkscape (http://www.inkscape.org/) -->

<svg
   width="210mm"
   height="297mm"
   viewBox="0 0 210 297"
   version="1.1"
   id="svg1"
   xml:space="preserve"
   sodipodi:docname="futbol.svg"
   inkscape:version="1.3 (0e150ed6c4, 2023-07-21)"
   xmlns:inkscape="http://www.inkscape.org/namespaces/inkscape"
   xmlns:sodipodi="http://sodipodi.sourceforge.net/DTD/sodipodi-0.dtd"
   xmlns="http://www.w3.org/2000/svg"
   xmlns:svg="http://www.w3.org/2000/svg"><sodipodi:namedview
     id="namedview1"
     pagecolor="#ffffff"
     bordercolor="#000000"
     borderopacity="0.25"
     inkscape:showpageshadow="2"
     inkscape:pageopacity="0.0"
     inkscape:pagecheckerboard="0"
     inkscape:deskcolor="#d1d1d1"
     inkscape:document-units="mm"
     inkscape:zoom="0.57103676"
     inkscape:cx="619.04947"
     inkscape:cy="561.25984"
     inkscape:window-width="1600"
     inkscape:window-height="837"
     inkscape:window-x="-8"
     inkscape:window-y="288"
     inkscape:window-maximized="1"
     inkscape:current-layer="layer1" /><defs
     id="defs1" /><g
     inkscape:label="Capa 1"
     inkscape:groupmode="layer"
     id="layer1"><g
       id="g1"
       transform="translate(-13.436817,35.677067)"><path
         style="fill:#000000;stroke-width:0.944164"
         d="m 82.283768,220.21037 c -3.699313,-0.43854 -7.160893,-1.69091 -9.340467,-3.3793 -3.765959,-2.91728 -3.710318,-2.39203 -3.710318,-35.02491 v -29.68075 l 4.030457,1.20836 c 3.066313,0.9193 6.759634,1.50511 15.439298,2.4489 l 11.408832,1.24053 0.15696,27.71389 c 0.1558,27.50546 0.1472,27.72846 -1.143141,29.65014 -2.839574,4.22892 -9.848135,6.65219 -16.841621,5.82314 z m 84.198362,-25.8696 c -5.97046,-0.71591 -11.49945,-4.29286 -12.47382,-8.06989 -0.20943,-0.81187 -0.38382,-7.95121 -0.38752,-15.86521 l -0.007,-14.38907 -1.37578,-0.20275 c -0.75668,-0.11151 -17.18054,-1.88422 -36.49747,-3.93937 -20.431929,-2.17375 -36.163056,-4.03173 -37.611477,-4.44221 -5.406299,-1.53214 -8.859952,-4.92988 -8.88293,-8.73911 -0.0071,-1.22454 2.187819,-11.86836 4.878235,-23.65294 2.690404,-11.78458 4.891647,-21.473165 4.891647,-21.530192 0,-0.135735 -11.855479,1.793325 -12.139475,1.975281 -0.119751,0.07671 -4.696037,6.779261 -10.169536,14.894561 -5.473511,8.11528 -10.77537,15.5036 -11.781908,16.41847 -3.327213,3.02419 -10.168557,4.4037 -15.846784,3.1954 -6.429858,-1.36825 -10.234732,-4.74194 -10.18933,-9.03462 0.02324,-2.2001 0.900222,-3.6636 12.310325,-20.54411 13.036524,-19.28617 13.805364,-20.171236 18.772858,-21.61048 1.345196,-0.389751 16.81869,-3.0118 34.385542,-5.826776 22.802173,-3.653906 32.948103,-5.115678 35.464503,-5.109536 8.27342,0.02019 14.45961,4.075076 14.33045,9.393217 -0.0288,1.185021 -2.68876,14.032305 -5.91105,28.549525 -3.22229,14.51722 -5.77936,26.43178 -5.68238,26.47682 0.097,0.045 11.4577,1.27332 25.24607,2.72954 15.24846,1.61043 26.14769,2.94811 27.82129,3.41456 3.66014,1.02011 5.96288,2.46426 7.71458,4.83817 l 1.44533,1.95871 v 20.76235 20.76236 l -1.42672,1.9587 c -3.10282,4.2598 -9.76465,6.48149 -16.87757,5.6286 z M 178.73438,118.164 c -11.1847,-1.92659 -20.69359,-8.76678 -22.7162,-16.34083 -3.19185,-11.952518 12.07499,-23.386507 31.22602,-23.386507 18.95383,0 34.23868,11.324061 31.27512,23.170737 -1.92336,7.68853 -11.62784,14.67354 -23.02986,16.57624 -4.47459,0.74669 -12.35987,0.73745 -16.75508,-0.0196 z M 120.76323,62.164054 C 113.2817,60.873066 105.15811,57.107212 101.12536,53.060526 89.07518,40.968714 98.577603,25.040712 120.23085,21.035818 c 5.21123,-0.963848 13.73529,-0.866093 18.76114,0.215155 16.6196,3.575489 26.43678,14.713653 22.21319,25.202129 -3.10568,7.712373 -12.52396,13.784446 -24.38179,15.719231 -4.48408,0.731645 -11.79399,0.727877 -16.06016,-0.0083 z"
         id="path1" /></g><path
       style="fill:#ffffff;fill-opacity:1;stroke-width:0.463338"
       d="m 164.09909,153.33121 c -9.10596,-2.02792 -17.33876,-7.48662 -20.26819,-13.43869 -1.70218,-3.45851 -1.59765,-8.35396 0.24983,-11.70041 2.97376,-5.38654 10.22352,-10.21729 18.67906,-12.44643 3.8072,-1.0037 5.51069,-1.18777 10.99216,-1.18777 5.46217,0 7.18976,0.18542 10.93773,1.17396 15.28681,4.03195 23.5959,14.39751 19.16724,23.91106 -2.48076,5.32913 -9.83443,10.71012 -17.83918,13.0537 -4.61314,1.35061 -17.08243,1.71161 -21.91865,0.63458 z"
       id="path8" /></g></svg>
