<?xml version="1.0" encoding="UTF-8" standalone="no"?>
<!-- Created with Inkscape (http://www.inkscape.org/) -->

<svg
   width="210mm"
   height="297mm"
   viewBox="0 0 210 297"
   version="1.1"
   id="svg1"
   xml:space="preserve"
   xmlns="http://www.w3.org/2000/svg"
   xmlns:svg="http://www.w3.org/2000/svg"><defs
     id="defs1" /><g
     id="layer1"><g
       id="g1"
       transform="matrix(1.476378,0,0,1.476378,-247.07996,-66.275779)"><path
         style="fill:#000000"
         d="m 204.7702,189.97554 c -4.66089,-0.62977 -10.58319,-3.04694 -14.2875,-5.8314 -6.17762,-4.6436 -10.47714,-11.46272 -11.94316,-18.94209 -0.56021,-2.85811 -0.62069,-8.41276 -0.12188,-11.19505 0.77727,-4.33546 2.80912,-9.17845 5.23106,-12.46843 1.00555,-1.36594 1.10374,-1.6211 0.84356,-2.19213 -0.48623,-1.06716 -0.0751,-1.83064 2.11039,-3.9186 4.61274,-4.40699 10.08032,-7.18133 16.28512,-8.26336 3.4467,-0.60105 19.61784,-0.59922 20.47666,0.002 0.32342,0.22653 0.58804,0.58372 0.58804,0.79375 0,0.32384 1.1459,0.38187 7.54062,0.38187 h 7.54063 V 112.33513 96.327834 h 1.98438 1.98437 v 16.007296 16.00729 h 7.67292 c 4.93889,0 7.67291,-0.0943 7.67291,-0.26458 0,-0.14552 0.23813,-0.50271 0.52917,-0.79375 0.50802,-0.50802 0.88195,-0.52917 9.35805,-0.52917 9.72222,0 11.66417,0.19532 15.83508,1.59271 4.39746,1.47328 8.15135,3.75909 11.62752,7.08021 2.19453,2.09664 2.59707,2.85046 2.10216,3.93667 -0.2634,0.5781 -0.20489,0.79016 0.45089,1.63413 2.15466,2.77298 4.08253,6.83241 5.05023,10.63406 3.66488,14.39764 -3.25121,29.14073 -16.68749,35.57288 -9.72801,4.65694 -21.04418,3.83613 -30.35715,-2.20193 l -1.69466,-1.09873 h -13.46725 -13.46725 l -1.50684,1.02212 c -3.08005,2.08927 -6.86683,3.71252 -10.63496,4.5588 -2.65549,0.5964 -8.08845,0.84468 -10.71562,0.4897 z m 10.62996,-4.35602 c 2.8499,-0.72294 5.06828,-1.65173 7.494,-3.13759 0.94588,-0.5794 2.24598,-1.32969 2.88911,-1.66732 l 1.16932,-0.61386 h 14.19782 14.19782 l 1.16932,0.61386 c 0.64312,0.33763 1.95789,1.10367 2.92171,1.70232 4.84094,3.00683 11.1022,4.42543 16.67365,3.77772 9.65971,-1.123 17.48754,-6.62135 21.6711,-15.22202 2.09425,-4.3054 2.50347,-6.26517 2.48615,-11.90625 -0.0136,-4.41332 -0.0678,-4.93709 -0.73997,-7.14375 -1.49878,-4.92037 -3.56898,-8.3728 -7.14777,-11.92017 -3.87659,-3.84255 -8.23728,-6.19238 -13.52889,-7.29028 -2.25564,-0.468 -4.24446,-0.49406 -37.70312,-0.49406 -33.45867,0 -35.44749,0.0261 -37.70313,0.49406 -11.72263,2.4322 -20.40328,12.1136 -21.55215,24.03682 -1.39017,14.42754 9.20688,27.60436 23.66882,29.4308 2.73174,0.345 7.00375,0.0582 9.83621,-0.66028 z m 53.96656,-4.51883 c -8.45262,-1.52702 -15.42595,-8.20197 -17.5248,-16.77494 -0.68869,-2.81305 -0.63017,-7.60296 0.1277,-10.45104 1.68566,-6.3347 6.01801,-11.63496 11.79638,-14.43185 3.33026,-1.61194 5.75831,-2.15286 9.66357,-2.15286 3.91605,0 6.36046,0.54667 9.64301,2.15658 5.83778,2.86311 10.17268,8.15153 11.8267,14.42813 0.78635,2.98401 0.78222,7.89329 -0.009,10.84792 -3.07342,11.47511 -13.96751,18.46571 -25.52344,16.37806 z m 6.33391,-6.31854 c 1.68875,-0.84154 12.59539,-11.72975 13.20065,-13.17836 0.76959,-1.84187 0.34623,-4.25918 -0.9984,-5.7007 -1.4394,-1.54312 -3.94541,-2.05736 -5.94899,-1.22076 -1.31983,0.5511 -12.58201,11.7605 -13.295,13.23269 -1.31956,2.72464 0.0371,6.07569 2.92651,7.22886 1.16147,0.46354 2.73706,0.32504 4.11523,-0.36173 z m -3.1971,-1.12278 c -0.94033,-0.23987 -2.03495,-1.18796 -2.41118,-2.08841 -0.50702,-1.21345 -0.45773,-2.19828 0.16079,-3.21273 2.41656,-3.96347 8.26662,-1.02441 6.39278,3.21172 -0.68507,1.54872 -2.55822,2.49353 -4.14239,2.08942 z m 9.21005,-10.94157 c -1.1873,-0.76052 -1.85382,-2.55407 -1.45002,-3.90185 0.16388,-0.54695 0.66562,-1.34671 1.11498,-1.77723 0.71509,-0.6851 1.01027,-0.78276 2.36584,-0.78276 1.2869,0 1.66852,0.11186 2.25672,0.66146 1.46998,1.37351 1.79042,2.77745 1.00954,4.42302 -0.87732,1.84883 -3.49743,2.53012 -5.29706,1.37736 z m -17.0729,1.46596 c 1.24064,-0.51278 12.5669,-11.72401 13.33307,-13.19766 0.81628,-1.57004 0.60145,-4.02251 -0.47038,-5.36978 -1.59769,-2.00825 -4.16616,-2.69359 -6.32275,-1.6871 -0.67477,0.31492 -3.27959,2.73408 -7.18719,6.67492 -5.33953,5.38495 -6.1688,6.3319 -6.43909,7.3528 -1.1251,4.24966 3.03201,7.90255 7.08634,6.22682 z m -3.62771,-1.64436 c -1.3621,-0.69454 -1.97266,-1.68936 -1.97266,-3.21415 0,-3.15285 3.49735,-4.80482 5.89715,-2.78552 2.04578,1.72141 1.53201,5.06687 -0.93652,6.09829 -1.15779,0.48376 -1.89349,0.45948 -2.98797,-0.0986 z m 10.43223,-10.34513 c -3.65305,-1.713 -2.07409,-7.23961 1.95118,-6.82945 0.88095,0.0898 1.37946,0.33997 2.08692,1.04744 2.86904,2.86904 -0.36746,7.50325 -4.0381,5.78201 z m -66.54271,24.95027 c -0.94589,-0.20257 -2.8483,-0.92615 -4.22758,-1.60796 -7.32665,-3.62172 -11.30456,-11.82204 -9.64118,-19.87497 2.9438,-14.25183 20.59057,-19.43743 30.80209,-9.05137 2.07153,2.10694 3.47744,4.41965 4.41613,7.26447 0.60471,1.83264 0.69843,2.56046 0.69843,5.42396 0,2.8635 -0.0937,3.59132 -0.69843,5.42396 -0.98391,2.98187 -2.38019,5.2334 -4.69215,7.56617 -3.36893,3.39925 -7.96577,5.2782 -12.82085,5.24049 -1.16417,-0.009 -2.89057,-0.18218 -3.83646,-0.38475 z m 7.24188,-2.36521 c 5.38167,-1.14019 9.84986,-5.18623 11.70152,-10.59596 0.59448,-1.73681 0.72179,-2.571 0.72531,-4.75241 0.0101,-6.28196 -3.23364,-11.47815 -8.96895,-14.36729 -2.79713,-1.40904 -7.59666,-1.84681 -10.80766,-0.98579 -7.16739,1.92194 -12.26545,9.07058 -11.68196,16.38078 0.32052,4.01565 1.81228,7.16636 4.79458,10.12652 3.80122,3.77299 8.99844,5.30405 14.23716,4.19415 z m -5.45594,-6.24144 c -0.39831,-0.23199 -0.46302,-0.69307 -0.46302,-3.29924 v -3.02956 h -3.0334 c -3.5447,0 -3.58119,-0.027 -3.58119,-2.64584 0,-2.61888 0.0365,-2.64583 3.58119,-2.64583 h 3.0334 v -3.0334 c 0,-3.5447 0.027,-3.58118 2.64583,-3.58118 2.61888,0 2.64583,0.0365 2.64583,3.58118 v 3.0334 h 3.0334 c 3.5447,0 3.58119,0.0269 3.58119,2.64583 0,2.61888 -0.0365,2.64584 -3.58119,2.64584 h -3.0334 v 3.0334 c 0,2.72824 -0.0515,3.06095 -0.51177,3.30729 -0.65462,0.35034 -3.70941,0.34193 -4.31687,-0.0119 z m 34.10611,-0.46266 c -0.24083,-0.26612 -0.43788,-0.69817 -0.43788,-0.96011 0,-0.70292 4.46392,-5.17062 5.16625,-5.17062 0.63483,0 1.44833,0.7577 1.44833,1.34898 0,0.51765 -4.7986,5.26561 -5.32177,5.26561 -0.22938,0 -0.61409,-0.21774 -0.85493,-0.48386 z m -8.20209,-0.79375 c -0.24083,-0.26612 -0.43788,-0.65542 -0.43788,-0.86512 0,-0.51765 4.79861,-5.26561 5.32178,-5.26561 0.67836,0 1.37503,0.9593 1.2008,1.65349 -0.21023,0.83761 -4.47105,4.9611 -5.12633,4.9611 -0.28626,0 -0.71753,-0.21774 -0.95837,-0.48386 z"
         id="path1" /></g><path
       style="fill:#00ff00;fill-opacity:0.800937;stroke-width:1.7512"
       d="m 582.13954,708.49541 c -6.97692,-6.97692 -6.88164,-14.10092 0.26907,-20.11784 10.51734,-8.84976 22.63125,-3.90536 22.63125,9.23713 0,4.97546 -1.22178,7.98779 -4.6168,11.38281 -6.01974,6.01974 -11.92382,5.8576 -18.28352,-0.5021 z"
       id="path15"
       transform="scale(0.26458333)" /><path
       style="fill:#0000ff;fill-opacity:0.800937;stroke-width:1.7512"
       d="m 520.8034,653.57678 c -11.3116,-7.60224 -10.82929,-24.0639 0.91487,-31.22548 2.96624,-1.80881 7.20538,-3.29169 9.42032,-3.29529 9.60786,-0.0156 19.61405,9.80825 19.61405,19.25667 0,9.52714 -10.00377,19.2632 -19.79287,19.2632 -2.3133,0 -6.88367,-1.79959 -10.15637,-3.9991 z"
       id="path16"
       transform="scale(0.26458333)" /><path
       style="fill:#ff0000;fill-opacity:0.800937;stroke-width:1.7512"
       d="m 637.73356,655.74503 c -6.25309,-4.91868 -8.73031,-14.46911 -5.65943,-21.81877 3.23129,-7.73358 9.05179,-11.37439 18.184,-11.37439 6.31523,0 8.55775,0.95702 12.74436,5.4388 6.24175,6.68182 7.16117,13.78912 2.88375,22.29201 -4.48753,8.92055 -19.94379,11.91946 -28.15268,5.46235 z"
       id="path17"
       transform="scale(0.26458333)" /><path
       style="fill:#ffff00;fill-opacity:0.800937;stroke-width:1.7512"
       d="m 580.10726,597.04495 c -4.96134,-2.69199 -10.09141,-10.68976 -10.09141,-15.73248 0,-5.51634 5.75457,-14.96814 10.65638,-17.50297 9.28867,-4.80336 18.29675,-2.15192 24.46159,7.20002 4.08331,6.1943 4.29964,11.46648 0.752,18.32686 -4.84646,9.37203 -16.36487,12.81638 -25.77856,7.70857 z"
       id="path18"
       transform="scale(0.26458333)" /></g></svg>
