<?xml version="1.0" encoding="UTF-8" standalone="no"?>
<!-- Created with Inkscape (http://www.inkscape.org/) -->

<svg
   width="210mm"
   height="297mm"
   viewBox="0 0 210 297"
   version="1.1"
   id="svg1"
   xml:space="preserve"
   inkscape:version="1.3 (0e150ed6c4, 2023-07-21)"
   sodipodi:docname="logoJava.svg"
   xmlns:inkscape="http://www.inkscape.org/namespaces/inkscape"
   xmlns:sodipodi="http://sodipodi.sourceforge.net/DTD/sodipodi-0.dtd"
   xmlns="http://www.w3.org/2000/svg"
   xmlns:svg="http://www.w3.org/2000/svg"><sodipodi:namedview
     id="namedview1"
     pagecolor="#ffffff"
     bordercolor="#000000"
     borderopacity="0.25"
     inkscape:showpageshadow="2"
     inkscape:pageopacity="0.0"
     inkscape:pagecheckerboard="0"
     inkscape:deskcolor="#d1d1d1"
     inkscape:document-units="mm"
     inkscape:zoom="0.57103676"
     inkscape:cx="564.76224"
     inkscape:cy="561.25984"
     inkscape:window-width="1600"
     inkscape:window-height="837"
     inkscape:window-x="-8"
     inkscape:window-y="288"
     inkscape:window-maximized="1"
     inkscape:current-layer="layer1" /><defs
     id="defs1" /><g
     inkscape:label="Capa 1"
     inkscape:groupmode="layer"
     id="layer1"><g
       fill-rule="evenodd"
       clip-rule="evenodd"
       id="g7"
       transform="matrix(1.0375812,0,0,1.0375812,5.4229383,50.830122)"><path
         fill="#ffffff"
         fill-opacity="0"
         d="M 0,0 H 192.756 V 192.756 H 0 Z"
         id="path1" /><path
         d="m 80.372,101.729 c 0,0 -4.604,2.679 3.28,3.584 9.554,1.091 14.434,0.934 24.959,-1.057 0,0 2.771,1.735 6.639,3.236 -23.601,10.113 -53.413,-0.585 -34.878,-5.763 z M 77.487,88.532 c 0,0 -5.165,3.823 2.726,4.639 10.206,1.054 18.262,1.14 32.211,-1.544 0,0 1.926,1.955 4.957,3.023 -28.531,8.345 -60.307,0.657 -39.894,-6.118 z"
         fill="#3174b9"
         id="path2" /><path
         d="m 101.797,66.143 c 5.818,6.697 -1.525,12.72 -1.525,12.72 0,0 14.766,-7.621 7.984,-17.168 -6.332,-8.899 -11.189,-13.32 15.102,-28.566 -0.001,-10e-4 -41.27,10.303 -21.561,33.014 z"
         fill="#ca3132"
         id="path3" /><path
         d="m 133.01,111.491 c 0,0 3.408,2.81 -3.754,4.983 -13.619,4.125 -56.694,5.369 -68.659,0.164 -4.298,-1.872 3.766,-4.467 6.303,-5.015 2.646,-0.572 4.156,-0.468 4.156,-0.468 -4.783,-3.368 -30.916,6.615 -13.272,9.479 48.112,7.801 87.704,-3.512 75.226,-9.143 z M 82.587,74.857 c 0,0 -21.908,5.205 -7.757,7.097 5.977,0.799 17.883,0.615 28.982,-0.316 9.068,-0.761 18.17,-2.389 18.17,-2.389 0,0 -3.195,1.371 -5.51,2.949 -22.251,5.853 -65.229,3.127 -52.855,-2.856 10.462,-5.061 18.97,-4.485 18.97,-4.485 z m 39.304,21.967 c 22.617,-11.75 12.16,-23.044 4.859,-21.522 -1.785,0.373 -2.586,0.695 -2.586,0.695 0,0 0.666,-1.042 1.932,-1.49 14.441,-5.075 25.545,14.972 -4.656,22.911 -0.001,0 0.347,-0.314 0.451,-0.594 z"
         fill="#3174b9"
         id="path4" /><path
         d="m 108.256,8.504 c 0,0 12.523,12.531 -11.881,31.794 C 76.804,55.756 91.913,64.567 96.369,74.638 84.943,64.331 76.562,55.256 82.184,46.812 90.438,34.417 113.309,28.406 108.256,8.504 Z"
         fill="#ca3132"
         id="path5" /><path
         d="m 84.812,128.674 c 21.706,1.388 55.045,-0.771 55.836,-11.044 0,0 -1.518,3.894 -17.941,6.983 -18.529,3.488 -41.386,3.082 -54.938,0.845 0,0 2.777,2.298 17.043,3.216 z"
         fill="#3174b9"
         id="path6" /><path
         d="m 139.645,147.096 h -0.66 v -0.37 h 1.781 v 0.37 h -0.66 v 1.848 h -0.461 z m 3.554,0.092 h -0.008 l -0.656,1.755 h -0.301 l -0.652,-1.755 h -0.008 v 1.755 h -0.438 v -2.218 h 0.643 l 0.604,1.569 0.604,-1.569 h 0.637 v 2.218 H 143.2 v -1.755 z m -61.944,20.733 c -2.047,1.774 -4.211,2.772 -6.154,2.772 -2.768,0 -4.27,-1.663 -4.27,-4.324 0,-2.881 1.608,-4.989 8.044,-4.989 h 2.379 v 6.541 z m 5.65,6.374 v -19.732 c 0,-5.043 -2.876,-8.371 -9.809,-8.371 -4.045,0 -7.591,0.999 -10.474,2.272 l 0.83,3.495 c 2.271,-0.834 5.207,-1.607 8.089,-1.607 3.994,0 5.713,1.607 5.713,4.934 v 2.495 h -1.996 c -9.702,0 -14.08,3.764 -14.08,9.423 0,4.876 2.885,7.648 8.316,7.648 3.491,0 6.099,-1.441 8.534,-3.55 l 0.443,2.993 z m 18.857,0 h -7.045 l -8.483,-27.601 h 6.154 l 5.265,16.961 1.172,5.096 c 2.656,-7.371 4.541,-14.854 5.484,-22.057 h 5.984 c -1.602,9.088 -4.488,19.066 -8.531,27.601 z m 27.037,-6.374 c -2.053,1.774 -4.217,2.772 -6.156,2.772 -2.768,0 -4.268,-1.663 -4.268,-4.324 0,-2.881 1.609,-4.989 8.041,-4.989 h 2.383 z m 5.652,6.374 v -19.732 c 0,-5.043 -2.885,-8.371 -9.811,-8.371 -4.049,0 -7.594,0.999 -10.477,2.272 l 0.83,3.495 c 2.271,-0.834 5.213,-1.607 8.096,-1.607 3.988,0 5.709,1.607 5.709,4.934 v 2.495 h -1.996 c -9.703,0 -14.078,3.764 -14.078,9.423 0,4.876 2.879,7.648 8.311,7.648 3.494,0 6.098,-1.441 8.539,-3.55 l 0.445,2.993 z m -79.468,4.69 c -1.61,2.353 -4.214,4.216 -7.061,5.267 l -2.79,-3.286 c 2.169,-1.113 4.027,-2.91 4.892,-4.582 0.745,-1.49 1.056,-3.406 1.056,-7.992 v -31.515 h 6.005 v 31.08 c 0,6.134 -0.49,8.613 -2.102,11.028 z"
         fill="#ca3132"
         id="path7" /></g></g></svg>
