<?xml version="1.0" encoding="UTF-8" standalone="no"?>
<!-- Created with Inkscape (http://www.inkscape.org/) -->

<svg
   width="210mm"
   height="297mm"
   viewBox="0 0 210 297"
   version="1.1"
   id="svg1"
   xml:space="preserve"
   inkscape:version="1.3 (0e150ed6c4, 2023-07-21)"
   sodipodi:docname="logoMockito.svg"
   xmlns:inkscape="http://www.inkscape.org/namespaces/inkscape"
   xmlns:sodipodi="http://sodipodi.sourceforge.net/DTD/sodipodi-0.dtd"
   xmlns="http://www.w3.org/2000/svg"
   xmlns:svg="http://www.w3.org/2000/svg"><sodipodi:namedview
     id="namedview1"
     pagecolor="#ffffff"
     bordercolor="#000000"
     borderopacity="0.25"
     inkscape:showpageshadow="2"
     inkscape:pageopacity="0.0"
     inkscape:pagecheckerboard="0"
     inkscape:deskcolor="#d1d1d1"
     inkscape:document-units="mm"
     inkscape:zoom="0.57103676"
     inkscape:cx="396.64697"
     inkscape:cy="561.25984"
     inkscape:window-width="1600"
     inkscape:window-height="837"
     inkscape:window-x="1042"
     inkscape:window-y="547"
     inkscape:window-maximized="1"
     inkscape:current-layer="layer1" /><defs
     id="defs1" /><g
     inkscape:label="Capa 1"
     inkscape:groupmode="layer"
     id="layer1"><g
       id="g1"
       transform="matrix(1.733656,0,0,2.1838767,-74.761679,-169.84721)"><path
         style="fill:#d0d7d4"
         d="m 99.301733,167.24132 c 0,-0.55783 -0.08923,-1.47064 -0.198294,-2.02847 -0.121031,-0.61905 0.0016,-1.28396 0.314603,-1.70648 0.825688,-1.1144 1.647578,-0.14598 1.647578,1.94131 0,2.14578 -0.25845,2.80788 -1.096075,2.80788 -0.500376,0 -0.667812,-0.2543 -0.667812,-1.01424 z m 6.567007,0.57327 c 2.35746,-4.01935 4.04202,-5.43888 4.28678,-3.61237 0.14065,1.04954 -2.57916,4.05334 -3.67011,4.05334 -0.60301,0 -0.79485,-0.13719 -0.61667,-0.44097 z m 14.59966,-0.63488 c 0,-2.34236 2.05981,-4.3924 4.16856,-4.1488 0.74079,0.0856 0.94672,0.29806 0.94672,0.97685 0,0.69508 -0.22744,0.914 -1.14436,1.10153 -1.50643,0.3081 -2.07711,0.82097 -2.33209,2.09585 -0.15008,0.75039 -0.41412,1.05042 -0.92446,1.05042 -0.56115,0 -0.71437,-0.23076 -0.71437,-1.07585 z m -7.05015,-1.28087 c 0.007,-2.4963 0.37881,-3.28803 1.21835,-2.59127 0.42963,0.35656 0.54607,0.96547 0.46786,2.44676 -0.0918,1.73899 -0.19793,1.98538 -0.89787,2.08479 -0.74563,0.1059 -0.79342,-0.0117 -0.78834,-1.94028 z m 35.36542,1.04524 c 0.53624,-0.0811 1.32999,-0.0789 1.76389,0.005 0.43389,0.0837 -0.005,0.15008 -0.97499,0.14743 -0.97014,-0.003 -1.32515,-0.0712 -0.7889,-0.15224 z M 48.060575,165.69792 c -0.158948,-1.08178 0.303787,-2.73403 0.765703,-2.73403 0.580865,0 1.093595,1.54407 0.8839,2.66184 -0.309573,1.65016 -1.410669,1.69835 -1.649603,0.0722 z m 8.722247,0.0463 c -0.228371,-1.03976 0.33138,-2.78038 0.89412,-2.78038 0.441451,0 0.88891,1.58236 0.77313,2.73403 -0.158258,1.57419 -1.324559,1.60661 -1.66725,0.0463 z m 8.88743,0.86499 c -0.453028,-0.45303 -0.229854,-2.64276 0.325996,-3.19861 0.762576,-0.76258 1.190077,-0.0719 1.197306,1.93449 0.0044,1.22065 -0.114802,1.49931 -0.641358,1.49931 -0.355717,0 -0.752592,-0.10584 -0.881944,-0.23519 z m 5.364171,-0.38612 c 0.497759,-0.93007 1.455941,-1.68305 3.198156,-2.51324 1.883809,-0.89766 2.377018,-0.9187 3.936482,-0.16799 1.262922,0.60797 3.493783,2.53564 3.493783,3.01896 0,0.55668 -1.84486,0.27109 -2.725959,-0.42198 -1.198627,-0.94284 -3.760743,-0.9422 -5.308261,0.001 -0.63528,0.38733 -1.553678,0.70424 -2.040885,0.70424 -0.736473,0 -0.829766,-0.10476 -0.553316,-0.62131 z m 15.214532,0.33773 c 0,-0.9436 3.952124,-3.59698 5.357595,-3.59698 0.853189,0 3.892746,1.53704 4.509752,2.28049 0.800679,0.96476 -0.08743,1.50989 -1.493801,0.91691 -2.041513,-0.86077 -4.334622,-0.88338 -5.673462,-0.0559 -1.193966,0.73791 -2.700084,0.992 -2.700084,0.45551 z m 42.333335,-0.0421 c 0,-1.12061 3.73637,-3.56458 5.42294,-3.54717 1.72096,0.0178 5.51317,2.47443 5.51317,3.57154 0,0.54794 -1.21025,0.31073 -2.97021,-0.58215 -2.17018,-1.10101 -2.86031,-1.10081 -4.93342,0.001 -1.68831,0.89769 -3.03248,1.14427 -3.03248,0.55631 z m 23.28333,-0.0797 c -0.48507,-0.19835 -1.72641,-0.26498 -2.75853,-0.14806 -1.14311,0.12948 -1.79607,0.0823 -1.67057,-0.12078 0.11331,-0.18334 -0.15348,-0.45252 -0.59286,-0.59818 -0.74835,-0.24809 -0.72839,-0.27993 0.31574,-0.50348 0.61303,-0.13125 1.88303,-0.11867 2.82222,0.028 1.34997,0.21077 1.85538,0.14465 2.41317,-0.31567 0.38805,-0.32025 1.06059,-0.78071 1.49452,-1.02325 0.94867,-0.53024 1.95456,-0.60729 1.15131,-0.0882 -0.85498,0.55253 -0.17933,0.40457 1.56299,-0.34228 1.06314,-0.45571 1.74133,-1.01026 1.96953,-1.61046 0.49275,-1.29605 0.47496,-1.30973 -0.79849,-0.61396 -0.95581,0.52222 -1.99743,0.62253 -6.26181,0.60305 -4.57537,-0.0209 -5.39292,-0.12073 -7.74579,-0.94591 -1.44679,-0.50741 -2.73207,-0.85979 -2.85619,-0.78309 -0.12412,0.0767 -0.42084,-1.00575 -0.65939,-2.40547 -0.23854,-1.39972 -0.51336,-2.86244 -0.6107,-3.2505 -0.11344,-0.45221 0.0654,-0.32554 0.49814,0.35278 0.80113,1.25586 3.29452,3.35102 5.02393,4.22154 0.6791,0.34183 1.6394,0.99941 2.13399,1.46128 l 0.89927,0.83978 1.35813,-0.69242 1.35814,-0.69241 -1.01112,-0.38443 c -1.9222,-0.73082 -2.00128,-0.97005 -0.94336,-2.85367 0.98453,-1.75297 1.28467,-1.99884 1.67301,-1.3705 0.2532,0.40968 1.5875,0.48167 1.5875,0.0857 0,-0.14692 0.71437,-0.21031 1.5875,-0.14087 0.87312,0.0694 1.5875,0.2784 1.5875,0.46434 0,0.18594 0.17459,0.23017 0.38797,0.0983 0.27191,-0.16805 0.2686,-0.0423 -0.0111,0.42016 -1.52313,2.51885 -1.74345,2.95298 -1.49861,2.95298 0.15128,0 0.42922,-0.11906 0.61765,-0.26458 0.18844,-0.14552 0.0438,0.0132 -0.3213,0.35278 -0.64053,0.59562 -0.61357,0.61736 0.76547,0.61736 0.78615,0 1.52748,-0.15875 1.6474,-0.35278 0.11991,-0.19403 0.59229,-0.35278 1.04973,-0.35278 0.48812,0 1.14526,-0.40077 1.59072,-0.97013 l 0.75902,-0.97014 -0.22817,1.05833 c -0.12549,0.58208 -0.70569,2.20674 -1.28934,3.61034 -1.1844,2.84837 -2.74271,4.4934 -3.90658,4.124 -0.51979,-0.16497 -0.6351,-0.10471 -0.43113,0.22532 0.20059,0.32456 0.10624,0.38444 -0.33745,0.21418 -0.33874,-0.12999 -0.80135,-0.24139 -1.02801,-0.24756 -0.22667,-0.006 -0.10397,-0.24429 0.27266,-0.52917 0.67644,-0.51163 0.67628,-0.51794 -0.0131,-0.51794 -0.87344,0 -1.05036,1.30259 -0.20716,1.52524 0.43514,0.1149 0.45242,0.16176 0.0647,0.17536 -0.29104,0.0102 -0.92604,-0.14372 -1.41111,-0.34207 z m -5.55625,-6.53106 c -0.24253,-0.0979 -0.63941,-0.0979 -0.88194,0 -0.24254,0.0979 -0.0441,0.17794 0.44097,0.17794 0.48507,0 0.68351,-0.0801 0.44097,-0.17794 z m 3.91994,-1.70664 c -0.22545,-0.58749 -1.03291,-0.70935 -1.3458,-0.20309 -0.17239,0.27894 0.29894,0.53049 1.29535,0.69133 0.13943,0.0225 0.16213,-0.1972 0.0505,-0.48824 z m -7.54299,-0.3613 c -0.24543,-0.29573 -0.51889,-0.46505 -0.60768,-0.37625 -0.24465,0.24465 0.25242,0.91394 0.67877,0.91394 0.23393,0 0.20717,-0.20242 -0.0711,-0.53769 z m 0.89152,7.95006 c -0.12359,-0.19997 0.018,-0.25911 0.33196,-0.13864 0.61116,0.23452 0.72298,0.48738 0.21553,0.48738 -0.18258,0 -0.42895,-0.15693 -0.54749,-0.34874 z m -1.44713,-1.15057 -0.67203,-0.79375 0.79375,0.67204 c 0.74593,0.63155 0.95435,0.91546 0.67203,0.91546 -0.0669,0 -0.42413,-0.35718 -0.79375,-0.79375 z m 0.97821,-0.0895 c -1.97091,-1.65841 -2.49422,-3.49832 -0.56291,-1.97916 0.52145,0.41018 1.14783,0.74578 1.39194,0.74578 0.58135,0 0.83364,0.71603 0.54122,1.53602 -0.21609,0.60593 -0.31694,0.58366 -1.37025,-0.30264 z m 2.58309,-1.23338 c -0.57517,-0.24716 -0.59532,-0.30777 -0.10901,-0.32798 0.32809,-0.0136 0.69465,0.13395 0.81457,0.32798 0.2507,0.40565 0.23844,0.40565 -0.70556,0 z M 49.759137,162.5077 c 0.132479,-0.34791 0.329738,-0.5437 0.438354,-0.43509 0.108616,0.10862 2.24e-4,0.39328 -0.240871,0.63258 -0.348409,0.34581 -0.38893,0.30529 -0.197483,-0.19749 z m 6.665591,0.0799 c -0.127894,-0.20693 -0.156875,-0.45191 -0.0644,-0.54438 0.09247,-0.0925 0.262138,0.0768 0.377032,0.37625 0.238543,0.62163 0.03523,0.73098 -0.31263,0.16813 z m 64.704232,-0.59389 c -0.43881,-0.55952 -0.42634,-0.572 0.13319,-0.13319 0.33955,0.26629 0.61736,0.5441 0.61736,0.61736 0,0.29035 -0.2897,0.10347 -0.75055,-0.48417 z m -73.539127,-6.08542 c 0,-3.58951 0.05239,-5.05795 0.116411,-3.26319 0.06403,1.79476 0.06403,4.73163 0,6.52639 -0.06403,1.79476 -0.116411,0.32632 -0.116411,-3.2632 z m 11.278402,2.11667 c 0,-2.42535 0.05636,-3.41753 0.12525,-2.20486 0.06889,1.21267 0.06889,3.19705 0,4.40972 -0.06889,1.21268 -0.12525,0.22049 -0.12525,-2.20486 z m 39.882359,-5.11528 c -1.89e-4,-5.23875 0.04891,-7.43105 0.109101,-4.87178 0.06019,2.55926 0.06035,6.84551 3.44e-4,9.525 -0.06001,2.67948 -0.109256,0.58553 -0.109445,-4.65322 z m -31.07364,5.99723 c -0.0011,-1.74625 0.05858,-2.50511 0.132565,-1.68634 0.07399,0.81876 0.07487,2.24751 0.002,3.175 -0.07291,0.92748 -0.133445,0.25759 -0.13452,-1.48866 z m 13.280335,2.11666 c 0.455699,-0.48507 0.907919,-0.88194 1.004933,-0.88194 0.09701,0 -0.196456,0.39687 -0.652155,0.88194 -0.455699,0.48507 -0.907919,0.88195 -1.004933,0.88195 -0.09701,0 0.196456,-0.39688 0.652155,-0.88195 z m 31.896431,-5.46805 c 0,-3.58952 0.0524,-5.05796 0.11641,-3.2632 0.064,1.79476 0.064,4.73163 0,6.52639 -0.064,1.79476 -0.11641,0.32632 -0.11641,-3.26319 z m -26.461894,5.20347 -0.672037,-0.79375 0.79375,0.67204 c 0.745929,0.63155 0.954349,0.91546 0.672037,0.91546 -0.06694,0 -0.424129,-0.35719 -0.79375,-0.79375 z m 37.516154,-0.49822 c 0.24254,-0.0979 0.63941,-0.0979 0.88195,0 0.24253,0.0979 0.0441,0.17793 -0.44097,0.17793 -0.48507,0 -0.68351,-0.0801 -0.44098,-0.17793 z m -4.01046,-4.88164 c 7e-4,-2.32834 0.0578,-3.23493 0.12688,-2.01465 0.0691,1.22028 0.0685,3.12528 -0.001,4.23333 -0.0698,1.10806 -0.12631,0.10965 -0.12561,-2.21868 z m -24.542488,3.46318 c 0.254661,-0.10191 0.558932,-0.0894 0.676157,0.0279 0.117225,0.11722 -0.09113,0.2006 -0.463021,0.18528 -0.410966,-0.0169 -0.494559,-0.10052 -0.213136,-0.21313 z m 61.081248,-1.75977 c 0.8539,-1.08556 0.92188,-2.0821 0.19184,-2.81214 -0.80618,-0.80618 -0.65867,-1.0897 0.97014,-1.86459 2.66493,-1.26781 3.56986,-1.99854 3.20536,-2.58832 -0.10322,-0.16701 0.029,-0.57147 0.29371,-0.89879 0.60625,-0.74949 0.61588,-2.00624 0.0154,-2.00624 -0.24936,0 -0.60391,-0.23813 -0.78789,-0.52917 -0.27035,-0.42768 -0.33554,-0.38093 -0.33991,0.24377 -0.003,0.42511 0.15335,0.87104 0.34738,0.99096 0.51594,0.31886 0.43071,0.87418 -0.1695,1.1045 -0.67923,0.26065 -4.0604,-2.21752 -4.07492,-2.98663 -0.006,-0.32303 -0.42625,-0.8901 -0.93368,-1.26017 l -0.92259,-0.67286 0.18276,0.84925 c 0.10051,0.46708 0.30022,1.12885 0.44379,1.4706 0.20028,0.47675 0.12963,0.57094 -0.30359,0.4047 -0.7081,-0.27172 -1.4053,-2.76993 -1.14136,-4.08967 0.16421,-0.82102 0.0778,-0.99334 -0.49806,-0.99334 -0.38321,0 -0.69674,-0.15875 -0.69674,-0.35277 0,-0.19403 0.13449,-0.35278 0.29887,-0.35278 0.16438,0 0.47766,-0.35719 0.69618,-0.79375 0.37433,-0.74784 0.38538,-0.73741 0.19105,0.18037 -0.16167,0.76354 -0.0937,0.93094 0.31437,0.77435 0.28635,-0.10988 0.70682,-0.60844 0.9344,-1.10791 0.22757,-0.49947 0.4982,-0.8237 0.60139,-0.7205 0.10319,0.10319 -0.0178,0.51662 -0.26896,0.91872 -0.37381,0.59858 -0.37347,0.81264 0.002,1.18089 0.37293,0.36585 0.60413,0.26876 1.23914,-0.52037 0.92277,-1.14672 1.28792,-1.24026 1.03278,-0.26458 -0.16437,0.62853 -0.0108,0.70556 1.40639,0.70556 1.0887,0 1.655,-0.16705 1.79396,-0.52917 0.21959,-0.57224 1.28354,-0.73934 1.28354,-0.20159 0,0.18017 0.25019,0.57778 0.55599,0.88357 0.45703,0.45703 0.48633,0.76705 0.16465,1.74176 -0.21524,0.65217 -0.2904,1.81698 -0.16704,2.58847 0.12878,0.80535 -0.0461,3.04147 -0.41067,5.25081 l -0.63498,3.84809 -0.5074,-1.32292 c -0.56491,-1.47285 -1.09016,-1.60639 -2.71703,-0.69076 -1.21021,0.68112 -1.24644,0.87782 -0.43963,2.38732 0.6512,1.21838 0.45369,1.74535 -0.92156,2.45884 l -0.95046,0.49311 z m 2.67579,-11.0755 c 0.36197,-0.58568 0.0371,-0.6669 -0.46939,-0.11733 -0.25018,0.27147 -0.29924,0.49358 -0.10901,0.49358 0.19023,0 0.45051,-0.16931 0.5784,-0.37625 z m -3.36589,-3.5043 c 0,-0.19403 -0.15875,-0.35278 -0.35278,-0.35278 -0.19403,0 -0.35278,0.15875 -0.35278,0.35278 0,0.19402 0.15875,0.35278 0.35278,0.35278 0.19403,0 0.35278,-0.15876 0.35278,-0.35278 z m 5.46805,-0.70556 c -0.98911,-0.42503 -3.35139,-0.42503 -3.35139,0 0,0.19716 0.89482,0.34184 2.02848,0.32798 1.45943,-0.0178 1.83054,-0.10984 1.32291,-0.32798 z m -78.112424,14.96366 c 0.01693,-0.41097 0.100521,-0.49456 0.213137,-0.21314 0.101907,0.25467 0.08937,0.55894 -0.02785,0.67616 -0.117225,0.11723 -0.200604,-0.0911 -0.185287,-0.46302 z m -11.227775,-1.02893 c 0.0039,-0.77612 0.07616,-1.05208 0.160542,-0.61325 0.08438,0.43882 0.08118,1.07382 -0.0071,1.41111 -0.0883,0.33728 -0.157337,-0.0217 -0.153422,-0.79786 z m 55.026209,-0.17639 c 0,-0.6791 0.0726,-0.95691 0.16134,-0.61736 0.0887,0.33954 0.0887,0.89517 0,1.23472 -0.0887,0.33955 -0.16134,0.0617 -0.16134,-0.61736 z m 18.96816,-1.05834 c 0,-0.70555 0.17639,-1.05833 0.52917,-1.05833 0.58357,0 0.61965,0.15556 0.30681,1.32292 -0.30658,1.14401 -0.83598,0.97646 -0.83598,-0.26459 z m -1.17593,-0.23518 c -0.12935,-0.12935 -0.23518,-0.39923 -0.23518,-0.59972 0,-0.22106 0.16431,-0.20023 0.41745,0.0529 0.2296,0.2296 0.33543,0.49948 0.23519,0.59972 -0.10025,0.10025 -0.2881,0.0764 -0.41746,-0.0529 z m -3.76296,-1.17593 c 0,-0.19403 0.16812,-0.35278 0.3736,-0.35278 0.20548,0 0.27548,0.15875 0.15557,0.35278 -0.11992,0.19403 -0.28804,0.35278 -0.3736,0.35278 -0.0856,0 -0.15557,-0.15875 -0.15557,-0.35278 z M 50.6184,152.60014 c 0,-0.0733 0.277813,-0.35107 0.617361,-0.61736 0.559526,-0.43881 0.572003,-0.42633 0.133194,0.13319 -0.460859,0.58764 -0.750555,0.77452 -0.750555,0.48417 z m 4.541113,-0.48417 c -0.43881,-0.55952 -0.426332,-0.572 0.133193,-0.13319 0.339548,0.26629 0.617361,0.5441 0.617361,0.61736 0,0.29035 -0.289696,0.10347 -0.750554,-0.48417 z m 8.819444,0 c -0.43881,-0.55952 -0.426332,-0.572 0.133193,-0.13319 0.339549,0.26629 0.617361,0.5441 0.617361,0.61736 0,0.29035 -0.289696,0.10347 -0.750554,-0.48417 z m 66.719993,0.48417 c 0,-0.0733 0.27782,-0.35107 0.61737,-0.61736 0.55952,-0.43881 0.572,-0.42633 0.13319,0.13319 -0.46086,0.58764 -0.75056,0.77452 -0.75056,0.48417 z m -54.938419,-1.52239 c 0.343241,-0.0894 0.819491,-0.0836 1.058333,0.0131 0.238842,0.0966 -0.04199,0.16982 -0.624075,0.16263 -0.582083,-0.007 -0.7775,-0.0862 -0.434258,-0.1757 z m 41.840649,-0.37289 c -0.43881,-0.55952 -0.42633,-0.572 0.13319,-0.13319 0.33955,0.26629 0.61736,0.5441 0.61736,0.61736 0,0.29035 -0.28969,0.10347 -0.75055,-0.48417 z m 16.01491,0.37289 c 0.34324,-0.0894 0.81949,-0.0836 1.05833,0.0131 0.23884,0.0966 -0.042,0.16982 -0.62408,0.16263 -0.58208,-0.007 -0.7775,-0.0862 -0.43425,-0.1757 z m -52.7038,-0.72567 c -0.43881,-0.55952 -0.426332,-0.572 0.133193,-0.13319 0.339549,0.26629 0.617361,0.54411 0.617361,0.61736 0,0.29035 -0.289696,0.10347 -0.750554,-0.48417 z m 48.19916,-0.0882 c 0.35119,-0.38806 0.7179,-0.70556 0.81491,-0.70556 0.097,0 -0.11094,0.3175 -0.46213,0.70556 -0.35118,0.38805 -0.71789,0.70555 -0.81491,0.70555 -0.097,0 0.11095,-0.3175 0.46213,-0.70555 z m 11.1125,-0.0111 c 0,-0.18794 0.23813,-0.34171 0.52917,-0.34171 0.29104,0 0.52917,0.0624 0.52917,0.13865 0,0.0763 -0.23813,0.23002 -0.52917,0.3417 -0.29104,0.11169 -0.52917,0.0493 -0.52917,-0.13864 z m -1.94027,-0.69449 c 0.11991,-0.19402 0.28803,-0.35277 0.37359,-0.35277 0.0856,0 0.15557,0.15875 0.15557,0.35277 0,0.19403 -0.16812,0.35278 -0.37359,0.35278 -0.20548,0 -0.27549,-0.15875 -0.15557,-0.35278 z M 49.738953,149.2096 c -0.123591,-0.19998 0.01801,-0.25912 0.331958,-0.13865 0.611158,0.23452 0.722978,0.48738 0.215531,0.48738 -0.182576,0 -0.428947,-0.15693 -0.547489,-0.34873 z m 70.136807,-2.82627 c 0,-1.26118 0.064,-1.77712 0.14228,-1.14652 0.0783,0.63059 0.0783,1.66246 0,2.29305 -0.0782,0.63059 -0.14228,0.11465 -0.14228,-1.14653 z m 26.07925,-0.29925 c -0.26943,-0.16651 -0.33496,-0.92416 -0.19622,-2.26844 l 0.20832,-2.01842 1.97912,0.0529 c 1.08851,0.0291 1.53007,0.12019 0.98125,0.2025 -0.71367,0.10702 -0.93973,0.30112 -0.79375,0.68155 0.11226,0.29255 0.20411,0.67767 0.20411,0.85583 0,0.51065 0.99409,0.37916 2.04089,-0.26995 1.2066,-0.74821 0.67767,-0.2071 -1.15894,1.18562 -1.92022,1.45612 -2.78568,1.87455 -3.26478,1.57845 z m -5.97861,-2.33269 c -0.0329,-1.1613 0.71602,-2.30885 1.19455,-1.83033 0.28194,0.28195 -0.52694,3.05116 -0.89124,3.05116 -0.14778,0 -0.28427,-0.54937 -0.30331,-1.22083 z m -0.77021,-0.98403 c -0.0315,-1.29986 0.0828,-1.67569 0.50942,-1.67569 0.34196,0 0.4497,0.16225 0.28485,0.42899 -0.14582,0.23594 -0.37506,0.99 -0.50941,1.67569 -0.23655,1.20719 -0.24558,1.1936 -0.28486,-0.42899 z m 12.13026,-0.26458 c -0.11991,-0.19403 0.0388,-0.35278 0.35278,-0.35278 0.31395,0 0.4727,0.15875 0.35278,0.35278 -0.11992,0.19402 -0.27867,0.35278 -0.35278,0.35278 -0.0741,0 -0.23286,-0.15876 -0.35278,-0.35278 z m -4.71632,-1.43907 c -1.23578,-0.16019 -2.34703,-0.39967 -2.46944,-0.53218 -0.22239,-0.24072 2.67926,-0.0194 5.51007,0.42019 1.31414,0.20409 1.49997,0.15086 1.50471,-0.43097 0.004,-0.54739 0.0631,-0.57264 0.33415,-0.14395 0.67289,1.06403 -0.59425,1.24241 -4.87949,0.68691 z m -6.55493,-1.58962 c -0.57642,-3.0726 0.99269,-7.90742 2.56631,-7.90742 0.42457,0 0.37683,0.15919 -0.21233,0.70808 -0.4584,0.42706 -0.6816,0.95208 -0.56241,1.32291 0.16723,0.52025 0.13878,0.53343 -0.18494,0.0857 -0.31393,-0.43423 -0.38229,-0.37094 -0.38101,0.35278 8.5e-4,0.48507 -0.12814,1.79476 -0.28666,2.91042 -0.15852,1.11566 -0.20048,2.03418 -0.0932,2.04116 0.10724,0.007 0.67123,0.40306 1.25331,0.88019 l 1.05834,0.8675 -1.46005,0.002 c -1.39638,0.002 -1.47039,-0.0534 -1.69732,-1.26305 z m -1.57728,-0.70488 c 0.0169,-0.41096 0.10052,-0.49456 0.21313,-0.21313 0.10191,0.25466 0.0894,0.55893 -0.0279,0.67615 -0.11722,0.11723 -0.2006,-0.0911 -0.18528,-0.46302 z m 22.81499,0.11759 c -0.0898,-0.24253 -0.11285,-1.31409 -0.0513,-2.38125 0.13089,-2.2697 -0.0783,-3.175 -0.73367,-3.175 -0.28897,0 -0.40489,-0.25801 -0.29858,-0.66457 0.11773,-0.45017 0.3916,-0.60761 0.84892,-0.48802 0.60754,0.15888 0.67513,0.52562 0.67513,3.66318 0,3.35902 -0.0912,3.98951 -0.44049,3.04566 z m -0.0887,-7.23734 c -0.586,-0.43053 -0.54317,-1.06027 0.0886,-1.3027 0.3275,-0.12567 0.48088,-0.11393 0.34085,0.0261 -0.14003,0.14003 0.008,0.5453 0.33001,0.90059 0.46309,0.5117 0.48158,0.64487 0.089,0.64059 -0.27261,-0.003 -0.6544,-0.12203 -0.84843,-0.26458 z M 158.5684,130.293 c -0.48507,-0.27441 -1.15976,-0.43246 -1.49931,-0.35121 -0.33955,0.0812 -0.61736,0.004 -0.61736,-0.17204 0,-0.17586 0.43656,-0.30393 0.97014,-0.28459 1.07254,0.0389 3.00588,0.57936 2.27224,0.63523 -0.25399,0.0193 -0.36368,0.19391 -0.24377,0.38794 0.26198,0.42388 0.23735,0.41787 -0.88194,-0.21533 z m -21.69583,-0.843 c 0.35118,-0.38806 0.71789,-0.70556 0.8149,-0.70556 0.097,0 -0.11094,0.3175 -0.46213,0.70556 -0.35118,0.38805 -0.71789,0.70555 -0.8149,0.70555 -0.097,0 0.11094,-0.3175 0.46213,-0.70555 z m 16.58055,-0.35278 c -0.12366,-0.20008 0.17273,-0.35278 0.68474,-0.35278 0.49652,0 0.90276,0.15875 0.90276,0.35278 0,0.19403 -0.30813,0.35278 -0.68473,0.35278 -0.37661,0 -0.78285,-0.15875 -0.90277,-0.35278 z m -8.90092,-0.24447 c 0.34324,-0.0894 0.81949,-0.0836 1.05833,0.0131 0.23884,0.0966 -0.042,0.16982 -0.62408,0.16263 -0.58208,-0.007 -0.77749,-0.0863 -0.43425,-0.1757 z m 3.10949,0.11225 c 0.41092,-0.36963 4.20393,-0.59153 4.20393,-0.24594 0,0.22815 -0.86298,0.37816 -2.17546,0.37816 -1.19651,0 -2.10932,-0.0595 -2.02847,-0.13222 z m -0.91135,-1.27889 c 0.35119,-0.38806 0.7179,-0.70556 0.81491,-0.70556 0.097,0 -0.11094,0.3175 -0.46213,0.70556 -0.35118,0.38805 -0.71789,0.70555 -0.81491,0.70555 -0.097,0 0.11095,-0.3175 0.46213,-0.70555 z m -7.84259,-2.00836 c 0.34324,-0.0894 0.81949,-0.0836 1.05834,0.0131 0.23884,0.0966 -0.042,0.16982 -0.62408,0.16263 -0.58208,-0.007 -0.7775,-0.0863 -0.43426,-0.1757 z m 9.45794,-1.37243 c 0.0169,-0.41096 0.10053,-0.49456 0.21314,-0.21313 0.10191,0.25466 0.0894,0.55893 -0.0279,0.67615 -0.11722,0.11723 -0.2006,-0.0911 -0.18529,-0.46302 z m 8.69752,-0.19076 c 0.2393,-0.2411 0.52396,-0.34949 0.63258,-0.24088 0.10862,0.10862 -0.0872,0.30588 -0.43509,0.43836 -0.50278,0.19145 -0.5433,0.15092 -0.19749,-0.19748 z"
         id="path7" /><path
         style="fill:#b1c89f"
         d="m 152.2184,166.49167 c 0.29104,-0.18809 0.68792,-0.34198 0.88194,-0.34198 0.19403,0 0.11466,0.15389 -0.17639,0.34198 -0.29104,0.18808 -0.68791,0.34197 -0.88194,0.34197 -0.19403,0 -0.11465,-0.15389 0.17639,-0.34197 z m -9.92278,-2.38125 c -0.43881,-0.55953 -0.42633,-0.572 0.1332,-0.13319 0.58763,0.46085 0.77451,0.75055 0.48416,0.75055 -0.0733,0 -0.35106,-0.27781 -0.61736,-0.61736 z m -77.078653,-5.90903 c 6.97e-4,-2.32833 0.05779,-3.23493 0.126876,-2.01465 0.06908,1.22028 0.06851,3.12528 -0.0013,4.23334 -0.06978,1.10805 -0.126306,0.10964 -0.125608,-2.21869 z m 35.901513,1.34374 c -0.0291,-1.58928 0.0662,-2.96364 0.21173,-3.05413 0.14552,-0.0905 0.22016,0.81296 0.16587,2.00766 -0.16596,3.65217 -0.32202,4.08467 -0.3776,1.04647 z m -51.070957,-1.69652 c 6.97e-4,-2.32833 0.05779,-3.23492 0.126876,-2.01465 0.06909,1.22028 0.06851,3.12528 -0.0013,4.23334 -0.06978,1.10805 -0.126306,0.10965 -0.125608,-2.21869 z m 6.348731,0.17639 c 0,-2.23132 0.05728,-3.14413 0.127289,-2.02847 0.07001,1.11566 0.07001,2.94128 0,4.05694 -0.07001,1.11566 -0.127289,0.20285 -0.127289,-2.02847 z m 15.009335,2.91042 -0.855244,-0.97014 0.970138,0.85524 c 0.906741,0.79936 1.131919,1.08504 0.855245,1.08504 -0.06319,0 -0.499755,-0.43657 -0.970139,-0.97014 z m 78.519751,-1.14653 c -0.11991,-0.19403 -0.0593,-0.35278 0.13475,-0.35278 0.19403,0 0.45089,0.15875 0.57081,0.35278 0.11991,0.19403 0.0593,0.35278 -0.13475,0.35278 -0.19403,0 -0.45089,-0.15875 -0.57081,-0.35278 z M 78.840622,159.6557 c 0,-0.0733 0.277813,-0.35107 0.617361,-0.61736 0.559525,-0.43881 0.572003,-0.42634 0.133193,0.13319 -0.460858,0.58764 -0.750554,0.77452 -0.750554,0.48417 z m 69.452228,-0.83695 c -0.44786,-0.57106 -0.43126,-0.57855 0.22138,-0.0998 0.38806,0.28464 0.7717,0.56245 0.85255,0.61736 0.0808,0.0549 -0.0188,0.0998 -0.22139,0.0998 -0.20261,0 -0.58625,-0.27781 -0.85254,-0.61736 z m -3.48278,-0.0882 c -0.31796,-0.20548 -0.36147,-0.34413 -0.10902,-0.34738 0.23109,-0.003 0.51827,0.15335 0.63818,0.34738 0.27069,0.43798 0.14857,0.43798 -0.52916,0 z m 9.6102,-0.44098 c 0.24418,-0.43656 0.64623,-1.0486 0.89344,-1.36009 0.76178,-0.95985 0.17014,-1.64847 -1.53268,-1.7839 -0.85945,-0.0684 -1.56263,-0.004 -1.56263,0.14284 0,0.49148 -1.31894,0.27409 -1.79146,-0.29527 -0.42182,-0.50826 -0.1864,-0.55177 2.44594,-0.45202 2.25705,0.0855 2.99287,-0.006 3.26888,-0.40775 0.26091,-0.37952 0.288,-0.2822 0.10124,0.36383 -0.14022,0.48507 -0.25108,1.12007 -0.24635,1.41111 0.005,0.29105 -0.18967,0.7673 -0.43199,1.05834 -0.24232,0.29104 -0.54943,0.88635 -0.68247,1.32291 -0.13304,0.43657 -0.39129,0.79375 -0.57389,0.79375 -0.18259,0 -0.13221,-0.35718 0.11197,-0.79375 z m -11.23122,-0.70555 -0.67204,-0.79375 0.79375,0.67204 c 0.43656,0.36962 0.79375,0.7268 0.79375,0.79375 0,0.28231 -0.28391,0.0739 -0.91546,-0.67204 z m -56.152694,-1.6757 c 0,-0.67909 0.0726,-0.95691 0.161334,-0.61736 0.08873,0.33955 0.08873,0.89518 0,1.23473 -0.08873,0.33954 -0.161334,0.0617 -0.161334,-0.61737 z m 54.047354,-0.0882 -1.03614,-1.14653 1.14652,1.03614 c 1.06873,0.96583 1.30869,1.25692 1.03614,1.25692 -0.0607,0 -0.57665,-0.51594 -1.14652,-1.14653 z m -60.410425,-0.0882 c 0.0072,-0.58209 0.08625,-0.7775 0.175698,-0.43426 0.08944,0.34324 0.08356,0.81949 -0.01307,1.05833 -0.09663,0.23884 -0.169816,-0.042 -0.162626,-0.62407 z m 2.428521,-0.0294 c 0.01693,-0.41097 0.100521,-0.49456 0.213137,-0.21314 0.101907,0.25466 0.08937,0.55893 -0.02785,0.67616 -0.117225,0.11722 -0.200604,-0.0911 -0.185287,-0.46302 z m 1.438962,-0.14699 c 0,-0.48507 0.08007,-0.68351 0.177937,-0.44098 0.09786,0.24254 0.09786,0.63941 0,0.88195 -0.09786,0.24253 -0.177937,0.0441 -0.177937,-0.44097 z m 61.640962,0.0318 c 0.26934,-0.17057 0.50747,-0.80278 0.52917,-1.4049 0.0217,-0.60213 0.15851,-1.09514 0.30403,-1.09558 0.14552,-4.5e-4 0.26458,0.15296 0.26458,0.3409 0,0.18794 0.27781,0.25234 0.61736,0.14311 0.3593,-0.11558 0.46966,-0.0741 0.26402,0.0993 -0.19433,0.16383 -0.57835,0.73443 -0.85336,1.26801 -0.27501,0.53357 -0.75101,0.9677 -1.05777,0.96473 -0.45717,-0.004 -0.46944,-0.0613 -0.068,-0.31553 z m -1.29317,-0.93379 c -0.43123,-0.30205 -0.78405,-0.72926 -0.78405,-0.94937 0,-0.22011 0.25108,-0.0921 0.55797,0.28458 0.45372,0.55685 0.52298,0.5728 0.37074,0.0854 -0.1309,-0.41907 -0.0334,-0.54038 0.32398,-0.40323 0.28116,0.10789 0.5112,0.49668 0.5112,0.86398 0,0.80614 0.001,0.80597 -0.97984,0.11864 z m -5.22397,-1.42569 c -0.0166,-0.85498 0.0448,-1.4795 0.1365,-1.38782 0.274,0.274 0.38294,2.64016 0.12879,2.79714 -0.1293,0.0799 -0.24868,-0.55433 -0.26529,-1.40932 z M 101.20581,148.5 c 0,-2.8134 0.0548,-3.96434 0.12175,-2.55764 0.067,1.4067 0.067,3.70858 0,5.11528 -0.067,1.4067 -0.12175,0.25576 -0.12175,-2.55764 z m 39.37092,4.60693 c 0,-0.18258 0.15693,-0.42895 0.34874,-0.54749 0.19998,-0.12359 0.25912,0.018 0.13865,0.33196 -0.23453,0.61116 -0.48739,0.72298 -0.48739,0.21553 z m -52.034719,-1.07915 c 0.351185,-0.38806 0.717894,-0.70556 0.814908,-0.70556 0.09701,0 -0.110945,0.3175 -0.46213,0.70556 -0.351186,0.38805 -0.717894,0.70555 -0.814908,0.70555 -0.09701,0 0.110945,-0.3175 0.46213,-0.70555 z m 70.225339,-0.46075 c 0.19705,-0.51352 -0.0241,-0.59759 -1.57232,-0.59759 -1.54034,0 -1.80163,-0.0981 -1.80163,-0.67615 0,-0.37189 0.19844,-0.74703 0.44097,-0.83365 0.24254,-0.0866 0.34946,-0.2575 0.23762,-0.37974 -0.11185,-0.12224 -0.85824,0.0941 -1.65865,0.48087 -1.40211,0.67742 -2.55089,0.94148 -2.08976,0.48035 0.12252,-0.12253 0.0556,-0.53509 -0.14866,-0.9168 -0.34035,-0.63596 -0.28309,-0.67462 0.68439,-0.46213 1.20134,0.26386 1.72601,-0.22088 0.9427,-0.87097 -0.57071,-0.47365 -0.72737,-2.11344 -0.2019,-2.11344 0.17786,0 0.3763,0.14684 0.44097,0.32632 0.0647,0.17947 0.34379,0.37791 0.62024,0.44097 0.27646,0.0631 0.96883,0.632 1.53861,1.26432 0.56978,0.63232 1.41406,1.24457 1.87617,1.36055 0.46211,0.11599 0.7617,0.33789 0.66576,0.49313 -0.0959,0.15523 0.14958,0.19751 0.5456,0.0939 0.39602,-0.10356 0.63683,-0.2715 0.53514,-0.37319 -0.1017,-0.1017 0.0904,-0.38835 0.42698,-0.637 0.49022,-0.36222 0.5242,-0.541 0.1709,-0.89919 -0.24253,-0.2459 -0.43854,-0.77252 -0.43557,-1.17028 0.004,-0.59324 0.0655,-0.62811 0.33991,-0.19403 0.18398,0.29104 0.53853,0.52917 0.78789,0.52917 0.59153,0 0.59435,1.25172 0.004,1.98432 -0.25384,0.31526 -0.43612,0.71214 -0.40505,0.88194 0.12851,0.70225 -0.0521,1.19068 -0.44025,1.19068 -0.22726,0 -0.71034,0.26892 -1.07351,0.59759 -0.62055,0.56159 -0.64651,0.56159 -0.43101,0 z M 53.021699,151.08124 c 0.254661,-0.10191 0.558932,-0.0894 0.676157,0.0279 0.117225,0.11722 -0.09113,0.2006 -0.463021,0.18528 -0.410966,-0.0169 -0.494558,-0.10052 -0.213136,-0.21313 z m 8.444618,0.007 c 0.242535,-0.0979 0.63941,-0.0979 0.881944,0 0.242535,0.0979 0.0441,0.17794 -0.440972,0.17794 -0.485069,0 -0.683507,-0.0801 -0.440972,-0.17794 z m 61.383333,0 c 0.24253,-0.0979 0.63941,-0.0979 0.88194,0 0.24254,0.0979 0.0441,0.17794 -0.44097,0.17794 -0.48507,0 -0.68351,-0.0801 -0.44097,-0.17794 z m -66.091157,-0.91289 -0.672037,-0.79375 0.79375,0.67204 c 0.745929,0.63155 0.954349,0.91546 0.672037,0.91546 -0.06694,0 -0.424129,-0.35718 -0.79375,-0.79375 z m 14.321018,0.66056 c 0,-0.0733 0.277813,-0.35107 0.617361,-0.61736 0.559525,-0.43881 0.572003,-0.42633 0.133193,0.13319 -0.460858,0.58764 -0.750554,0.77452 -0.750554,0.48417 z m 69.849999,-0.60837 c 0.42507,-0.30362 0.37293,-0.34373 -0.26507,-0.20388 -0.43683,0.0958 -0.70527,0.0301 -0.59654,-0.14579 0.10873,-0.17593 0.60464,-0.31988 1.10201,-0.31988 0.76385,0 0.8361,0.0822 0.46516,0.52917 -0.24155,0.29104 -0.61817,0.52674 -0.83695,0.52376 -0.21878,-0.003 -0.15965,-0.17549 0.13139,-0.38338 z M 52.99965,148.6188 c 0.242535,-0.0979 0.63941,-0.0979 0.881945,0 0.242534,0.0979 0.0441,0.17794 -0.440973,0.17794 -0.485069,0 -0.683506,-0.0801 -0.440972,-0.17794 z m 8.819445,0 c 0.242534,-0.0979 0.639409,-0.0979 0.881944,0 0.242535,0.0979 0.0441,0.17794 -0.440972,0.17794 -0.48507,0 -0.683507,-0.0801 -0.440972,-0.17794 z m 95.760465,-0.85521 c -0.81433,-0.59887 -1.48061,-1.16436 -1.48061,-1.25665 0,-0.0923 0.71438,0.34524 1.5875,0.97227 1.4276,1.02522 1.80282,1.37323 1.48061,1.37323 -0.0588,0 -0.77316,-0.48999 -1.5875,-1.08885 z m -66.105084,0.49508 c 0.254662,-0.1019 0.558933,-0.0894 0.676158,0.0279 0.117225,0.11723 -0.09113,0.20061 -0.463021,0.18529 -0.410966,-0.0169 -0.494559,-0.10052 -0.213137,-0.21314 z m 53.386674,-1.51779 c 0.29213,-0.83802 0.48848,-0.9883 0.9609,-0.73547 0.66527,0.35604 1.24989,0.10257 3.39774,-1.47314 l 1.41111,-1.03522 -1.23472,1.11877 c -1.57672,1.42865 -4.07769,3.17828 -4.54313,3.17828 -0.24175,0 -0.23911,-0.34409 0.008,-1.05322 z m -5.47018,-0.27866 c -0.14113,-0.22836 -0.32354,-1.25242 -0.40535,-2.27568 -0.11481,-1.43595 -0.0805,-1.61899 0.15027,-0.80216 l 0.29903,1.05834 0.0417,-0.99334 c 0.0616,-1.46533 0.66455,-2.35805 1.59273,-2.35805 0.70806,0 0.79344,0.13305 0.62247,0.97013 -0.13695,0.67059 -0.23877,0.77952 -0.32972,0.35278 -0.29947,-1.40502 -1.39991,-0.28309 -1.38408,1.41111 0.0108,1.15396 0.38747,1.52422 0.71781,0.70556 0.10903,-0.2702 0.18872,-0.20869 0.20579,0.15886 0.0153,0.32991 -0.187,0.72678 -0.44959,0.88194 -0.26259,0.15517 -0.55102,0.51242 -0.64096,0.79391 -0.11829,0.37019 -0.23453,0.39692 -0.42014,0.0966 z m 19.25171,-0.57281 c 0.25019,-0.27147 0.51047,-0.44079 0.57841,-0.37625 0.20925,0.19877 -0.32108,0.86983 -0.68742,0.86983 -0.19023,0 -0.14117,-0.22211 0.10901,-0.49358 z m -3.60206,-1.01657 -0.88194,-1.11835 0.95905,0.69689 c 0.52748,0.38329 0.96404,0.89533 0.97014,1.13786 0.0151,0.59983 -0.0377,0.56371 -1.04725,-0.7164 z m -9.28996,-3.27799 c 0.12828,-0.33427 0.68451,-0.48977 1.65479,-0.4626 0.80386,0.0225 1.14406,0.11109 0.756,0.19684 -0.38805,0.0858 -1.1327,0.29393 -1.65478,0.46261 -0.75759,0.24476 -0.91022,0.20502 -0.75601,-0.19685 z m 4.28493,0.31382 c 0.25466,-0.10191 0.55893,-0.0894 0.67615,0.0279 0.11723,0.11723 -0.0911,0.20061 -0.46302,0.18529 -0.41096,-0.0169 -0.49456,-0.10052 -0.21313,-0.21314 z m 7.82725,-0.11179 c 0,-0.19403 0.62563,-0.35278 1.39029,-0.35278 0.76466,0 1.48841,0.15875 1.60832,0.35278 0.13318,0.21548 -0.40791,0.35278 -1.39029,0.35278 -0.88457,0 -1.60832,-0.15875 -1.60832,-0.35278 z m -6.70277,-0.49142 c 0,-0.0763 0.23812,-0.23002 0.52916,-0.34171 0.29104,-0.11168 0.52917,-0.0493 0.52917,0.13865 0,0.18794 -0.23813,0.3417 -0.52917,0.3417 -0.29104,0 -0.52916,-0.0624 -0.52916,-0.13864 z m -11.81806,-0.56691 c 0.11992,-0.19403 0.36741,-0.35278 0.54999,-0.35278 0.18257,0 0.33195,0.15875 0.33195,0.35278 0,0.19403 -0.24749,0.35278 -0.54998,0.35278 -0.30249,0 -0.45188,-0.15875 -0.33196,-0.35278 z m 3.9908,-0.24099 c 0.25466,-0.10191 0.55893,-0.0894 0.67616,0.0279 0.11722,0.11723 -0.0911,0.20061 -0.46302,0.18529 -0.41097,-0.0169 -0.49456,-0.10052 -0.21314,-0.21314 z m 8.79739,-11.63432 c 0.24254,-0.0979 0.63941,-0.0979 0.88195,0 0.24253,0.0979 0.0441,0.17794 -0.44097,0.17794 -0.48507,0 -0.68351,-0.0801 -0.44098,-0.17794 z"
         id="path6" /><path
         style="fill:#9bac9c"
         d="m 145.39017,166.26917 c -0.94212,-0.28937 -1.63883,-0.60026 -1.54823,-0.69086 0.0906,-0.0906 0.6233,0.0178 1.18378,0.24097 0.56049,0.22312 2.36844,0.52168 4.01768,0.66346 l 2.99861,0.25778 -2.46944,0.0274 c -1.3582,0.0151 -3.24028,-0.20937 -4.1824,-0.49874 z m -2.52038,-1.18861 c -0.11992,-0.19403 -0.0499,-0.35278 0.15557,-0.35278 0.20548,0 0.37359,0.15875 0.37359,0.35278 0,0.19402 -0.07,0.35277 -0.15556,0.35277 -0.0856,0 -0.25369,-0.15875 -0.3736,-0.35277 z m -1.41111,-1.41111 c -0.11992,-0.19403 -0.0499,-0.35278 0.15557,-0.35278 0.20547,0 0.37359,0.15875 0.37359,0.35278 0,0.19402 -0.07,0.35277 -0.15557,0.35277 -0.0856,0 -0.25368,-0.15875 -0.37359,-0.35277 z m -0.65734,-1.68588 c -0.10935,-0.17693 -0.28671,-1.02093 -0.39413,-1.87555 l -0.19531,-1.55385 0.50401,1.76389 c 0.48049,1.68162 0.51535,2.36114 0.0854,1.66551 z m 8.1508,-1.55202 c 0.24086,-0.29215 0.33346,-0.63564 0.20579,-0.76331 -0.12767,-0.12767 -0.0563,-0.23213 0.15863,-0.23213 0.78341,0 0.78421,0.6812 10e-4,1.09839 -0.70142,0.37377 -0.74793,0.36068 -0.36572,-0.10295 z m -3.08374,-1.34822 c -0.48507,-0.37942 -1.0407,-0.69368 -1.23472,-0.69834 -0.19403,-0.005 -1.28265,-0.84164 -2.41917,-1.85993 -1.67662,-1.50223 -2.08521,-2.08434 -2.16618,-3.08617 -0.15191,-1.87932 -0.20239,-1.99695 -0.52993,-1.23472 -0.22742,0.52924 -0.30938,0.2816 -0.32798,-0.99096 -0.0141,-0.96325 0.11714,-1.60879 0.3036,-1.49355 0.18062,0.11163 0.42812,0.0416 0.54999,-0.15557 0.26188,-0.42374 2.17746,-0.48395 2.42936,-0.0764 0.0959,0.1552 -0.17253,0.4982 -0.59654,0.76224 -0.70323,0.4379 -0.72842,0.42861 -0.28676,-0.10578 0.42933,-0.5195 0.38175,-0.58585 -0.42016,-0.58585 -1.07893,0 -1.58385,0.61829 -0.76235,0.93353 0.46458,0.17828 0.48675,0.28292 0.11056,0.52182 -0.35983,0.2285 -0.22151,0.50715 0.58778,1.18411 0.98504,0.82399 1.01558,0.91863 0.44097,1.36667 -0.33955,0.26476 -0.61736,0.58248 -0.61736,0.70605 0,0.35684 2.51926,3.04894 2.85319,3.04894 0.1659,0 0.44256,-0.51594 0.6148,-1.14653 0.25633,-0.93846 0.18297,-1.29058 -0.40419,-1.94028 -1.02207,-1.13093 -0.51815,-0.9824 0.77945,0.22973 1.04744,0.97846 1.48682,1.72937 0.74286,1.26958 -0.51661,-0.31929 -0.43732,1.80024 0.0882,2.35743 0.69323,0.73502 1.42241,1.70029 1.27791,1.69167 -0.0723,-0.004 -0.52826,-0.31829 -1.01333,-0.69772 z m -4.30095,-6.02368 c -0.0695,-0.20858 -0.27722,-0.37923 -0.46155,-0.37923 -0.18433,0 -0.39202,0.17065 -0.46155,0.37923 -0.0695,0.20858 0.13817,0.37924 0.46155,0.37924 0.32338,0 0.53108,-0.17066 0.46155,-0.37924 z m 5.85071,6.17122 c 0.11777,-0.30691 0.21413,-0.73413 0.21413,-0.94937 0,-0.42007 1.02836,0.80047 1.04711,1.24281 0.006,0.14552 -0.32326,0.26458 -0.73208,0.26458 -0.53285,0 -0.68267,-0.15799 -0.52916,-0.55802 z m 0.91968,-2.2642 c 0.20768,-0.38806 0.45698,-0.70556 0.55399,-0.70556 0.097,0 0.006,0.3175 -0.20121,0.70556 -0.20768,0.38805 -0.45698,0.70555 -0.55399,0.70555 -0.097,0 -0.006,-0.3175 0.20121,-0.70555 z m -2.11666,-0.36753 c 0,-0.20214 0.33583,-0.71808 0.74628,-1.14653 l 0.74629,-0.779 -0.57896,1.14653 c -0.58842,1.16528 -0.91361,1.44256 -0.91361,0.779 z m 9.90563,-1.30817 c -0.0187,-0.53327 0.17474,-0.79197 0.58951,-0.78835 0.38079,0.003 0.46865,0.10472 0.22928,0.26459 -0.21344,0.14255 -0.47872,0.4973 -0.58951,0.78835 -0.1346,0.35358 -0.21067,0.26579 -0.22928,-0.26459 z m -6.06074,-0.89919 c 0.1643,-0.1643 0.83485,-0.24352 1.49011,-0.17605 1.16206,0.11966 1.1547,0.12701 -0.29873,0.29873 -0.81956,0.0968 -1.35568,0.0416 -1.19138,-0.12268 z m -2.70824,-1.01146 c 0.0752,-0.22562 0.50285,-0.6533 0.95031,-0.95041 0.7531,-0.50003 0.80411,-0.49212 0.68623,0.10638 -0.0701,0.35562 -0.49769,0.78331 -0.95032,0.95042 -0.5791,0.2138 -0.78244,0.18227 -0.68622,-0.10639 z m -28.71947,-2.29908 c 0.25467,-0.10191 0.55894,-0.0894 0.67616,0.0279 0.11723,0.11722 -0.0911,0.2006 -0.46302,0.18528 -0.41096,-0.0169 -0.49456,-0.10052 -0.21314,-0.21313 z m 39.13629,0.007 c 0.24253,-0.0979 0.63941,-0.0979 0.88194,0 0.24254,0.0979 0.0441,0.17794 -0.44097,0.17794 -0.48507,0 -0.68351,-0.0801 -0.44097,-0.17794 z m -6.26181,-0.82469 c 0,-0.19403 0.15377,-0.35278 0.34171,-0.35278 0.18794,0 0.24202,-0.27781 0.12018,-0.61736 -0.12184,-0.33955 -0.11188,-0.51978 0.0221,-0.40051 0.51539,0.45868 0.53365,1.72343 0.0249,1.72343 -0.2799,0 -0.50891,-0.15875 -0.50891,-0.35278 z m 3.05192,-0.2871 c -0.549,-0.11014 -0.49881,-0.21046 0.31707,-0.63374 0.53313,-0.27659 1.05153,-0.42068 1.15202,-0.32019 0.10048,0.10048 0.009,0.1827 -0.20301,0.1827 -0.21214,0 -0.43703,0.20296 -0.49977,0.45104 -0.0627,0.24807 -0.40757,0.39216 -0.76631,0.32019 z m -16.03592,-2.00596 c 0.007,-0.58208 0.0863,-0.7775 0.1757,-0.43425 0.0894,0.34324 0.0836,0.81949 -0.0131,1.05833 -0.0966,0.23884 -0.16982,-0.042 -0.16263,-0.62408 z m 15.17207,0.72012 c 0.13628,-0.15122 0.0172,-0.50551 -0.26459,-0.78731 -0.2818,-0.2818 -0.51237,-0.68624 -0.51237,-0.89875 0,-0.2125 0.0414,-0.32023 0.092,-0.23938 0.0506,0.0808 0.37841,0.48842 0.72854,0.90572 0.50519,0.60212 0.54082,0.81403 0.17262,1.0267 -0.25517,0.14738 -0.35245,0.14424 -0.21616,-0.007 z m -19.8931,-0.43194 c 0.25466,-0.1019 0.55893,-0.0894 0.67616,0.0279 0.11722,0.11723 -0.0911,0.20061 -0.46302,0.18529 -0.41097,-0.0169 -0.49456,-0.10052 -0.21314,-0.21314 z m 18.05781,0.10234 c 0,-0.0762 0.24637,-0.23318 0.54749,-0.34873 0.31395,-0.12047 0.45555,-0.0613 0.33196,0.13864 -0.20717,0.33521 -0.87945,0.49581 -0.87945,0.21009 z m 5.59945,-0.47871 c -0.43881,-0.55953 -0.42633,-0.572 0.13319,-0.13319 0.33955,0.26629 0.61736,0.5441 0.61736,0.61736 0,0.29035 -0.28969,0.10347 -0.75055,-0.48417 z m -13.51048,-0.39546 c 0.78316,-0.76119 0.964,-0.73882 0.64965,0.0804 -0.12234,0.31882 -0.47135,0.57966 -0.77559,0.57966 -0.45747,0 -0.43568,-0.11416 0.12594,-0.66004 z m -4.64271,-0.79982 c -0.15304,-0.24762 -0.10285,-0.31884 0.12531,-0.17783 0.20933,0.12937 0.45356,-0.0445 0.54275,-0.38646 0.14498,-0.55579 0.16651,-0.55846 0.20309,-0.0251 0.0513,0.74779 -0.53014,1.14119 -0.87115,0.58943 z m -0.47119,-1.21537 c 0.0169,-0.41097 0.10053,-0.49456 0.21314,-0.21314 0.10191,0.25467 0.0894,0.55894 -0.0279,0.67616 -0.11722,0.11723 -0.2006,-0.0911 -0.18529,-0.46302 z m 16.04126,-0.17566 c 0.0897,-0.14511 -0.0364,-0.33505 -0.2801,-0.42207 -0.24375,-0.087 -0.3496,-0.2603 -0.23522,-0.38507 0.11437,-0.12477 0.47222,0.0652 0.79521,0.42207 0.48509,0.53601 0.49764,0.64892 0.0721,0.64892 -0.28331,0 -0.44173,-0.11873 -0.35204,-0.26385 z m -16.1573,-2.99709 c -0.14552,-0.14676 -0.25452,-0.75631 -0.24222,-1.35456 0.0219,-1.06377 0.0299,-1.06879 0.36589,-0.22779 0.37792,0.94601 0.29517,2.00475 -0.12367,1.58235 z m 13.77513,0.0146 c -0.10395,-0.10395 -1.44009,-0.32926 -2.96921,-0.5007 l -2.78023,-0.3117 2.73621,0.0795 c 1.54435,0.0449 2.91965,0.26299 3.15736,0.50069 0.23164,0.23164 0.33649,0.42116 0.23301,0.42116 -0.10348,0 -0.2732,-0.085 -0.37714,-0.18899 z m -11.83485,-1.4653 c 0.33955,-0.0887 0.89517,-0.0887 1.23472,0 0.33955,0.0887 0.0617,0.16133 -0.61736,0.16133 -0.6791,0 -0.95691,-0.0726 -0.61736,-0.16133 z m 14.03541,0.19548 c -0.007,-0.12324 0.21941,-0.75824 0.50286,-1.41111 0.28345,-0.65286 0.51595,-0.9489 0.51667,-0.65786 0.001,0.5084 -0.99392,2.52796 -1.01953,2.06897 z m 1.04584,-0.20309 c 0,-0.20261 0.27781,-0.58625 0.61736,-0.85255 0.57106,-0.44785 0.57855,-0.43125 0.0998,0.22139 -0.28464,0.38806 -0.56245,0.7717 -0.61736,0.85255 -0.0549,0.0808 -0.0998,-0.0188 -0.0998,-0.22139 z m -16.44447,-2.38134 c 0.38178,-3.72638 0.83301,-4.29388 0.78663,-0.98932 -0.0298,2.12516 -0.17244,2.95589 -0.53128,3.09474 -0.40211,0.1556 -0.44812,-0.2238 -0.25535,-2.10542 z m 12.26072,1.92657 c 0,-0.29104 0.13644,-0.84667 0.30319,-1.23472 0.19111,-0.44473 0.30319,-0.50993 0.30319,-0.17639 0,0.29104 -0.13644,0.84667 -0.30319,1.23472 -0.1911,0.44473 -0.30319,0.50993 -0.30319,0.17639 z m 1.0366,-0.045 c -0.0153,-0.31579 0.24996,-0.79204 0.58951,-1.05833 0.53647,-0.42073 0.56579,-0.41483 0.22376,0.045 -0.21649,0.29104 -0.48177,0.76729 -0.58951,1.05833 -0.16388,0.44265 -0.20046,0.43529 -0.22376,-0.045 z m 3.36835,-10.25976 c -0.18409,-0.67227 -0.27945,-0.71899 -0.56857,-0.27857 -0.19106,0.29104 -0.34738,0.37041 -0.34738,0.17638 0,-0.19402 0.12787,-0.55424 0.28416,-0.80048 0.20649,-0.32533 0.41407,-0.20495 0.75948,0.44044 0.26142,0.48848 0.38941,0.97406 0.28441,1.07906 -0.10501,0.105 -0.29045,-0.17257 -0.4121,-0.61683 z m 4.01213,0.42698 c -0.45222,-0.29225 -0.4394,-0.34276 0.0882,-0.34737 0.33955,-0.003 0.61737,0.15334 0.61737,0.34737 0,0.43025 -0.0398,0.43025 -0.70556,0 z M 145.8684,128.4625 c 0,-0.15506 0.59531,-0.22529 1.32292,-0.15605 2.26875,0.21589 2.45354,0.35455 0.52916,0.39707 -1.01864,0.0225 -1.85208,-0.0859 -1.85208,-0.24102 z"
         id="path5" /><path
         style="fill:#8daa5c"
         d="m 47.958061,162.58764 c -0.127894,-0.20693 -0.156874,-0.45191 -0.0644,-0.54438 0.09247,-0.0925 0.262137,0.0768 0.377031,0.37625 0.238543,0.62163 0.03523,0.73098 -0.31263,0.16813 z m 10.267743,-0.0799 c 0.132479,-0.34791 0.329738,-0.5437 0.438354,-0.43509 0.108616,0.10862 2.24e-4,0.39328 -0.240871,0.63258 -0.348409,0.34581 -0.388931,0.30529 -0.197483,-0.19749 z m 32.190339,0.2152 c 0.254661,-0.1019 0.558932,-0.0894 0.676157,0.0279 0.117225,0.11723 -0.09113,0.20061 -0.463021,0.18529 -0.410966,-0.0169 -0.494558,-0.10052 -0.213136,-0.21314 z m 2.116667,0 c 0.254661,-0.1019 0.558932,-0.0894 0.676157,0.0279 0.117225,0.11723 -0.09113,0.20061 -0.463021,0.18529 -0.410966,-0.0169 -0.494559,-0.10052 -0.213136,-0.21314 z m 7.121701,0.10575 c 0,-0.0744 0.317719,-0.21833 0.706039,-0.31988 0.38833,-0.10155 0.61708,-0.0407 0.50835,0.13524 -0.18988,0.30724 -1.214389,0.463 -1.214389,0.18464 z m -32.318487,-4.98004 c 6.17e-4,-2.52236 0.05681,-3.50794 0.124869,-2.19019 0.06806,1.31776 0.06755,3.38151 -0.0011,4.58611 -0.06868,1.20461 -0.124363,0.12644 -0.123746,-2.39592 z m 12.562932,3.94656 c 0,-0.0607 0.515937,-0.57665 1.146527,-1.14653 l 1.146528,-1.03614 -1.03614,1.14653 c -0.965829,1.06872 -1.256915,1.30868 -1.256915,1.03614 z m 6.845648,-1.03614 -0.672037,-0.79375 0.79375,0.67204 c 0.745929,0.63155 0.954348,0.91546 0.672037,0.91546 -0.06694,0 -0.42413,-0.35719 -0.79375,-0.79375 z m -10.814398,-0.14544 c 0.242534,-0.0979 0.639409,-0.0979 0.881944,0 0.242535,0.0979 0.0441,0.17793 -0.440972,0.17793 -0.48507,0 -0.683507,-0.0801 -0.440972,-0.17793 z m 15.352547,-0.0108 c 0.343241,-0.0894 0.819491,-0.0836 1.058333,0.0131 0.238842,0.0966 -0.04199,0.16982 -0.624075,0.16263 -0.582083,-0.007 -0.7775,-0.0862 -0.434258,-0.1757 z m 55.434077,-1.25483 -0.67204,-0.79375 0.79375,0.67203 c 0.43656,0.36963 0.79375,0.72681 0.79375,0.79376 0,0.28231 -0.28392,0.0739 -0.91546,-0.67204 z m -73.918429,-0.17639 c -0.43881,-0.55953 -0.426332,-0.572 0.133193,-0.13319 0.339549,0.26629 0.617362,0.5441 0.617362,0.61736 0,0.29035 -0.289696,0.10347 -0.750555,-0.48417 z m 82.666849,-1.83604 c 0.48675,-0.77942 0.82947,-0.68227 0.51197,0.14513 -0.11489,0.29941 -0.37398,0.54438 -0.57574,0.54438 -0.23218,0 -0.20877,-0.2531 0.0638,-0.68951 z m -10.25436,-0.62233 c -0.037,-0.87535 0.0732,-1.08894 0.48112,-0.9324 0.29104,0.11168 0.52674,0.46389 0.52377,0.78268 -0.004,0.47721 -0.0611,0.4916 -0.32075,0.0815 -0.24401,-0.38548 -0.35163,-0.30568 -0.47573,0.35277 -0.13045,0.69217 -0.16934,0.63909 -0.20841,-0.28451 z m -3.00561,-0.80584 c -1.46289,-1.61925 -1.48823,-1.70613 -0.67172,-2.30317 0.53543,-0.39152 0.54545,-0.51614 0.0882,-1.09722 -0.47414,-0.60253 -0.46593,-0.61639 0.10151,-0.17137 0.33955,0.26629 0.61736,0.71984 0.61736,1.00788 0,0.30281 0.20737,0.44414 0.49161,0.33506 0.27039,-0.10375 0.80365,0.15708 1.18502,0.57962 0.56314,0.62393 0.63458,0.98367 0.38025,1.9148 -0.17224,0.63059 -0.4489,1.14653 -0.6148,1.14653 -0.16591,0 -0.87574,-0.63546 -1.57742,-1.41213 z m 1.54645,-1.4101 c 0,-0.19402 -0.16812,-0.35278 -0.3736,-0.35278 -0.20547,0 -0.27548,0.15876 -0.15556,0.35278 0.11991,0.19403 0.28803,0.35278 0.37359,0.35278 0.0856,0 0.15557,-0.15875 0.15557,-0.35278 z m -39.90888,1.85209 c -0.43881,-0.55953 -0.42634,-0.57201 0.13319,-0.1332 0.33955,0.2663 0.61736,0.54411 0.61736,0.61736 0,0.29035 -0.2897,0.10348 -0.75055,-0.48416 z m -34.458454,-0.61736 c 0.0072,-0.58209 0.08625,-0.7775 0.175698,-0.43426 0.08944,0.34324 0.08356,0.81949 -0.01307,1.05833 -0.09663,0.23884 -0.169816,-0.042 -0.162626,-0.62407 z m 86.988114,0.68512 c -0.28904,-0.28903 0.10696,-1.56707 0.48556,-1.56707 0.18662,0 0.17444,0.27954 -0.0287,0.65917 -0.19402,0.36255 -0.25253,0.75942 -0.13,0.88195 0.12252,0.12252 0.1434,0.22277 0.0464,0.22277 -0.097,0 -0.26495,-0.0886 -0.3732,-0.19682 z m -84.91237,-0.71452 c 0.01693,-0.41097 0.10052,-0.49456 0.213136,-0.21314 0.101908,0.25466 0.08938,0.55893 -0.02785,0.67616 -0.117226,0.11722 -0.200604,-0.0911 -0.185286,-0.46302 z m 80.22909,-1.57611 c -0.69593,-0.18892 -0.33352,-0.2199 1.05834,-0.0905 1.16416,0.10825 2.18281,0.25632 2.26365,0.32904 0.26249,0.23611 -2.23381,0.0568 -3.32199,-0.23856 z m 3.92937,-0.15838 c 0.11169,-0.29105 0.26545,-0.52917 0.34171,-0.52917 0.0763,0 0.13864,0.23812 0.13864,0.52917 0,0.29104 -0.15376,0.52916 -0.3417,0.52916 -0.18794,0 -0.25033,-0.23812 -0.13865,-0.52916 z m -50.67242,0.0432 c 0,-0.0733 0.27781,-0.35107 0.61736,-0.61736 0.55952,-0.43881 0.572,-0.42633 0.13319,0.13319 -0.46086,0.58764 -0.75055,0.77452 -0.75055,0.48417 z m -3.88056,-0.35823 c 0,-0.0762 0.24637,-0.23319 0.54749,-0.34874 0.31395,-0.12047 0.45555,-0.0613 0.33196,0.13865 -0.20717,0.33521 -0.87945,0.49581 -0.87945,0.21009 z m 43.32552,-0.45512 c 0.25466,-0.10191 0.55893,-0.0894 0.67616,0.0279 0.11722,0.11723 -0.0911,0.20061 -0.46302,0.18529 -0.41097,-0.0169 -0.49456,-0.10052 -0.21314,-0.21314 z m -65.22444,-1.08193 -0.855244,-0.97014 0.970138,0.85525 c 0.906741,0.79935 1.131919,1.08503 0.855245,1.08503 -0.06319,0 -0.499755,-0.43656 -0.970139,-0.97014 z m 75.16837,0.69604 c -0.72741,-0.24111 -1.76932,-1.36676 -1.50746,-1.62862 0.11766,-0.11767 -0.16971,-0.22016 -0.63861,-0.22775 -0.74611,-0.0121 -0.7,-0.08 0.36935,-0.54383 1.37201,-0.59513 2.70408,-0.53034 2.57047,0.12504 -0.0542,0.26569 0.35415,0.44616 1.05833,0.46776 0.63059,0.0193 1.53722,0.1441 2.01474,0.27725 0.83723,0.23344 0.81837,0.26573 -0.52859,0.90491 -1.50811,0.71564 -2.50321,0.90202 -3.33823,0.62524 z M 50.794789,152.02778 c 0.351186,-0.38806 0.717894,-0.70556 0.814908,-0.70556 0.09701,0 -0.110945,0.3175 -0.46213,0.70556 -0.351185,0.38805 -0.717894,0.70555 -0.814908,0.70555 -0.09701,0 0.110945,-0.3175 0.46213,-0.70555 z m 4.552593,-0.0882 -0.672037,-0.79375 0.79375,0.67204 c 0.745929,0.63155 0.954349,0.91546 0.672037,0.91546 -0.06694,0 -0.42413,-0.35718 -0.79375,-0.79375 z m 85.111758,-0.14699 c -0.39002,-0.39002 -0.26763,-0.73521 0.34388,-0.96987 0.45764,-0.17561 0.49527,-0.12124 0.17945,0.2593 -0.21979,0.26483 -0.29516,0.58597 -0.16749,0.71363 0.12767,0.12767 0.15275,0.23213 0.0557,0.23213 -0.097,0 -0.28222,-0.10584 -0.41157,-0.23519 z m -54.562962,-0.22798 c 0,-0.0607 0.515937,-0.57665 1.146527,-1.14652 l 1.146528,-1.03615 -1.03614,1.14653 c -0.965828,1.06873 -1.256915,1.30869 -1.256915,1.03614 z m -5.148796,-1.03614 -0.672038,-0.79375 0.79375,0.67204 c 0.436563,0.36962 0.79375,0.72681 0.79375,0.79375 0,0.28231 -0.283913,0.0739 -0.915462,-0.67204 z m -23.073426,0.30778 c 0,-0.0733 0.277812,-0.35107 0.617361,-0.61736 0.559525,-0.43881 0.572003,-0.42633 0.133193,0.13319 -0.460858,0.58764 -0.750554,0.77452 -0.750554,0.48417 z m 33.249305,-0.10998 c 0.339549,-0.0887 0.895174,-0.0887 1.234722,0 0.339549,0.0887 0.06174,0.16133 -0.617361,0.16133 -0.679097,0 -0.95691,-0.0726 -0.617361,-0.16133 z m 51.173889,-0.58544 c 0.47579,-0.38361 0.52784,-0.58314 0.20427,-0.78311 -0.30115,-0.18612 -0.18381,-0.36098 0.38288,-0.57062 0.4494,-0.16624 0.89604,-0.22331 0.99253,-0.12681 0.25433,0.25432 -0.62822,1.2313 -1.48358,1.64232 -0.68779,0.3305 -0.69391,0.32019 -0.0961,-0.16178 z m 9.08771,-0.1526 c 0.0136,-0.13943 0.14572,-0.56251 0.29351,-0.94017 0.25879,-0.6613 0.27598,-0.65888 0.46539,0.0654 0.12155,0.46484 0.009,0.82392 -0.29351,0.94017 -0.2696,0.10346 -0.47903,0.074 -0.46539,-0.0654 z M 49.515068,149.29375 c -0.447857,-0.57106 -0.431253,-0.57855 0.221388,-0.0998 0.388055,0.28464 0.771701,0.56245 0.852546,0.61736 0.08084,0.0549 -0.01878,0.0998 -0.221387,0.0998 -0.202608,0 -0.586254,-0.27781 -0.852547,-0.61736 z m 60.750622,0.0588 c 0.0169,-0.41097 0.10053,-0.49456 0.21314,-0.21314 0.10191,0.25466 0.0894,0.55893 -0.0279,0.67616 -0.11722,0.11722 -0.2006,-0.0911 -0.18529,-0.46302 z m 29.02167,0.0142 c -0.1149,-0.29941 -0.10992,-0.64337 0.0111,-0.76435 0.12098,-0.12099 0.21997,0.054 0.21997,0.38881 0,0.37034 0.15952,0.51019 0.40728,0.35707 0.25235,-0.15596 0.31153,-0.0968 0.15557,0.15557 -0.33883,0.54824 -0.54454,0.51271 -0.79389,-0.1371 z m 19.28104,-0.0629 c -1.2776,-0.48006 -2.53833,-1.67791 -3.1979,-3.03836 l -0.71248,-1.4696 0.8951,1.05834 c 0.49231,0.58208 0.8959,1.14574 0.89686,1.25256 9.6e-4,0.10683 0.71613,0.64579 1.58925,1.19769 1.89052,1.19499 2.09936,1.58938 0.52917,0.99937 z m -82.986859,-0.70052 c 0.438825,-0.0844 1.073825,-0.0812 1.411111,0.007 0.337286,0.0883 -0.02175,0.15734 -0.797863,0.15342 -0.776111,-0.004 -1.052073,-0.0762 -0.613248,-0.16054 z m 77.129799,-0.31712 c -0.36813,-0.29922 -0.48445,-0.45189 -0.25849,-0.33928 0.22596,0.11261 0.46409,0.0607 0.52917,-0.11547 0.0651,-0.17612 0.31518,-0.10613 0.55578,0.15554 0.63764,0.69346 -0.0397,0.93868 -0.82646,0.29921 z m -8.25405,-0.15 c 0,-0.18794 0.23812,-0.34171 0.52916,-0.34171 0.29105,0 0.52917,0.0624 0.52917,0.13865 0,0.0763 -0.23812,0.23002 -0.52917,0.34171 -0.29104,0.11168 -0.52916,0.0493 -0.52916,-0.13865 z m -3.77953,-1.15448 c 0.12152,-0.31666 0.0522,-0.68004 -0.1541,-0.80753 -0.25316,-0.15646 -0.22977,-0.32156 0.072,-0.50805 0.24585,-0.15194 0.4744,-0.64804 0.50787,-1.10243 0.0335,-0.45439 0.20646,-0.78851 0.38441,-0.74248 0.49885,0.12902 0.45904,1.45136 -0.0566,1.87929 -0.25293,0.20992 -0.37912,0.59213 -0.28041,0.84936 0.0987,0.25723 -0.0171,0.58917 -0.25731,0.73764 -0.30304,0.18728 -0.36913,0.0936 -0.21585,-0.3058 z m 3.43797,0.26284 c 0.006,-0.18261 0.2443,-0.64016 0.52917,-1.0168 0.28487,-0.37663 0.51289,-0.53538 0.50672,-0.35278 -0.006,0.18261 -0.24429,0.64017 -0.52916,1.0168 -0.28487,0.37663 -0.5129,0.53538 -0.50673,0.35278 z m 9.0282,-2.46232 c -0.12099,-0.31527 -0.20991,-0.75868 -0.19761,-0.98535 0.0123,-0.22666 0.17446,-0.0319 0.36035,0.43285 0.1859,0.46473 0.27482,0.90814 0.19761,0.98535 -0.0772,0.0772 -0.23937,-0.11757 -0.36035,-0.43285 z m -7.55953,-1.39747 c 0.007,-0.58208 0.0863,-0.7775 0.17569,-0.43426 0.0894,0.34324 0.0836,0.81949 -0.0131,1.05834 -0.0966,0.23884 -0.16981,-0.042 -0.16262,-0.62408 z m 4.87011,0.74875 c 0,-0.0733 0.27781,-0.35107 0.61736,-0.61736 0.55953,-0.43881 0.572,-0.42633 0.13319,0.1332 -0.46085,0.58763 -0.75055,0.77451 -0.75055,0.48416 z m -8.89867,-0.76918 c -0.458,-0.458 0.16084,-1.47967 0.79569,-1.31365 0.54849,0.14343 0.5873,0.28083 0.23749,0.84096 -0.43207,0.69185 -0.69413,0.81175 -1.03318,0.47269 z m 11.08719,-1.23033 c -0.27255,-0.43642 -0.29595,-0.68952 -0.0638,-0.68952 0.20176,0 0.46084,0.24498 0.57574,0.54439 0.3175,0.82739 -0.0252,0.92454 -0.51197,0.14513 z m -1.54911,-0.57773 c 0.25466,-0.1019 0.55893,-0.0894 0.67616,0.0279 0.11722,0.11723 -0.0911,0.20061 -0.46302,0.18529 -0.41097,-0.0169 -0.49456,-0.10052 -0.21314,-0.21314 z m -8.83498,-0.52399 c 0.205,-0.205 0.58096,-0.30332 0.83547,-0.21848 0.26421,0.0881 0.1043,0.24798 -0.37273,0.37273 -0.58679,0.15345 -0.72453,0.10754 -0.46274,-0.15425 z m -6.76599,-6.23961 c -0.10259,-0.166 0.20554,-0.22687 0.68474,-0.13527 0.47919,0.0916 0.87126,0.22743 0.87126,0.30182 0,0.27296 -1.37535,0.12575 -1.556,-0.16655 z m 8.28663,-4.84286 c 0.0169,-0.41097 0.10052,-0.49456 0.21314,-0.21314 0.10191,0.25466 0.0894,0.55893 -0.0279,0.67616 -0.11723,0.11722 -0.2006,-0.0911 -0.18529,-0.46302 z m -6.11914,-0.89633 c 0.2393,-0.24109 0.52396,-0.34948 0.63257,-0.24087 0.10862,0.10862 -0.0872,0.30588 -0.43509,0.43836 -0.50278,0.19145 -0.5433,0.15092 -0.19748,-0.19749 z"
         id="path4" /><path
         style="fill:#6f974e"
         d="m 129.07794,160.75903 -0.67204,-0.79375 0.79375,0.67204 c 0.43656,0.36962 0.79375,0.7268 0.79375,0.79375 0,0.28231 -0.28391,0.0739 -0.91546,-0.67204 z m 9.55851,0.0882 c 0.35119,-0.38805 0.7179,-0.70555 0.81491,-0.70555 0.097,0 -0.11094,0.3175 -0.46213,0.70555 -0.35118,0.38806 -0.71789,0.70556 -0.81491,0.70556 -0.097,0 0.11095,-0.3175 0.46213,-0.70556 z m 9.23102,-0.23518 c -0.48653,-0.48654 -0.20438,-0.82315 0.68996,-0.82315 0.78235,0 0.85735,0.0817 0.48597,0.52917 -0.47788,0.57581 -0.81085,0.65905 -1.17593,0.29398 z m -1.59501,-2.00329 c -0.41626,-0.44309 -0.75441,-1.19226 -0.75144,-1.66482 0.004,-0.62654 0.0888,-0.72756 0.31334,-0.37304 0.17059,0.26933 0.5222,0.37567 0.78835,0.23842 0.26423,-0.13626 0.20408,-0.0211 -0.13367,0.25588 -0.58249,0.47772 -0.58102,0.53354 0.0286,1.08527 0.35349,0.3199 0.74889,0.47546 0.87866,0.34568 0.12978,-0.12977 0.23596,-0.0601 0.23596,0.1548 0,0.76891 -0.6158,0.7498 -1.35983,-0.0422 z m -23.90821,-3.58236 c 8e-4,-2.13431 0.0589,-2.96195 0.12912,-1.8392 0.0702,1.12274 0.0696,2.86899 -0.001,3.88055 -0.071,1.01156 -0.12847,0.093 -0.12767,-2.04135 z m 33.7347,1.60832 c 0,-0.18258 0.15694,-0.42895 0.34874,-0.54749 0.19998,-0.12359 0.25912,0.018 0.13865,0.33196 -0.23453,0.61116 -0.48739,0.72298 -0.48739,0.21553 z m -12.87638,-2.13749 c -0.11992,-0.19402 -0.0499,-0.35278 0.15556,-0.35278 0.20548,0 0.3736,0.15876 0.3736,0.35278 0,0.19403 -0.07,0.35278 -0.15557,0.35278 -0.0856,0 -0.25368,-0.15875 -0.37359,-0.35278 z m 10.23055,-0.41365 c -0.97014,-0.15989 -2.13045,-0.20623 -2.57848,-0.10297 l -0.81459,0.18775 0.90628,-1.33371 c 0.49845,-0.73353 0.74595,-1.38714 0.55001,-1.45246 -0.19595,-0.0653 -0.34374,-0.38334 -0.32842,-0.70672 0.0174,-0.36665 0.0948,-0.42198 0.20578,-0.14699 0.0979,0.24254 0.49158,0.44097 0.87492,0.44097 0.38333,0 0.59886,0.15875 0.47895,0.35278 -0.11992,0.19403 -0.0606,0.35278 0.13179,0.35278 0.19241,0 0.44354,0.29527 0.55808,0.65616 0.14387,0.45327 0.48527,0.62574 1.10417,0.5578 0.53893,-0.0591 0.97607,0.11055 1.09708,0.4259 0.3273,0.85292 -0.31146,1.07759 -2.18557,0.76871 z m -0.88194,-0.80025 c 0,-0.0856 -0.15875,-0.25368 -0.35278,-0.3736 -0.19403,-0.11991 -0.35278,-0.0499 -0.35278,0.15557 0,0.20548 0.15875,0.3736 0.35278,0.3736 0.19403,0 0.35278,-0.07 0.35278,-0.15557 z m -13.37771,-0.0502 c 0.0169,-0.41096 0.10052,-0.49456 0.21314,-0.21313 0.10191,0.25466 0.0894,0.55893 -0.0279,0.67615 -0.11723,0.11723 -0.20061,-0.0911 -0.18529,-0.46302 z m 3.23394,-0.088 c 0.1101,-0.42105 0.0915,-0.69837 -0.0414,-0.61626 -0.13285,0.0821 -0.61429,-0.13188 -1.06986,-0.47552 l -0.82833,-0.62481 1.51674,-1.0233 c 1.61763,-1.09137 2.37543,-2.22366 1.17791,-1.76 -0.36603,0.14172 -1.34019,0.38464 -2.16481,0.53983 -1.25554,0.2363 -1.50685,0.18921 -1.54574,-0.28964 -0.0255,-0.3145 -0.15331,-0.0162 -0.28393,0.6629 -0.17581,0.91405 -0.31152,0.19905 -0.52252,-2.75302 -0.15677,-2.19326 -0.18776,-4.08504 -0.0688,-4.20394 0.1189,-0.1189 0.21618,0.59104 0.21618,1.57765 0,0.98661 0.0964,2.04494 0.21414,2.35185 0.27635,0.72018 1.19697,0.72636 1.19697,0.008 0,-0.30249 0.15182,-0.45616 0.33738,-0.34148 0.18555,0.11468 0.23795,0.46759 0.11643,0.78425 -0.14768,0.38485 -0.0841,0.49117 0.1918,0.32066 0.227,-0.14029 0.41273,-0.087 0.41273,0.11852 0,0.20548 -0.19844,0.38475 -0.44097,0.39839 -0.24254,0.0136 -0.12348,0.15571 0.26458,0.31572 0.46157,0.19033 0.99506,0.10811 1.54274,-0.23777 0.46045,-0.29079 0.74011,-0.37164 0.62147,-0.17968 -0.11864,0.19197 0.19546,0.42763 0.69801,0.5237 0.73491,0.14049 1.68339,-0.40512 4.84658,-2.78798 l 3.93287,-2.96266 0.25771,1.48475 c 0.34151,1.9675 0.0418,3.49009 -0.80367,4.08226 -0.37882,0.26533 -0.69151,0.67186 -0.69486,0.9034 -0.003,0.23153 -0.40175,0.79628 -0.88534,1.25501 -0.48358,0.45872 -0.97808,1.22787 -1.09889,1.70921 -0.1523,0.60682 -0.30429,0.73824 -0.49567,0.42858 -0.21599,-0.34949 -0.4757,-0.31576 -1.19428,0.15507 -0.50504,0.33091 -1.66953,0.65996 -2.58774,0.73121 -0.91822,0.0712 -1.97282,0.25128 -2.34355,0.40008 -0.5662,0.22724 -0.64203,0.14803 -0.47387,-0.49501 z m -23.62799,-4.53682 c 0.34324,-0.0894 0.81949,-0.0836 1.05833,0.0131 0.23884,0.0966 -0.042,0.16981 -0.62407,0.16262 -0.58209,-0.007 -0.7775,-0.0862 -0.43426,-0.17569 z m 3.57913,-0.23601 c -0.10141,-0.26426 -0.12644,-1.41519 -0.0556,-2.55763 l 0.12875,-2.07717 0.0667,2.35782 c 0.0645,2.28148 0.0981,2.36257 1.03685,2.50478 l 0.97013,0.14696 -0.98121,0.0529 c -0.54422,0.0293 -1.06332,-0.16112 -1.16558,-0.42762 z m 21.37318,-1.24543 c 0,-0.23782 -0.15875,-0.33429 -0.35278,-0.21437 -0.19402,0.11992 -0.35277,0.0405 -0.35277,-0.17639 0,-0.21693 -0.15997,-0.29555 -0.35549,-0.17472 -0.19551,0.12084 -0.59361,-0.0184 -0.88465,-0.30946 -0.29104,-0.29104 -0.38325,-0.61935 -0.20491,-0.72957 0.17834,-0.11022 0.27931,-0.60977 0.22439,-1.11012 -0.0799,-0.72786 0.0281,-0.87626 0.54035,-0.74231 1.19063,0.31136 2.48617,-1.9596 1.45941,-2.55821 -0.77806,-0.4536 -0.37115,-0.46852 0.78543,-0.0288 1.14627,0.43582 1.30533,2.02091 0.19839,1.97702 -0.47032,-0.0186 -1.00773,0.47324 -1.60749,1.4713 -0.49554,0.82462 -0.73323,1.49931 -0.52821,1.49931 0.20503,0 0.37278,-0.23813 0.37278,-0.52917 0,-0.29104 0.15875,-0.52917 0.35277,-0.52917 0.19403,0 0.35278,0.41632 0.35278,0.92514 0,0.83035 0.0633,0.87553 0.61736,0.44097 0.57106,-0.44785 0.57855,-0.43125 0.0998,0.22139 -0.28465,0.38806 -0.56246,0.7717 -0.61736,0.85255 -0.0549,0.0808 -0.0998,-0.0476 -0.0998,-0.2854 z m -4.93348,-8.00488 c 0.003,-1.148 0.16417,-2.32539 0.35823,-2.61644 0.24206,-0.36302 0.2806,0.24618 0.12275,1.94028 -0.28931,3.10514 -0.48799,3.38445 -0.48098,0.67616 z m 16.22237,1.68432 c 0,-0.47852 0.84442,-1.36684 1.5252,-1.60449 0.54801,-0.1913 0.5219,-0.0709 -0.17639,0.81313 -0.81158,1.02747 -1.34881,1.34267 -1.34881,0.79136 z m -3.1696,-0.50839 c 0.008,-0.65145 0.43625,-1.16558 1.20954,-1.45203 0.64944,-0.24057 0.65411,-0.21904 0.0882,0.40629 -0.32867,0.36318 -0.59758,0.84626 -0.59758,1.07351 0,0.22726 -0.15875,0.4132 -0.35278,0.4132 -0.19403,0 -0.35035,-0.19844 -0.34738,-0.44097 z m 5.33604,-4.62613 c 0.249,-0.55558 0.51684,-0.8178 0.5952,-0.58271 0.0784,0.23509 -0.12536,0.68966 -0.45272,1.01015 -0.55717,0.54549 -0.56627,0.51818 -0.14248,-0.42744 z m -17.80625,-0.10698 c -0.12936,-0.12935 -0.23519,-0.53559 -0.23519,-0.90276 0,-0.4335 -0.1501,-0.57481 -0.42807,-0.40302 -0.23544,0.14551 -1.10174,0.3668 -1.92511,0.49176 -1.56607,0.23767 -1.60852,0.13332 -0.50358,-1.23777 0.52698,-0.6539 0.52348,-0.66832 -0.0537,-0.22139 -0.39355,0.30477 -0.61736,0.3376 -0.61736,0.0906 0,-0.21315 0.59532,-0.70182 1.32292,-1.08594 0.9965,-0.52607 1.14883,-0.70934 0.61736,-0.74276 -0.52321,-0.0329 -0.38644,-0.1896 0.52917,-0.6063 0.87999,-0.40049 1.06267,-0.60134 0.63585,-0.69909 -0.32938,-0.0754 -0.93829,0.0445 -1.35313,0.26652 -0.41485,0.22201 -0.82572,0.33221 -0.91305,0.24487 -0.0873,-0.0873 0.4062,-0.42689 1.09674,-0.75457 0.69054,-0.32768 1.16309,-0.74534 1.05012,-0.92813 -0.11296,-0.18278 0.0591,-0.33234 0.38234,-0.33234 0.42137,0 0.51579,-0.17474 0.33357,-0.61736 -0.57409,-1.3945 -0.58724,-1.85106 -0.0592,-2.05371 0.30127,-0.1156 0.82335,-0.056 1.16018,0.13254 0.48734,0.27273 0.7619,0.12397 1.34435,-0.72839 0.83075,-1.21573 2.85304,-2.42136 3.58828,-2.13922 0.27004,0.10363 0.39267,0.34747 0.27252,0.54188 -0.13734,0.22222 -0.31877,0.19118 -0.48858,-0.0836 -0.18875,-0.30541 -0.34456,-0.20249 -0.51728,0.3417 -0.2889,0.91027 -0.0995,1.17004 0.97288,1.3344 1.00369,0.15384 2.37216,-0.57096 2.37216,-1.25639 0,-0.29059 0.0939,-0.43448 0.2086,-0.31975 0.39918,0.39918 -0.24949,1.63831 -0.97882,1.86979 -0.51692,0.16407 -0.60518,0.31269 -0.29831,0.50235 0.79684,0.49247 -0.18107,1.65822 -1.42058,1.69347 -0.61112,0.0174 -1.21389,0.14282 -1.33949,0.27877 -0.12559,0.13595 0.20821,0.16812 0.74179,0.0715 0.53358,-0.0966 0.97014,-0.039 0.97014,0.12817 0,0.16712 -0.43656,0.3089 -0.97014,0.31507 -1.08965,0.0126 -2.15425,0.6816 -1.96704,1.2361 0.0678,0.20096 -0.19603,0.36538 -0.5864,0.36538 -0.39036,0 -0.70975,-0.15119 -0.70975,-0.33598 0,-0.18479 -0.102,-0.23398 -0.22666,-0.10932 -0.12467,0.12467 -0.0262,0.46825 0.21889,0.76352 0.36881,0.44439 0.28632,0.74563 -0.4789,1.74888 -0.50844,0.66661 -0.92688,1.50042 -0.92985,1.85292 -0.005,0.54967 -0.0589,0.56558 -0.38131,0.11173 -0.28946,-0.40747 -0.32724,-0.30606 -0.16426,0.44097 0.2149,0.98509 0.15087,1.158 -0.27217,0.73495 z m -1.85236,-2.10777 c 0.1858,-0.48417 0.13418,-0.506 -0.31503,-0.13319 -0.61216,0.50805 -0.67587,0.71226 -0.22221,0.71226 0.17327,0 0.41503,-0.26058 0.53724,-0.57907 z m 2.41147,-2.43212 c 0.16239,-0.84948 0.13824,-0.86487 -0.47972,-0.30563 -0.35789,0.32389 -0.56572,0.72643 -0.46183,0.89452 0.35239,0.57019 0.7699,0.30906 0.94155,-0.58889 z m 2.49843,-2.34589 c 0.19189,-0.72634 -0.83036,-1.19475 -1.23065,-0.5639 -0.15806,0.24911 -0.28982,0.56035 -0.29279,0.69164 -0.003,0.13129 -0.28321,0.30694 -0.62276,0.39033 -0.33955,0.0834 -0.0309,0.13472 0.68588,0.11406 0.90363,-0.026 1.3514,-0.21986 1.46032,-0.63213 z m 1.84151,-2.67905 c -0.19107,-0.19107 -1.25368,0.81454 -1.25368,1.18644 0,0.14095 0.31847,-0.0319 0.70772,-0.38421 0.38924,-0.35226 0.63493,-0.71327 0.54596,-0.80223 z m 9.23434,8.71529 c 0.21197,-0.81058 0.3102,-0.84177 0.56446,-0.17919 0.10552,0.27499 -0.0183,0.58061 -0.27511,0.67916 -0.31879,0.12233 -0.4106,-0.0363 -0.28935,-0.49997 z m 5.99969,-3.76828 c 0.19514,-0.50852 0.86046,-0.42885 1.04513,0.12516 0.0629,0.18883 -0.18691,0.34332 -0.55523,0.34332 -0.41178,0 -0.60044,-0.18041 -0.4899,-0.46848 z m -4.05965,-1.21036 c 0.0768,-0.23041 0.33213,-0.45663 0.56739,-0.50271 0.23526,-0.0461 0.26403,-0.003 0.064,0.0963 -0.20009,0.099 -0.27407,0.32525 -0.16439,0.50271 0.10967,0.17745 0.0181,0.32264 -0.20359,0.32264 -0.22165,0 -0.34016,-0.18851 -0.26336,-0.41892 z m -9.79175,-4.88815 c -0.11468,-0.18555 0.11836,-0.33737 0.51787,-0.33737 0.8518,0 0.93774,0.19618 0.2085,0.47602 -0.28482,0.10929 -0.61169,0.0469 -0.72637,-0.13865 z m 0.53869,-1.3957 c 0,-0.19403 0.16812,-0.35278 0.37359,-0.35278 0.20548,0 0.27549,0.15875 0.15557,0.35278 -0.11991,0.19402 -0.28803,0.35277 -0.37359,0.35277 -0.0856,0 -0.15557,-0.15875 -0.15557,-0.35277 z m 1.64629,-0.23519 c -0.12935,-0.12935 -0.23518,-0.39923 -0.23518,-0.59972 0,-0.22105 0.16431,-0.20023 0.41745,0.0529 0.2296,0.2296 0.33543,0.49948 0.23519,0.59973 -0.10025,0.10024 -0.2881,0.0764 -0.41746,-0.0529 z"
         id="path3" /><path
         style="fill:#749d3e"
         d="m 48.161368,162.28153 c -0.210517,-0.39336 -0.36519,-3.21397 -0.36519,-6.65959 0,-4.91552 0.09517,-6.0562 0.535784,-6.42188 0.436859,-0.36256 0.654086,-0.3376 1.176515,0.1352 0.592404,0.53611 0.727401,0.53661 1.789834,0.007 1.523384,-0.75996 3.584772,-0.46521 5.162486,0.73817 l 1.229873,0.93807 1.060361,-0.89223 c 2.565901,-2.15907 6.445335,-1.32966 7.875265,1.68369 0.772576,1.62809 0.843851,10.622 0.08648,10.91263 -1.016371,0.39002 -1.27771,-0.5899 -1.27771,-4.79094 0,-2.38797 -0.169263,-4.51694 -0.394067,-4.95653 -1.126334,-2.20243 -3.593749,-2.65784 -5.277514,-0.97408 -1.028735,1.02874 -1.031197,1.04163 -1.031197,5.40063 0,3.17613 -0.134091,4.55281 -0.490992,5.04091 -0.406231,0.55555 -0.58428,0.59404 -1.031387,0.22298 -0.425027,-0.35274 -0.564977,-1.46749 -0.655536,-5.22156 -0.114138,-4.73149 -0.123761,-4.78047 -1.104952,-5.62361 -1.415856,-1.21665 -3.178769,-1.14596 -4.505381,0.18065 l -1.031196,1.0312 v 4.54269 c 0,3.06284 -0.137908,4.6806 -0.423334,4.96603 -0.591537,0.59153 -0.905728,0.53026 -1.328143,-0.25903 z m 26.334788,0.33907 c -5.501957,-1.73698 -6.565453,-9.66978 -1.709239,-12.7495 2.997332,-1.90085 6.545075,-1.20618 8.756407,1.71457 3.233648,4.27102 0.614608,10.50702 -4.694142,11.17685 -0.747972,0.0944 -1.806833,0.0305 -2.353026,-0.14192 z m 4.254673,-2.67962 c 3.872544,-2.53739 2.270208,-8.97154 -2.234238,-8.97154 -2.629347,0 -4.025902,1.06742 -4.764077,3.64129 -0.644098,2.24584 1.181012,5.55634 3.308591,6.00134 1.144981,0.23948 2.743833,-0.0513 3.689724,-0.67109 z m 11.555071,2.69528 c -3.444403,-0.83124 -5.868757,-4.43322 -5.314931,-7.89667 0.299851,-1.87516 0.991932,-3.11068 2.468839,-4.40742 2.344066,-2.05812 5.216997,-2.30756 7.65492,-0.66465 2.430195,1.63771 1.51532,3.15351 -1.066434,1.76691 -2.708844,-1.45486 -5.178299,-0.65455 -6.637405,2.15107 -0.822132,1.58083 -0.445117,4.22082 0.786333,5.50617 1.844526,1.92527 4.113933,2.15815 6.244821,0.64083 0.552298,-0.39328 1.236668,-0.62583 1.520823,-0.51679 0.834906,0.32039 0.593854,1.52859 -0.453494,2.27301 -0.836886,0.59483 -3.443632,1.53874 -3.96875,1.43709 -0.09701,-0.0188 -0.652639,-0.14907 -1.234722,-0.28955 z m 8.864345,-0.56451 c -0.121709,-0.31717 -0.22129,-4.59238 -0.22129,-9.50046 0,-7.46792 0.0856,-8.99483 0.524674,-9.35923 0.288571,-0.23949 0.764821,-0.34329 1.058331,-0.23066 0.44361,0.17023 0.53366,1.09958 0.53366,5.50753 0,2.9165 0.0835,5.30274 0.18546,5.30274 0.102,0 1.88794,-1.18973 3.96875,-2.64384 4.07035,-2.84444 5.01801,-3.18216 5.01801,-1.78826 0,0.67171 -0.54275,1.22371 -2.48343,2.52577 -1.36589,0.91641 -2.55045,1.77463 -2.63236,1.90716 -0.0819,0.13252 1.10832,1.93729 2.64493,4.01058 2.74821,3.70804 3.14639,4.80803 1.74046,4.80803 -0.41878,0 -1.63432,-1.30379 -3.37119,-3.61597 -1.49395,-1.98879 -2.75876,-3.67113 -2.81069,-3.73854 -0.0519,-0.0674 -0.57593,0.16187 -1.16445,0.50951 -1.04344,0.61638 -1.07252,0.70704 -1.17095,3.65035 -0.0926,2.77 -0.16252,3.02705 -0.84978,3.12511 -0.441683,0.063 -0.839614,-0.12969 -0.970135,-0.46982 z m 52.695375,-9.00646 c 0,-0.20548 0.15875,-0.27548 0.35278,-0.15557 0.19403,0.11992 0.35278,0.28804 0.35278,0.3736 0,0.0856 -0.15875,0.15557 -0.35278,0.15557 -0.19403,0 -0.35278,-0.16812 -0.35278,-0.3736 z m -10.75972,-4.93661 c -0.38806,-0.15655 -0.48861,-0.2958 -0.22346,-0.30944 0.32057,-0.0165 0.42561,-0.3203 0.31351,-0.90674 -0.11306,-0.5914 -0.0104,-0.88194 0.31165,-0.88194 0.26413,0 0.48024,0.17573 0.48024,0.39052 0,0.21478 0.23813,0.29914 0.52917,0.18746 0.29104,-0.11169 0.52917,-0.0399 0.52917,0.15946 0,0.19939 0.15875,0.26442 0.35277,0.1445 0.19403,-0.11992 0.35278,-0.60553 0.35278,-1.07915 0,-0.47362 -0.15875,-0.86113 -0.35278,-0.86113 -0.19402,0 -0.35277,0.23813 -0.35277,0.52917 0,0.29104 -0.16775,0.52917 -0.37278,0.52917 -0.20502,0 0.0296,-0.67469 0.52131,-1.49931 1.0675,-1.79012 2.18397,-2.05195 2.07219,-0.48595 -0.15223,2.13271 -2.72878,4.6612 -4.161,4.08338 z m 1.42355,-4.54744 c -0.13726,-0.2221 -0.0577,-0.63498 0.17677,-0.91753 0.34289,-0.41315 0.31648,-0.51371 -0.13494,-0.51371 -0.36267,0 -0.48685,-0.194 -0.35091,-0.54825 0.13327,-0.34729 0.54946,-0.50893 1.13546,-0.44097 0.70248,0.0815 0.8974,0.27704 0.8101,0.81283 -0.16201,0.99415 -1.31538,2.12719 -1.63648,1.60763 z m -6.89161,-9.67832 c 0,-0.0733 0.27782,-0.35107 0.61736,-0.61736 0.55953,-0.43881 0.57201,-0.42634 0.1332,0.13319 -0.46086,0.58764 -0.75056,0.77451 -0.75056,0.48417 z m 1.05834,0 c 0,-0.0733 0.24176,-0.33384 0.53724,-0.57907 0.44921,-0.37281 0.50083,-0.35098 0.31503,0.13319 -0.18975,0.49451 -0.85227,0.84111 -0.85227,0.44588 z m -0.82819,-1.36013 c 0.15355,-0.24583 0.31469,-0.6822 0.35808,-0.96972 0.0434,-0.28752 0.24729,-0.57889 0.45309,-0.64749 0.20581,-0.0686 0.29237,-0.25712 0.19236,-0.41894 -0.24501,-0.39643 0.80303,-1.40942 1.45818,-1.40942 0.28863,0 0.42667,0.15875 0.30675,0.35278 -0.11991,0.19403 -0.43741,0.35278 -0.70555,0.35278 -0.26814,0 -0.58416,0.15636 -0.70227,0.34746 -0.13319,0.2155 0.19387,0.26574 0.86112,0.13229 1.41673,-0.28334 1.38149,0.15597 -0.0526,0.6559 -0.89934,0.31351 -1.00232,0.43765 -0.50713,0.61136 0.49828,0.17478 0.36756,0.33899 -0.65992,0.82896 -0.83444,0.39792 -1.18391,0.45512 -1.00209,0.16404 z m 3.15038,-0.92898 c -0.10389,-0.16809 0.10394,-0.57063 0.46183,-0.89452 0.61796,-0.55924 0.64211,-0.54385 0.47972,0.30563 -0.17165,0.89795 -0.58916,1.15908 -0.94155,0.58889 z m 3.85142,-0.30242 c -0.90385,-0.22217 -1.58899,-0.77961 -1.5821,-1.28723 0.003,-0.25454 0.0987,-0.27075 0.26458,-0.045 0.41564,0.56573 1.57189,0.53569 1.35284,-0.0352 -0.10426,-0.27171 0.004,-0.49644 0.24033,-0.49941 0.27749,-0.003 0.2423,-0.13808 -0.0993,-0.37964 -0.47037,-0.33265 -0.47037,-0.35815 0,-0.22949 0.33836,0.0926 0.5423,0.61106 0.56559,1.43797 0.02,0.71127 0.02,1.27481 0,1.2523 -0.02,-0.0225 -0.35393,-0.11896 -0.74198,-0.21435 z m 0.17639,-4.12497 c 0,-0.3719 1.06261,-1.37751 1.25368,-1.18644 0.089,0.089 -0.15672,0.44997 -0.54596,0.80223 -0.38925,0.35226 -0.70772,0.52516 -0.70772,0.38421 z m 3.52777,-1.05007 c 0,-0.0762 0.23813,-0.23002 0.52917,-0.3417 0.29104,-0.11169 0.52917,-0.0493 0.52917,0.13864 0,0.18794 -0.23813,0.34171 -0.52917,0.34171 -0.29104,0 -0.52917,-0.0624 -0.52917,-0.13865 z m -2.00851,-1.14668 c -0.27455,-0.71547 0.56797,-1.86884 1.54413,-2.11384 1.78123,-0.44706 2.65541,1.13978 1.22594,2.22536 -0.71557,0.54342 -2.54703,0.46969 -2.77007,-0.11152 z m 2.36129,-0.33992 c 0,-0.0763 -0.32687,-0.13864 -0.72637,-0.13864 -0.39951,0 -0.63255,0.15182 -0.51787,0.33737 0.18825,0.30459 1.24424,0.13593 1.24424,-0.19873 z m -1.23472,-0.8442 c 0.11992,-0.19402 0.0499,-0.35277 -0.15557,-0.35277 -0.20548,0 -0.3736,0.15875 -0.3736,0.35277 0,0.19403 0.07,0.35278 0.15557,0.35278 0.0856,0 0.25368,-0.15875 0.3736,-0.35278 z m 1.05833,-0.35277 c 0.11992,-0.19403 0.0499,-0.35278 -0.15557,-0.35278 -0.20547,0 -0.37359,0.15875 -0.37359,0.35278 0,0.19402 0.07,0.35277 0.15557,0.35277 0.0856,0 0.25368,-0.15875 0.37359,-0.35277 z"
         id="path2" /><path
         style="fill:#1d221e"
         d="m 113.4834,162.54056 c -0.4468,-0.4468 -0.63197,-12.38082 -0.2092,-13.48254 0.27758,-0.72337 1.76359,-0.72337 2.04118,0 0.11777,0.30691 0.21413,3.37079 0.21413,6.80861 0,6.186 -0.15853,7.09726 -1.23472,7.09726 -0.21343,0 -0.57856,-0.1905 -0.81139,-0.42333 z m 8.70708,-0.10693 c -1.62068,-0.88074 -2.07486,-2.45101 -2.07486,-7.17362 v -4.24586 l -1.14653,-0.11055 c -0.95829,-0.0924 -1.14652,-0.25534 -1.14652,-0.99249 0,-0.73715 0.18823,-0.90009 1.14652,-0.99249 l 1.14653,-0.11055 v -2.40389 c 0,-2.51607 0.45405,-3.40559 1.52798,-2.99348 0.42358,0.16254 0.58404,0.82663 0.66207,2.74011 l 0.10301,2.52558 1.35816,0.0362 c 1.18579,0.0316 1.97023,0.52233 1.98782,1.2435 0.0117,0.47877 -0.93868,0.96132 -2.11268,1.07271 l -1.2333,0.11701 -0.0891,3.70417 c -0.10593,4.40282 0.24185,5.38327 2.00218,5.64445 1.45415,0.21574 2.13334,1.10285 1.46288,1.9107 -0.57067,0.68761 -2.35523,0.70176 -3.59413,0.0285 z m 9.38739,-0.12766 c -2.61727,-1.18901 -4.39934,-3.99912 -4.40473,-6.94573 -0.003,-1.74935 1.66593,-4.67004 3.27883,-5.7374 2.05852,-1.36227 5.15678,-1.34999 7.24011,0.0287 1.24294,0.82254 1.47354,1.16036 1.47354,2.15865 0,0.65093 0.24356,2.5802 0.54125,4.28727 l 0.54125,3.10375 -1.15861,1.21887 c -1.36033,1.43108 -3.54724,2.52832 -5.03917,2.52832 -0.58208,0 -1.69469,-0.28909 -2.47247,-0.64242 z m 5.73514,-3.42435 c 0.99165,-1.14717 1.14706,-1.58748 1.14706,-3.24995 0,-1.76343 -0.11366,-2.03667 -1.36961,-3.29262 -1.20532,-1.20531 -1.57,-1.36961 -3.04012,-1.36961 -1.47011,0 -1.8348,0.1643 -3.04011,1.36961 -1.25248,1.25248 -1.36961,1.53238 -1.36961,3.2729 0,2.13506 0.5425,3.1559 2.24604,4.2265 1.76786,1.11102 3.9753,0.72179 5.42635,-0.95683 z m 9.11443,-0.82361 c -0.36761,-0.40621 -0.49511,-0.73856 -0.28333,-0.73856 0.38628,0 1.68068,-2.09899 3.42643,-5.55626 0.96099,-1.90313 1.58953,-2.36812 1.58953,-1.17592 0,0.37189 0.15951,0.72933 0.35448,0.79432 0.19496,0.065 -0.5591,1.48205 -1.6757,3.14904 -1.11659,1.66698 -2.19056,3.30877 -2.38659,3.64842 -0.33314,0.5772 -0.40008,0.56929 -1.02482,-0.12104 z m -33.14217,-11.49829 c -0.32715,-0.85253 0.14023,-1.5875 1.00952,-1.5875 0.94132,0 1.42458,0.93366 0.84483,1.63222 -0.53373,0.6431 -1.60028,0.61738 -1.85435,-0.0447 z m 42.46091,-7.42239 c 0,-0.16722 0.82159,-1.76119 1.72019,-3.33733 0.16593,-0.29104 0.71817,-1.44198 1.22719,-2.55764 0.50903,-1.11566 1.08598,-2.02847 1.28212,-2.02847 0.59333,0 0.42865,0.51702 -1.39884,4.39183 -1.09953,2.33132 -1.95633,3.72206 -2.29306,3.72206 -0.29568,0 -0.5376,-0.0857 -0.5376,-0.19045 z m -2.965,-1.81763 c 0.2783,-0.93285 0.73931,-1.87054 1.02446,-2.08375 0.28515,-0.21321 0.41611,-0.49001 0.29102,-0.6151 -0.38191,-0.38191 1.01631,-4.4653 1.52898,-4.4653 0.66805,0 0.59394,0.39996 -0.88194,4.75981 -0.88379,2.61074 -1.50156,3.91422 -1.89063,3.98915 -0.52681,0.10145 -0.53316,-0.0387 -0.0719,-1.58481 z m -13.23493,-2.78382 c 0.0169,-0.41097 0.10052,-0.49456 0.21314,-0.21314 0.1019,0.25466 0.0894,0.55893 -0.0279,0.67616 -0.11723,0.11722 -0.20061,-0.0911 -0.18529,-0.46302 z m 21.20459,-4.33916 c -0.36493,-0.22595 -0.25563,-0.7105 0.51447,-2.2807 0.53781,-1.09659 1.09416,-1.9938 1.23631,-1.9938 0.68927,0 0.59019,0.85177 -0.30477,2.61999 -0.70373,1.3904 -1.11414,1.85999 -1.44601,1.65451 z m -20.43869,-0.99962 c 0.33955,-0.0834 0.61979,-0.25904 0.62276,-0.39033 0.0138,-0.61188 0.63392,-1.12393 1.13035,-0.93344 1.05575,0.40513 0.31888,1.39789 -1.06723,1.43783 -0.71678,0.0207 -1.02543,-0.0307 -0.68588,-0.11406 z m 15.88337,-0.0327 c -0.56263,-0.35744 0.88865,-5.00604 1.56286,-5.00604 0.25148,0 0.45724,0.2073 0.45724,0.46067 0,0.42063 -1.40216,4.83813 -1.53169,4.8256 -0.0307,-0.003 -0.25048,-0.12908 -0.48841,-0.28023 z m -12.09101,-0.90797 c 0,-0.0744 0.39207,-0.21021 0.87127,-0.30181 0.4792,-0.0916 0.78733,-0.0307 0.68473,0.13526 -0.18065,0.2923 -1.556,0.43951 -1.556,0.16655 z"
         id="path1" /></g></g></svg>
