<?xml version="1.0" encoding="UTF-8" standalone="no"?>
<!-- Created with Inkscape (http://www.inkscape.org/) -->

<svg
   width="210mm"
   height="297mm"
   viewBox="0 0 210 297"
   version="1.1"
   id="svg1"
   xml:space="preserve"
   inkscape:version="1.3 (0e150ed6c4, 2023-07-21)"
   sodipodi:docname="logoDocker.svg"
   xmlns:inkscape="http://www.inkscape.org/namespaces/inkscape"
   xmlns:sodipodi="http://sodipodi.sourceforge.net/DTD/sodipodi-0.dtd"
   xmlns="http://www.w3.org/2000/svg"
   xmlns:svg="http://www.w3.org/2000/svg"><sodipodi:namedview
     id="namedview1"
     pagecolor="#ffffff"
     bordercolor="#000000"
     borderopacity="0.25"
     inkscape:showpageshadow="2"
     inkscape:pageopacity="0.0"
     inkscape:pagecheckerboard="0"
     inkscape:deskcolor="#d1d1d1"
     inkscape:document-units="mm"
     inkscape:zoom="0.57103676"
     inkscape:cx="396.64697"
     inkscape:cy="561.25984"
     inkscape:window-width="1600"
     inkscape:window-height="837"
     inkscape:window-x="1042"
     inkscape:window-y="547"
     inkscape:window-maximized="1"
     inkscape:current-layer="layer1" /><defs
     id="defs1" /><g
     inkscape:label="Capa 1"
     inkscape:groupmode="layer"
     id="layer1"><g
       id="g1"
       transform="matrix(2.5850259,0,0,3.7237834,-167.54171,-401.29485)"><path
         style="fill:#046ba3"
         d="m 95.690389,164.55571 c -0.179734,-0.17905 -3.175847,-0.79397 -3.348526,-0.68725 -0.100531,0.0621 -0.222719,0.004 -0.271528,-0.12903 -0.04881,-0.13309 -0.326869,-0.28266 -0.61791,-0.33237 -0.291042,-0.0497 -0.687594,-0.24031 -0.881227,-0.42355 -0.193633,-0.18324 -0.461523,-0.26551 -0.595312,-0.18282 -0.133789,0.0827 -0.243253,0.0444 -0.243253,-0.0851 0,-0.12952 -0.307236,-0.39992 -0.682748,-0.60088 -0.879911,-0.47092 -2.803694,-2.3947 -3.274608,-3.27461 -0.200968,-0.37551 -0.471366,-0.68275 -0.600885,-0.68275 -0.129519,0 -0.167837,-0.10946 -0.08515,-0.24325 0.08269,-0.13379 -0.02368,-0.41727 -0.23637,-0.62996 -0.212689,-0.21269 -0.313002,-0.46042 -0.222918,-0.5505 0.09009,-0.0901 0.02488,-0.16379 -0.14489,-0.16379 -0.169775,0 -0.284423,-0.0893 -0.254774,-0.19844 0.06346,-0.23361 -0.590049,-3.00013 -0.790763,-3.34757 -0.205192,-0.35518 -0.337539,-3.65824 -0.168007,-4.19305 0.137713,-0.43445 1.163576,-0.46302 16.621304,-0.46302 9.060996,0 16.553716,-0.0792 16.650496,-0.17597 0.0968,-0.0968 0.47424,-0.20777 0.8388,-0.24663 0.36456,-0.0389 0.83824,-0.24608 1.05263,-0.46047 0.34333,-0.34334 0.32488,-0.58752 -0.15484,-2.04882 -0.52945,-1.61278 -0.53173,-1.70003 -0.0821,-3.12964 0.25441,-0.80884 0.46256,-1.62136 0.46256,-1.80559 0,-0.18423 0.11906,-0.33497 0.26458,-0.33497 0.14552,0 0.19088,-0.0737 0.1008,-0.16379 -0.17443,-0.17443 0.43635,-0.89454 0.75873,-0.89454 0.3178,0 2.97176,2.60691 2.81428,2.76439 -0.0803,0.0803 -1e-4,0.14603 0.17827,0.14603 0.17836,0 0.25071,0.11906 0.16077,0.26458 -0.0899,0.14552 -0.0304,0.26458 0.13229,0.26458 0.1627,0 0.22375,0.1166 0.13567,0.25912 -0.0881,0.14251 -0.0421,0.47961 0.1021,0.7491 0.20695,0.38671 0.586,0.49389 1.79817,0.50849 0.84477,0.0102 1.7386,0.10035 1.98629,0.20038 0.24769,0.10004 0.57511,0.10478 0.7276,0.0105 0.15249,-0.0942 0.27726,-0.0714 0.27726,0.0508 0,0.12221 0.37178,0.36253 0.82618,0.53404 0.63816,0.24088 0.78423,0.41967 0.64185,0.78561 -0.10138,0.26057 -0.20527,0.5924 -0.23087,0.73739 -0.0256,0.145 -0.22513,0.4091 -0.44341,0.5869 -0.21828,0.1778 -0.28913,0.32706 -0.15743,0.33169 0.13169,0.005 0.0265,0.24373 -0.2338,0.53134 -0.26029,0.28761 -0.57724,0.45866 -0.70434,0.38011 -0.1271,-0.0786 -0.30225,0.0426 -0.38924,0.2693 -0.087,0.22667 -0.26473,0.34625 -0.395,0.26574 -0.13027,-0.0805 -0.23686,-0.0133 -0.23686,0.14942 0,0.1627 -0.0893,0.24324 -0.19844,0.17897 -0.10914,-0.0643 -0.49609,0.003 -0.85989,0.15027 -0.36381,0.14691 -1.15497,0.24377 -1.75814,0.21524 -0.86985,-0.0411 -1.18223,0.0703 -1.51032,0.5387 -0.2275,0.32481 -0.35205,0.69022 -0.27677,0.81202 0.0753,0.12181 0.004,0.22147 -0.15894,0.22147 -0.1627,0 -0.22223,0.11906 -0.13229,0.26458 0.0899,0.14552 0.0304,0.26459 -0.13229,0.26459 -0.1627,0 -0.22852,0.10889 -0.14626,0.24198 0.0823,0.13309 0.0595,0.28192 -0.0505,0.33073 -0.21465,0.0952 -2.30006,3.17532 -2.2993,3.39604 2.5e-4,0.0728 -0.92631,1.03469 -2.05902,2.13763 -1.13271,1.10294 -2.05948,1.96008 -2.05948,1.90476 0,-0.13194 -1.93641,1.31262 -2.14625,1.60109 -0.089,0.1224 -0.26762,0.2285 -0.39687,0.23577 -0.40205,0.0226 -2.07694,0.85381 -2.28147,1.1322 -0.10691,0.14553 -0.19621,0.1711 -0.19844,0.0568 -0.002,-0.11426 -0.27194,-0.0605 -0.59936,0.11957 -0.32742,0.18002 -0.75344,0.35363 -0.94671,0.3858 -0.19326,0.0322 -0.55045,0.14285 -0.79375,0.24595 -0.24329,0.10311 -0.78862,0.2324 -1.21184,0.28732 -0.42321,0.0549 -0.91041,0.21683 -1.08267,0.35979 -0.17226,0.14297 -0.38641,0.18673 -0.47588,0.0972 -0.0895,-0.0895 -0.37618,-0.075 -0.63712,0.0321 -0.26093,0.10714 -0.89115,0.231 -1.40047,0.27523 -1.48969,0.12936 -7.179312,0.26466 -7.271411,0.17291 z m -8.802027,-17.68614 c -0.222859,-0.0899 -0.330729,-0.77348 -0.330729,-2.09578 v -1.96232 h 2.248958 2.248959 v 2.11666 2.11667 l -1.91823,-0.0209 c -1.055026,-0.0115 -2.067057,-0.0809 -2.248958,-0.15434 z m 5.820833,0 c -0.222859,-0.0899 -0.330729,-0.77348 -0.330729,-2.09578 v -1.96232 h 2.248959 2.248958 v 2.11666 2.11667 l -1.918229,-0.0209 c -1.055026,-0.0115 -2.067058,-0.0809 -2.248959,-0.15434 z m 5.754688,-1.94144 v -2.11666 h 2.248957 2.24896 v 1.95606 c 0,2.28628 0.0106,2.27727 -2.66747,2.27727 h -1.830447 z m 5.291667,-0.036 v -2.08069 h 2.24896 2.24896 v 2.13026 2.13026 l -2.24896,-0.0496 -2.24896,-0.0496 z m 5.82083,0 v -2.08069 h 2.24896 2.24896 v 2.13026 2.13026 l -2.24896,-0.0496 -2.24896,-0.0496 z m -5.82207,-5.25569 v -1.98438 l 2.24958,0.0856 2.24958,0.0856 v 1.81321 1.8132 l -2.24958,0.0856 -2.24958,0.0856 z m -11.375844,0 v -1.85209 h 2.248959 2.248958 v 1.85209 1.85208 h -2.248958 -2.248959 z m 6.085417,0 v -1.85209 h 2.248957 2.24896 v 1.85209 1.85208 h -2.24896 -2.248957 z m 5.290427,-5.29167 v -1.98438 l 2.24958,0.0856 2.24958,0.0856 v 1.8132 1.8132 l -2.24958,0.0856 -2.24958,0.0856 z"
         id="path2" /></g></g></svg>
