<?xml version="1.0" encoding="UTF-8" standalone="no"?>
<!-- Created with Inkscape (http://www.inkscape.org/) -->

<svg
   width="210mm"
   height="297mm"
   viewBox="0 0 210 297"
   version="1.1"
   id="svg1"
   xml:space="preserve"
   xmlns="http://www.w3.org/2000/svg"
   xmlns:svg="http://www.w3.org/2000/svg"><defs
     id="defs1" /><g
     id="layer1"><g
       id="g1"
       transform="matrix(3.9555552,0,0,5.4011755,-312.21596,-652.68315)"><path
         style="fill:#4e9907"
         d="m 83.513217,157.5132 c -1.955735,-0.59491 -3.437983,-1.97206 -3.809023,-3.53895 -0.406066,-1.7148 0.596648,-3.66765 2.073529,-4.03832 1.594804,-0.40027 3.27699,1.20769 2.927606,2.79842 -0.229677,1.04571 -0.771316,1.41469 -2.005681,1.36633 -1.189266,-0.0466 -1.52434,0.3675 -1.035879,1.2802 0.632226,1.18133 3.046767,1.67426 4.505655,0.91984 1.514171,-0.78301 1.594881,-1.25759 1.517095,-8.92058 l -0.07055,-6.94994 -1.256771,-0.0806 c -1.040944,-0.0668 -1.256771,-0.16903 -1.256771,-0.59532 0,-0.48904 0.217378,-0.51467 4.365625,-0.51467 4.143947,0 4.365625,0.0261 4.365625,0.5132 0,0.40204 -0.214906,0.53098 -0.992187,0.59531 l -0.992188,0.0821 -0.132292,6.74687 c -0.142487,7.26684 -0.15372,7.32666 -1.678178,8.93694 -1.286928,1.35938 -4.436454,2.03468 -6.525618,1.39919 z"
         id="path2" /><path
         style="fill:#cb0101"
         d="m 100.05139,157.58664 c -1.895506,-0.26795 -3.91192,-1.49163 -4.443387,-2.6965 -0.190635,-0.43218 -0.362129,-2.98767 -0.446588,-6.65473 l -0.13711,-5.95313 -1.124479,-0.0814 c -0.765627,-0.0554 -1.124479,-0.20315 -1.124479,-0.46302 0,-0.31553 0.687669,-0.38166 3.96875,-0.38166 3.351393,0 3.968753,0.0617 3.968753,0.39688 0,0.2856 -0.29218,0.39687 -1.042125,0.39687 -1.034667,0 -1.043419,0.009 -1.223486,1.20943 -0.09975,0.66518 -0.130334,3.26991 -0.06796,5.78829 0.12505,5.04919 0.26063,5.51728 1.884921,6.50767 1.16084,0.70781 3.12401,0.68349 4.43794,-0.055 1.66264,-0.93446 1.83154,-1.59573 1.83154,-7.17087 0,-4.54167 -0.0386,-4.9343 -0.54837,-5.58241 -0.32334,-0.41106 -0.81192,-0.69714 -1.19062,-0.69714 -0.39451,0 -0.64226,-0.15309 -0.64226,-0.39687 0,-0.32978 0.51447,-0.39688 3.04271,-0.39688 2.52824,0 3.04271,0.0671 3.04271,0.39688 0,0.23994 -0.24533,0.39687 -0.62045,0.39687 -0.34125,0 -0.84727,0.25031 -1.12448,0.55623 -0.4497,0.49628 -0.51883,1.13082 -0.64135,5.88698 -0.10933,4.24431 -0.22554,5.49252 -0.57017,6.1245 -0.52436,0.96155 -1.40213,1.78664 -2.46751,2.31942 -0.85708,0.42861 -3.47831,0.73106 -4.7625,0.54952 z m 9.12812,-0.32672 c 0,-0.12974 0.30141,-0.31155 0.6698,-0.404 l 0.66979,-0.16811 -0.0745,-3.09442 c -0.0722,-3.0017 -0.0943,-3.10444 -0.73594,-3.42855 -0.6242,-0.31531 -0.59067,-0.33435 0.59531,-0.33803 1.16521,-0.004 1.25677,0.0443 1.25677,0.65756 0,0.3638 0.0983,0.66145 0.21847,0.66145 0.12015,0 0.49809,-0.29765 0.83987,-0.66145 0.49379,-0.52563 0.87966,-0.66146 1.879,-0.66146 1.04346,0 1.35096,0.1187 1.80596,0.69714 0.4618,0.58708 0.54837,1.07018 0.54837,3.0601 0,2.43621 0.26247,3.38651 0.93535,3.38651 0.21316,0 0.38757,0.11906 0.38757,0.26458 0,0.15119 -0.79375,0.26458 -1.85209,0.26458 -1.84563,0 -2.44742,-0.32238 -1.19062,-0.63781 0.64381,-0.16159 0.66146,-0.22909 0.66146,-2.52978 0,-1.30007 -0.134,-2.65786 -0.29778,-3.01731 -0.36162,-0.79366 -1.38297,-1.09401 -2.35336,-0.69206 -1.10757,0.45876 -1.34877,1.19187 -1.26268,3.83781 0.0728,2.23708 0.11256,2.3827 0.67267,2.46224 0.32742,0.0465 0.59531,0.19533 0.59531,0.33073 0,0.1354 -0.89296,0.24618 -1.98437,0.24618 -1.09141,0 -1.98438,-0.10615 -1.98438,-0.2359 z m 10.31875,-0.0287 c 0,-0.14552 0.22355,-0.26458 0.49677,-0.26458 0.93136,0 1.11335,-0.61212 1.03415,-3.47821 l -0.0757,-2.7395 -0.92604,-0.46261 -0.92604,-0.46261 1.51367,-4.1e-4 1.51368,-4.1e-4 0.0738,3.50573 0.0738,3.50573 0.7276,0.0837 c 0.40019,0.046 0.72761,0.19487 0.72761,0.33072 0,0.13586 -0.9525,0.24701 -2.11667,0.24701 -1.23472,0 -2.11667,-0.11024 -2.11667,-0.26458 z m 7.10692,-0.24066 c -0.58042,-0.46948 -0.63092,-0.72225 -0.71354,-3.57187 -0.0816,-2.81332 -0.13074,-3.06664 -0.59531,-3.06664 -0.66314,0 -0.65307,-0.42909 0.0142,-0.60358 0.47261,-0.12359 0.6853,-0.47611 1.55145,-2.57142 0.23116,-0.5592 0.2762,-0.40581 0.29133,0.99219 l 0.0179,1.65365 h 1.19063 c 0.65484,0 1.19062,0.11906 1.19062,0.26458 0,0.14552 -0.53578,0.26458 -1.19062,0.26458 h -1.19063 l 0.004,2.84427 c 0.002,1.56435 0.10775,3.00799 0.23449,3.20808 0.12675,0.20009 0.55518,0.3638 0.95209,0.3638 0.79315,0 1.12345,-0.35261 1.36316,-1.45521 0.087,-0.40018 0.25406,-0.7276 0.37123,-0.7276 0.11717,0 0.10229,0.38616 -0.0331,0.85815 -0.13536,0.47198 -0.24612,0.88406 -0.24612,0.91573 0,0.0317 -0.26057,0.30035 -0.57905,0.59706 -0.72675,0.67707 -1.82047,0.69129 -2.63278,0.0342 z m -5.71785,-10.25448 c -0.43621,-0.17448 -0.42309,-1.00509 0.0217,-1.37423 0.55556,-0.46107 1.46002,0.31003 1.08387,0.92406 -0.31904,0.52082 -0.62128,0.64389 -1.10557,0.45017 z"
         id="path1" /></g></g></svg>
