<?xml version="1.0" encoding="UTF-8" standalone="no"?>
<!-- Created with Inkscape (http://www.inkscape.org/) -->

<svg
   width="210mm"
   height="297mm"
   viewBox="0 0 210 297"
   version="1.1"
   id="svg1"
   xml:space="preserve"
   xmlns="http://www.w3.org/2000/svg"
   xmlns:svg="http://www.w3.org/2000/svg"><defs
     id="defs1" /><g
     id="layer1"><g
       id="g1"
       transform="translate(4.1700497,6.0234011)"><path
         style="fill:#f4ea04"
         d="m 98.282606,151.58633 c -7.823885,-4.5884 -12.073694,-7.54966 -13.054164,-9.09613 -0.649925,-1.02511 -0.863669,-3.1286 -0.850585,-8.37075 0.01362,-5.45692 0.157382,-6.72143 0.651636,-5.73174 2.139278,4.28369 5.012742,5.88235 14.13622,7.86473 l 5.022257,1.09125 0.15989,8.69661 c 0.088,4.78314 -0.0414,8.69113 -0.28735,8.68443 -0.24599,-0.007 -2.84605,-1.41898 -5.777904,-3.1384 z m 10.671884,-7.50288 0.16882,-10.65509 8.16451,-1.69752 c 7.06356,-1.46861 8.33889,-1.92026 9.45762,-3.34938 0.71121,-0.90852 1.2931,-2.1905 1.2931,-2.84883 0,-0.65833 0.30257,-1.40355 0.67238,-1.65605 0.45842,-0.313 0.54986,-0.10636 0.28736,0.64938 -0.21177,0.60966 -0.38503,4.78825 -0.38503,9.28577 0,9.48246 0.3437,8.7969 -6.7272,13.41853 -4.68023,3.05904 -12.25655,7.50607 -12.79035,7.50747 -0.17052,4.5e-4 -0.23406,-4.79398 -0.14121,-10.65428 z m -9.938937,-10.52685 -3.448276,-0.72444 -0.176838,-2.70102 -0.176838,-2.70102 4.487183,1.79298 c 3.947796,1.57744 4.509046,1.99752 4.669036,3.49466 0.20786,1.94509 0.038,1.9717 -5.354267,0.83884 z m -9.348895,-3.42286 c -1.008816,-0.96031 -2.615426,-2.85674 -3.570244,-4.21429 L 84.360381,123.4512 V 112.74485 102.0385 h 1.724138 1.724138 l 0.0016,10.95239 0.0016,10.95238 2.15362,1.27078 c 1.845601,1.08903 2.200244,1.65658 2.479613,3.96825 0.388601,3.21553 -0.191294,3.41411 -2.778337,0.95144 z m 19.286612,0.76717 c -0.15972,-0.17645 -0.17122,-1.00959 -0.0256,-1.85141 0.21893,-1.2652 0.9426,-1.75803 4.17361,-2.84223 2.14982,-0.72139 4.19189,-1.31162 4.53793,-1.31162 0.34605,0 0.62918,0.97974 0.62918,2.17721 0,2.1455 -0.0481,2.18747 -3.3046,2.88213 -1.81753,0.38771 -3.8481,0.83134 -4.51238,0.98584 -0.66428,0.15449 -1.33846,0.13653 -1.49818,-0.0399 z m -6.7768,-2.7638 c -1.38756,-0.42636 -1.43819,-0.63082 -1.47799,-5.96846 -0.0227,-3.03983 0.0548,-5.52697 0.17222,-5.52697 0.11738,0 0.97645,0.43591 1.90903,0.96868 1.66259,0.94984 1.69559,1.06723 1.69559,6.03175 0,2.78468 -0.19396,5.03458 -0.43103,4.99977 -0.23707,-0.0348 -1.07759,-0.26195 -1.86782,-0.50477 z m 17.8249,-1.49543 c 0.0108,-2.54122 0.39067,-3.20147 2.55399,-4.43951 1.11181,-0.63628 1.72184,-1.49268 1.76172,-2.47324 0.0335,-0.82497 0.10874,-5.14281 0.16709,-9.59519 l 0.1061,-8.09524 h 2.01149 2.01149 v 8.58728 c 0,8.525 -0.0144,8.6188 -1.98094,12.933 -1.94364,4.26389 -2.8758,5.11395 -5.634,5.13772 -0.75494,0.007 -1.00355,-0.50591 -0.99694,-2.05482 z m -24.172727,-1.17081 c -1.400837,-0.5692 -1.505788,-0.97704 -2.478734,-9.63241 -0.558779,-4.97093 -1.162034,-10.10948 -1.340566,-11.419 -0.304109,-2.23063 -0.230649,-2.38096 1.163479,-2.38096 1.593943,0 1.637358,0.10942 3.275197,8.25397 0.386232,1.92064 1.036723,3.92064 1.445534,4.44445 0.437287,0.56029 0.821248,3.10946 0.932646,6.19196 0.204972,5.67175 0.115713,5.807 -2.997556,4.54199 z m 13.221027,-0.0461 c -0.0129,-0.1164 -0.0775,-2.85459 -0.14368,-6.08486 -0.1079,-5.26687 -0.0143,-5.87319 0.90699,-5.87301 0.92392,1.8e-4 1.01068,0.58612 0.86207,5.82185 -0.11231,3.95688 -0.39536,5.9059 -0.88363,6.08466 -0.39512,0.14465 -0.72891,0.16776 -0.74175,0.0514 z m -18.674347,-2.59259 c -0.471685,-1.38229 -1.148393,-20.79388 -0.724892,-20.79377 0.222746,6e-5 0.539728,0.92869 0.704405,2.06361 0.311035,2.14358 1.476809,16.76459 1.476809,18.52196 0,1.19003 -1.06913,1.34287 -1.456322,0.2082 z m 22.720687,-4.45045 c 0,-4.47432 0.16115,-5.35528 1.09783,-6.00153 0.85136,-0.58738 1.18908,-1.83329 1.5043,-5.54955 0.35868,-4.22856 0.54239,-4.79213 1.56212,-4.79213 1.1151,0 1.1437,0.284 0.81502,8.09524 -0.18734,4.45238 -0.34984,8.99586 -0.36109,10.09662 -0.017,1.66526 -0.32444,2.11845 -1.83037,2.69841 -0.99545,0.38337 -2.02993,0.69704 -2.29885,0.69704 -0.26893,0 -0.48896,-2.35985 -0.48896,-5.2441 z m 7.25948,2.25879 c -0.19961,-0.22051 -0.36293,-4.49618 -0.36293,-9.50147 v -9.10053 h 1.43679 1.43678 v 8.86655 c 0,8.00877 -0.10389,8.92798 -1.07386,9.50148 -0.59063,0.3492 -1.23718,0.45449 -1.43678,0.23397 z m -18.61005,-5.68916 c -0.50693,-0.22598 -0.71839,-2.17358 -0.71839,-6.61654 v -6.2963 h 1.72414 1.72413 v 6.66667 c 0,6.97968 -0.17682,7.38428 -2.72988,6.24617 z m -3.856832,-6.08744 c -0.512446,-2.53174 -1.067845,-5.10317 -1.234219,-5.71428 -0.233171,-0.85646 0.03567,-1.11112 1.17301,-1.11112 1.474909,0 1.475511,0.002 1.475511,5.71429 0,3.14286 -0.108581,5.71429 -0.241291,5.71429 -0.13271,0 -0.660565,-2.07143 -1.173011,-4.60318 z m 11.184412,-1.37664 c 0,-1.89208 -0.15698,-3.89208 -0.34884,-4.44445 -0.19186,-0.55237 -0.0868,-1.00431 0.23343,-1.00431 0.32025,0 0.75455,1.5 0.96513,3.33334 0.21057,1.83333 0.51088,3.83333 0.66737,4.44444 0.18418,0.7193 -0.0331,1.11111 -0.61629,1.11111 -0.70708,0 -0.9008,-0.73978 -0.9008,-3.44013 z m 3.17328,0.1068 c -0.21057,-1.83333 -0.51089,-3.83333 -0.66737,-4.44444 -0.22387,-0.87428 0.0693,-1.11112 1.37532,-1.11112 h 1.65983 l -0.42972,3.33334 c -0.23635,1.83333 -0.4486,3.83333 -0.47168,4.44444 -0.0923,2.44451 -1.10699,0.90681 -1.46638,-2.22222 z"
         id="path2" /><path
         style="fill:#033a76"
         d="m 23.428462,200.0248 -1.824707,-1.69624 1.349577,-1.13027 c 1.309996,-1.09712 1.358389,-1.09104 1.650005,0.20758 0.165235,0.73582 0.733484,1.63964 1.262776,2.00848 1.406943,0.98045 4.183923,-0.23787 4.183923,-1.83558 0,-0.97159 -0.753431,-1.518 -3.340394,-2.42258 -4.022051,-1.40639 -5.154775,-3.20981 -3.630411,-5.78001 1.117734,-1.88459 3.058148,-2.55543 5.767409,-1.99393 2.510858,0.52039 3.638422,1.89886 2.640178,3.22768 -0.897511,1.19473 -1.724138,1.2273 -1.724138,0.0679 0,-1.67836 -3.419035,-2.27184 -4.534418,-0.78709 -0.843188,1.12242 0.02706,1.9417 3.021932,2.84493 2.913357,0.87865 4.386049,2.4209 4.386049,4.59322 0,4.17478 -5.79249,5.87073 -9.207781,2.69588 z m 37.549571,0.78149 c -3.228405,-1.57689 -4.588788,-6.62196 -2.810178,-10.42174 1.476636,-3.15464 5.646705,-4.20211 9.031265,-2.26853 1.68038,0.95999 1.708842,1.04495 0.744456,2.22222 -1.180281,1.44083 -1.974,1.57739 -1.974,0.33962 0,-0.96236 -1.205074,-1.65523 -2.878854,-1.65523 -0.58339,0 -1.62008,0.78563 -2.303757,1.74583 -2.460033,3.45506 0.09802,9.04782 4.138354,9.04782 h 1.76521 l -0.276113,-3.1746 c -0.267415,-3.0746 -0.228985,-3.17461 1.219984,-3.17484 1.462153,-2.2e-4 1.493957,0.0898 1.401836,3.96826 l -0.09426,3.96848 -3.066659,0.14843 c -1.688854,0.0817 -3.889133,-0.2533 -4.897284,-0.74572 z m 17.764575,-0.32058 c -5.999819,-4.15981 -2.405054,-14.21274 4.705559,-13.15932 7.566218,1.12091 7.346086,13.31628 -0.255855,14.17441 -1.925851,0.2174 -3.037967,-0.0363 -4.449704,-1.01509 z m 6.534447,-2.00593 c 0.718488,-0.87709 1.09482,-2.27278 1.09482,-4.06032 0,-3.31124 -1.478048,-5.39683 -3.824705,-5.39683 -2.473133,0 -3.933916,2.00401 -3.933916,5.39683 0,4.82573 4.026871,7.27935 6.663801,4.06032 z m 48.728695,2.236 c -2.13094,-1.16139 -3.09364,-3.2257 -3.09364,-6.63364 0,-7.11541 9.37388,-9.52636 12.34659,-3.17553 3.11633,6.65765 -3.04702,13.1915 -9.25295,9.80917 z m 6.10176,-2.16934 c 0.80885,-0.89359 1.14942,-2.1164 1.14942,-4.12698 0,-4.79271 -3.30578,-6.95277 -6.40185,-4.18308 -1.94525,1.74019 -1.94525,6.62597 0,8.36616 1.75108,1.56648 3.80356,1.54456 5.25243,-0.0561 z m -105.862072,1.77778 c 0.926736,-1.02382 0.926736,-10.7857 0,-11.80953 -0.536398,-0.59259 0.485313,-0.7619 4.597702,-0.7619 4.904214,0 5.287356,0.092 5.287356,1.26984 0,1.3391 -0.836139,1.7086 -1.436782,0.63492 -0.195355,-0.3492 -1.503722,-0.63492 -2.907481,-0.63492 -2.452735,0 -2.552289,0.0743 -2.552289,1.90476 0,1.78224 0.140485,1.90477 2.183908,1.90477 1.20115,0 2.494253,-0.34286 2.873563,-0.76191 0.536399,-0.59259 0.689656,-0.31041 0.689656,1.26984 0,1.11746 -0.258621,2.03175 -0.574713,2.03175 -0.316092,0 -0.574713,-0.28572 -0.574713,-0.63492 0,-0.34921 -1.034483,-0.63492 -2.29885,-0.63492 h -2.298851 v 2.85714 2.85714 h 2.839646 c 1.561804,0 2.999481,-0.28571 3.194837,-0.63492 0.600643,-1.07367 1.436781,-0.70418 1.436781,0.63492 0,1.18257 -0.383141,1.26984 -5.574712,1.26984 -4.335888,0 -5.421456,-0.16931 -4.885058,-0.7619 z m 11.321839,-5.90476 v -6.66667 h 4.077594 c 3.220426,0 4.277537,0.24408 5.028735,1.16111 1.281754,1.56469 1.19852,3.64496 -0.208011,5.19884 -1.070883,1.18307 -1.093785,1.42024 -0.300754,3.11445 0.47212,1.00863 1.270832,2.28951 1.774917,2.8464 0.838882,0.92676 0.769045,1.01253 -0.824445,1.01253 -1.455685,0 -1.989314,-0.46817 -3.25658,-2.85714 -0.83359,-1.57143 -1.905016,-2.85714 -2.380947,-2.85714 -0.672906,0 -0.81959,0.63534 -0.65964,2.85714 0.201808,2.80322 0.173072,2.85714 -1.522589,2.85714 h -1.72828 z m 7.502968,-2.33258 c 0.46642,-1.62351 -0.951211,-3.06425 -3.015111,-3.06425 -1.133358,0 -1.326937,0.32419 -1.326937,2.22222 0,2.1081 0.101318,2.22223 1.972766,2.22223 1.520596,0 2.063649,-0.31635 2.369282,-1.3802 z m 17.802718,8.33156 c 0.205436,-0.36723 0.37352,-3.06677 0.37352,-5.99898 0,-2.93222 -0.168084,-5.63176 -0.37352,-5.99899 -0.232489,-0.41558 0.344525,-0.66768 1.528213,-0.66768 h 1.901734 v 6.66667 6.66666 h -1.901734 c -1.183688,0 -1.760702,-0.2521 -1.528213,-0.66768 z m 25.151732,-6.03036 c 2.15084,-6.17964 2.440934,-6.68334 3.748147,-6.50794 1.213868,0.16287 1.716998,1.04786 3.511558,6.17662 2.87914,8.22845 3.61792,8.25274 3.38558,0.1113 l -0.18316,-6.41804 4.07759,0.001 c 3.21935,10e-4 4.27779,0.24577 5.02874,1.16249 1.34927,1.64712 1.17846,3.62855 -0.43358,5.02942 l -1.38472,1.20333 1.69848,3.01472 1.69847,3.01473 -1.59939,-0.20372 c -1.19965,-0.1528 -1.93523,-0.87815 -2.94303,-2.90213 -1.84152,-3.69833 -3.16414,-3.62573 -2.89169,0.15873 l 0.20569,2.85714 h -3.91737 c -2.41012,0 -3.78353,-0.23924 -3.56952,-0.6218 0.38777,-0.69316 -0.68011,-3.24944 -1.65916,-3.97165 -2.087768,-1.54008 -4.827737,0.67784 -4.186097,3.38852 0.229705,0.97042 -0.02649,1.20493 -1.316296,1.20493 h -1.601514 z m 4.370355,-0.44481 c -0.0315,-0.43651 -0.25384,-1.50794 -0.494069,-2.38096 l -0.436779,-1.5873 -0.655359,1.78737 c -0.910137,2.48222 -0.828364,2.97454 0.494067,2.97454 0.632184,0 1.12365,-0.35715 1.09214,-0.79365 z m 13.27568,-0.74173 c 0,-0.14604 0.14418,-0.68063 0.3204,-1.18797 0.44089,-1.26929 -1.25585,-2.99094 -2.94766,-2.99094 -1.21198,0 -1.39573,0.29256 -1.39573,2.22222 0,2.11641 0.0958,2.22223 2.01149,2.22223 1.10632,0 2.0115,-0.11949 2.0115,-0.26554 z m 4.88505,1.21792 v -6.66667 h 4.05173 c 2.38505,0 4.33541,0.31341 4.74138,0.7619 0.94568,1.04476 0.8705,4.28065 -0.1091,4.69594 -0.61046,0.2588 -0.47499,0.69631 0.57471,1.85598 1.60662,1.77493 1.70076,2.68105 0.47881,4.6084 -0.79268,1.25027 -1.39861,1.41111 -5.31609,1.41111 h -4.42144 z m 7.43022,4.39909 c 1.06844,-1.18037 1.0776,-1.26524 0.30818,-2.85353 -0.43462,-0.89717 -1.20894,-1.2281 -2.87356,-1.2281 -2.27526,0 -2.27863,0.004 -2.27863,2.53968 0,2.46914 0.0547,2.53968 1.97044,2.53968 1.08375,0 2.37685,-0.44898 2.87357,-0.99773 z m -0.33822,-7.49762 c 0.24886,-1.44909 -0.80755,-2.27555 -2.92533,-2.28858 -1.38177,-0.008 -1.58046,0.23456 -1.58046,1.93337 0,1.85641 0.0959,1.9343 2.15039,1.74603 1.56514,-0.14342 2.20619,-0.52195 2.3554,-1.39082 z m 19.9195,3.09853 v -6.66667 h 1.88803 c 1.7148,0 1.83116,0.11742 1.26811,1.2797 -0.34096,0.70384 -0.54403,3.3467 -0.45126,5.87302 l 0.16868,4.59331 2.44779,0.19552 c 1.79888,0.14369 2.53853,-0.0657 2.7901,-0.79 0.44464,-1.28009 1.37131,-0.63851 1.37131,0.94941 0,1.1203 -0.4312,1.23237 -4.74138,1.23237 h -4.74138 z m 10.34483,0 v -6.66667 h 5.02873 c 3.99531,0 5.02874,0.18802 5.02874,0.91491 0,1.17216 -0.95958,1.84287 -1.43099,1.00021 -0.19854,-0.3549 -1.50952,-0.64528 -2.91328,-0.64528 -2.45273,0 -2.55229,0.0743 -2.55229,1.90476 0,1.73161 0.17242,1.90477 1.89656,1.90477 1.0431,0 2.20689,-0.34286 2.5862,-0.76191 0.5364,-0.59259 0.68966,-0.28219 0.68966,1.39683 0,1.67901 -0.15326,1.98941 -0.68966,1.39682 -0.37931,-0.41905 -1.5431,-0.7619 -2.5862,-0.7619 -1.86463,0 -1.89656,0.0481 -1.89656,2.85714 v 2.85714 h 2.33664 c 1.28515,0 2.83687,-0.29576 3.44827,-0.65726 0.92979,-0.54974 1.11165,-0.44587 1.11165,0.63492 0,1.20118 -0.35417,1.29218 -5.02874,1.29218 h -5.02873 z m 11.49425,0 v -6.66667 h 3.75143 c 4.17143,0 5.78752,0.86006 7.17139,3.81654 1.37096,2.92889 1.09008,5.54943 -0.82114,7.66087 -1.55106,1.71355 -2.00296,1.85592 -5.89081,1.85592 h -4.21087 z m 6.48174,4.71585 c 3.97407,-1.5305 3.41323,-8.13148 -0.80007,-9.4167 -1.19282,-0.36386 -2.27382,-0.54549 -2.40223,-0.40364 -0.1792,0.19797 -0.2993,8.50411 -0.14726,10.18385 0.0468,0.51759 1.4599,0.36424 3.34956,-0.36351 z m 5.29987,1.44288 c 0,-0.27937 0.21453,-0.77937 0.47673,-1.11111 0.2622,-0.33175 1.33876,-3.11767 2.39235,-6.19094 1.73341,-5.05627 2.04698,-5.5696 3.29673,-5.39683 1.17118,0.16192 1.72442,1.15598 3.63987,6.54015 1.24233,3.49206 2.25979,6.42063 2.26103,6.50793 0.001,0.0873 -0.77361,0.15873 -1.72189,0.15873 -1.35928,0 -1.72413,-0.27755 -1.72413,-1.31158 0,-3.96354 -3.82877,-5.34746 -5.41556,-1.95747 -0.63807,1.36316 -0.68431,1.99047 -0.18718,2.53968 0.49713,0.54922 0.20595,0.72937 -1.17887,0.72937 -1.0115,0 -1.83908,-0.22857 -1.83908,-0.50793 z m 6.62478,-7.586 c -0.51359,-2.26068 -0.82054,-2.55444 -1.47482,-1.41149 -0.94976,1.65913 -0.63696,3.15622 0.65947,3.15622 1.03468,0 1.15381,-0.25492 0.81535,-1.74473 z m -70.70524,-11.55391 c -0.63219,-0.28586 -1.61842,-1.09599 -2.19164,-1.8003 -1.01159,-1.24293 -1.00315,-1.31098 0.28736,-2.31592 1.2577,-0.9794 1.3395,-0.96564 1.51338,0.25463 0.36492,2.56095 4.70438,3.21362 5.53164,0.83198 0.48531,-1.39717 -0.57317,-2.52474 -2.80407,-2.9871 -2.4476,-0.50728 -4.92288,-2.63055 -4.92288,-4.2228 0,-3.45162 5.78197,-5.16074 8.68206,-2.56637 1.14719,1.02625 1.22824,1.34335 0.56801,2.22222 -1.02379,1.36283 -1.58142,1.29269 -1.94533,-0.24469 -0.22808,-0.96354 -0.78391,-1.26984 -2.30439,-1.26984 -1.24185,0 -2.12832,0.35847 -2.33125,0.9427 -0.36702,1.05663 0.7462,1.86958 3.4314,2.50585 4.62011,1.09475 5.76868,6.11331 1.90437,8.32097 -1.78256,1.01836 -3.6437,1.13125 -5.41866,0.32867 z m -66.11808,-1.59314 c -1.683555,-1.85993 -1.90746,-5.69723 -0.507007,-8.68912 0.497009,-1.0618 0.763746,-2.33332 0.59275,-2.82562 -0.230685,-0.66413 0.203434,-0.89507 1.682555,-0.89507 1.096402,0 1.993457,0.28571 1.993457,0.63492 0,0.34921 -0.271817,0.63492 -0.604038,0.63492 -0.332221,0 -0.978773,0.99082 -1.436781,2.20183 -1.816784,4.8037 -0.498075,8.59182 2.990954,8.59182 h 2.034382 l -0.199155,-6.03224 -0.199155,-6.03223 1.724138,-4e-5 1.724138,-3e-5 v 6.9837 6.98371 l -4.19279,9.5e-4 c -3.685941,8.3e-4 -4.363318,-0.18745 -5.603448,-1.5575 z m 11.520376,-5.42716 v -6.9837 l 1.633037,5.2e-4 c 1.209066,3.9e-4 2.233984,0.7423 3.947743,2.85767 1.273089,1.57143 2.51227,2.85715 2.753735,2.85715 0.549862,0 0.419853,-3.55603 -0.153153,-4.18906 -0.841929,-0.93013 -0.39037,-1.52524 1.157719,-1.52576 l 1.580459,-5.2e-4 v 6.9837 6.98371 l -1.465057,9.5e-4 c -1.312812,8.5e-4 -1.443306,-0.21349 -1.255747,-2.06255 0.182356,-1.79776 -0.202556,-2.5104 -2.988966,-5.53386 L 62.5213,170.33585 v 4.77196 c 0,2.86497 0.275604,5.07644 0.689656,5.53387 0.536398,0.59259 0.312899,0.76169 -1.005748,0.76096 l -1.695402,-9.5e-4 z m 12.643678,0 v -6.9837 l 3.872535,5.2e-4 c 3.351318,4.6e-4 3.856111,0.15008 3.750508,1.11164 -0.152347,1.38719 1.873742,9.04762 2.392984,9.04762 0.613333,0 2.873015,-8.27101 2.529709,-9.25937 -0.258893,-0.74535 0.879164,-0.89936 6.64565,-0.89936 6.504376,0 6.95804,0.0804 6.95804,1.23237 0,0.6778 -0.258621,1.40895 -0.574713,1.62477 -0.316092,0.21582 -0.574713,0.0898 -0.574713,-0.27999 0,-0.38359 -1.234237,-0.67239 -2.873563,-0.67239 -2.711661,0 -2.873563,0.093 -2.873563,1.65124 0,1.5674 0.131299,1.63969 2.586207,1.42399 2.545571,-0.22367 2.585494,-0.19724 2.540835,1.6821 -0.02496,1.05014 -0.175817,1.5522 -0.335249,1.11569 -0.162652,-0.44532 -1.277812,-0.79365 -2.540835,-0.79365 h -2.250958 v 2.62661 2.62661 l 3.619021,-0.32094 c 3.235419,-0.28691 3.627596,-0.19518 3.699914,0.86546 0.07356,1.07888 -0.397606,1.18651 -5.19948,1.18777 l -5.280375,0.001 0.181847,-6.35059 c 0.244536,-8.53987 -0.724531,-8.54028 -3.257978,-0.001 -1.682463,5.67068 -2.029322,6.3492 -3.245708,6.3492 -1.216386,0 -1.563244,-0.67852 -3.245707,-6.3492 -2.533447,-8.5389 -3.502515,-8.53849 -3.257979,0.001 l 0.181847,6.35059 -1.724138,-0.002 -1.724138,-0.002 z m 27.586206,0 v -6.9837 l 3.27756,5.2e-4 c 3.95448,6.4e-4 6.11703,0.97865 6.56969,2.97115 0.34942,1.53805 -1.06586,4.64843 -2.11513,4.64843 -0.63548,0 0.75279,2.69834 2.53164,4.92063 l 1.1435,1.42857 h -1.76971 c -1.48975,0 -2.00947,-0.45197 -3.28533,-2.85714 -0.83359,-1.57143 -1.91868,-2.85714 -2.41133,-2.85714 -0.70891,0 -0.85281,0.59584 -0.69002,2.85714 0.20182,2.80339 0.17317,2.85713 -1.52259,2.8562 l -1.72828,-9.5e-4 z m 7.22389,-1.63905 c 1.08568,-1.4452 -0.0202,-3.07487 -2.25311,-3.32034 -1.72509,-0.18963 -1.80986,-0.093 -1.80986,2.0635 0,2.06916 0.14129,2.26245 1.65377,2.26245 0.90957,0 1.99371,-0.45252 2.4092,-1.00561 z m 16.51174,7.86275 c 0.93144,-1.02901 0.93144,-11.41543 0,-12.44445 -0.5364,-0.59259 -0.24904,-0.7619 1.29311,-0.7619 h 1.98276 v 6.98413 6.98412 h -1.98276 c -1.54215,0 -1.82951,-0.16931 -1.29311,-0.7619 z m 5.17242,0 c 0.93143,-1.02901 0.93143,-11.41543 0,-12.44445 -1.02277,-1.12991 5.36935,-1.00638 7.87944,0.15227 2.13749,0.98667 4.29885,4.26026 4.30232,6.51627 0.003,2.26297 -1.25487,4.66191 -2.95477,5.63305 -2.03867,1.16468 -10.26724,1.29209 -9.22699,0.14286 z m 8.16092,-2.4127 c 1.13132,-1.24984 1.49266,-3.98734 0.79242,-6.0033 -0.43104,-1.24095 -3.15931,-2.88559 -4.78687,-2.88559 -1.08932,0 -1.17797,0.38226 -1.17797,5.07937 v 5.07936 h 2.0115 c 1.24521,0 2.44937,-0.48375 3.16092,-1.26984 z m 3.89869,2.38095 c 0.32514,-0.4365 1.55477,-3.57936 2.73252,-6.98412 1.81587,-5.24954 2.3344,-6.19048 3.41141,-6.19048 1.07302,0 1.58375,0.91117 3.29195,5.87302 1.11204,3.23015 2.21504,6.37301 2.45112,6.98412 0.36211,0.93735 0.11346,1.11111 -1.58994,1.11111 -1.69997,0 -1.97409,-0.19048 -1.73396,-1.20493 0.84682,-3.57749 -4.07502,-5.6469 -5.45757,-2.29465 -0.35834,0.86887 -0.5015,2.01173 -0.31812,2.53968 0.25512,0.73447 -0.10245,0.9599 -1.52257,0.9599 -1.41694,0 -1.71615,-0.18774 -1.26484,-0.79365 z m 6.70762,-7.61904 c -0.6578,-2.40537 -1.23968,-2.56727 -1.88433,-0.5243 -0.58167,1.84339 -0.53517,1.95287 0.8294,1.95287 1.23177,0 1.38782,-0.21133 1.05493,-1.42857 z m 6.34771,1.35314 v -7.05766 l 3.77054,0.29857 c 5.67214,0.44914 8.01107,2.7456 8.01107,7.86561 0,1.63054 -0.45772,2.74686 -1.67993,4.09711 -1.55127,1.71379 -2.00242,1.85585 -5.8908,1.85498 l -4.21088,-9.5e-4 z m 8.33654,3.41878 c 2.25433,-3.16616 0.41555,-7.48293 -3.48584,-8.18344 l -1.97714,-0.35501 v 5.13586 5.13585 l 2.11346,0.001 c 1.61898,0.001 2.40266,-0.4048 3.34952,-1.73464 z m -58.97591,-18.64724 c -1.2288,-1.0838 -4.278197,-3.10904 -6.776423,-4.50052 -7.542071,-4.20086 -14.439852,-9.19271 -15.178986,-10.98488 -0.482246,-1.1693 -0.681083,-7.94496 -0.681083,-23.20884 V 98.863901 h 25.315412 25.31542 l -0.17174,21.775329 c -0.15349,19.4615 -0.2785,21.95519 -1.17644,23.46797 -1.04087,1.75356 -11.56528,8.99203 -16.77447,11.53713 -1.63466,0.79866 -3.89755,2.34978 -5.02866,3.44695 -1.1311,1.09716 -2.18081,1.99484 -2.33269,1.99484 -0.15188,0 -1.28153,-0.88674 -2.51034,-1.97055 z m 0.22455,-13.07527 -0.15989,-8.69661 -5.022257,-1.09125 c -9.123478,-1.98238 -11.996942,-3.58104 -14.13622,-7.86473 -0.494254,-0.98969 -0.638015,0.27482 -0.651636,5.73174 -0.02052,8.22276 0.189241,8.71352 5.146374,12.04029 4.202717,2.82048 13.923839,8.54831 14.536279,8.56499 0.24599,0.007 0.3753,-3.90129 0.28735,-8.68443 z m 9.05818,6.40727 c 5.5909,-3.19962 12.74629,-7.92565 14.08345,-9.30191 1.00285,-1.03217 1.12376,-2.0365 1.12376,-9.33393 0,-4.49752 0.17326,-8.67611 0.38503,-9.28577 0.2625,-0.75574 0.17106,-0.96238 -0.28736,-0.64938 -0.36981,0.2525 -0.67238,0.99772 -0.67238,1.65605 0,0.65833 -0.58189,1.94031 -1.2931,2.84883 -1.11873,1.42912 -2.39406,1.88077 -9.45762,3.34938 l -8.16451,1.69752 -0.16882,10.65509 c -0.0929,5.8603 -0.0293,10.65473 0.14121,10.65428 0.17051,-4.5e-4 2.11017,-1.03102 4.31034,-2.29016 z m -9.03622,-19.72981 c -0.15999,-1.49714 -0.72124,-1.91722 -4.669036,-3.49466 l -4.487183,-1.79298 0.176838,2.70102 0.176838,2.70102 3.448276,0.72444 c 5.392277,1.13286 5.562127,1.10625 5.354267,-0.83884 z M 92.444995,129.1823 c -0.279369,-2.31167 -0.634012,-2.87922 -2.479613,-3.96825 l -2.15362,-1.27078 -0.0016,-10.95238 -0.0016,-10.95239 h -1.724138 -1.724138 v 10.70635 10.70635 l 1.736033,2.46825 c 2.043264,2.90508 5.139107,5.96032 6.039515,5.96032 0.415106,0 0.522151,-0.93427 0.309066,-2.69747 z m 22.518835,0.77269 c 3.25647,-0.69466 3.3046,-0.73663 3.3046,-2.88213 0,-1.19747 -0.28313,-2.17721 -0.62918,-2.17721 -0.34604,0 -2.38811,0.59023 -4.53793,1.31162 -3.23101,1.0842 -3.95468,1.57703 -4.17361,2.84223 -0.32583,1.88305 -0.0283,2.25231 1.52374,1.89133 0.66428,-0.1545 2.69485,-0.59813 4.51238,-0.98584 z m -10.48851,-6.31288 c 0,-4.96452 -0.033,-5.08191 -1.69559,-6.03175 -0.93258,-0.53277 -1.79165,-0.96868 -1.90903,-0.96868 -0.11739,0 -0.19489,2.48714 -0.17222,5.52697 0.0434,5.81454 0.14056,6.0026 3.34581,6.47323 0.23707,0.0348 0.43103,-2.21509 0.43103,-4.99977 z m 18.8524,4.65405 c 0.91002,-0.26927 1.94268,-1.74967 3.30459,-4.73738 1.96658,-4.3142 1.98094,-4.408 1.98094,-12.933 v -8.58728 h -2.01149 -2.01149 l -0.1061,8.09524 c -0.0584,4.45238 -0.13354,8.77022 -0.16709,9.59519 -0.0399,0.98056 -0.64991,1.83696 -1.76172,2.47324 -2.16332,1.23804 -2.54316,1.89829 -2.55399,4.43951 -0.009,2.18018 0.57222,2.46943 3.32635,1.65448 z m -24.501521,-7.36728 c -0.111398,-3.0825 -0.495359,-5.63167 -0.932646,-6.19196 -0.408811,-0.52381 -1.059302,-2.52381 -1.445534,-4.44445 -1.637839,-8.14455 -1.681254,-8.25397 -3.275197,-8.25397 -1.394128,0 -1.467588,0.15033 -1.163479,2.38096 0.178532,1.30952 0.781787,6.44807 1.340566,11.419 0.972946,8.65537 1.077897,9.06321 2.478734,9.63241 3.113269,1.26501 3.202528,1.12976 2.997556,-4.54199 z m 11.848851,-1.64015 c 0.14861,-5.23573 0.0619,-5.82167 -0.86207,-5.82185 -0.92125,-1.8e-4 -1.01489,0.60614 -0.90699,5.87301 0.0662,3.23027 0.13083,5.96846 0.14368,6.08486 0.0128,0.1164 0.34663,0.0933 0.74175,-0.0514 0.48827,-0.17876 0.77132,-2.12778 0.88363,-6.08466 z m -18.843405,3.33523 c 0,-1.75737 -1.165774,-16.37838 -1.476809,-18.52196 -0.164677,-1.13492 -0.481659,-2.06355 -0.704405,-2.06361 -0.423501,-1.1e-4 0.253207,19.41148 0.724892,20.79377 0.387192,1.13467 1.456322,0.98183 1.456322,-0.2082 z m 24.052175,0.30481 c 1.50593,-0.57996 1.81333,-1.03315 1.83037,-2.69841 0.0113,-1.10076 0.17375,-5.64424 0.36109,-10.09662 0.32868,-7.81124 0.30008,-8.09524 -0.81502,-8.09524 -1.01973,0 -1.20344,0.56357 -1.56212,4.79213 -0.31522,3.71626 -0.65294,4.96217 -1.5043,5.54955 -0.93668,0.64625 -1.09783,1.52721 -1.09783,6.00153 0,2.88425 0.22003,5.2441 0.48896,5.2441 0.26892,0 1.3034,-0.31367 2.29885,-0.69704 z m 6.98231,-12.02372 v -8.86655 h -1.43678 -1.43679 v 9.10053 c 0,5.00529 0.16332,9.28096 0.36293,9.50147 0.1996,0.22052 0.84615,0.11523 1.43678,-0.23397 0.96997,-0.5735 1.07386,-1.49271 1.07386,-9.50148 z m -18.39081,-2.19988 v -6.66667 h -1.72413 -1.72414 v 6.2963 c 0,6.44637 0.149,6.87261 2.44253,6.98691 0.89687,0.0447 1.00574,-0.67152 1.00574,-6.61654 z m -5.17241,-0.95238 c 0,-5.71195 -6.02e-4,-5.71429 -1.475511,-5.71429 -1.137343,0 -1.406181,0.25466 -1.17301,1.11112 0.166374,0.61111 0.721773,3.18254 1.234219,5.71428 0.512446,2.53175 1.040301,4.60318 1.173011,4.60318 0.13271,0 0.241291,-2.57143 0.241291,-5.71429 z m 11.2872,2.06349 c -0.15649,-0.61111 -0.4568,-2.61111 -0.66737,-4.44444 -0.21058,-1.83334 -0.64488,-3.33334 -0.96513,-3.33334 -0.32025,0 -0.42529,0.45194 -0.23343,1.00431 0.19186,0.55237 0.34884,2.55237 0.34884,4.44445 0,2.70035 0.19372,3.44013 0.9008,3.44013 0.58315,0 0.80047,-0.39181 0.61629,-1.11111 z m 3.12257,0 c 0.0231,-0.61111 0.23533,-2.61111 0.47168,-4.44444 l 0.42972,-3.33334 h -1.65983 c -1.30604,0 -1.59919,0.23684 -1.37532,1.11112 0.15648,0.61111 0.4568,2.61111 0.66737,4.44444 0.35939,3.12903 1.37408,4.66673 1.46638,2.22222 z"
         id="path1" /></g></g></svg>
