<?xml version="1.0" encoding="UTF-8" standalone="no"?>
<!-- Created with Inkscape (http://www.inkscape.org/) -->

<svg
   width="210mm"
   height="297mm"
   viewBox="0 0 210 297"
   version="1.1"
   id="svg1"
   xml:space="preserve"
   inkscape:version="1.3 (0e150ed6c4, 2023-07-21)"
   sodipodi:docname="LogoAlura.svg"
   xmlns:inkscape="http://www.inkscape.org/namespaces/inkscape"
   xmlns:sodipodi="http://sodipodi.sourceforge.net/DTD/sodipodi-0.dtd"
   xmlns="http://www.w3.org/2000/svg"
   xmlns:svg="http://www.w3.org/2000/svg"><sodipodi:namedview
     id="namedview1"
     pagecolor="#ffffff"
     bordercolor="#000000"
     borderopacity="0.25"
     inkscape:showpageshadow="2"
     inkscape:pageopacity="0.0"
     inkscape:pagecheckerboard="0"
     inkscape:deskcolor="#d1d1d1"
     inkscape:document-units="mm"
     inkscape:zoom="0.57103676"
     inkscape:cx="396.64697"
     inkscape:cy="561.25984"
     inkscape:window-width="1600"
     inkscape:window-height="837"
     inkscape:window-x="-8"
     inkscape:window-y="288"
     inkscape:window-maximized="1"
     inkscape:current-layer="layer1" /><defs
     id="defs1" /><g
     inkscape:label="Capa 1"
     inkscape:groupmode="layer"
     id="layer1"><g
       id="g8"
       transform="matrix(1.6519244,0,0,2.2602408,-63.398401,-215.88442)"><path
         style="fill:#211d1e"
         d="m 51.591375,178.54485 c 0.812314,-0.10771 0.744883,-0.13754 -0.497877,-0.22027 -0.790593,-0.0526 -1.351508,-0.022 -1.246477,0.0681 0.105031,0.0901 -0.07756,0.1638 -0.405766,0.1638 -0.389031,0 -0.512402,-0.1165 -0.354448,-0.33471 0.209463,-0.28936 0.122043,-0.30059 -0.645337,-0.0829 -0.711169,0.20177 -0.826684,0.19956 -0.581088,-0.0111 0.221053,-0.1896 0.113141,-0.22358 -0.386978,-0.12185 -0.534323,0.1087 -0.636643,0.0625 -0.445763,-0.20117 0.184243,-0.25453 0.120295,-0.29019 -0.249476,-0.13914 -0.564404,0.23057 -1.984703,-0.40618 -1.53889,-0.68991 0.143229,-0.0912 -0.02388,-0.0512 -0.37135,0.0888 -0.515325,0.20765 -0.731313,0.18731 -1.171875,-0.11036 -0.499299,-0.33737 -0.481079,-0.34251 0.241141,-0.0681 0.429688,0.16328 0.228526,0.0144 -0.447027,-0.33074 -1.105314,-0.56479 -1.21439,-0.72925 -1.089565,-1.64288 0.112832,-0.82584 0.07732,-0.89936 -0.19035,-0.39403 -0.236724,0.44691 -0.334326,0.0402 -0.347823,-1.44954 -0.01303,-1.43819 0.09308,-1.94425 0.347366,-1.65662 0.301786,0.34138 0.344218,0.29966 0.241455,-0.23737 -0.09487,-0.49579 0.0087,-0.62441 0.43311,-0.53806 0.458232,0.0932 0.47697,0.0334 0.104987,-0.33505 -0.344333,-0.34107 -0.343522,-0.4354 0.0034,-0.39378 0.2509,0.0301 0.544904,-0.0747 0.653342,-0.23294 0.132244,-0.19296 0.03199,-0.23356 -0.304495,-0.12332 -0.321858,0.10545 -0.40554,0.0819 -0.23348,-0.0657 0.147498,-0.12651 0.52622,-0.17753 0.841605,-0.11338 0.347095,0.0706 0.573428,-0.006 0.573428,-0.19396 0,-0.17084 0.265302,-0.36459 0.589561,-0.43055 0.324258,-0.066 0.567114,-0.19241 0.539679,-0.281 -0.130174,-0.42034 0.09895,-0.49811 0.70171,-0.23819 0.579592,0.24992 0.626996,0.23886 0.393082,-0.0917 -0.219603,-0.31036 -0.12164,-0.35164 0.561719,-0.23666 0.593969,0.0999 0.744926,0.0683 0.534561,-0.11218 -0.212926,-0.18264 -0.05258,-0.21097 0.585938,-0.10354 0.638518,0.10743 0.798864,0.0791 0.585937,-0.10354 -0.207392,-0.17789 -0.06639,-0.21329 0.48199,-0.12103 0.892042,0.15009 2.146072,-0.0493 1.858978,-0.29551 -0.106484,-0.0913 0.185684,-0.11349 0.649264,-0.0492 0.534065,0.074 0.749944,0.0371 0.589231,-0.10071 -0.171717,-0.14729 0.18402,-0.16524 1.101384,-0.0556 1.247894,0.1492 1.323799,0.13108 0.960065,-0.22921 -0.448706,-0.44446 -0.0036,-0.51964 0.783768,-0.13237 0.43037,0.21168 0.480633,0.19035 0.275895,-0.11708 -0.205732,-0.30894 -0.102839,-0.35111 0.577364,-0.23667 0.552202,0.0929 0.739663,0.0637 0.563191,-0.0876 -0.165773,-0.14219 -0.03821,-0.18085 0.341707,-0.10357 0.334281,0.068 0.606226,0.015 0.606226,-0.11813 0,-0.1328 0.183511,-0.18133 0.407803,-0.10785 0.480092,0.1573 2.326572,-0.43587 2.326572,-0.74739 0,-0.11799 -0.219727,-0.15552 -0.488281,-0.0834 -0.268555,0.0721 -0.209181,0.008 0.131941,-0.14308 0.341123,-0.15081 0.538045,-0.40366 0.437605,-0.56188 -0.101749,-0.16028 -0.0053,-0.22956 0.217861,-0.15646 0.241227,0.079 0.461519,-0.20809 0.553978,-0.72205 0.165146,-0.91801 -1.382555,-2.55319 -2.249649,-2.37681 -0.237663,0.0483 -0.679846,-0.005 -0.982628,-0.11954 -0.431249,-0.16251 -0.398022,-0.18131 0.153367,-0.0868 0.412799,0.0708 0.605189,0.0361 0.465228,-0.084 -0.13126,-0.11259 -0.491952,-0.20471 -0.801538,-0.20471 -0.309586,0 -0.562779,-0.0699 -0.56265,-0.1553 1.28e-4,-0.0854 -0.659052,-0.13876 -1.464844,-0.11852 -0.805793,0.0202 -2.168203,0.045 -3.027578,0.0549 -1.208632,0.014 -1.429799,0.0674 -0.976562,0.23562 0.450169,0.16708 0.368053,0.18471 -0.354386,0.0761 -0.715768,-0.10763 -1.120318,-0.0243 -1.694053,0.34882 -0.414552,0.26962 -0.637551,0.35043 -0.495553,0.1796 0.141998,-0.17084 -0.0129,-0.13382 -0.344215,0.0823 -0.331316,0.21609 -0.509758,0.47235 -0.396539,0.56946 0.113219,0.0971 0.02522,0.17657 -0.195566,0.17657 -0.22078,0 -0.289173,0.15507 -0.151984,0.34459 0.167718,0.23169 0.09971,0.29553 -0.207572,0.19485 -0.27428,-0.0899 -0.457007,-0.0206 -0.457007,0.17311 0,0.2637 -0.536647,0.32284 -2.929688,0.32284 -2.929687,0 -2.929687,0 -2.902232,-0.88008 0.01967,-0.63065 0.112045,-0.76545 0.325923,-0.47562 0.253156,0.34306 0.337676,0.30054 0.55674,-0.28011 0.142051,-0.37652 0.144007,-0.78259 0.0043,-0.90238 -0.160104,-0.13733 -0.06277,-0.15517 0.263436,-0.0483 0.372377,0.122 0.4496,0.0759 0.275561,-0.16454 -0.177964,-0.24585 -0.07545,-0.30019 0.388323,-0.20585 0.396349,0.0806 0.533143,0.045 0.36872,-0.096 -0.143773,-0.12332 0.222899,-0.42562 0.814826,-0.67178 0.591927,-0.24616 0.829344,-0.37966 0.527594,-0.29667 -0.351879,0.0968 -0.45246,0.0684 -0.280459,-0.0791 0.147498,-0.12652 0.555056,-0.17167 0.905685,-0.10035 0.423243,0.0861 0.543508,0.0491 0.357827,-0.11021 -0.188479,-0.16166 -0.0611,-0.19543 0.390625,-0.10353 0.506875,0.10311 0.58878,0.0647 0.33593,-0.15768 -0.279616,-0.24589 -0.231834,-0.25 0.291768,-0.0251 0.378376,0.1625 0.718156,0.18998 0.858668,0.0695 0.127887,-0.1097 0.0117,-0.2503 -0.258192,-0.31246 -0.269894,-0.0621 0.0189,-0.0565 0.641766,0.0125 0.677993,0.0751 1.039915,0.0461 0.901827,-0.0723 -0.139283,-0.11947 0.727403,-0.17843 2.187831,-0.14884 2.096194,0.0425 2.210264,0.0273 0.855985,-0.11359 -1.253628,-0.13045 -0.867539,-0.16552 1.953125,-0.17742 2.48152,-0.0105 3.285824,0.0427 2.734375,0.18094 -0.586738,0.14703 -0.367891,0.17409 0.878995,0.10868 1.096714,-0.0575 1.574144,-0.0132 1.406581,0.13049 -0.168799,0.14479 0.125214,0.16827 0.878818,0.0702 1.042447,-0.13568 1.07343,-0.12413 0.389712,0.14526 -0.577884,0.2277 -0.629522,0.32977 -0.232614,0.45981 0.317309,0.10396 0.41517,0.0857 0.258882,-0.0484 -0.138201,-0.11854 0.108357,-0.26539 0.547907,-0.32632 0.690879,-0.0958 0.729985,-0.0663 0.288575,0.21744 -0.459146,0.29514 -0.412186,0.30052 0.465957,0.0533 0.923195,-0.25986 0.944542,-0.2542 0.390625,0.10354 -0.544637,0.35175 -0.528006,0.36206 0.235953,0.14633 0.707327,-0.19974 0.979573,-0.13952 1.953125,0.43202 1.131234,0.66411 1.131234,0.66411 -0.06369,0.14642 -0.657206,-0.28473 -0.489744,-0.16213 0.372138,0.27246 1.26383,0.63725 1.457256,0.82697 0.999608,0.98044 -0.484522,0.16249 -0.308424,0.26511 0.409113,0.23842 0.107422,-0.004 0.195312,3.23753 0.195312,7.20339 0,3.96587 -0.145597,7.10308 -0.32355,6.97159 -0.190112,-0.14047 -0.25366,-0.007 -0.154085,0.32413 0.09321,0.30975 0.03899,0.52045 -0.12047,0.4682 -0.159465,-0.0522 -0.52958,0.0612 -0.822478,0.25212 -0.466666,0.30417 -0.445471,0.32979 0.17134,0.20716 0.422851,-0.0841 0.608597,-0.0582 0.465228,0.0648 -0.13126,0.11259 -0.407554,0.20471 -0.613988,0.20471 -0.735746,0 -3.509461,1.05378 -3.283613,1.2475 0.131909,0.11315 -0.05588,0.13914 -0.4403,0.0609 -0.480663,-0.0978 -0.583079,-0.0615 -0.361996,0.1281 0.231008,0.19815 0.0879,0.22737 -0.570775,0.11654 -0.593906,-0.0999 -0.793322,-0.0743 -0.614714,0.0789 0.183079,0.15704 -0.312363,0.19659 -1.611239,0.12863 -1.161489,-0.0608 -1.517878,-0.0383 -0.936043,0.059 0.565733,0.0946 -0.585211,0.15711 -2.892692,0.15711 -2.107742,0 -3.409453,-0.0561 -2.892691,-0.12459 z m 12.072379,-1.95559 c 0,-0.057 -0.08789,-0.10354 -0.195313,-0.10354 -0.107421,0 -0.195312,0.0466 -0.195312,0.10354 0,0.0569 0.08789,0.10354 0.195312,0.10354 0.107422,0 0.195313,-0.0466 0.195313,-0.10354 z m -0.78125,-0.20708 c 0,-0.0569 -0.08789,-0.10354 -0.195313,-0.10354 -0.107421,0 -0.195312,0.0466 -0.195312,0.10354 0,0.057 0.08789,0.10354 0.195312,0.10354 0.107422,0 0.195313,-0.0466 0.195313,-0.10354 z m -19.53125,-0.20708 c 0,-0.0569 -0.08789,-0.10353 -0.195313,-0.10353 -0.107421,0 -0.195312,0.0466 -0.195312,0.10353 0,0.057 0.08789,0.10354 0.195312,0.10354 0.107422,0 0.195313,-0.0466 0.195313,-0.10354 z m 10.546875,0 c 0,-0.0569 -0.08789,-0.10353 -0.195313,-0.10353 -0.107421,0 -0.195312,0.0466 -0.195312,0.10353 0,0.057 0.08789,0.10354 0.195312,0.10354 0.107422,0 0.195313,-0.0466 0.195313,-0.10354 z m -5.859375,-0.20707 c 0,-0.057 -0.08789,-0.10354 -0.195313,-0.10354 -0.107421,0 -0.195312,0.0466 -0.195312,0.10354 0,0.0569 0.08789,0.10354 0.195312,0.10354 0.107422,0 0.195313,-0.0466 0.195313,-0.10354 z m 10.072859,-0.21312 c 0.153287,-0.11722 0.669616,-0.19995 1.147398,-0.18384 0.477782,0.0161 0.773253,-0.0526 0.656602,-0.15265 -0.11665,-0.10005 -0.419672,-0.11887 -0.673382,-0.0418 -0.265341,0.0806 -0.323014,0.06 -0.135769,-0.0484 0.179037,-0.10368 0.405041,-0.16189 0.502232,-0.12935 0.547842,0.18343 1.375574,-0.64393 1.152955,-1.15244 -0.176501,-0.40316 -0.1385,-0.47696 0.133647,-0.25956 0.258463,0.20648 0.418672,-0.61184 0.500147,-2.55464 0.127252,-3.03435 0.09587,-3.15568 -0.723092,-2.79537 -0.385592,0.16965 -0.524222,0.16917 -0.524222,-0.002 0,-0.12783 -0.170264,-0.23243 -0.378365,-0.23243 -0.208101,0 -0.27642,0.14084 -0.15182,0.31297 0.168364,0.23258 0.04844,0.27673 -0.466965,0.17188 -0.475034,-0.0966 -0.604531,-0.0648 -0.411064,0.10119 0.155345,0.13325 0.09629,0.24227 -0.131233,0.24227 -0.227523,0 -0.426033,-0.11648 -0.441133,-0.25885 -0.0151,-0.14236 -0.178527,-0.0725 -0.36317,0.15531 -0.184643,0.22779 -0.348069,0.29642 -0.36317,0.15253 -0.02175,-0.2073 -0.291058,-0.20349 -1.296986,0.0184 -0.698242,0.15401 -1.533203,0.23329 -1.855469,0.17618 -0.519794,-0.0921 -0.52014,-0.0616 -0.0031,0.27034 0.539474,0.3463 0.514018,0.36257 -0.341887,0.21856 -0.636402,-0.10707 -0.841416,-0.0841 -0.657477,0.0737 0.147006,0.1261 0.08113,0.22926 -0.146395,0.22926 -0.227523,0 -0.413678,-0.0956 -0.413678,-0.21239 0,-0.33443 -2.42468,0.4083 -3.616227,1.10773 -0.726505,0.42646 -0.999001,0.76285 -0.837058,1.03333 0.158093,0.26406 0.09238,0.35265 -0.192366,0.25935 -0.292368,-0.0958 -0.432474,0.16811 -0.432474,0.8146 0,0.64649 0.140106,0.91039 0.432474,0.8146 0.291245,-0.0954 0.346138,0.003 0.168092,0.29989 -0.375554,0.62727 1.777883,1.76884 2.961149,1.56976 0.458148,-0.0771 0.736388,-0.0573 0.618313,0.044 -0.302839,0.25975 5.943432,0.21773 6.283456,-0.0423 z m -1.161726,-0.0319 c 0.281982,-0.0598 0.618896,-0.0525 0.748698,0.0164 0.129801,0.0688 -0.100912,0.11775 -0.512696,0.10876 -0.455055,-0.01 -0.547617,-0.059 -0.236002,-0.12511 z m -6.567383,-0.16916 c 0,-0.0569 0.08789,-0.10354 0.195312,-0.10354 0.107422,0 0.195313,0.0466 0.195313,0.10354 0,0.057 -0.08789,0.10354 -0.195313,0.10354 -0.107421,0 -0.195312,-0.0466 -0.195312,-0.10354 z m -1.221701,-0.46592 c -0.485887,-0.32844 -0.472071,-0.33576 0.147482,-0.0782 0.375977,0.15631 0.683594,0.31938 0.683594,0.36238 0,0.17043 -0.320776,0.0607 -0.831076,-0.2842 z m -0.731424,-0.56946 c 0,-0.057 0.08789,-0.10354 0.195312,-0.10354 0.107422,0 0.195313,0.0466 0.195313,0.10354 0,0.0569 -0.08789,0.10354 -0.195313,0.10354 -0.107421,0 -0.195312,-0.0466 -0.195312,-0.10354 z m 11.71875,0 c 0,-0.057 0.08789,-0.10354 0.195312,-0.10354 0.107422,0 0.195313,0.0466 0.195313,0.10354 0,0.0569 -0.08789,0.10354 -0.195313,0.10354 -0.107421,0 -0.195312,-0.0466 -0.195312,-0.10354 z m -11.71875,-2.89908 c 0,-0.0569 0.08789,-0.10354 0.195312,-0.10354 0.107422,0 0.195313,0.0466 0.195313,0.10354 0,0.057 -0.08789,0.10354 -0.195313,0.10354 -0.107421,0 -0.195312,-0.0466 -0.195312,-0.10354 z m 0.78125,-0.62123 c 0,-0.057 0.08789,-0.10354 0.195312,-0.10354 0.107422,0 0.195313,0.0466 0.195313,0.10354 0,0.057 -0.08789,0.10354 -0.195313,0.10354 -0.107421,0 -0.195312,-0.0466 -0.195312,-0.10354 z m 1.458333,-0.54339 c 0.264974,-0.14152 0.580173,-0.20514 0.700441,-0.14139 0.120268,0.0638 -0.09653,0.17955 -0.481771,0.25731 -0.556718,0.11238 -0.601587,0.0886 -0.21867,-0.11592 z m 1.276042,-0.28492 c 0,-0.0569 0.08789,-0.10354 0.195312,-0.10354 0.107422,0 0.195313,0.0466 0.195313,0.10354 0,0.057 -0.08789,0.10354 -0.195313,0.10354 -0.107421,0 -0.195312,-0.0466 -0.195312,-0.10354 z m 3.515625,-0.72477 c 0.322266,-0.1104 0.849609,-0.19561 1.171875,-0.18935 0.38635,0.008 0.31982,0.072 -0.195313,0.18935 -1.073861,0.24463 -1.690611,0.24463 -0.976562,0 z m -12.239583,6.28134 c -0.14323,-0.0759 -0.377605,-0.0759 -0.520834,0 -0.143229,0.0759 -0.02604,0.13805 0.260417,0.13805 0.286458,0 0.403646,-0.0621 0.260417,-0.13805 z m 0.32552,-0.69026 c 0.132781,-0.11389 0.153529,-0.20708 0.04611,-0.20708 -0.107422,0 -0.303952,0.0932 -0.436733,0.20708 -0.13278,0.11389 -0.153528,0.20708 -0.04611,0.20708 0.107422,0 0.303952,-0.0932 0.436733,-0.20708 z m 17.382813,0.10354 c 0,-0.057 -0.08789,-0.10354 -0.195313,-0.10354 -0.107421,0 -0.195312,0.0466 -0.195312,0.10354 0,0.057 0.08789,0.10354 0.195312,0.10354 0.107422,0 0.195313,-0.0466 0.195313,-0.10354 z m 1.171875,-0.41415 c 0,-0.057 -0.08789,-0.10354 -0.195313,-0.10354 -0.107421,0 -0.195312,0.0466 -0.195312,0.10354 0,0.0569 0.08789,0.10353 0.195312,0.10353 0.107422,0 0.195313,-0.0466 0.195313,-0.10353 z m -17.96875,-3.72739 c 0,-0.057 -0.08789,-0.10354 -0.195313,-0.10354 -0.107421,0 -0.195312,0.0466 -0.195312,0.10354 0,0.057 0.08789,0.10354 0.195312,0.10354 0.107422,0 0.195313,-0.0466 0.195313,-0.10354 z m 3.515625,-0.20708 c 0,-0.0569 -0.08789,-0.10353 -0.195313,-0.10353 -0.107421,0 -0.195312,0.0466 -0.195312,0.10353 0,0.057 0.08789,0.10354 0.195312,0.10354 0.107422,0 0.195313,-0.0466 0.195313,-0.10354 z m 0.78125,-0.20707 c 0,-0.057 -0.08789,-0.10354 -0.195313,-0.10354 -0.107421,0 -0.195312,0.0466 -0.195312,0.10354 0,0.0569 0.08789,0.10354 0.195312,0.10354 0.107422,0 0.195313,-0.0466 0.195313,-0.10354 z m 1.171875,-0.20708 c 0,-0.057 -0.08789,-0.10354 -0.195313,-0.10354 -0.107421,0 -0.195312,0.0466 -0.195312,0.10354 0,0.057 0.08789,0.10354 0.195312,0.10354 0.107422,0 0.195313,-0.0466 0.195313,-0.10354 z m -1.171875,-0.20708 c 0,-0.0569 -0.08789,-0.10354 -0.195313,-0.10354 -0.107421,0 -0.195312,0.0466 -0.195312,0.10354 0,0.057 0.08789,0.10354 0.195312,0.10354 0.107422,0 0.195313,-0.0466 0.195313,-0.10354 z m -3.125,-0.62123 c 0,-0.0569 -0.08789,-0.10354 -0.195313,-0.10354 -0.107421,0 -0.195312,0.0466 -0.195312,0.10354 0,0.057 0.08789,0.10354 0.195312,0.10354 0.107422,0 0.195313,-0.0466 0.195313,-0.10354 z m 1.171875,0 c 0,-0.0569 -0.08789,-0.10354 -0.195313,-0.10354 -0.107421,0 -0.195312,0.0466 -0.195312,0.10354 0,0.057 0.08789,0.10354 0.195312,0.10354 0.107422,0 0.195313,-0.0466 0.195313,-0.10354 z m 16.194256,-0.2963 c 0.123606,-0.10603 0.07539,-0.24171 -0.107155,-0.30151 -0.182541,-0.0598 -0.331893,0.0269 -0.331893,0.19277 0,0.34916 0.123179,0.37967 0.439048,0.10874 z m -15.933839,-0.15236 c -0.14323,-0.0759 -0.377605,-0.0759 -0.520834,0 -0.143229,0.0759 -0.02604,0.13805 0.260417,0.13805 0.286458,0 0.403646,-0.0621 0.260417,-0.13805 z m -0.651042,-0.7938 c 0,-0.057 -0.08789,-0.10354 -0.195313,-0.10354 -0.107421,0 -0.195312,0.0466 -0.195312,0.10354 0,0.057 0.08789,0.10354 0.195312,0.10354 0.107422,0 0.195313,-0.0466 0.195313,-0.10354 z m 11.71875,0 c 0,-0.057 -0.08789,-0.10354 -0.195313,-0.10354 -0.107421,0 -0.195312,0.0466 -0.195312,0.10354 0,0.057 0.08789,0.10354 0.195312,0.10354 0.107422,0 0.195313,-0.0466 0.195313,-0.10354 z m -5.859375,-0.62123 c 0,-0.057 -0.08789,-0.10354 -0.195313,-0.10354 -0.107421,0 -0.195312,0.0466 -0.195312,0.10354 0,0.057 0.08789,0.10354 0.195312,0.10354 0.107422,0 0.195313,-0.0466 0.195313,-0.10354 z m 1.171875,0 c 0,-0.057 -0.08789,-0.10354 -0.195313,-0.10354 -0.107421,0 -0.195312,0.0466 -0.195312,0.10354 0,0.057 0.08789,0.10354 0.195312,0.10354 0.107422,0 0.195313,-0.0466 0.195313,-0.10354 z m 3.125,0 c 0,-0.057 -0.08789,-0.10354 -0.195313,-0.10354 -0.107421,0 -0.195312,0.0466 -0.195312,0.10354 0,0.057 0.08789,0.10354 0.195312,0.10354 0.107422,0 0.195313,-0.0466 0.195313,-0.10354 z m -2.734375,-0.41415 c 0,-0.057 -0.08789,-0.10354 -0.195313,-0.10354 -0.107421,0 -0.195312,0.0466 -0.195312,0.10354 0,0.0569 0.08789,0.10353 0.195312,0.10353 0.107422,0 0.195313,-0.0466 0.195313,-0.10353 z m 0.78125,0 c 0,-0.057 -0.08789,-0.10354 -0.195313,-0.10354 -0.107421,0 -0.195312,0.0466 -0.195312,0.10354 0,0.0569 0.08789,0.10353 0.195312,0.10353 0.107422,0 0.195313,-0.0466 0.195313,-0.10353 z m 2.34375,-0.41416 c 0,-0.0569 -0.08789,-0.10354 -0.195313,-0.10354 -0.107421,0 -0.195312,0.0466 -0.195312,0.10354 0,0.057 0.08789,0.10354 0.195312,0.10354 0.107422,0 0.195313,-0.0466 0.195313,-0.10354 z m 3.90625,-1.03538 c 0,-0.057 -0.08789,-0.10354 -0.195313,-0.10354 -0.107421,0 -0.195312,0.0466 -0.195312,0.10354 0,0.0569 0.08789,0.10354 0.195312,0.10354 0.107422,0 0.195313,-0.0466 0.195313,-0.10354 z m 1.5625,-0.20708 c 0,-0.057 -0.08789,-0.10354 -0.195313,-0.10354 -0.107421,0 -0.195312,0.0466 -0.195312,0.10354 0,0.057 0.08789,0.10354 0.195312,0.10354 0.107422,0 0.195313,-0.0466 0.195313,-0.10354 z m 0,-1.86369 c 0,-0.057 -0.08789,-0.10354 -0.195313,-0.10354 -0.107421,0 -0.195312,0.0466 -0.195312,0.10354 0,0.0569 0.08789,0.10354 0.195312,0.10354 0.107422,0 0.195313,-0.0466 0.195313,-0.10354 z m 0.78125,-0.41416 c 0,-0.0569 -0.08789,-0.10354 -0.195313,-0.10354 -0.107421,0 -0.195312,0.0466 -0.195312,0.10354 0,0.057 0.08789,0.10354 0.195312,0.10354 0.107422,0 0.195313,-0.0466 0.195313,-0.10354 z m -0.520833,-1.69113 c -0.14323,-0.0759 -0.260417,-0.0138 -0.260417,0.13806 0,0.15185 0.117187,0.21398 0.260417,0.13805 0.143229,-0.0759 0.143229,-0.20018 0,-0.27611 z m 2.864583,-0.37964 c 0,-0.0569 -0.08789,-0.10353 -0.195313,-0.10353 -0.107421,0 -0.195312,0.0466 -0.195312,0.10353 0,0.057 0.08789,0.10354 0.195312,0.10354 0.107422,0 0.195313,-0.0466 0.195313,-0.10354 z m -16.40625,-0.41415 c 0,-0.057 -0.08789,-0.10354 -0.195313,-0.10354 -0.107421,0 -0.195312,0.0466 -0.195312,0.10354 0,0.057 0.08789,0.10354 0.195312,0.10354 0.107422,0 0.195313,-0.0466 0.195313,-0.10354 z m 15.820312,-0.10354 c 0.132781,-0.11389 0.153529,-0.20708 0.04611,-0.20708 -0.107422,0 -0.303952,0.0932 -0.436733,0.20708 -0.13278,0.11389 -0.153528,0.20708 -0.04611,0.20708 0.107422,0 0.303952,-0.0932 0.436733,-0.20708 z m -16.40625,-0.20708 c 0.132781,-0.11389 0.153529,-0.20707 0.04611,-0.20707 -0.107422,0 -0.303952,0.0932 -0.436733,0.20707 -0.13278,0.1139 -0.153528,0.20708 -0.04611,0.20708 0.107422,0 0.303952,-0.0932 0.436733,-0.20708 z m 15.429688,0.10354 c 0,-0.0569 -0.08789,-0.10354 -0.195313,-0.10354 -0.107421,0 -0.195312,0.0466 -0.195312,0.10354 0,0.057 0.08789,0.10354 0.195312,0.10354 0.107422,0 0.195313,-0.0466 0.195313,-0.10354 z m 2.34375,-0.20707 c 0,-0.057 -0.08789,-0.10354 -0.195313,-0.10354 -0.107421,0 -0.195312,0.0466 -0.195312,0.10354 0,0.0569 0.08789,0.10353 0.195312,0.10353 0.107422,0 0.195313,-0.0466 0.195313,-0.10353 z m -16.40625,-0.20708 c 0,-0.057 -0.08789,-0.10354 -0.195313,-0.10354 -0.107421,0 -0.195312,0.0466 -0.195312,0.10354 0,0.057 0.08789,0.10354 0.195312,0.10354 0.107422,0 0.195313,-0.0466 0.195313,-0.10354 z m -1.5625,-0.20708 c 0,-0.0569 -0.08789,-0.10354 -0.195313,-0.10354 -0.107421,0 -0.195312,0.0466 -0.195312,0.10354 0,0.057 0.08789,0.10354 0.195312,0.10354 0.107422,0 0.195313,-0.0466 0.195313,-0.10354 z m 15.625,-0.20707 c 0,-0.057 -0.08789,-0.10354 -0.195313,-0.10354 -0.107421,0 -0.195312,0.0466 -0.195312,0.10354 0,0.0569 0.08789,0.10353 0.195312,0.10353 0.107422,0 0.195313,-0.0466 0.195313,-0.10353 z m -18.75,-0.20708 c 0,-0.057 -0.08789,-0.10354 -0.195313,-0.10354 -0.107421,0 -0.195312,0.0466 -0.195312,0.10354 0,0.0569 0.08789,0.10354 0.195312,0.10354 0.107422,0 0.195313,-0.0466 0.195313,-0.10354 z m 2.34375,-0.20708 c 0,-0.0569 -0.08789,-0.10354 -0.195313,-0.10354 -0.107421,0 -0.195312,0.0466 -0.195312,0.10354 0,0.057 0.08789,0.10354 0.195312,0.10354 0.107422,0 0.195313,-0.0466 0.195313,-0.10354 z m 2.34375,0 c 0,-0.0569 -0.08789,-0.10354 -0.195313,-0.10354 -0.107421,0 -0.195312,0.0466 -0.195312,0.10354 0,0.057 0.08789,0.10354 0.195312,0.10354 0.107422,0 0.195313,-0.0466 0.195313,-0.10354 z m 6.510417,-1.48405 c -0.14323,-0.0759 -0.377605,-0.0759 -0.520834,0 -0.143229,0.0759 -0.02604,0.13805 0.260417,0.13805 0.286458,0 0.403646,-0.0621 0.260417,-0.13805 z m 41.438802,20.69595 c 0.698242,-0.0459 1.84082,-0.0459 2.539067,0 0.69824,0.0459 0.12695,0.0835 -1.269536,0.0835 -1.396484,0 -1.967773,-0.0376 -1.269531,-0.0835 z m 49.421497,0.006 c 0.38007,-0.0525 0.90741,-0.049 1.17187,0.008 0.26447,0.0567 -0.0465,0.0997 -0.69102,0.0955 -0.64453,-0.004 -0.86092,-0.0506 -0.48085,-0.10314 z m 2.8246,-0.0974 c -1.28907,-0.10471 -3.01587,-0.13774 -3.83734,-0.0734 -0.85295,0.0668 -1.39962,0.0364 -1.2745,-0.0709 0.27217,-0.23345 -1.92361,-0.73721 -2.45478,-0.56318 -0.21297,0.0698 -0.51441,0.0178 -0.66987,-0.11559 -0.18844,-0.16163 -0.11222,-0.1866 0.22867,-0.0749 0.34853,0.11419 0.41735,0.0869 0.21616,-0.0857 -0.16235,-0.13925 -0.52456,-0.20653 -0.8049,-0.1495 -0.53909,0.10967 -1.91387,-0.56769 -1.97727,-0.97419 -0.12401,-0.79523 -0.70837,-1.64014 -0.91666,-1.32537 -0.12554,0.18973 -0.22826,-0.71971 -0.22826,-2.02097 0,-1.30126 0.11948,-2.20634 0.26551,-2.01128 0.27707,0.3701 0.30184,0.36079 0.50397,-0.18919 0.0681,-0.18523 0.24924,-0.54634 0.40259,-0.80247 0.20737,-0.34636 0.15253,-0.42432 -0.21402,-0.30423 -0.32272,0.10574 -0.39527,0.0778 -0.21017,-0.081 0.15547,-0.13335 0.47617,-0.17905 0.71268,-0.10157 0.27155,0.089 0.34328,0.0211 0.19466,-0.18424 -0.33362,-0.46088 0.97209,-1.06273 1.5923,-0.73395 0.44146,0.23403 0.66197,0.0174 0.51336,-0.5043 -0.0234,-0.0822 0.40527,-0.0592 0.95263,0.0511 0.65776,0.13258 0.91359,0.13059 0.75451,-0.006 -0.13238,-0.11355 -0.0442,-0.20646 0.19604,-0.20646 0.2402,0 0.31131,-0.10758 0.15801,-0.23907 -0.17345,-0.14878 -0.10707,-0.18283 0.17575,-0.0902 0.59638,0.19539 2.08628,-0.059 1.7973,-0.30689 -0.30189,-0.25895 0.0879,-0.24192 1.11728,0.0488 0.77129,0.21784 0.80174,0.20789 0.31711,-0.10354 -0.57557,-0.36988 -0.46845,-0.41668 0.50192,-0.21928 0.3386,0.0689 0.5016,0.22305 0.36222,0.34261 -0.15164,0.13006 -0.0647,0.15553 0.21652,0.0634 0.36223,-0.11867 0.35368,-0.22983 -0.0373,-0.48492 -0.43402,-0.28318 -0.40857,-0.31134 0.17635,-0.19514 0.376,0.0747 0.68359,0.0393 0.68359,-0.0787 0,-0.11799 0.33136,-0.15878 0.73636,-0.0906 0.89443,0.15049 2.84659,-0.28486 2.52278,-0.5626 -0.13998,-0.12007 0.11666,-0.14033 0.64711,-0.0511 0.55186,0.0929 0.78901,0.0707 0.6371,-0.0597 -0.13309,-0.11416 0.0298,-0.26285 0.36199,-0.33043 0.37603,-0.0765 0.50482,-0.0378 0.34125,0.1025 -0.18621,0.15971 -0.0278,0.1587 0.54389,-0.003 0.44365,-0.12586 0.93806,-0.34483 1.09868,-0.48658 0.21577,-0.19041 0.14012,-0.20364 -0.28962,-0.0506 -0.31992,0.11389 -0.22183,0.0334 0.21799,-0.17882 0.64485,-0.31119 0.78659,-0.61185 0.73217,-1.55308 -0.0534,-0.92376 -0.002,-1.03762 0.24717,-0.54595 0.28756,0.56772 0.30432,0.55173 0.19463,-0.1857 -0.0769,-0.51682 -0.4414,-0.9635 -1.01393,-1.24246 -0.89389,-0.43553 -0.89389,-0.43553 -0.16208,0.0317 0.40249,0.25696 0.65964,0.50093 0.57144,0.54217 -0.0882,0.0412 -0.59982,-0.21207 -1.13693,-0.56292 -0.53711,-0.35084 -0.72968,-0.55712 -0.42793,-0.4584 0.38557,0.12614 0.4609,0.10423 0.25346,-0.0737 -0.16235,-0.13926 -0.54107,-0.20317 -0.84161,-0.14204 -0.30053,0.0611 -0.54642,0.0146 -0.54642,-0.10337 0,-0.12451 -0.34835,-0.15592 -0.83017,-0.0749 -0.55865,0.094 -0.74275,0.0647 -0.56288,-0.0896 0.18556,-0.15916 -0.54596,-0.22829 -2.39249,-0.22609 -1.86146,0.002 -2.48391,0.0634 -2.07384,0.2039 0.86599,0.29668 -0.22593,0.2681 -1.29521,-0.0339 -0.7332,-0.20708 -0.78674,-0.19822 -0.38062,0.063 0.39545,0.25434 0.29995,0.30212 -0.58511,0.29275 -0.58174,-0.006 -1.06431,0.082 -1.07238,0.19588 -0.008,0.11389 -0.22079,0.4033 -0.47271,0.64314 -0.25192,0.23983 -0.42147,0.70575 -0.37678,1.03538 0.0812,0.59932 0.0812,0.59932 -3.04375,0.61794 -3.125,0.0186 -3.125,0.0186 0,-0.11734 3.125,-0.13594 3.125,-0.13594 0.29297,-0.17392 -2.81029,-0.0377 -2.83207,-0.0423 -2.83736,-0.60743 -0.003,-0.31321 -0.10608,-0.80243 -0.2292,-1.08716 -0.18333,-0.42395 -0.14086,-0.46145 0.23453,-0.20707 0.38121,0.25831 0.42596,0.23216 0.26577,-0.15531 -0.10595,-0.25626 -0.0229,-0.46593 0.18448,-0.46593 0.20741,0 0.25168,-0.10758 0.0984,-0.23907 -0.18274,-0.15674 -0.10597,-0.18247 0.22293,-0.0747 0.33637,0.1102 0.43699,0.0696 0.30539,-0.12331 -0.27726,-0.40638 1.21305,-1.21746 1.95839,-1.06583 0.39799,0.081 0.5117,0.0408 0.32875,-0.11613 -0.18848,-0.16167 -0.0611,-0.19543 0.39063,-0.10354 0.45172,0.0919 0.5791,0.0581 0.39062,-0.10354 -0.18848,-0.16166 -0.0611,-0.19543 0.39063,-0.10353 0.42442,0.0863 0.57598,0.0554 0.41316,-0.0842 -0.36118,-0.30979 0.90251,-0.52515 1.51091,-0.25748 0.31463,0.13842 0.58833,0.14635 0.73417,0.0213 0.12789,-0.1097 0.0117,-0.2473 -0.25819,-0.3058 -0.2699,-0.0585 0.38819,-0.0678 1.46241,-0.0206 1.46463,0.0643 1.70888,0.0399 0.97656,-0.0978 -0.69035,-0.12974 0.11104,-0.1824 2.73437,-0.17967 2.70043,0.003 3.39183,0.0517 2.53907,0.17939 -0.91318,0.13677 -0.72362,0.15666 0.85866,0.0901 1.6534,-0.0696 1.99026,-0.0298 1.81368,0.21413 -0.11928,0.16477 -0.0223,0.29958 0.21555,0.29958 0.23783,0 0.43242,-0.0932 0.43242,-0.20707 0,-0.11389 0.18615,-0.20708 0.41368,-0.20708 0.22752,0 0.2934,0.10317 0.14639,0.22926 -0.18033,0.15468 0.006,0.18329 0.5727,0.0879 0.56006,-0.0942 0.80417,-0.0585 0.73251,0.10723 -0.0591,0.13672 0.13673,0.2956 0.43519,0.35309 0.36398,0.0701 0.44057,0.017 0.23261,-0.16142 -0.20481,-0.17567 -0.15481,-0.21508 0.14731,-0.11609 0.25154,0.0824 0.35622,0.23658 0.23261,0.34261 -0.1236,0.10602 -0.0386,0.20441 0.18895,0.21865 0.22752,0.0142 0.63317,0.0375 0.90144,0.0518 0.26827,0.0142 0.488,0.21201 0.48828,0.4395 2.8e-4,0.22749 0.22024,0.42551 0.4888,0.44004 0.93993,0.0509 0.97061,0.0808 0.43845,0.42758 -0.47146,0.30725 -0.45059,0.33238 0.17303,0.20838 0.58546,-0.11642 0.66332,-0.0645 0.44643,0.29777 -0.17667,0.29508 -0.12107,0.39238 0.16977,0.29709 0.24815,-0.0813 0.43247,0.001 0.43247,0.19337 0,0.18428 -0.18282,0.27516 -0.40628,0.20195 -0.25678,-0.0841 -0.32744,0.0447 -0.19203,0.35016 0.33512,0.75593 0.43923,13.24858 0.10707,12.84939 -0.19203,-0.23079 -0.25113,-0.12322 -0.16833,0.30641 0.0769,0.39877 -0.026,0.61173 -0.25874,0.53549 -0.22957,-0.0752 -0.28196,0.0176 -0.12911,0.22877 0.17335,0.23947 0.10966,0.307 -0.19531,0.20708 -0.29601,-0.097 -0.37178,-0.0367 -0.21905,0.17428 0.14237,0.19668 -0.16116,0.51295 -0.77786,0.81051 -0.55623,0.26838 -0.8913,0.37712 -0.74459,0.24165 0.171,-0.1579 -0.01,-0.23528 -0.50303,-0.21558 -0.5526,0.0221 -0.65984,0.10097 -0.3801,0.27965 0.25332,0.16182 0.2558,0.29277 0.007,0.37426 -0.21043,0.069 -0.49478,0.0291 -0.63189,-0.0885 -0.13712,-0.11761 -0.4317,-0.15407 -0.65464,-0.081 -0.26219,0.0859 -0.21817,0.20158 0.12465,0.32756 0.36268,0.13327 0.23708,0.15078 -0.39784,0.0555 -0.62601,-0.094 -0.84178,-0.0655 -0.6633,0.0876 0.16577,0.14219 0.0382,0.18085 -0.34171,0.10357 -0.33342,-0.0678 -0.60623,-0.0225 -0.60623,0.10073 0,0.13848 -0.48487,0.17983 -1.26953,0.10826 -0.96692,-0.0882 -1.12986,-0.063 -0.68359,0.10554 0.72408,0.27353 -0.62522,0.26918 -4.10156,-0.0132 z m 3.1901,-0.10424 c -0.14323,-0.0759 -0.3776,-0.0759 -0.52083,0 -0.14323,0.0759 -0.026,0.13805 0.26041,0.13805 0.28646,0 0.40365,-0.0621 0.26042,-0.13805 z m 5.98958,-0.7938 c 0,-0.0569 -0.0879,-0.10354 -0.19531,-0.10354 -0.10742,0 -0.19531,0.0466 -0.19531,0.10354 0,0.057 0.0879,0.10354 0.19531,0.10354 0.10742,0 0.19531,-0.0466 0.19531,-0.10354 z m -1.36718,-0.31061 c 0.13278,-0.11389 0.15353,-0.20708 0.0461,-0.20708 -0.10742,0 -0.30395,0.0932 -0.43673,0.20708 -0.13278,0.11389 -0.15353,0.20707 -0.0461,0.20707 0.10743,0 0.30396,-0.0932 0.43674,-0.20707 z m -16.94097,-0.2779 c -0.23929,-0.15285 -0.3487,-0.32368 -0.24314,-0.37964 0.10555,-0.056 -0.0725,-0.10174 -0.39564,-0.10174 -0.50098,0 -0.49206,0.0559 0.0605,0.37964 0.74238,0.43486 1.23564,0.52165 0.57824,0.10174 z m 20.31111,-0.29156 c 0.48588,-0.32844 0.47207,-0.33576 -0.14749,-0.0782 -0.65068,0.27052 -0.85761,0.44057 -0.53611,0.44057 0.0811,0 0.38873,-0.16307 0.6836,-0.36238 z m -16.84671,0.0518 c 0,-0.057 -0.0879,-0.10354 -0.19531,-0.10354 -0.10742,0 -0.19531,0.0466 -0.19531,0.10354 0,0.0569 0.0879,0.10353 0.19531,0.10353 0.10742,0 0.19531,-0.0466 0.19531,-0.10353 z m 15.23438,0 c 0,-0.057 -0.0879,-0.10354 -0.19531,-0.10354 -0.10743,0 -0.19532,0.0466 -0.19532,0.10354 0,0.0569 0.0879,0.10353 0.19532,0.10353 0.10742,0 0.19531,-0.0466 0.19531,-0.10353 z M 142.57,176.58926 c 0,-0.057 -0.0879,-0.10354 -0.19531,-0.10354 -0.10742,0 -0.19531,0.0466 -0.19531,0.10354 0,0.0569 0.0879,0.10354 0.19531,0.10354 0.10742,0 0.19531,-0.0466 0.19531,-0.10354 z m 7.42188,-0.41416 c 0,-0.0569 -0.0879,-0.10353 -0.19531,-0.10353 -0.10743,0 -0.19532,0.0466 -0.19532,0.10353 0,0.057 0.0879,0.10354 0.19532,0.10354 0.10742,0 0.19531,-0.0466 0.19531,-0.10354 z m 10.54687,0 c 0,-0.0569 -0.0879,-0.10353 -0.19531,-0.10353 -0.10742,0 -0.19531,0.0466 -0.19531,0.10353 0,0.057 0.0879,0.10354 0.19531,0.10354 0.10742,0 0.19531,-0.0466 0.19531,-0.10354 z m -12.91015,-0.51452 c 0.49301,0.003 0.5061,0.0365 0.0705,0.18283 -0.31987,0.10742 0.90204,0.16192 3.03909,0.13556 2.2038,-0.0272 3.75676,-0.14169 4.0506,-0.29864 0.3761,-0.20088 0.31187,-0.22601 -0.30471,-0.11919 -0.58993,0.1022 -0.64644,0.0845 -0.23074,-0.0721 0.30278,-0.1141 0.8167,-0.15331 1.14204,-0.0871 0.42689,0.0868 0.52303,0.0257 0.34545,-0.21961 -0.13534,-0.18696 -0.0508,-0.40391 0.18785,-0.4821 0.2529,-0.0829 0.3246,-0.0484 0.17188,0.0826 -0.14412,0.12362 -0.11269,0.2737 0.0699,0.3335 0.4429,0.14511 0.47307,-0.10441 0.43453,-3.59445 -0.0336,-3.04218 -0.12665,-3.4211 -0.78704,-3.20474 -0.2035,0.0667 -0.25803,0.21727 -0.12118,0.33465 0.13685,0.11739 -0.1679,0.0957 -0.67722,-0.0482 -0.84408,-0.23848 -0.8786,-0.23114 -0.38994,0.0829 0.3163,0.20326 0.36579,0.34452 0.12071,0.34452 -0.22847,0 -0.52404,-0.0932 -0.65682,-0.20708 -0.13278,-0.11389 -0.42835,-0.20707 -0.65682,-0.20707 -0.24575,0 -0.1977,0.13905 0.11765,0.34048 0.47578,0.30391 0.4337,0.32377 -0.39172,0.18489 -0.6364,-0.10707 -0.84141,-0.0841 -0.65747,0.0737 0.36278,0.31118 -0.27878,0.29077 -0.93007,-0.0296 -0.42893,-0.21098 -0.48317,-0.19379 -0.29333,0.093 0.16509,0.24939 0.0681,0.31831 -0.33313,0.23669 -0.31133,-0.0633 -0.56605,-0.0353 -0.56605,0.0623 0,0.0976 -0.52734,0.1978 -1.17187,0.22265 -2.59726,0.10017 -2.72346,0.12588 -2.22446,0.45309 0.37127,0.24345 0.36094,0.27227 -0.0505,0.141 -1.10296,-0.35184 -3.6237,1.43523 -3.53815,2.50836 0.0462,0.57974 0.0462,0.57974 0.37733,-0.0415 0.26889,-0.5045 0.30569,-0.42668 0.19583,0.41416 -0.14914,1.14143 0.0427,1.61657 0.58139,1.44007 0.19403,-0.0636 0.25327,0.0219 0.13165,0.18991 -0.2441,0.33722 1.10349,0.83063 1.60815,0.58881 0.1699,-0.0814 0.1826,0.0384 0.0282,0.26613 -0.2252,0.33227 -0.18344,0.36298 0.2112,0.15531 0.27054,-0.14237 0.76435,-0.25742 1.09736,-0.25568 z m 5.22786,0.0659 c 0.14323,-0.0759 0.37761,-0.0759 0.52084,0 0.14322,0.0759 0.026,0.13805 -0.26042,0.13805 -0.28646,0 -0.40365,-0.0621 -0.26042,-0.13805 z m -8.72396,-1.41503 c 0,-0.0569 0.0879,-0.10354 0.19532,-0.10354 0.10742,0 0.19531,0.0466 0.19531,0.10354 0,0.057 -0.0879,0.10354 -0.19531,0.10354 -0.10743,0 -0.19532,-0.0466 -0.19532,-0.10354 z m 12.10938,-0.10354 c 0,-0.15185 0.11719,-0.21398 0.26042,-0.13805 0.14322,0.0759 0.14322,0.20018 0,0.2761 -0.14323,0.0759 -0.26042,0.0138 -0.26042,-0.13805 z m -12.10938,-2.38138 c 0,-0.057 0.0879,-0.10354 0.19532,-0.10354 0.10742,0 0.19531,0.0466 0.19531,0.10354 0,0.0569 -0.0879,0.10354 -0.19531,0.10354 -0.10743,0 -0.19532,-0.0466 -0.19532,-0.10354 z m 1.17188,-0.82831 c 0.50459,-0.28473 1.00532,-0.51769 1.11274,-0.51769 0.10743,0 -0.21753,0.23296 -0.72212,0.51769 -0.50458,0.28473 -1.00532,0.51769 -1.11274,0.51769 -0.10742,0 0.21753,-0.23296 0.72212,-0.51769 z m 2.73437,-0.93185 c 0.32227,-0.1104 0.84961,-0.19561 1.17188,-0.18935 0.38635,0.008 0.31982,0.072 -0.19531,0.18935 -1.07386,0.24463 -1.69062,0.24463 -0.97657,0 z m 8.20313,5.9017 c 0,-0.057 -0.0879,-0.10354 -0.19531,-0.10354 -0.10743,0 -0.19532,0.0466 -0.19532,0.10354 0,0.0569 0.0879,0.10354 0.19532,0.10354 0.10742,0 0.19531,-0.0466 0.19531,-0.10354 z m -16.40625,-1.03539 c 0,-0.0569 -0.0879,-0.10354 -0.19531,-0.10354 -0.10743,0 -0.19532,0.0466 -0.19532,0.10354 0,0.057 0.0879,0.10354 0.19532,0.10354 0.10742,0 0.19531,-0.0466 0.19531,-0.10354 z m 21.875,0 c 0,-0.0569 -0.0879,-0.10354 -0.19531,-0.10354 -0.10743,0 -0.19532,0.0466 -0.19532,0.10354 0,0.057 0.0879,0.10354 0.19532,0.10354 0.10742,0 0.19531,-0.0466 0.19531,-0.10354 z m -4.39828,-5.33223 c -0.0763,-0.71183 -0.13869,-0.12942 -0.13869,1.29423 0,1.42366 0.0624,2.00606 0.13869,1.29423 0.0763,-0.71182 0.0763,-1.87663 0,-2.58846 z m -16.69547,1.60485 c 0,-0.057 -0.0879,-0.10354 -0.19531,-0.10354 -0.10743,0 -0.19532,0.0466 -0.19532,0.10354 0,0.0569 0.0879,0.10354 0.19532,0.10354 0.10742,0 0.19531,-0.0466 0.19531,-0.10354 z m -0.78125,-0.20708 c 0,-0.057 -0.0879,-0.10354 -0.19531,-0.10354 -0.10743,0 -0.19532,0.0466 -0.19532,0.10354 0,0.057 0.0879,0.10354 0.19532,0.10354 0.10742,0 0.19531,-0.0466 0.19531,-0.10354 z m 4.6875,-0.41415 c 0,-0.057 -0.0879,-0.10354 -0.19531,-0.10354 -0.10743,0 -0.19532,0.0466 -0.19532,0.10354 0,0.0569 0.0879,0.10354 0.19532,0.10354 0.10742,0 0.19531,-0.0466 0.19531,-0.10354 z m 0.78125,-0.20708 c 0,-0.057 -0.0879,-0.10354 -0.19531,-0.10354 -0.10743,0 -0.19532,0.0466 -0.19532,0.10354 0,0.057 0.0879,0.10354 0.19532,0.10354 0.10742,0 0.19531,-0.0466 0.19531,-0.10354 z m -4.6875,-0.20708 c 0,-0.0569 -0.0879,-0.10354 -0.19531,-0.10354 -0.10743,0 -0.19532,0.0466 -0.19532,0.10354 0,0.057 0.0879,0.10354 0.19532,0.10354 0.10742,0 0.19531,-0.0466 0.19531,-0.10354 z m 4.29687,-0.20707 c 0,-0.057 -0.0879,-0.10354 -0.19531,-0.10354 -0.10742,0 -0.19531,0.0466 -0.19531,0.10354 0,0.0569 0.0879,0.10353 0.19531,0.10353 0.10742,0 0.19531,-0.0466 0.19531,-0.10353 z m -4.13441,-1.06468 c 0.20573,-0.28421 0.14857,-0.29702 -0.34883,-0.0782 -0.67783,0.29822 -0.74838,0.41809 -0.24605,0.41809 0.19186,0 0.45956,-0.15296 0.59488,-0.33991 z m 2.57191,0.0293 c 0,-0.057 -0.0879,-0.10354 -0.19531,-0.10354 -0.10742,0 -0.19531,0.0466 -0.19531,0.10354 0,0.057 0.0879,0.10354 0.19531,0.10354 0.10742,0 0.19531,-0.0466 0.19531,-0.10354 z m 7.42188,-0.62123 c 0,-0.057 -0.0879,-0.10354 -0.19531,-0.10354 -0.10743,0 -0.19532,0.0466 -0.19532,0.10354 0,0.057 0.0879,0.10354 0.19532,0.10354 0.10742,0 0.19531,-0.0466 0.19531,-0.10354 z m 1.17187,0 c 0,-0.057 -0.0879,-0.10354 -0.19531,-0.10354 -0.10742,0 -0.19531,0.0466 -0.19531,0.10354 0,0.057 0.0879,0.10354 0.19531,0.10354 0.10742,0 0.19531,-0.0466 0.19531,-0.10354 z m -3.90625,-0.41415 c 0,-0.057 -0.0879,-0.10354 -0.19531,-0.10354 -0.10742,0 -0.19531,0.0466 -0.19531,0.10354 0,0.0569 0.0879,0.10353 0.19531,0.10353 0.10742,0 0.19531,-0.0466 0.19531,-0.10353 z m 2.73438,-0.20708 c 0,-0.057 -0.0879,-0.10354 -0.19531,-0.10354 -0.10743,0 -0.19532,0.0466 -0.19532,0.10354 0,0.057 0.0879,0.10354 0.19532,0.10354 0.10742,0 0.19531,-0.0466 0.19531,-0.10354 z m -0.78125,-0.20708 c 0,-0.0569 -0.0879,-0.10354 -0.19531,-0.10354 -0.10743,0 -0.19532,0.0466 -0.19532,0.10354 0,0.057 0.0879,0.10354 0.19532,0.10354 0.10742,0 0.19531,-0.0466 0.19531,-0.10354 z m 1.95312,0 c 0,-0.0569 -0.0879,-0.10354 -0.19531,-0.10354 -0.10742,0 -0.19531,0.0466 -0.19531,0.10354 0,0.057 0.0879,0.10354 0.19531,0.10354 0.10742,0 0.19531,-0.0466 0.19531,-0.10354 z m -1.95312,-0.41415 c 0,-0.057 -0.0879,-0.10354 -0.19531,-0.10354 -0.10743,0 -0.19532,0.0466 -0.19532,0.10354 0,0.0569 0.0879,0.10354 0.19532,0.10354 0.10742,0 0.19531,-0.0466 0.19531,-0.10354 z m 3.51562,-0.20708 c 0,-0.0569 -0.0879,-0.10354 -0.19531,-0.10354 -0.10742,0 -0.19531,0.0466 -0.19531,0.10354 0,0.057 0.0879,0.10354 0.19531,0.10354 0.10742,0 0.19531,-0.0466 0.19531,-0.10354 z m -13.08593,-5.69461 c 0.13278,-0.1139 0.15353,-0.20708 0.0461,-0.20708 -0.10742,0 -0.30395,0.0932 -0.43673,0.20708 -0.13278,0.11389 -0.15353,0.20707 -0.0461,0.20707 0.10743,0 0.30396,-0.0932 0.43674,-0.20707 z m 15.9551,-0.31955 c -0.12722,-0.17575 -0.31508,-0.27514 -0.41748,-0.22085 -0.10239,0.0543 -0.0703,0.19807 0.0713,0.31954 0.38518,0.33038 0.61031,0.2662 0.34617,-0.0987 z m 4.55271,0.21601 c 0,-0.057 -0.0879,-0.10354 -0.19531,-0.10354 -0.10743,0 -0.19532,0.0466 -0.19532,0.10354 0,0.0569 0.0879,0.10354 0.19532,0.10354 0.10742,0 0.19531,-0.0466 0.19531,-0.10354 z m -21.09375,-0.41416 c 0,-0.0569 -0.0879,-0.10354 -0.19531,-0.10354 -0.10743,0 -0.19532,0.0466 -0.19532,0.10354 0,0.057 0.0879,0.10354 0.19532,0.10354 0.10742,0 0.19531,-0.0466 0.19531,-0.10354 z m 0.78125,-0.41415 c 0,-0.057 -0.0879,-0.10354 -0.19531,-0.10354 -0.10743,0 -0.19532,0.0466 -0.19532,0.10354 0,0.057 0.0879,0.10354 0.19532,0.10354 0.10742,0 0.19531,-0.0466 0.19531,-0.10354 z m 15.49479,-0.24159 c -0.14323,-0.0759 -0.26042,-0.0138 -0.26042,0.13805 0,0.15186 0.11719,0.21398 0.26042,0.13805 0.14323,-0.0759 0.14323,-0.20017 0,-0.2761 z m 5.59896,0.24159 c 0,-0.057 -0.0879,-0.10354 -0.19531,-0.10354 -0.10743,0 -0.19532,0.0466 -0.19532,0.10354 0,0.057 0.0879,0.10354 0.19532,0.10354 0.10742,0 0.19531,-0.0466 0.19531,-0.10354 z m -21.28906,-0.72477 c 0.38886,-0.22778 0.61913,-0.41415 0.51171,-0.41415 -0.10743,0 -0.51348,0.18637 -0.90234,0.41415 -0.38886,0.22778 -0.61913,0.41415 -0.51171,0.41415 0.10742,0 0.51347,-0.18637 0.90234,-0.41415 z m 3.32031,-0.0913 c 0,-0.0502 -0.20294,-0.1578 -0.45098,-0.23907 -0.27941,-0.0915 -0.34495,-0.0568 -0.17226,0.0913 0.2783,0.23871 0.62324,0.32048 0.62324,0.14775 z m 13.28125,-0.0122 c 0,-0.0569 -0.0879,-0.10354 -0.19531,-0.10354 -0.10743,0 -0.19532,0.0466 -0.19532,0.10354 0,0.057 0.0879,0.10354 0.19532,0.10354 0.10742,0 0.19531,-0.0466 0.19531,-0.10354 z m 1.17187,0 c 0,-0.0569 -0.0879,-0.10354 -0.19531,-0.10354 -0.10742,0 -0.19531,0.0466 -0.19531,0.10354 0,0.057 0.0879,0.10354 0.19531,0.10354 0.10742,0 0.19531,-0.0466 0.19531,-0.10354 z m 2.34375,0 c 0,-0.0569 -0.0879,-0.10354 -0.19531,-0.10354 -0.10742,0 -0.19531,0.0466 -0.19531,0.10354 0,0.057 0.0879,0.10354 0.19531,0.10354 0.10742,0 0.19531,-0.0466 0.19531,-0.10354 z m -2.73437,-0.40193 c 0,-0.0502 -0.20294,-0.15781 -0.45098,-0.23907 -0.27941,-0.0916 -0.34495,-0.0568 -0.17226,0.0913 0.2783,0.23871 0.62324,0.32049 0.62324,0.14776 z m -13.67188,-0.63345 c 0,-0.057 -0.0879,-0.10354 -0.19531,-0.10354 -0.10742,0 -0.19531,0.0466 -0.19531,0.10354 0,0.0569 0.0879,0.10353 0.19531,0.10353 0.10742,0 0.19531,-0.0466 0.19531,-0.10353 z m 6.64063,-0.41416 c 0,-0.0569 -0.0879,-0.10354 -0.19531,-0.10354 -0.10743,0 -0.19532,0.0466 -0.19532,0.10354 0,0.057 0.0879,0.10354 0.19532,0.10354 0.10742,0 0.19531,-0.0466 0.19531,-0.10354 z m -75.781251,20.50062 c 0,-0.057 0.08789,-0.10354 0.195312,-0.10354 0.107422,0 0.195313,0.0466 0.195313,0.10354 0,0.057 -0.08789,0.10354 -0.195313,0.10354 -0.107421,0 -0.195312,-0.0466 -0.195312,-0.10354 z m 3.515625,0 c 0,-0.057 0.08789,-0.10354 0.195312,-0.10354 0.107422,0 0.195313,0.0466 0.195313,0.10354 0,0.057 -0.08789,0.10354 -0.195313,0.10354 -0.107421,0 -0.195312,-0.0466 -0.195312,-0.10354 z m 0.78125,0 c 0,-0.057 0.08789,-0.10354 0.195312,-0.10354 0.107422,0 0.195313,0.0466 0.195313,0.10354 0,0.057 -0.08789,0.10354 -0.195313,0.10354 -0.107421,0 -0.195312,-0.0466 -0.195312,-0.10354 z m 14.683647,-0.13374 c 0.195647,-0.16781 -0.03589,-0.19569 -0.790927,-0.0952 -0.587155,0.0781 -0.972464,0.0605 -0.856242,-0.0392 0.116222,-0.0997 -0.408611,-0.33797 -1.166294,-0.52951 -0.942246,-0.23819 -1.298149,-0.26534 -1.126178,-0.0859 0.138286,0.1443 0.0013,0.10074 -0.304443,-0.0968 -0.30573,-0.19754 -0.645279,-0.31177 -0.754554,-0.25384 -0.109274,0.0579 -0.408046,-0.0284 -0.663938,-0.19186 -0.360219,-0.23009 -0.35916,-0.33194 0.0047,-0.45115 0.317731,-0.1041 0.367588,-0.0662 0.153925,0.1171 -0.222422,0.19078 -0.164574,0.22145 0.195313,0.10354 0.359887,-0.11791 0.417735,-0.0872 0.195312,0.10353 -0.213662,0.18327 -0.163805,0.2212 0.153926,0.1171 0.357984,-0.11728 0.361819,-0.22304 0.0161,-0.44387 -0.24962,-0.15944 -0.609718,-0.23883 -0.800218,-0.17642 -0.190501,0.0624 -0.346365,0.009 -0.346365,-0.11804 0,-0.12733 -0.173768,-0.17458 -0.386151,-0.105 -0.22937,0.0752 -0.281716,-0.0178 -0.12893,-0.22883 0.188328,-0.26016 0.118652,-0.30994 -0.260142,-0.18583 -0.377748,0.12376 -0.424979,0.091 -0.175023,-0.12134 0.638357,-0.54233 0.557723,-0.94436 -0.09986,-0.49792 -0.593406,0.40287 -0.60352,0.40005 -0.371229,-0.10354 0.131338,-0.28473 0.241197,-4.17519 0.24413,-8.64546 0.0053,-8.12777 0.0053,-8.12777 2.539699,-8.12777 2.534365,0 2.534365,0 2.641559,7.81715 0.107194,7.81716 0.107194,7.81716 0.20001,-0.0948 0.09282,-7.91198 0.09282,-7.91198 -2.739215,-7.9855 -2.832032,-0.0735 -2.832032,-0.0735 0.09766,-0.0605 2.929687,0.013 2.929687,0.013 3.012797,8.29612 0.04571,4.55569 0.110472,8.37626 0.143915,8.49016 0.03344,0.11389 0.03999,0.27696 0.01455,0.36238 -0.02544,0.0854 0.08558,0.13274 0.246711,0.10515 0.365327,-0.0625 2.10463,0.5737 1.88614,0.68996 -0.08782,0.0467 1.187713,0.11146 2.834516,0.14383 2.12703,0.0418 2.824495,-0.002 2.40825,-0.15213 -0.478175,-0.1722 -0.420054,-0.21159 0.316025,-0.21418 0.50296,-0.002 0.79516,0.0884 0.66054,0.20391 -0.13278,0.11389 -0.0498,0.20708 0.18452,0.20708 0.23427,0 0.51966,-0.12948 0.63422,-0.28774 0.11455,-0.15825 0.52428,-0.24392 0.91051,-0.19038 0.47864,0.0663 0.77231,-0.0447 0.92234,-0.34887 0.12107,-0.24541 0.58473,-0.49676 1.03036,-0.55853 0.44563,-0.0618 0.81024,-0.23361 0.81024,-0.38185 0,-0.14824 0.10447,-0.44023 0.23216,-0.64885 0.19308,-0.31547 0.16121,-0.32704 -0.18933,-0.0687 -0.30444,0.22436 -0.42315,-1.91777 -0.42747,-7.71361 -0.006,-8.02424 -0.006,-8.02424 3.21667,-7.98256 3.22266,0.0417 3.22266,0.0417 0.19531,0.11225 -3.02734,0.0706 -3.02734,0.0706 -2.93471,7.67194 0.0926,7.60137 0.0926,7.60137 0.20018,0.0948 0.10756,-7.50654 0.10756,-7.50654 2.65642,-7.50654 2.54886,0 2.54886,0 2.43653,8.07611 -0.0618,4.44186 0.0195,8.07606 0.18065,8.076 0.16113,-6e-5 0.28061,0.20956 0.26551,0.46581 -0.0254,0.43064 -0.05,0.4354 -0.325,0.0629 -0.284,-0.38472 -0.30776,-0.38236 -0.52191,0.0518 -0.1234,0.25016 -0.065,0.45483 0.12968,0.45483 0.19473,0 0.35406,0.0987 0.35406,0.2193 0,0.12062 -0.20565,0.15192 -0.45701,0.0696 -0.30549,-0.10009 -0.3759,-0.0377 -0.21237,0.18823 0.13455,0.18587 0.0494,0.40192 -0.18929,0.48011 -0.28574,0.0936 -0.32479,0.0429 -0.11436,-0.14867 0.17576,-0.15996 -0.18852,-0.0113 -0.80952,0.33039 -0.621,0.34168 -1.13709,0.71441 -1.14688,0.82831 -0.01,0.11389 -0.3391,0.17754 -0.73182,0.14145 -0.4798,-0.0441 -0.6173,0.0173 -0.41916,0.18731 0.18926,0.16234 0.1321,0.19959 -0.15961,0.10402 -0.54462,-0.17844 -2.09806,0.0489 -1.84097,0.26942 0.0992,0.0851 -0.38165,0.12427 -1.06855,0.0871 -0.98951,-0.0536 -1.08664,-0.0299 -0.46765,0.11425 0.69613,0.16208 -4.475299,0.13126 -7.694216,-0.0459 -0.579474,-0.0319 -0.964608,0.0184 -0.855853,0.11164 0.108755,0.0933 -0.08668,0.16961 -0.434309,0.16961 -0.375523,0 -0.519772,-0.0963 -0.355415,-0.23728 z m 13.831979,-0.90164 c 0,-0.057 -0.0879,-0.10354 -0.19531,-0.10354 -0.10743,0 -0.19532,0.0466 -0.19532,0.10354 0,0.0569 0.0879,0.10353 0.19532,0.10353 0.10742,0 0.19531,-0.0466 0.19531,-0.10353 z m -0.39063,-0.62123 c 0,-0.057 -0.0879,-0.10354 -0.19531,-0.10354 -0.10742,0 -0.19531,0.0466 -0.19531,0.10354 0,0.0569 0.0879,0.10353 0.19531,0.10353 0.10742,0 0.19531,-0.0466 0.19531,-0.10353 z m 1.5625,-0.20708 c 0,-0.057 -0.0879,-0.10354 -0.19531,-0.10354 -0.10742,0 -0.19531,0.0466 -0.19531,0.10354 0,0.0569 0.0879,0.10354 0.19531,0.10354 0.10742,0 0.19531,-0.0466 0.19531,-0.10354 z m -18.749996,-0.20708 c 0,-0.0569 -0.08789,-0.10354 -0.195313,-0.10354 -0.107421,0 -0.195312,0.0466 -0.195312,0.10354 0,0.057 0.08789,0.10354 0.195312,0.10354 0.107422,0 0.195313,-0.0466 0.195313,-0.10354 z m 2.929687,-0.31061 c 0.132781,-0.1139 0.153529,-0.20708 0.04611,-0.20708 -0.107422,0 -0.303952,0.0932 -0.436733,0.20708 -0.13278,0.11389 -0.153528,0.20707 -0.04611,0.20707 0.107422,0 0.303952,-0.0932 0.436733,-0.20707 z m 9.570309,-0.10354 c 0,-0.057 -0.0879,-0.10354 -0.19531,-0.10354 -0.10742,0 -0.19531,0.0466 -0.19531,0.10354 0,0.0569 0.0879,0.10354 0.19531,0.10354 0.10742,0 0.19531,-0.0466 0.19531,-0.10354 z m 2.73438,-0.20708 c 0,-0.057 -0.0879,-0.10354 -0.19531,-0.10354 -0.10743,0 -0.19532,0.0466 -0.19532,0.10354 0,0.057 0.0879,0.10354 0.19532,0.10354 0.10742,0 0.19531,-0.0466 0.19531,-0.10354 z m -12.500001,-0.20708 c 0,-0.0569 -0.08789,-0.10354 -0.195313,-0.10354 -0.107421,0 -0.195312,0.0466 -0.195312,0.10354 0,0.057 0.08789,0.10354 0.195312,0.10354 0.107422,0 0.195313,-0.0466 0.195313,-0.10354 z m 11.718751,0 c 0,-0.0569 -0.0879,-0.10354 -0.19531,-0.10354 -0.10743,0 -0.19532,0.0466 -0.19532,0.10354 0,0.057 0.0879,0.10354 0.19532,0.10354 0.10742,0 0.19531,-0.0466 0.19531,-0.10354 z m -12.890626,-0.41415 c 0,-0.057 -0.08789,-0.10354 -0.195313,-0.10354 -0.107421,0 -0.195312,0.0466 -0.195312,0.10354 0,0.057 0.08789,0.10354 0.195312,0.10354 0.107422,0 0.195313,-0.0466 0.195313,-0.10354 z m 12.695316,-0.10354 c 0.13278,-0.11389 0.15353,-0.20708 0.0461,-0.20708 -0.10742,0 -0.30395,0.0932 -0.43673,0.20708 -0.13278,0.11389 -0.15353,0.20708 -0.0461,0.20708 0.10743,0 0.30396,-0.0932 0.43674,-0.20708 z m 0.97656,0.10354 c 0,-0.057 -0.0879,-0.10354 -0.19531,-0.10354 -0.10743,0 -0.19532,0.0466 -0.19532,0.10354 0,0.057 0.0879,0.10354 0.19532,0.10354 0.10742,0 0.19531,-0.0466 0.19531,-0.10354 z M 73.614162,164.16464 c 3.9e-5,-7.85857 0.04866,-11.04332 0.108051,-7.07723 0.05939,3.96609 0.05936,10.39583 -7.1e-5,14.28831 -0.05943,3.89248 -0.108019,0.64749 -0.10798,-7.21108 z m 50.298538,6.48338 c -0.0859,-7.22811 -0.26798,-8.51667 -1.10262,-7.80076 -0.17653,0.15142 -0.11334,0.18697 0.16832,0.0947 0.33779,-0.11067 0.45098,1.77832 0.45098,7.52632 0,7.67407 0,7.67407 -2.54734,7.67407 -2.54735,0 -2.54735,0 -2.54771,-7.9207 -2e-4,-4.35638 -0.0811,-8.20025 -0.17978,-8.54192 -0.16551,-0.57311 -0.15272,-0.58113 0.16502,-0.10354 0.34443,0.51769 0.34443,0.51769 0.38337,-0.0395 0.0214,-0.30648 0.22326,-0.61763 0.44853,-0.69143 0.28,-0.0917 0.26487,-0.22664 -0.0478,-0.42638 -0.45157,-0.28844 -0.41162,-0.31893 0.48459,-0.36983 0.25065,-0.0142 0.53713,-0.15534 0.63662,-0.31356 0.12508,-0.19893 0.0146,-0.23458 -0.35808,-0.11556 -0.45678,0.14587 -0.4566,0.11831 0.001,-0.1808 0.4434,-0.28973 0.64916,-0.30612 1.1492,-0.0915 0.47927,0.20568 0.54657,0.20623 0.31574,0.003 -0.16485,-0.14546 -0.10204,-0.25884 0.14338,-0.25884 0.24021,0 0.34721,-0.0768 0.23779,-0.17065 -0.10942,-0.0939 0.18783,-0.16374 0.66054,-0.15531 0.5171,0.009 0.81673,-0.0939 0.75215,-0.2589 -0.059,-0.15083 0.0744,-0.2147 0.29647,-0.14194 0.56581,0.18538 2.02008,-0.0889 1.74092,-0.32838 -0.13903,-0.11925 0.43713,-0.1529 1.45917,-0.0852 1.0434,0.0691 1.40917,0.0467 0.957,-0.0586 -0.44431,-0.10345 0.86033,-0.1722 3.32031,-0.17497 2.22872,-0.002 3.7446,0.0329 3.36862,0.0787 -0.6899,0.084 -0.91196,0.68 -0.7526,2.02007 0.0564,0.4738 -0.018,0.54751 -0.3132,0.31061 -0.33486,-0.26871 -0.38788,-0.26376 -0.39306,0.0367 -0.006,0.32556 -0.62709,0.36493 -2.55295,0.16172 -1.14786,-0.12111 -2.31522,0.022 -1.74991,0.21458 0.41018,0.13971 0.0858,0.1739 -1.08139,0.11399 -0.91822,-0.0471 -1.57073,-0.003 -1.45233,0.0988 0.11825,0.10143 0.51698,0.1331 0.88608,0.0704 0.53507,-0.0909 0.55951,-0.072 0.12057,0.0934 -0.30279,0.11409 -0.74224,0.1721 -0.97657,0.1289 -0.68261,-0.12585 -1.9134,0.48048 -1.66681,0.82114 0.1515,0.20929 0.0427,0.27305 -0.33499,0.19622 -0.45714,-0.093 -0.48831,-0.006 -0.17051,0.4776 0.23891,0.3633 0.34743,3.54598 0.28137,8.25211 -0.10753,7.66072 -0.10753,7.66072 -0.20022,-0.14421 z m -1.6552,-9.58953 c 0,-0.057 -0.0879,-0.10354 -0.19531,-0.10354 -0.10742,0 -0.19531,0.0466 -0.19531,0.10354 0,0.0569 0.0879,0.10354 0.19531,0.10354 0.10742,0 0.19531,-0.0466 0.19531,-0.10354 z m -0.78125,-0.20708 c 0,-0.057 -0.0879,-0.10354 -0.19531,-0.10354 -0.10742,0 -0.19531,0.0466 -0.19531,0.10354 0,0.057 0.0879,0.10354 0.19531,0.10354 0.10742,0 0.19531,-0.0466 0.19531,-0.10354 z m -1.95312,-0.62123 c 0,-0.057 -0.0879,-0.10354 -0.19531,-0.10354 -0.10743,0 -0.19532,0.0466 -0.19532,0.10354 0,0.057 0.0879,0.10354 0.19532,0.10354 0.10742,0 0.19531,-0.0466 0.19531,-0.10354 z m 12.10937,-0.20708 c 0,-0.0569 -0.0879,-0.10354 -0.19531,-0.10354 -0.10742,0 -0.19531,0.0466 -0.19531,0.10354 0,0.057 0.0879,0.10354 0.19531,0.10354 0.10742,0 0.19531,-0.0466 0.19531,-0.10354 z m -5.46875,-0.20707 c 0,-0.057 -0.0879,-0.10354 -0.19531,-0.10354 -0.10742,0 -0.19531,0.0466 -0.19531,0.10354 0,0.0569 0.0879,0.10353 0.19531,0.10353 0.10742,0 0.19531,-0.0466 0.19531,-0.10353 z m -5.46875,-0.41416 c 0,-0.0569 -0.0879,-0.10354 -0.19531,-0.10354 -0.10742,0 -0.19531,0.0466 -0.19531,0.10354 0,0.057 0.0879,0.10354 0.19531,0.10354 0.10742,0 0.19531,-0.0466 0.19531,-0.10354 z m 4.29688,0 c 0,-0.0569 -0.0879,-0.10354 -0.19531,-0.10354 -0.10743,0 -0.19532,0.0466 -0.19532,0.10354 0,0.057 0.0879,0.10354 0.19532,0.10354 0.10742,0 0.19531,-0.0466 0.19531,-0.10354 z m -1.95313,-0.20708 c 0,-0.0569 -0.0879,-0.10353 -0.19531,-0.10353 -0.10742,0 -0.19531,0.0466 -0.19531,0.10353 0,0.057 0.0879,0.10354 0.19531,0.10354 0.10742,0 0.19531,-0.0466 0.19531,-0.10354 z m 10.15625,-1.03538 c 0,-0.057 -0.0879,-0.10354 -0.19531,-0.10354 -0.10742,0 -0.19531,0.0466 -0.19531,0.10354 0,0.057 0.0879,0.10354 0.19531,0.10354 0.10742,0 0.19531,-0.0466 0.19531,-0.10354 z m 10.54688,20.08646 c 0,-0.0569 0.0879,-0.10353 0.19531,-0.10353 0.10742,0 0.19531,0.0466 0.19531,0.10353 0,0.057 -0.0879,0.10354 -0.19531,0.10354 -0.10742,0 -0.19531,-0.0466 -0.19531,-0.10354 z M 74.210629,164.15518 c 0,-13.98716 0,-13.98716 2.5426,-13.92593 1.398431,0.0337 2.541009,0.13112 2.539063,0.21654 -0.0019,0.0854 -0.0035,6.35209 -0.0035,13.92593 0,13.77062 0,13.77062 -2.539063,13.77062 -2.539062,0 -2.539062,0 -2.539062,-13.98716 z m 4.6875,-13.24346 c 0,-0.057 -0.08789,-0.10354 -0.195313,-0.10354 -0.107421,0 -0.195312,0.0466 -0.195312,0.10354 0,0.0569 0.08789,0.10353 0.195312,0.10353 0.107422,0 0.195313,-0.0466 0.195313,-0.10353 z m 12.5,27.12708 c 0,-0.057 0.08789,-0.10354 0.195312,-0.10354 0.107422,0 0.195313,0.0466 0.195313,0.10354 0,0.0569 -0.08789,0.10354 -0.195313,0.10354 -0.107421,0 -0.195312,-0.0466 -0.195312,-0.10354 z m 14.192711,-0.0345 c 0.14323,-0.0759 0.3776,-0.0759 0.52083,0 0.14323,0.0759 0.026,0.13806 -0.26042,0.13806 -0.28645,0 -0.40364,-0.0621 -0.26041,-0.13806 z m 37.10937,0 c 0.14323,-0.0759 0.37761,-0.0759 0.52084,0 0.14322,0.0759 0.026,0.13806 -0.26042,0.13806 -0.28646,0 -0.40365,-0.0621 -0.26042,-0.13806 z m -80.208331,-0.2761 c 0,-0.15185 0.117187,-0.21398 0.260417,-0.13805 0.143229,0.0759 0.143229,0.20017 0,0.2761 -0.14323,0.0759 -0.260417,0.0138 -0.260417,-0.13805 z m 28.125,0.10354 c 0,-0.057 0.08789,-0.10354 0.195312,-0.10354 0.107422,0 0.195313,0.0466 0.195313,0.10354 0,0.057 -0.08789,0.10354 -0.195313,0.10354 -0.107421,0 -0.195312,-0.0466 -0.195312,-0.10354 z m -45.3125,-0.20708 c 0,-0.0569 0.08789,-0.10354 0.195312,-0.10354 0.107422,0 0.195313,0.0466 0.195313,0.10354 0,0.057 -0.08789,0.10354 -0.195313,0.10354 -0.107421,0 -0.195312,-0.0466 -0.195312,-0.10354 z m 18.164062,-0.10354 c 0.132781,-0.11389 0.329311,-0.20707 0.436733,-0.20707 0.107421,0 0.08667,0.0932 -0.04611,0.20707 -0.13278,0.1139 -0.32931,0.20708 -0.436732,0.20708 -0.107421,0 -0.08667,-0.0932 0.04611,-0.20708 z m 74.983939,-1.46331 c -0.14162,-0.12147 -0.17371,-0.26527 -0.0713,-0.31955 0.10239,-0.0543 0.29026,0.0451 0.41748,0.22086 0.26413,0.36489 0.039,0.42907 -0.34617,0.0987 z m -42.073782,-0.33044 c 0.268554,-0.0574 0.708008,-0.0574 0.976562,0 0.268555,0.0574 0.04883,0.10444 -0.488281,0.10444 -0.537109,0 -0.756836,-0.047 -0.488281,-0.10444 z m -1.334636,-0.20799 c 0.143229,-0.0759 0.377604,-0.0759 0.520834,0 0.143229,0.0759 0.02604,0.13805 -0.260417,0.13805 -0.286458,0 -0.403646,-0.0621 -0.260417,-0.13805 z m -1.691261,-0.5859 c -0.503792,-0.28428 -0.842051,-0.55156 -0.751685,-0.59394 0.09037,-0.0424 0.573178,0.19021 1.072917,0.51687 1.118354,0.73105 0.921438,0.77829 -0.321232,0.0771 z m 9.373549,0.41334 c 0,-0.057 0.0879,-0.10354 0.19532,-0.10354 0.10742,0 0.19531,0.0466 0.19531,0.10354 0,0.0569 -0.0879,0.10353 -0.19531,0.10353 -0.10743,0 -0.19532,-0.0466 -0.19532,-0.10353 z m -35.763506,-7.14416 c 0,-3.58761 0.05321,-5.05526 0.118236,-3.26146 0.06503,1.7938 0.06503,4.72912 0,6.52292 -0.06503,1.79381 -0.118236,0.32615 -0.118236,-3.26146 z m 37.716636,6.10877 c 0,-0.0569 0.0879,-0.10354 0.19531,-0.10354 0.10742,0 0.19531,0.0466 0.19531,0.10354 0,0.057 -0.0879,0.10354 -0.19531,0.10354 -0.10742,0 -0.19531,-0.0466 -0.19531,-0.10354 z m 33.59375,-4.038 c 0,-0.15186 0.11719,-0.21398 0.26042,-0.13805 0.14322,0.0759 0.14322,0.20017 0,0.2761 -0.14323,0.0759 -0.26042,0.0138 -0.26042,-0.13805 z m 4.29687,-2.38138 c 0,-0.057 0.0879,-0.10354 0.19532,-0.10354 0.10742,0 0.19531,0.0466 0.19531,0.10354 0,0.0569 -0.0879,0.10353 -0.19531,0.10353 -0.10743,0 -0.19532,-0.0466 -0.19532,-0.10353 z m 2.08334,-0.44867 c 0.14323,-0.0759 0.3776,-0.0759 0.52083,0 0.14323,0.0759 0.026,0.13805 -0.26042,0.13805 -0.28645,0 -0.40364,-0.0621 -0.26041,-0.13805 z M 50.122087,167.2363 c 0.143229,-0.0759 0.377604,-0.0759 0.520834,0 0.143229,0.0759 0.02604,0.13805 -0.260417,0.13805 -0.286458,0 -0.403646,-0.0621 -0.260417,-0.13805 z m 3.125,-0.62123 c 0.143229,-0.0759 0.377604,-0.0759 0.520834,0 0.143229,0.0759 0.02604,0.13805 -0.260417,0.13805 -0.286458,0 -0.403646,-0.0621 -0.260417,-0.13805 z m 97.265623,-0.20708 c 0.14323,-0.0759 0.37761,-0.0759 0.52084,0 0.14322,0.0759 0.026,0.13806 -0.26042,0.13806 -0.28646,0 -0.40365,-0.0621 -0.26042,-0.13806 z m 1.04167,-0.17256 c 0,-0.057 0.0879,-0.10354 0.19531,-0.10354 0.10742,0 0.19531,0.0466 0.19531,0.10354 0,0.057 -0.0879,0.10354 -0.19531,0.10354 -0.10742,0 -0.19531,-0.0466 -0.19531,-0.10354 z m -92.773439,-0.72477 c 0.132781,-0.11389 0.329311,-0.20708 0.436733,-0.20708 0.107421,0 0.08667,0.0932 -0.04611,0.20708 -0.13278,0.11389 -0.32931,0.20708 -0.436732,0.20708 -0.107421,0 -0.08667,-0.0932 0.04611,-0.20708 z m 97.460939,-0.93185 c 0,-0.0569 0.0879,-0.10353 0.19531,-0.10353 0.10742,0 0.19531,0.0466 0.19531,0.10353 0,0.057 -0.0879,0.10354 -0.19531,0.10354 -0.10742,0 -0.19531,-0.0466 -0.19531,-0.10354 z M 43.253598,163.28825 c 0.913086,-0.0436 2.407226,-0.0436 3.320312,0 0.913086,0.0436 0.166016,0.0793 -1.660156,0.0793 -1.826172,0 -2.573242,-0.0357 -1.660156,-0.0793 z m 17.285156,-0.88376 c 0,-0.15186 0.117187,-0.21398 0.260417,-0.13805 0.143229,0.0759 0.143229,0.20017 0,0.2761 -0.14323,0.0759 -0.260417,0.0138 -0.260417,-0.13805 z m 83.593746,-0.20708 c 0,-0.15186 0.11719,-0.21398 0.26042,-0.13805 0.14323,0.0759 0.14323,0.20017 0,0.2761 -0.14323,0.0759 -0.26042,0.0138 -0.26042,-0.13805 z m -83.984371,-0.31062 c 0,-0.0569 0.08789,-0.10353 0.195312,-0.10353 0.107422,0 0.195313,0.0466 0.195313,0.10353 0,0.057 -0.08789,0.10354 -0.195313,0.10354 -0.107421,0 -0.195312,-0.0466 -0.195312,-0.10354 z m 64.453121,-0.18172 c 0,-0.043 0.30762,-0.20607 0.6836,-0.36238 0.61955,-0.25758 0.63337,-0.25025 0.14748,0.0782 -0.5103,0.34494 -0.83108,0.45463 -0.83108,0.2842 z m 20.26128,-0.19971 c 0.23929,-0.15285 0.34871,-0.32369 0.24315,-0.37964 -0.10556,-0.056 0.0725,-0.10175 0.39564,-0.10175 0.50098,0 0.49206,0.0559 -0.0606,0.37965 -0.74238,0.43486 -1.23563,0.52165 -0.57824,0.10174 z M 42.179379,160.85141 c 0,-0.057 0.08789,-0.10354 0.195312,-0.10354 0.107422,0 0.195313,0.0466 0.195313,0.10354 0,0.057 -0.08789,0.10354 -0.195313,0.10354 -0.107421,0 -0.195312,-0.0466 -0.195312,-0.10354 z m 8.203125,0 c 0,-0.057 0.08789,-0.10354 0.195312,-0.10354 0.107422,0 0.195313,0.0466 0.195313,0.10354 0,0.057 -0.08789,0.10354 -0.195313,0.10354 -0.107421,0 -0.195312,-0.0466 -0.195312,-0.10354 z m 6.176758,-0.245 c 0.281982,-0.0598 0.618896,-0.0525 0.748698,0.0163 0.129801,0.0688 -0.100912,0.11775 -0.512696,0.10876 -0.455055,-0.01 -0.547617,-0.059 -0.236002,-0.12511 z m 61.791988,0.0379 c 0,-0.0569 0.0879,-0.10354 0.19532,-0.10354 0.10742,0 0.19531,0.0466 0.19531,0.10354 0,0.057 -0.0879,0.10354 -0.19531,0.10354 -0.10743,0 -0.19532,-0.0466 -0.19532,-0.10354 z m 15.23438,-1.346 c 0,-0.15185 0.11719,-0.21398 0.26042,-0.13805 0.14322,0.0759 0.14322,0.20018 0,0.2761 -0.14323,0.0759 -0.26042,0.0138 -0.26042,-0.13805 z m -11.32813,-0.72477 c 0,-0.0569 0.0879,-0.10354 0.19532,-0.10354 0.10742,0 0.19531,0.0466 0.19531,0.10354 0,0.057 -0.0879,0.10354 -0.19531,0.10354 -0.10743,0 -0.19532,-0.0466 -0.19532,-0.10354 z M 133.97625,158.47 c 0,-0.15185 0.11719,-0.21397 0.26042,-0.13805 0.14323,0.0759 0.14323,0.20018 0,0.27611 -0.14323,0.0759 -0.26042,0.0138 -0.26042,-0.13806 z m -10.02604,-0.34512 c 0.14323,-0.0759 0.37761,-0.0759 0.52084,0 0.14322,0.0759 0.026,0.13805 -0.26042,0.13805 -0.28646,0 -0.40365,-0.0621 -0.26042,-0.13805 z"
         id="path9" /><path
         style="fill:#1a1718"
         d="m 53.610531,178.61497 c 0.593775,-0.0476 1.472681,-0.0463 1.953125,0.003 0.480445,0.0492 -0.0054,0.0881 -1.07959,0.0865 -1.074218,-0.002 -1.467309,-0.0418 -0.873535,-0.0894 z m 93.451659,-0.0585 c -2.34096,-0.2222 0.44645,-0.23069 3.125,-0.01 1.95313,0.16127 1.95313,0.16127 0.19531,0.15955 -0.96679,-9.4e-4 -2.46093,-0.0685 -3.32031,-0.15002 z m -97.215169,-0.1638 c -0.105031,-0.0901 0.411938,-0.12649 1.148821,-0.0809 0.736883,0.0456 1.339787,0.11931 1.339787,0.1638 0,0.15584 -2.299578,0.0792 -2.488608,-0.0829 z m 7.273764,0.0211 c 0.375977,-0.0521 0.991211,-0.0521 1.367188,0 0.375976,0.0521 0.06836,0.0947 -0.683594,0.0947 -0.751953,0 -1.05957,-0.0426 -0.683594,-0.0947 z m 37.656717,-0.0126 c -0.100297,-0.0854 1.075852,-0.1298 2.613665,-0.0986 4.759313,0.0965 5.309433,0.18617 1.354234,0.2208 -2.082047,0.0182 -3.867602,-0.0367 -3.967899,-0.12217 z m 57.688338,0.0173 c 0.14323,-0.0759 0.3776,-0.0759 0.52083,0 0.14323,0.0759 0.026,0.13805 -0.26042,0.13805 -0.28645,0 -0.40364,-0.0621 -0.26041,-0.13805 z m 1.33463,9.1e-4 c 0.26856,-0.0575 0.70801,-0.0575 0.97657,0 0.26855,0.0574 0.0488,0.10444 -0.48829,0.10444 -0.53711,0 -0.75683,-0.047 -0.48828,-0.10444 z M 47.685905,178.15909 c -0.392227,-0.13164 -0.253406,-0.17491 0.488006,-0.15213 0.569891,0.0175 1.03629,0.10173 1.036442,0.18714 3.74e-4,0.21033 -0.851767,0.19076 -1.524448,-0.035 z m 12.201807,0.0523 c 0.143229,-0.0759 0.377604,-0.0759 0.520834,0 0.143229,0.0759 0.02604,0.13805 -0.260417,0.13805 -0.286458,0 -0.403646,-0.0621 -0.260417,-0.13805 z m 13.932292,-14.04672 c 0,-14.18477 0,-14.18477 2.929687,-14.18477 1.611329,0 2.930084,0.0699 2.930568,0.15531 4.84e-4,0.0854 -1.229985,0.12436 -2.734375,0.0865 -2.735255,-0.0688 -2.735255,-0.0688 -2.735255,13.92593 0,13.99469 0,13.99469 2.536294,13.99469 2.536294,0 2.536294,0 2.639534,-13.82239 0.103241,-13.82239 0.103241,-13.82239 0.198082,0.10354 0.09484,13.92592 0.09484,13.92592 -2.834848,13.92592 -2.929687,0 -2.929687,0 -2.929687,-14.18477 z m 19.458008,14.04332 c 0.281982,-0.0598 0.618896,-0.0525 0.748698,0.0163 0.129801,0.0688 -0.100912,0.11776 -0.512696,0.10876 -0.455055,-0.01 -0.547617,-0.059 -0.236002,-0.1251 z m 10.034178,0.001 c 2.47168,-0.29095 5.88119,-1.28631 5.4555,-1.59266 -0.10013,-0.0721 -0.0635,-0.0837 0.0815,-0.0258 0.14496,0.0579 0.58326,-0.1518 0.97399,-0.46593 0.39074,-0.31412 0.71158,-0.48674 0.713,-0.3836 0.0115,0.83982 -4.9404,2.64149 -7.10214,2.58399 -0.78703,-0.0209 -0.80269,-0.0358 -0.12185,-0.11598 z m 14.72273,-8.53973 c 0.14166,-10.15987 0.43956,-10.68119 6.56633,-11.4909 0.53711,-0.071 -0.0435,0.13139 -1.2903,0.44972 -1.24677,0.31833 -2.12568,0.6608 -1.95312,0.76105 0.17255,0.10024 0.11324,0.12153 -0.13182,0.0473 -0.36809,-0.1115 -1.83814,0.74533 -1.89402,1.10394 -0.009,0.057 -0.18923,0.24332 -0.40078,0.41416 -2.14681,1.73364 -0.40797,17.18739 1.93391,17.18739 2.56426,0 2.56426,0 2.56426,-7.67407 0,-5.748 -0.11319,-7.63699 -0.45098,-7.52632 -0.28166,0.0923 -0.34485,0.0567 -0.16832,-0.0947 0.15546,-0.13335 0.47398,-0.17977 0.70782,-0.10315 0.27761,0.0909 0.34872,-0.0157 0.20489,-0.30724 -0.12115,-0.2456 -0.061,-0.44654 0.13378,-0.44654 0.19473,0 0.35406,-0.12403 0.35406,-0.27562 0,-0.15159 0.43345,-0.3986 0.96323,-0.5489 0.52978,-0.15031 0.89401,-0.33265 0.80941,-0.40522 -0.0846,-0.0726 0.31691,-0.15006 0.89224,-0.17222 1.00362,-0.0386 0.99319,-0.0264 -0.25711,0.30119 -2.6387,0.69141 -2.59068,0.52487 -2.71793,9.42613 -0.11485,8.03372 -0.11485,8.03372 -3.05071,8.03372 -2.93586,0 -2.93586,0 -2.81484,-8.67973 z m 24.63683,8.23329 c -7.13767,-1.83518 -6.50857,-8.63226 0.93562,-10.10876 1.2047,-0.23894 2.26692,-0.39386 2.36049,-0.34426 0.0936,0.0496 -0.45852,0.20017 -1.22684,0.33459 -0.76833,0.13442 -1.29832,0.32901 -1.17776,0.43242 0.12056,0.10341 -0.079,0.12735 -0.44352,0.0532 -0.41686,-0.0848 -0.85912,0.008 -1.19216,0.24903 -0.2912,0.21111 -0.52945,0.30187 -0.52945,0.20168 0,-0.34169 -1.6084,0.73189 -2.17667,1.45288 -0.31165,0.3954 -0.55328,0.74266 -0.53695,0.77167 0.0163,0.029 -0.0908,0.21914 -0.23797,0.4225 -0.90595,1.25154 0.64536,5.59299 1.8567,5.19611 0.24631,-0.0807 0.32552,-0.049 0.18298,0.0733 -0.31901,0.27363 0.35503,0.56804 2.73086,1.19276 1.04059,0.27363 1.71621,0.49777 1.50136,0.49809 -0.21484,3.2e-4 -1.13585,-0.19103 -2.04669,-0.42522 z m 14.15607,0.0837 c 0.64453,-0.19039 1.34765,-0.35397 1.5625,-0.3635 0.21484,-0.01 0.33203,-0.15288 0.26041,-0.31855 -0.0716,-0.16566 -0.005,-0.23459 0.14902,-0.15318 0.7741,0.41037 2.78201,-0.78069 3.31286,-1.96513 0.22798,-0.50868 0.30883,-0.55434 0.33928,-0.1916 0.0883,1.05096 -2.14994,2.43429 -4.93769,3.05176 -1.80904,0.4007 -2.14594,0.37135 -0.68638,-0.0598 z m -95.072214,-0.21577 c 1.66215,-0.66273 3.14353,-1.11345 3.331718,-1.01369 0.101151,0.0536 -0.353554,0.30037 -1.010455,0.54834 -0.656901,0.24796 -1.194365,0.39125 -1.194365,0.31841 0,-0.0728 -0.276228,0.014 -0.613839,0.19298 -0.337612,0.17897 -0.800771,0.32541 -1.029242,0.32541 -0.228471,0 0.0038,-0.16715 0.516183,-0.37145 z m 29.154242,0.0459 c -1.514538,-0.43558 -1.343003,-0.58589 0.195312,-0.17116 1.47247,0.39698 1.733068,0.49987 1.236979,0.48838 -0.19694,-0.005 -0.841471,-0.14731 -1.432291,-0.31722 z m -44.238282,-0.0886 c 0.132781,-0.11389 0.329311,-0.20708 0.436733,-0.20708 0.107421,0 0.08667,0.0932 -0.04611,0.20708 -0.13278,0.11389 -0.32931,0.20708 -0.436732,0.20708 -0.107421,0 -0.08667,-0.0932 0.04611,-0.20708 z m -2.066279,-0.56946 c -0.606123,-0.3132 -0.814358,-0.45278 -0.462744,-0.31016 0.351614,0.14261 0.800814,0.1892 0.998223,0.10353 0.197409,-0.0857 0.229822,-0.0718 0.07203,0.0309 -0.157793,0.10263 0.01799,0.30933 0.390625,0.45933 0.372638,0.15001 0.54846,0.2757 0.390716,0.27933 -0.157743,0.004 -0.782725,-0.24968 -1.388848,-0.56288 z m 112.613153,0.15531 c 0.13278,-0.11389 0.32931,-0.20708 0.43673,-0.20708 0.10743,0 0.0867,0.0932 -0.0461,0.20708 -0.13278,0.11389 -0.32931,0.20707 -0.43674,0.20707 -0.10742,0 -0.0867,-0.0932 0.0461,-0.20707 z m -69.078907,-0.62012 c -1.209832,-0.7622 -1.63753,-1.42289 -1.104153,-1.70564 0.27606,-0.14634 0.367426,-0.091 0.291075,0.17615 -0.1377,0.4819 0.559866,1.34449 0.976803,1.20789 0.331693,-0.10867 0.879162,0.26572 0.998541,0.68287 0.109207,0.3816 -0.07304,0.32496 -1.162266,-0.36127 z m 0.914846,0.11465 c 0,-0.0502 -0.202941,-0.15781 -0.45098,-0.23908 -0.279414,-0.0915 -0.344946,-0.0568 -0.172259,0.0913 0.278297,0.23871 0.623239,0.32049 0.623239,0.14776 z m 17.968751,-0.0122 c 0,-0.057 0.0879,-0.10354 0.19531,-0.10354 0.10742,0 0.19531,0.0466 0.19531,0.10354 0,0.0569 -0.0879,0.10353 -0.19531,0.10353 -0.10742,0 -0.19531,-0.0466 -0.19531,-0.10353 z m 36.71875,0 c 0,-0.057 0.0879,-0.10354 0.19531,-0.10354 0.10742,0 0.19531,0.0466 0.19531,0.10354 0,0.0569 -0.0879,0.10353 -0.19531,0.10353 -0.10742,0 -0.19531,-0.0466 -0.19531,-0.10353 z m 15.23437,0 c 0,-0.057 0.0879,-0.10354 0.19532,-0.10354 0.10742,0 0.19531,0.0466 0.19531,0.10354 0,0.0569 -0.0879,0.10353 -0.19531,0.10353 -0.10743,0 -0.19532,-0.0466 -0.19532,-0.10353 z m -95.703121,-0.20708 c 0,-0.057 0.08789,-0.10354 0.195312,-0.10354 0.107422,0 0.195313,0.0466 0.195313,0.10354 0,0.0569 -0.08789,0.10354 -0.195313,0.10354 -0.107421,0 -0.195312,-0.0466 -0.195312,-0.10354 z m 78.906251,0 c 0,-0.057 0.0879,-0.10354 0.19531,-0.10354 0.10742,0 0.19531,0.0466 0.19531,0.10354 0,0.0569 -0.0879,0.10354 -0.19531,0.10354 -0.10742,0 -0.19531,-0.0466 -0.19531,-0.10354 z M 62.491879,176.3818 c 0,-0.0569 0.08789,-0.10354 0.195312,-0.10354 0.107422,0 0.195313,0.0466 0.195313,0.10354 0,0.057 -0.08789,0.10354 -0.195313,0.10354 -0.107421,0 -0.195312,-0.0466 -0.195312,-0.10354 z m 2.929687,-0.30176 c 0.740016,-0.44123 0.79232,-0.84448 0.990991,-7.64033 0.20974,-7.17453 0.20974,-7.17453 0.270921,-0.34099 0.06259,6.99146 -0.13603,8.12953 -1.457224,8.34955 -0.415285,0.0692 -0.358401,-0.0381 0.195312,-0.36823 z m 24.414063,0.30176 c 0,-0.0569 0.08789,-0.10354 0.195312,-0.10354 0.107422,0 0.195313,0.0466 0.195313,0.10354 0,0.057 -0.08789,0.10354 -0.195313,0.10354 -0.107421,0 -0.195312,-0.0466 -0.195312,-0.10354 z m -46.875,-0.20708 c 0,-0.0569 0.08789,-0.10353 0.195312,-0.10353 0.107422,0 0.195313,0.0466 0.195313,0.10353 0,0.057 -0.08789,0.10354 -0.195313,0.10354 -0.107421,0 -0.195312,-0.0466 -0.195312,-0.10354 z m 10.546875,0 c 0,-0.0569 0.08789,-0.10353 0.195312,-0.10353 0.107422,0 0.195313,0.0466 0.195313,0.10353 0,0.057 -0.08789,0.10354 -0.195313,0.10354 -0.107421,0 -0.195312,-0.0466 -0.195312,-0.10354 z m 39.257812,-0.10353 c 0.132781,-0.1139 0.329311,-0.20708 0.436733,-0.20708 0.107421,0 0.08667,0.0932 -0.04611,0.20708 -0.13278,0.11389 -0.32931,0.20707 -0.436732,0.20707 -0.107421,0 -0.08667,-0.0932 0.04611,-0.20707 z m 56.835934,0.10353 c 0,-0.0569 0.0879,-0.10353 0.19532,-0.10353 0.10742,0 0.19531,0.0466 0.19531,0.10353 0,0.057 -0.0879,0.10354 -0.19531,0.10354 -0.10743,0 -0.19532,-0.0466 -0.19532,-0.10354 z m 10.54688,0 c 0,-0.0569 0.0879,-0.10353 0.19531,-0.10353 0.10742,0 0.19531,0.0466 0.19531,0.10353 0,0.057 -0.0879,0.10354 -0.19531,0.10354 -0.10742,0 -0.19531,-0.0466 -0.19531,-0.10354 z M 47.648129,175.96803 c 0,-0.057 0.08789,-0.10354 0.195312,-0.10354 0.107422,0 0.195313,0.0466 0.195313,0.10354 0,0.0569 -0.08789,0.10354 -0.195313,0.10354 -0.107421,0 -0.195312,-0.0466 -0.195312,-0.10354 z m 4.199219,-0.0336 c 0.268554,-0.0574 0.708008,-0.0574 0.976562,0 0.268555,0.0575 0.04883,0.10445 -0.488281,0.10445 -0.537109,0 -0.756836,-0.047 -0.488281,-0.10445 z m 4.003906,0.0571 c 0,-0.044 0.51806,-0.12034 1.151245,-0.16961 0.633185,-0.0493 1.062264,-0.0132 0.953509,0.08 -0.193561,0.16602 -2.104754,0.24736 -2.104754,0.0896 z m 38.897859,-0.10847 c 0.229165,-0.12194 -1.529965,-0.75098 -1.915175,-0.68483 -0.177102,0.0304 -0.21818,-0.0338 -0.09128,-0.14261 0.126896,-0.10884 0.05207,-0.25643 -0.166277,-0.32797 -0.218348,-0.0715 -0.394406,-0.28764 -0.391238,-0.48023 0.0041,-0.2512 0.142125,-0.2095 0.488281,0.14757 0.848844,0.8756 2.428146,1.32162 5.252848,1.48351 2.651548,0.15196 2.651548,0.15196 -0.342638,0.12075 -1.646803,-0.0172 -2.922335,-0.0695 -2.834516,-0.11619 z m 6.219327,-0.0186 c 0.13278,-0.11389 0.4172,-0.20708 0.63205,-0.20708 0.21484,0 0.28198,0.0932 0.1492,0.20708 -0.13278,0.11389 -0.4172,0.20708 -0.63204,0.20708 -0.21485,0 -0.28199,-0.0932 -0.14921,-0.20708 z m 1.36719,0.10354 c 0,-0.057 0.0879,-0.10354 0.19531,-0.10354 0.10742,0 0.19531,0.0466 0.19531,0.10354 0,0.0569 -0.0879,0.10354 -0.19531,0.10354 -0.10742,0 -0.19531,-0.0466 -0.19531,-0.10354 z m 43.94531,-0.10354 c 0.13278,-0.11389 0.32931,-0.20708 0.43673,-0.20708 0.10743,0 0.0867,0.0932 -0.0461,0.20708 -0.13278,0.11389 -0.32931,0.20708 -0.43674,0.20708 -0.10742,0 -0.0867,-0.0932 0.0461,-0.20708 z m 1.47228,0.0636 c 0.38007,-0.0525 0.90741,-0.049 1.17187,0.008 0.26447,0.0567 -0.0465,0.0997 -0.69102,0.0955 -0.64453,-0.004 -0.86092,-0.0506 -0.48085,-0.10314 z m 5.14877,-0.0897 c 1.80168,-0.22378 2.83927,-0.66264 3.61,-1.52691 0.45208,-0.50695 0.50892,-0.52599 0.30896,-0.10354 -0.13477,0.28473 -0.2616,0.63008 -0.28184,0.76743 -0.0203,0.13736 -0.1833,0.20175 -0.36234,0.14309 -0.17903,-0.0587 -0.32552,-0.0186 -0.32552,0.089 0,0.28056 -2.48971,0.86792 -3.57466,0.84332 -0.59827,-0.0136 -0.38066,-0.0875 0.6254,-0.21244 z m 2.94926,0.12971 c 0,-0.057 0.0879,-0.10354 0.19532,-0.10354 0.10742,0 0.19531,0.0466 0.19531,0.10354 0,0.0569 -0.0879,0.10354 -0.19531,0.10354 -0.10743,0 -0.19532,-0.0466 -0.19532,-0.10354 z M 42.700212,175.72644 c 0.143229,-0.0759 0.377604,-0.0759 0.520834,0 0.143229,0.0759 0.02604,0.13805 -0.260417,0.13805 -0.286458,0 -0.403646,-0.0621 -0.260417,-0.13805 z m 6.480369,-0.46725 c -0.628005,-0.33292 -1.134789,-0.72895 -1.126187,-0.88008 0.0086,-0.15113 0.275957,-0.0205 0.594123,0.29035 0.318167,0.31081 1.058199,0.70312 1.644517,0.87178 0.586318,0.16867 0.832784,0.3104 0.547703,0.31496 -0.285081,0.005 -1.032151,-0.2641 -1.660156,-0.59701 z M 105.07,175.76095 c 0,-0.057 0.0879,-0.10354 0.19532,-0.10354 0.10742,0 0.19531,0.0466 0.19531,0.10354 0,0.057 -0.0879,0.10354 -0.19531,0.10354 -0.10743,0 -0.19532,-0.0466 -0.19532,-0.10354 z m -45.661267,-0.53988 c 1.286158,-0.68181 1.520646,-1.33696 1.520646,-4.24859 0,-1.53685 0.131836,-2.7513 0.292969,-2.69878 0.655573,0.21371 -0.05848,6.25367 -0.784841,6.63869 -0.377951,0.20034 -0.609855,0.43059 -0.515343,0.51165 0.09451,0.0811 -0.155729,0.16048 -0.556092,0.17647 -0.693396,0.0277 -0.691372,0.01 0.04266,-0.37944 z m 33.161271,0.3328 c 0,-0.0569 0.08789,-0.10354 0.195312,-0.10354 0.107422,0 0.195313,0.0466 0.195313,0.10354 0,0.057 -0.08789,0.10354 -0.195313,0.10354 -0.107421,0 -0.195312,-0.0466 -0.195312,-0.10354 z m 9.765626,0.0222 c 0,-0.0448 0.26367,-0.13502 0.58594,-0.20058 0.32226,-0.0656 0.58593,-0.0289 0.58593,0.0814 0,0.11032 -0.26367,0.20058 -0.58593,0.20058 -0.32227,0 -0.58594,-0.0366 -0.58594,-0.0814 z m 1.95312,-0.0222 c 0,-0.0569 0.0879,-0.10354 0.19532,-0.10354 0.10742,0 0.19531,0.0466 0.19531,0.10354 0,0.057 -0.0879,0.10354 -0.19531,0.10354 -0.10743,0 -0.19532,-0.0466 -0.19532,-0.10354 z m 40.9692,-0.10492 c -0.73048,-0.22627 -1.74078,-1.39805 -1.37334,-1.59284 0.13634,-0.0723 0.24789,0.0167 0.24789,0.19782 0,0.18109 0.45508,0.61595 1.01129,0.96636 1.08391,0.68288 1.09731,0.73318 0.11416,0.42866 z M 42.277888,174.72557 c 0.0043,-0.45557 0.08433,-0.61756 0.177765,-0.35997 0.09343,0.25758 0.08989,0.63032 -0.0079,0.8283 -0.09777,0.19799 -0.174218,-0.0128 -0.169882,-0.46833 z m 68.147682,0.31061 c 0.11237,-0.22778 0.27169,-0.41415 0.35406,-0.41415 0.0824,0 0.14975,0.18637 0.14975,0.41415 0,0.22779 -0.15933,0.41415 -0.35406,0.41415 -0.19473,0 -0.26212,-0.18636 -0.14975,-0.41415 z m -67.269629,0 c 0.132781,-0.11389 0.329311,-0.20708 0.436733,-0.20708 0.107421,0 0.08667,0.0932 -0.04611,0.20708 -0.13278,0.11389 -0.32931,0.20708 -0.436732,0.20708 -0.107421,0 -0.08667,-0.0932 0.04611,-0.20708 z m 17.382813,0.10354 c 0,-0.057 0.08789,-0.10354 0.195312,-0.10354 0.107422,0 0.195313,0.0466 0.195313,0.10354 0,0.057 -0.08789,0.10354 -0.195313,0.10354 -0.107421,0 -0.195312,-0.0466 -0.195312,-0.10354 z m 30.859375,0 c 0,-0.057 0.08789,-0.10354 0.195312,-0.10354 0.107422,0 0.195313,0.0466 0.195313,0.10354 0,0.057 -0.08789,0.10354 -0.195313,0.10354 -0.107421,0 -0.195312,-0.0466 -0.195312,-0.10354 z m 12.695311,-0.10354 c 0.13278,-0.11389 0.32931,-0.20708 0.43673,-0.20708 0.10743,0 0.0867,0.0932 -0.0461,0.20708 -0.13278,0.11389 -0.32931,0.20708 -0.43674,0.20708 -0.10742,0 -0.0867,-0.0932 0.0461,-0.20708 z m 0.97656,0.10354 c 0,-0.057 0.0879,-0.10354 0.19532,-0.10354 0.10742,0 0.19531,0.0466 0.19531,0.10354 0,0.057 -0.0879,0.10354 -0.19531,0.10354 -0.10743,0 -0.19532,-0.0466 -0.19532,-0.10354 z m 34.375,-0.20708 c 0,-0.0569 0.0879,-0.10354 0.19532,-0.10354 0.10742,0 0.19531,0.0466 0.19531,0.10354 0,0.057 -0.0879,0.10354 -0.19531,0.10354 -0.10743,0 -0.19532,-0.0466 -0.19532,-0.10354 z m 21.875,0 c 0,-0.0569 0.0879,-0.10354 0.19532,-0.10354 0.10742,0 0.19531,0.0466 0.19531,0.10354 0,0.057 -0.0879,0.10354 -0.19531,0.10354 -0.10743,0 -0.19532,-0.0466 -0.19532,-0.10354 z m -99.609371,-0.20707 c 0,-0.057 0.08789,-0.10354 0.195312,-0.10354 0.107422,0 0.195313,0.0466 0.195313,0.10354 0,0.0569 -0.08789,0.10353 -0.195313,0.10353 -0.107421,0 -0.195312,-0.0466 -0.195312,-0.10353 z m 24.702474,-8.23131 c -0.0931,-8.43839 -0.0931,-8.43839 2.836588,-8.43839 2.929688,0 2.929688,0 2.836872,7.92069 -0.09282,7.9207 -0.09282,7.9207 -0.20001,0.10354 -0.107194,-7.81715 -0.107194,-7.81715 -2.637127,-7.81715 -2.529934,0 -2.529934,0 -2.636579,8.33485 -0.106646,8.33484 -0.106646,8.33484 -0.199744,-0.10354 z m 18.722387,7.49597 c 0.22851,-0.3475 0.46751,-0.60375 0.53112,-0.56947 0.24197,0.13043 -0.31235,1.20127 -0.62182,1.20127 -0.17863,0 -0.13781,-0.28431 0.0907,-0.6318 z m 5.7109,-7.65117 c 0.11233,-8.07611 0.11233,-8.07611 -2.43653,-8.07611 -2.54886,0 -2.54886,0 -2.65642,7.50654 -0.10755,7.50654 -0.10755,7.50654 -0.20018,-0.10354 -0.0926,-7.61008 -0.0926,-7.61008 2.83706,-7.61008 2.92968,0 2.92968,0 2.92968,8.17954 0,4.49875 -0.13183,8.17959 -0.29296,8.17965 -0.16114,6e-5 -0.24243,-3.63414 -0.18065,-8.076 z m -63.086537,6.72989 c 0.0029,-0.56946 0.07879,-0.77785 0.168581,-0.46308 0.08979,0.31477 0.08739,0.7807 -0.0053,1.03539 -0.09272,0.25469 -0.166181,-0.003 -0.163249,-0.57231 z m 114.903007,-4.55569 c -2.1e-4,-3.0751 0.0542,-4.36196 0.12081,-2.85969 0.0667,1.50226 0.0668,4.01825 3.8e-4,5.59108 -0.0664,1.57282 -0.12098,0.3437 -0.12119,-2.73139 z m -19.28524,4.3901 c -0.0345,-0.75972 0.83661,-1.62704 2.28169,-2.27164 0.64034,-0.28563 1.09448,-0.55631 1.0092,-0.60152 -0.0853,-0.0452 0.14419,-0.0962 0.50994,-0.11323 0.36574,-0.0171 1.19234,-0.0832 1.83687,-0.14708 1.02423,-0.10143 1.04852,-0.094 0.19278,0.0588 -3.19765,0.57106 -4.59679,1.27544 -5.30487,2.67067 -0.38425,0.75714 -0.50532,0.8502 -0.52561,0.404 z m 13.79604,-2.00872 c 0,-1.42365 0.0624,-2.00606 0.13869,-1.29423 0.0763,0.71183 0.0763,1.87664 0,2.58846 -0.0763,0.71183 -0.13869,0.12943 -0.13869,-1.29423 z m -109.134906,0.91168 c 0,-0.35581 2.059012,-1.45271 3.417969,-1.82086 0.698242,-0.18915 1.269531,-0.25745 1.269531,-0.15178 0,0.10568 -0.483398,0.29012 -1.074219,0.40987 -1.308257,0.26517 -2.072619,0.59363 -2.947614,1.26663 -0.366117,0.2816 -0.665667,0.41486 -0.665667,0.29614 z m -5.800847,-0.48391 c -0.08732,-0.75211 1.412828,-2.23353 2.850362,-2.81478 1.3748,-0.55589 1.77861,-0.62513 1.77861,-0.30499 0,0.11389 -0.131836,0.18732 -0.292969,0.16317 -0.404985,-0.0607 -2.050781,0.52001 -2.050781,0.72361 0,0.0913 -0.355874,0.36842 -0.790831,0.61592 -0.434957,0.24749 -0.704146,0.56974 -0.598197,0.71611 0.105948,0.14636 0.03404,0.26612 -0.159785,0.26612 -0.193831,0 -0.425648,0.25625 -0.51515,0.56946 -0.149869,0.52445 -0.167357,0.52962 -0.221259,0.0654 z m 97.988343,-0.11715 c 0,-0.057 0.0879,-0.10354 0.19532,-0.10354 0.10742,0 0.19531,0.0466 0.19531,0.10354 0,0.0569 -0.0879,0.10354 -0.19531,0.10354 -0.10743,0 -0.19532,-0.0466 -0.19532,-0.10354 z m -96.484371,-0.20708 c 0,-0.057 0.08789,-0.10354 0.195312,-0.10354 0.107422,0 0.195313,0.0466 0.195313,0.10354 0,0.057 -0.08789,0.10354 -0.195313,0.10354 -0.107421,0 -0.195312,-0.0466 -0.195312,-0.10354 z m 95.703121,0 c 0,-0.057 0.0879,-0.10354 0.19532,-0.10354 0.10742,0 0.19531,0.0466 0.19531,0.10354 0,0.057 -0.0879,0.10354 -0.19531,0.10354 -0.10743,0 -0.19532,-0.0466 -0.19532,-0.10354 z M 47.257504,170.7911 c 0,-0.0569 0.08789,-0.10353 0.195312,-0.10353 0.107422,0 0.195313,0.0466 0.195313,0.10353 0,0.057 -0.08789,0.10354 -0.195313,0.10354 -0.107421,0 -0.195312,-0.0466 -0.195312,-0.10354 z m 0.78125,-0.20707 c 0,-0.057 0.08789,-0.10354 0.195312,-0.10354 0.107422,0 0.195313,0.0466 0.195313,0.10354 0,0.0569 -0.08789,0.10354 -0.195313,0.10354 -0.107421,0 -0.195312,-0.0466 -0.195312,-0.10354 z m 96.093746,0 c 0,-0.057 0.0879,-0.10354 0.19532,-0.10354 0.10742,0 0.19531,0.0466 0.19531,0.10354 0,0.0569 -0.0879,0.10354 -0.19531,0.10354 -0.10743,0 -0.19532,-0.0466 -0.19532,-0.10354 z m -94.921871,-0.20708 c 0,-0.057 0.08789,-0.10354 0.195312,-0.10354 0.107422,0 0.195313,0.0466 0.195313,0.10354 0,0.057 -0.08789,0.10354 -0.195313,0.10354 -0.107421,0 -0.195312,-0.0466 -0.195312,-0.10354 z m 95.703121,0 c 0,-0.057 0.0879,-0.10354 0.19532,-0.10354 0.10742,0 0.19531,0.0466 0.19531,0.10354 0,0.057 -0.0879,0.10354 -0.19531,0.10354 -0.10743,0 -0.19532,-0.0466 -0.19532,-0.10354 z m -96.874996,-0.20708 c 0,-0.0569 0.08789,-0.10354 0.195312,-0.10354 0.107422,0 0.195313,0.0466 0.195313,0.10354 0,0.057 -0.08789,0.10354 -0.195313,0.10354 -0.107421,0 -0.195312,-0.0466 -0.195312,-0.10354 z m 92.187496,0 c 0,-0.0569 0.0879,-0.10354 0.19532,-0.10354 0.10742,0 0.19531,0.0466 0.19531,0.10354 0,0.057 -0.0879,0.10354 -0.19531,0.10354 -0.10743,0 -0.19532,-0.0466 -0.19532,-0.10354 z m 4.29688,-0.20707 c 0,-0.057 0.0879,-0.10354 0.19531,-0.10354 0.10742,0 0.19531,0.0466 0.19531,0.10354 0,0.0569 -0.0879,0.10353 -0.19531,0.10353 -0.10742,0 -0.19531,-0.0466 -0.19531,-0.10353 z m -91.276043,-0.24159 c 0.143229,-0.0759 0.377604,-0.0759 0.520834,0 0.143229,0.0759 0.02604,0.13805 -0.260417,0.13805 -0.286458,0 -0.403646,-0.0621 -0.260417,-0.13805 z m -8.333333,-0.17257 c 0,-0.0569 0.08789,-0.10354 0.195312,-0.10354 0.107422,0 0.195313,0.0466 0.195313,0.10354 0,0.057 -0.08789,0.10354 -0.195313,0.10354 -0.107421,0 -0.195312,-0.0466 -0.195312,-0.10354 z m 1.171875,0 c 0,-0.0569 0.08789,-0.10354 0.195312,-0.10354 0.107422,0 0.195313,0.0466 0.195313,0.10354 0,0.057 -0.08789,0.10354 -0.195313,0.10354 -0.107421,0 -0.195312,-0.0466 -0.195312,-0.10354 z m 7.992951,-0.11628 c -0.183873,-0.15772 -0.09157,-0.21273 0.253457,-0.15105 0.29846,0.0534 1.113944,-0.029 1.812186,-0.18299 0.698242,-0.154 1.269531,-0.19643 1.269531,-0.0943 0,0.10214 -0.395508,0.23119 -0.878906,0.28677 -0.483399,0.0556 -1.168743,0.16597 -1.522988,0.24533 -0.360556,0.0808 -0.771387,0.0351 -0.93328,-0.10377 z m 96.7768,-0.0691 c 0.27703,-0.15888 0.65429,-0.24042 0.83836,-0.18119 0.18407,0.0592 0.0962,0.1878 -0.19531,0.28571 -0.82428,0.27687 -1.20121,0.21561 -0.64305,-0.10452 z m -88.623918,-0.2197 c 0,-0.16583 0.149352,-0.25258 0.331893,-0.19277 0.182541,0.0598 0.230761,0.19548 0.107155,0.30151 -0.315869,0.27093 -0.439048,0.24042 -0.439048,-0.10874 z m -16.015625,-0.0436 c 0.143229,-0.0759 0.377604,-0.0759 0.520834,0 0.143229,0.0759 0.02604,0.13805 -0.260417,0.13805 -0.286458,0 -0.403646,-0.0621 -0.260417,-0.13805 z m 106.250003,0 c 0.14323,-0.0759 0.3776,-0.0759 0.52083,0 0.14323,0.0759 0.026,0.13805 -0.26042,0.13805 -0.28645,0 -0.40364,-0.0621 -0.26041,-0.13805 z m -94.661461,-0.27611 c 0,-0.15185 0.117187,-0.21398 0.260417,-0.13805 0.143229,0.0759 0.143229,0.20018 0,0.2761 -0.14323,0.0759 -0.260417,0.0138 -0.260417,-0.13805 z m 85.156251,0.10354 c 0,-0.057 0.0879,-0.10354 0.19531,-0.10354 0.10742,0 0.19531,0.0466 0.19531,0.10354 0,0.057 -0.0879,0.10354 -0.19531,0.10354 -0.10742,0 -0.19531,-0.0466 -0.19531,-0.10354 z m 10.35156,-0.10354 c -0.13278,-0.11389 -0.0656,-0.20707 0.14921,-0.20707 0.21484,0 0.49926,0.0932 0.63204,0.20707 0.13278,0.11389 0.0656,0.20708 -0.1492,0.20708 -0.21485,0 -0.49927,-0.0932 -0.63205,-0.20708 z M 58.715837,168.6858 c 0.143229,-0.0759 0.377604,-0.0759 0.520834,0 0.143229,0.0759 0.02604,0.13805 -0.260417,0.13805 -0.286458,0 -0.403646,-0.0621 -0.260417,-0.13805 z m 95.730933,-0.10102 c -0.17633,-0.15124 -0.10676,-0.18273 0.18937,-0.0857 0.25745,0.0844 0.72406,0.0407 1.03691,-0.0969 0.33548,-0.14759 0.56883,-0.164 0.56883,-0.04 0,0.11565 -0.27805,0.26684 -0.61789,0.33597 -0.82055,0.16692 -0.85422,0.16368 -1.17722,-0.11338 z M 59.562191,168.4097 c -0.13278,-0.11389 -0.05526,-0.20708 0.172259,-0.20708 0.227524,0 0.413679,0.0932 0.413679,0.20708 0,0.11389 -0.07752,0.20708 -0.172259,0.20708 -0.09474,0 -0.280898,-0.0932 -0.413679,-0.20708 z m -2.148437,-0.10354 c 0,-0.057 0.08789,-0.10354 0.195312,-0.10354 0.107422,0 0.195313,0.0466 0.195313,0.10354 0,0.057 -0.08789,0.10354 -0.195313,0.10354 -0.107421,0 -0.195312,-0.0466 -0.195312,-0.10354 z m 92.968746,0 c 0,-0.057 0.0879,-0.10354 0.19532,-0.10354 0.10742,0 0.19531,0.0466 0.19531,0.10354 0,0.057 -0.0879,0.10354 -0.19531,0.10354 -0.10743,0 -0.19532,-0.0466 -0.19532,-0.10354 z m 1.17188,0 c 0,-0.057 0.0879,-0.10354 0.19531,-0.10354 0.10742,0 0.19531,0.0466 0.19531,0.10354 0,0.057 -0.0879,0.10354 -0.19531,0.10354 -0.10742,0 -0.19531,-0.0466 -0.19531,-0.10354 z M 47.387712,167.85751 c 0.143229,-0.0759 0.377604,-0.0759 0.520834,0 0.143229,0.0759 0.02604,0.13805 -0.260417,0.13805 -0.286458,0 -0.403646,-0.0621 -0.260417,-0.13805 z m 100.260418,0.0345 c 0,-0.057 0.0879,-0.10354 0.19531,-0.10354 0.10742,0 0.19531,0.0466 0.19531,0.10354 0,0.0569 -0.0879,0.10353 -0.19531,0.10353 -0.10742,0 -0.19531,-0.0466 -0.19531,-0.10353 z m -99.088543,-0.24159 c 0.143229,-0.0759 0.377604,-0.0759 0.520834,0 0.143229,0.0759 0.02604,0.13805 -0.260417,0.13805 -0.286458,0 -0.403646,-0.0621 -0.260417,-0.13805 z m 2.994792,0.0345 c 0,-0.057 0.08789,-0.10354 0.195312,-0.10354 0.107422,0 0.195313,0.0466 0.195313,0.10354 0,0.057 -0.08789,0.10354 -0.195313,0.10354 -0.107421,0 -0.195312,-0.0466 -0.195312,-0.10354 z m 1.171875,0 c 0,-0.057 0.08789,-0.10354 0.195312,-0.10354 0.107422,0 0.195313,0.0466 0.195313,0.10354 0,0.057 -0.08789,0.10354 -0.195313,0.10354 -0.107421,0 -0.195312,-0.0466 -0.195312,-0.10354 z m 3.125,0 c 0,-0.057 0.08789,-0.10354 0.195312,-0.10354 0.107422,0 0.195313,0.0466 0.195313,0.10354 0,0.057 -0.08789,0.10354 -0.195313,0.10354 -0.107421,0 -0.195312,-0.0466 -0.195312,-0.10354 z m 94.531246,0 c 0,-0.057 0.0879,-0.10354 0.19532,-0.10354 0.10742,0 0.19531,0.0466 0.19531,0.10354 0,0.057 -0.0879,0.10354 -0.19531,0.10354 -0.10743,0 -0.19532,-0.0466 -0.19532,-0.10354 z M 51.163754,167.1831 c 2.923561,-0.62484 3.405806,-0.67335 3.629016,-0.36499 0.146551,0.20246 -0.04625,0.2589 -0.668822,0.19581 -0.481103,-0.0487 -1.54121,0.059 -2.355793,0.23941 -0.814583,0.18043 -1.67932,0.32297 -1.921637,0.31676 -0.242317,-0.006 0.350439,-0.18036 1.317236,-0.38699 z m 95.703126,0.1912 c -0.35207,-0.12061 -0.40025,-0.202 -0.12071,-0.2039 0.25587,-0.002 0.57387,0.09 0.70665,0.2039 0.29972,0.2571 0.1645,0.2571 -0.58594,0 z m 1.30927,0.0497 c 0.14195,-0.12177 0.0373,-0.26858 -0.23262,-0.32627 -0.35123,-0.0751 -0.35847,-0.10952 -0.0255,-0.12122 0.67222,-0.0236 0.99514,0.34284 0.45736,0.51903 -0.2726,0.0893 -0.35309,0.0604 -0.19925,-0.0715 z m 1.4251,0.0538 c 0,-0.0569 0.0879,-0.10354 0.19532,-0.10354 0.10742,0 0.19531,0.0466 0.19531,0.10354 0,0.057 -0.0879,0.10354 -0.19531,0.10354 -0.10743,0 -0.19532,-0.0466 -0.19532,-0.10354 z m 1.95313,0 c 0,-0.0569 0.0879,-0.10354 0.19531,-0.10354 0.10742,0 0.19531,0.0466 0.19531,0.10354 0,0.057 -0.0879,0.10354 -0.19531,0.10354 -0.10742,0 -0.19531,-0.0466 -0.19531,-0.10354 z m -98.437501,-0.207 c 0,-0.057 0.08789,-0.10354 0.195312,-0.10354 0.107422,0 0.195313,0.0466 0.195313,0.10354 0,0.0569 -0.08789,0.10353 -0.195313,0.10353 -0.107421,0 -0.195312,-0.0466 -0.195312,-0.10353 z m 0.78125,0 c 0,-0.057 0.08789,-0.10354 0.195312,-0.10354 0.107422,0 0.195313,0.0466 0.195313,0.10354 0,0.0569 -0.08789,0.10353 -0.195313,0.10353 -0.107421,0 -0.195312,-0.0466 -0.195312,-0.10353 z m 95.703121,-0.20708 c 0,-0.057 0.0879,-0.10354 0.19532,-0.10354 0.10742,0 0.19531,0.0466 0.19531,0.10354 0,0.0569 -0.0879,0.10354 -0.19531,0.10354 -0.10743,0 -0.19532,-0.0466 -0.19532,-0.10354 z m -93.359371,-0.20708 c 0,-0.0569 0.08789,-0.10354 0.195312,-0.10354 0.107422,0 0.195313,0.0466 0.195313,0.10354 0,0.057 -0.08789,0.10354 -0.195313,0.10354 -0.107421,0 -0.195312,-0.0466 -0.195312,-0.10354 z m 92.578121,0 c 0,-0.0569 0.0879,-0.10354 0.19532,-0.10354 0.10742,0 0.19531,0.0466 0.19531,0.10354 0,0.057 -0.0879,0.10354 -0.19531,0.10354 -0.10743,0 -0.19532,-0.0466 -0.19532,-0.10354 z m 4.29688,0 c 0,-0.0569 0.0879,-0.10354 0.19531,-0.10354 0.10742,0 0.19531,0.0466 0.19531,0.10354 0,0.057 -0.0879,0.10354 -0.19531,0.10354 -0.10742,0 -0.19531,-0.0466 -0.19531,-0.10354 z m -97.851564,-0.31061 c -0.13278,-0.1139 -0.05526,-0.20708 0.172259,-0.20708 0.227524,0 0.413679,0.0932 0.413679,0.20708 0,0.11389 -0.07752,0.20707 -0.172259,0.20707 -0.09474,0 -0.280898,-0.0932 -0.413679,-0.20707 z m 95.845634,-0.11165 c 0.7229,-0.16638 1.42603,-0.29921 1.5625,-0.29517 0.50822,0.015 -1.72801,0.59919 -2.29095,0.59845 -0.32226,-4.2e-4 0.006,-0.1369 0.72845,-0.30328 z m -94.478446,-0.30251 c 0.322266,-0.1104 0.761719,-0.20073 0.976562,-0.20073 0.214844,0 0.126954,0.0903 -0.195312,0.20073 -0.322266,0.11041 -0.761719,0.20074 -0.976563,0.20074 -0.214843,0 -0.126953,-0.0903 0.195313,-0.20074 z m 96.614586,-0.13805 c 0.14323,-0.0759 0.3776,-0.0759 0.52083,0 0.14323,0.0759 0.026,0.13805 -0.26042,0.13805 -0.28645,0 -0.40364,-0.0621 -0.26041,-0.13805 z m -93.99965,-0.5691 c 0.602801,-0.27504 1.183892,-0.45339 1.291314,-0.39633 0.236688,0.12573 -1.498434,0.89641 -2.018183,0.89641 -0.203023,0 0.124068,-0.22504 0.726869,-0.50008 z m 0.900689,0.39654 c 0,-0.057 0.08789,-0.10354 0.195312,-0.10354 0.107422,0 0.195313,0.0466 0.195313,0.10354 0,0.0569 -0.08789,0.10354 -0.195313,0.10354 -0.107421,0 -0.195312,-0.0466 -0.195312,-0.10354 z m 94.140621,0.0311 c 0,-0.0479 0.4611,-0.24717 1.02466,-0.44292 0.56356,-0.19575 0.90534,-0.25356 0.7595,-0.12847 -0.2787,0.23905 -1.78416,0.72118 -1.78416,0.57139 z m -92.578121,-0.23818 c 0,-0.057 0.08789,-0.10354 0.195312,-0.10354 0.107422,0 0.195313,0.0466 0.195313,0.10354 0,0.057 -0.08789,0.10354 -0.195313,0.10354 -0.107421,0 -0.195312,-0.0466 -0.195312,-0.10354 z m 94.751681,-0.99255 c 0.14669,-0.20422 0.36511,-0.31915 0.48538,-0.25539 0.12027,0.0637 2.5e-4,0.23085 -0.26671,0.37131 -0.38579,0.20299 -0.43066,0.17921 -0.21867,-0.11592 z m -95.923556,-0.0428 c 0,-0.0569 0.08789,-0.10353 0.195312,-0.10353 0.107422,0 0.195313,0.0466 0.195313,0.10353 0,0.057 -0.08789,0.10354 -0.195313,0.10354 -0.107421,0 -0.195312,-0.0466 -0.195312,-0.10354 z m 0.446057,-1.29727 c -0.111547,-2.19383 -4.967872,-3.46155 -9.823203,-2.56428 -0.658066,0.12161 -1.096407,0.13527 -0.974091,0.0303 0.417501,-0.35811 7.226237,-0.69998 7.226237,-0.36283 0,0.0858 0.239702,0.15603 0.53267,0.15603 1.662088,0 3.708805,1.83501 3.349038,3.00262 -0.25283,0.82055 -0.255738,0.8181 -0.310651,-0.26189 z m 0.725818,0.46897 c 0,-0.057 0.08789,-0.10354 0.195312,-0.10354 0.107422,0 0.195313,0.0466 0.195313,0.10354 0,0.0569 -0.08789,0.10354 -0.195313,0.10354 -0.107421,0 -0.195312,-0.0466 -0.195312,-0.10354 z m 95.192741,-0.98362 c -0.15957,-0.63079 -0.56315,-1.04138 -1.42479,-1.44954 -0.66118,-0.3132 -1.05648,-0.56946 -0.87845,-0.56946 0.84494,0 2.50054,1.2551 2.70107,2.04767 0.11848,0.46827 0.12753,0.85141 0.0201,0.85141 -0.10742,0 -0.2955,-0.39604 -0.41794,-0.88008 z m -94.411491,0.56946 c 0,-0.0569 0.08789,-0.10354 0.195312,-0.10354 0.107422,0 0.195313,0.0466 0.195313,0.10354 0,0.057 -0.08789,0.10354 -0.195313,0.10354 -0.107421,0 -0.195312,-0.0466 -0.195312,-0.10354 z m -17.89666,-0.25721 c 2.432584,-0.057 3.035068,-0.13744 3.177343,-0.42425 0.127029,-0.25608 0.188093,-0.22511 0.220879,0.112 0.04383,0.45062 -0.06051,0.46456 -3.177343,0.42425 -3.222657,-0.0417 -3.222657,-0.0417 -0.220879,-0.112 z m 93.352951,-0.7264 c 0.0657,-0.88008 0.0657,-0.88008 0.2179,-0.11237 0.15223,0.76771 0.15223,0.76771 2.96168,0.83893 2.80944,0.0712 2.80944,0.0712 -0.2179,0.11237 -3.02735,0.0411 -3.02735,0.0411 -2.96168,-0.83893 z m 24.59691,0.22401 c -0.0293,-0.19 -0.16696,-0.51614 -0.30601,-0.72477 -0.19514,-0.29281 -0.14306,-0.32573 0.22839,-0.14436 0.26465,0.12923 0.40235,0.45538 0.306,0.72477 -0.0964,0.2694 -0.19913,0.33436 -0.22838,0.14436 z m -18.78791,-0.17794 c -0.008,-0.17397 0.22757,-0.50011 0.5244,-0.72477 0.29682,-0.22465 0.56049,-0.50164 0.58593,-0.61553 0.0254,-0.1139 0.22204,-0.21873 0.43688,-0.23296 0.21484,-0.0142 0.57678,-0.0375 0.8043,-0.0518 0.22753,-0.0142 0.30629,-0.11801 0.17503,-0.23059 -0.13859,-0.11888 0.0244,-0.15119 0.3888,-0.0771 0.49793,0.10129 0.37661,0.20851 -0.58774,0.5194 -0.66836,0.21547 -1.46205,0.69277 -1.76376,1.06068 -0.3017,0.36791 -0.55543,0.52658 -0.56384,0.35261 z m 1.54721,-1.3403 c 0,-0.057 -0.0879,-0.10354 -0.19531,-0.10354 -0.10743,0 -0.19532,0.0466 -0.19532,0.10354 0,0.0569 0.0879,0.10354 0.19532,0.10354 0.10742,0 0.19531,-0.0466 0.19531,-0.10354 z m -97.265626,1.03538 c 0,-0.0569 0.08789,-0.10354 0.195312,-0.10354 0.107422,0 0.195313,0.0466 0.195313,0.10354 0,0.057 -0.08789,0.10354 -0.195313,0.10354 -0.107421,0 -0.195312,-0.0466 -0.195312,-0.10354 z m -5.825741,-0.51769 c -0.05209,-1.29758 3.333854,-3.09889 6.411678,-3.411 1.128043,-0.11439 1.135348,-0.11044 0.195313,0.10548 -0.537109,0.12338 -1.025312,0.21417 -1.084894,0.20177 -0.364687,-0.0759 -3.14198,0.92549 -2.971749,1.07151 0.114655,0.0983 -0.02433,0.1532 -0.308853,0.12191 -0.284524,-0.0313 -0.473371,0.0596 -0.41966,0.20194 0.05371,0.14237 -0.07281,0.25885 -0.281149,0.25885 -0.208342,0 -0.635552,0.44263 -0.949354,0.98362 -0.394047,0.67932 -0.57698,0.82346 -0.591332,0.46592 z m 19.888241,0.20708 c 0,-0.15186 0.117187,-0.21398 0.260417,-0.13806 0.143229,0.0759 0.143229,0.20018 0,0.27611 -0.14323,0.0759 -0.260417,0.0138 -0.260417,-0.13805 z m -13.28125,-0.41416 c 0.229962,-0.22778 0.506003,-0.41415 0.613425,-0.41415 0.107422,0 0.0072,0.18637 -0.2228,0.41415 -0.229962,0.22779 -0.506003,0.41416 -0.613425,0.41416 -0.107422,0 -0.0072,-0.18637 0.2228,-0.41416 z m 16.015625,-0.10354 c 0,-0.0569 0.08789,-0.10353 0.195312,-0.10353 0.107422,0 0.195313,0.0466 0.195313,0.10353 0,0.057 -0.08789,0.10354 -0.195313,0.10354 -0.107421,0 -0.195312,-0.0466 -0.195312,-0.10354 z m 73.468341,-0.22433 c 0.0187,-0.24123 0.1113,-0.2903 0.236,-0.12511 0.11284,0.14949 0.099,0.32809 -0.0308,0.3969 -0.1298,0.0688 -0.22212,-0.0535 -0.20516,-0.27179 z m 1.72697,0.1208 c 0.13278,-0.1139 0.32931,-0.20708 0.43673,-0.20708 0.10743,0 0.0867,0.0932 -0.0461,0.20708 -0.13278,0.11389 -0.32931,0.20707 -0.43674,0.20707 -0.10742,0 -0.0867,-0.0932 0.0461,-0.20707 z m 22.07031,0 c 0,-0.15186 0.11719,-0.21398 0.26042,-0.13806 0.14323,0.0759 0.14323,0.20018 0,0.27611 -0.14323,0.0759 -0.26042,0.0138 -0.26042,-0.13805 z m -96.289059,-0.20708 c -0.13278,-0.11389 -0.05526,-0.20708 0.172259,-0.20708 0.227524,0 0.413679,0.0932 0.413679,0.20708 0,0.11389 -0.07752,0.20708 -0.172259,0.20708 -0.09474,0 -0.280898,-0.0932 -0.413679,-0.20708 z m 56.054689,0.10354 c 0,-0.057 0.0879,-0.10354 0.19531,-0.10354 0.10742,0 0.19531,0.0466 0.19531,0.10354 0,0.0569 -0.0879,0.10354 -0.19531,0.10354 -0.10742,0 -0.19531,-0.0466 -0.19531,-0.10354 z m 34.16362,-0.11732 c -0.14161,-0.12147 -0.1737,-0.26526 -0.0713,-0.31954 0.1024,-0.0543 0.29026,0.0451 0.41748,0.22085 0.26414,0.36489 0.039,0.42907 -0.34617,0.0987 z m 4.50825,0.11732 c 0,-0.057 0.0879,-0.10354 0.19532,-0.10354 0.10742,0 0.19531,0.0466 0.19531,0.10354 0,0.0569 -0.0879,0.10354 -0.19531,0.10354 -0.10743,0 -0.19532,-0.0466 -0.19532,-0.10354 z M 48.429379,160.85141 c 0,-0.057 0.08789,-0.10354 0.195312,-0.10354 0.107422,0 0.195313,0.0466 0.195313,0.10354 0,0.057 -0.08789,0.10354 -0.195313,0.10354 -0.107421,0 -0.195312,-0.0466 -0.195312,-0.10354 z m 15.820312,-0.10354 c 0.132781,-0.11389 0.329311,-0.20708 0.436733,-0.20708 0.107421,0 0.08667,0.0932 -0.04611,0.20708 -0.13278,0.11389 -0.32931,0.20708 -0.436732,0.20708 -0.107421,0 -0.08667,-0.0932 0.04611,-0.20708 z m 56.835939,0.10354 c 0,-0.057 0.0879,-0.10354 0.19531,-0.10354 0.10742,0 0.19531,0.0466 0.19531,0.10354 0,0.057 -0.0879,0.10354 -0.19531,0.10354 -0.10742,0 -0.19531,-0.0466 -0.19531,-0.10354 z m -73.242189,-0.31062 c 0.132781,-0.11389 0.329311,-0.20707 0.436733,-0.20707 0.107421,0 0.08667,0.0932 -0.04611,0.20707 -0.13278,0.1139 -0.32931,0.20708 -0.436732,0.20708 -0.107421,0 -0.08667,-0.0932 0.04611,-0.20708 z m 15.429688,0.10354 c 0,-0.0569 0.08789,-0.10354 0.195312,-0.10354 0.107422,0 0.195313,0.0466 0.195313,0.10354 0,0.057 -0.08789,0.10354 -0.195313,0.10354 -0.107421,0 -0.195312,-0.0466 -0.195312,-0.10354 z m 76.171871,0 c 0,-0.0569 0.0879,-0.10354 0.19532,-0.10354 0.10742,0 0.19531,0.0466 0.19531,0.10354 0,0.057 -0.0879,0.10354 -0.19531,0.10354 -0.10743,0 -0.19532,-0.0466 -0.19532,-0.10354 z m 13.80209,-0.0345 c 0.14323,-0.0759 0.3776,-0.0759 0.52083,0 0.14323,0.0759 0.026,0.13805 -0.26042,0.13805 -0.28645,0 -0.40364,-0.0621 -0.26041,-0.13805 z m 8.23077,-0.0369 c 0.2267,-0.19445 -1.89034,-1.44714 -3.09588,-1.83187 -0.4251,-0.13567 -0.54856,-0.25215 -0.27435,-0.25885 0.58184,-0.0142 3.99362,1.7398 3.99362,2.05315 0,0.11688 -0.18615,0.21252 -0.41367,0.21252 -0.22753,0 -0.3219,-0.0787 -0.20972,-0.17495 z m -95.860981,-0.13566 c 0,-0.057 0.08789,-0.10354 0.195312,-0.10354 0.107422,0 0.195313,0.0466 0.195313,0.10354 0,0.0569 -0.08789,0.10353 -0.195313,0.10353 -0.107421,0 -0.195312,-0.0466 -0.195312,-0.10353 z m 62.500001,0.0241 c 0,-0.17579 1.86012,-0.25288 2.56591,-0.10635 0.53371,0.11081 0.26874,0.16089 -0.90575,0.17119 -0.91309,0.008 -1.66016,-0.0212 -1.66016,-0.0648 z m 3.90625,-0.0241 c 0,-0.057 0.0879,-0.10354 0.19531,-0.10354 0.10742,0 0.19531,0.0466 0.19531,0.10354 0,0.0569 -0.0879,0.10353 -0.19531,0.10353 -0.10742,0 -0.19531,-0.0466 -0.19531,-0.10353 z m 0.81209,-0.22434 c 0.0187,-0.24123 0.1113,-0.2903 0.236,-0.12511 0.11284,0.14949 0.099,0.32809 -0.0308,0.3969 -0.1298,0.0688 -0.22212,-0.0535 -0.20516,-0.27179 z m 6.14282,0.0173 c 0.70038,-0.73392 3.73955,-1.95802 4.22388,-1.70127 0.0959,0.0508 -0.36586,0.21107 -1.02615,0.35606 -0.66029,0.14499 -1.73883,0.60016 -2.39675,1.01149 -0.65791,0.41133 -1.01836,0.5615 -0.80098,0.33372 z m 9.7356,0.16116 c 0.69345,-0.0458 1.92391,-0.0465 2.73437,-0.002 0.81046,0.0448 0.24309,0.0823 -1.26082,0.0832 -1.5039,9.2e-4 -2.16701,-0.0357 -1.47355,-0.0815 z m -99.503011,-0.16116 c 0,-0.057 0.08789,-0.10354 0.195312,-0.10354 0.107422,0 0.195313,0.0466 0.195313,0.10354 0,0.057 -0.08789,0.10354 -0.195313,0.10354 -0.107421,0 -0.195312,-0.0466 -0.195312,-0.10354 z m 91.015621,0 c 0,-0.057 0.0879,-0.10354 0.19532,-0.10354 0.10742,0 0.19531,0.0466 0.19531,0.10354 0,0.057 -0.0879,0.10354 -0.19531,0.10354 -0.10743,0 -0.19532,-0.0466 -0.19532,-0.10354 z m 15.625,-0.10354 c 0,-0.15186 0.11719,-0.21398 0.26042,-0.13805 0.14323,0.0759 0.14323,0.20017 0,0.2761 -0.14323,0.0759 -0.26042,0.0138 -0.26042,-0.13805 z M 47.648129,160.0231 c 0,-0.0569 0.08789,-0.10354 0.195312,-0.10354 0.107422,0 0.195313,0.0466 0.195313,0.10354 0,0.057 -0.08789,0.10354 -0.195313,0.10354 -0.107421,0 -0.195312,-0.0466 -0.195312,-0.10354 z m 16.591932,-0.52302 c -0.622797,-0.34461 -1.367939,-0.57864 -1.655871,-0.52006 -0.324244,0.066 -0.417056,0.0152 -0.243832,-0.1334 0.18848,-0.16167 0.0611,-0.19543 -0.390625,-0.10354 -0.398155,0.081 -0.57341,0.0532 -0.431651,-0.0683 0.13126,-0.11259 -0.04577,-0.20471 -0.393391,-0.20471 -0.378283,0 -0.52014,0.096 -0.353323,0.23908 0.174073,0.14931 0.107005,0.18281 -0.178631,0.0892 -0.251543,-0.0824 -0.35622,-0.23659 -0.232614,-0.34261 0.123606,-0.10603 -0.07861,-0.19277 -0.449357,-0.19277 -0.370753,0 -0.560827,-0.06 -0.422387,-0.13344 0.482796,-0.25594 3.650813,0.55816 4.961308,1.27492 0.726246,0.39722 1.230961,0.72221 1.12159,0.72221 -0.109372,0 -0.708419,-0.28195 -1.331216,-0.62656 z m 67.001819,0.52302 c 0,-0.0569 0.0879,-0.10354 0.19531,-0.10354 0.10742,0 0.19531,0.0466 0.19531,0.10354 0,0.057 -0.0879,0.10354 -0.19531,0.10354 -0.10742,0 -0.19531,-0.0466 -0.19531,-0.10354 z m -67.968751,-0.20707 c 0,-0.057 0.08789,-0.10354 0.195312,-0.10354 0.107422,0 0.195313,0.0466 0.195313,0.10354 0,0.0569 -0.08789,0.10353 -0.195313,0.10353 -0.107421,0 -0.195312,-0.0466 -0.195312,-0.10353 z m 62.500001,0 c 0,-0.057 0.0879,-0.10354 0.19531,-0.10354 0.10742,0 0.19531,0.0466 0.19531,0.10354 0,0.0569 -0.0879,0.10353 -0.19531,0.10353 -0.10742,0 -0.19531,-0.0466 -0.19531,-0.10353 z m 7.70028,-0.93185 c 0.22972,-0.9689 0.37152,-1.17403 0.69354,-1.00332 0.10489,0.0556 -0.058,0.51376 -0.36189,1.01813 -0.55259,0.91704 -0.55259,0.91704 -0.33165,-0.0148 z m -86.606531,0.51769 c 0,-0.0569 0.08789,-0.10354 0.195312,-0.10354 0.107422,0 0.195313,0.0466 0.195313,0.10354 0,0.057 -0.08789,0.10354 -0.195313,0.10354 -0.107421,0 -0.195312,-0.0466 -0.195312,-0.10354 z m 2.34375,0 c 0,-0.0569 0.08789,-0.10354 0.195312,-0.10354 0.107422,0 0.195313,0.0466 0.195313,0.10354 0,0.057 -0.08789,0.10354 -0.195313,0.10354 -0.107421,0 -0.195312,-0.0466 -0.195312,-0.10354 z m 75.390621,0 c 0,-0.0569 0.0879,-0.10354 0.19532,-0.10354 0.10742,0 0.19531,0.0466 0.19531,0.10354 0,0.057 -0.0879,0.10354 -0.19531,0.10354 -0.10743,0 -0.19532,-0.0466 -0.19532,-0.10354 z m 18.51739,-0.13553 c -0.17269,-0.14812 -0.10715,-0.18286 0.17226,-0.0913 0.45029,0.14753 0.60456,0.33039 0.27872,0.33039 -0.0947,0 -0.29768,-0.10758 -0.45098,-0.23907 z m 13.51386,0.13553 c 0,-0.0569 0.0879,-0.10354 0.19532,-0.10354 0.10742,0 0.19531,0.0466 0.19531,0.10354 0,0.057 -0.0879,0.10354 -0.19531,0.10354 -0.10743,0 -0.19532,-0.0466 -0.19532,-0.10354 z m 1.17188,0 c 0,-0.0569 0.0879,-0.10354 0.19531,-0.10354 0.10742,0 0.19531,0.0466 0.19531,0.10354 0,0.057 -0.0879,0.10354 -0.19531,0.10354 -0.10742,0 -0.19531,-0.0466 -0.19531,-0.10354 z m -35.15625,-0.20708 c 0,-0.0569 0.0879,-0.10353 0.19531,-0.10353 0.10742,0 0.19531,0.0466 0.19531,0.10353 0,0.057 -0.0879,0.10354 -0.19531,0.10354 -0.10742,0 -0.19531,-0.0466 -0.19531,-0.10354 z m 34.53301,-0.34261 c -0.17269,-0.14812 -0.10715,-0.18286 0.17226,-0.0913 0.45029,0.14753 0.60456,0.33039 0.27872,0.33039 -0.0947,0 -0.29768,-0.10759 -0.45098,-0.23908 z m -13.43926,-0.48569 c 0,-0.057 0.0879,-0.10354 0.19531,-0.10354 0.10742,0 0.19531,0.0466 0.19531,0.10354 0,0.0569 -0.0879,0.10353 -0.19531,0.10353 -0.10742,0 -0.19531,-0.0466 -0.19531,-0.10353 z m 0.97656,-0.10354 c -0.13278,-0.11389 0.043,-0.20708 0.39063,-0.20708 0.34762,0 0.5234,0.0932 0.39062,0.20708 -0.13278,0.11389 -0.30856,0.20707 -0.39062,0.20707 -0.0821,0 -0.25785,-0.0932 -0.39063,-0.20707 z m 10.74219,0 c 0,-0.11389 0.17578,-0.20708 0.39062,-0.20708 0.21485,0 0.39063,0.0932 0.39063,0.20708 0,0.11389 -0.17578,0.20707 -0.39063,0.20707 -0.21484,0 -0.39062,-0.0932 -0.39062,-0.20707 z m 1.30208,0.069 c 0.14323,-0.0759 0.37761,-0.0759 0.52084,0 0.14322,0.0759 0.026,0.13805 -0.26042,0.13805 -0.28646,0 -0.40365,-0.0621 -0.26042,-0.13805 z m -23.95833,-0.17256 c 0,-0.057 0.0879,-0.10354 0.19531,-0.10354 0.10742,0 0.19531,0.0466 0.19531,0.10354 0,0.057 -0.0879,0.10354 -0.19531,0.10354 -0.10742,0 -0.19531,-0.0466 -0.19531,-0.10354 z m -81.933595,-0.25186 c 0.590821,-0.0474 1.557617,-0.0474 2.148438,0 0.59082,0.0475 0.107422,0.0863 -1.074219,0.0863 -1.181641,0 -1.665039,-0.0388 -1.074219,-0.0863 z m 4.720052,0.0103 c 0.143229,-0.0759 0.377604,-0.0759 0.520834,0 0.143229,0.0759 0.02604,0.13805 -0.260417,0.13805 -0.286458,0 -0.403646,-0.0621 -0.260417,-0.13805 z m 1.529948,-0.005 c 0.375977,-0.0521 0.991211,-0.0521 1.367188,0 0.375976,0.0521 0.06836,0.0947 -0.683594,0.0947 -0.751953,0 -1.05957,-0.0426 -0.683594,-0.0947 z m 69.538685,-7.6e-4 c 0.38007,-0.0525 0.90741,-0.0491 1.17187,0.008 0.26447,0.0567 -0.0465,0.0997 -0.69102,0.0955 -0.64453,-0.004 -0.86092,-0.0506 -0.48085,-0.10313 z m 19.91444,7.6e-4 c 0.37598,-0.0521 0.99121,-0.0521 1.36719,0 0.37597,0.0521 0.0684,0.0947 -0.6836,0.0947 -0.75195,0 -1.05957,-0.0426 -0.68359,-0.0947 z m 3.80859,0.0392 c 0,-0.0569 0.0879,-0.10354 0.19532,-0.10354 0.10742,0 0.19531,0.0466 0.19531,0.10354 0,0.057 -0.0879,0.10354 -0.19531,0.10354 -0.10743,0 -0.19532,-0.0466 -0.19532,-0.10354 z m 2.25065,-0.0429 c 0.48591,-0.0495 1.18903,-0.0477 1.5625,0.004 0.37347,0.0518 -0.0241,0.0924 -0.88346,0.0901 -0.85937,-0.002 -1.16494,-0.0447 -0.67904,-0.0942 z m -22.85611,-0.20336 c 0.37597,-0.0521 0.99121,-0.0521 1.36718,0 0.37598,0.0521 0.0684,0.0947 -0.68359,0.0947 -0.75195,0 -1.05957,-0.0426 -0.68359,-0.0947 z m -51.269536,-6.79433 c 0,-0.057 0.08789,-0.10354 0.195312,-0.10354 0.107422,0 0.195313,0.0466 0.195313,0.10354 0,0.0569 -0.08789,0.10353 -0.195313,0.10353 -0.107421,0 -0.195312,-0.0466 -0.195312,-0.10353 z"
         id="path8" /></g></g></svg>
