<?xml version="1.0" encoding="UTF-8" standalone="no"?>
<!-- Created with Inkscape (http://www.inkscape.org/) -->

<svg
   width="210mm"
   height="297mm"
   viewBox="0 0 210 297"
   version="1.1"
   id="svg1"
   xml:space="preserve"
   xmlns="http://www.w3.org/2000/svg"
   xmlns:svg="http://www.w3.org/2000/svg"><defs
     id="defs1" /><g
     id="layer1"><g
       id="g1"
       transform="matrix(0.82163642,0,0,0.74671514,22.030522,46.975737)"><path
         style="fill:#f6c10f"
         d="m 180.0262,147.42412 c -0.0824,-0.0824 1.26954,-4.39843 3.00435,-9.59115 1.73481,-5.19271 3.12185,-9.6323 3.08231,-9.86574 -0.0395,-0.23344 -2.75079,-2.42122 -6.02501,-4.86173 -7.00567,-5.22184 -6.53214,-4.82399 -6.17121,-5.18492 0.20312,-0.20311 2.44842,0.14794 7.84018,1.22582 4.15556,0.83075 7.71246,1.45 7.90423,1.37611 0.20574,-0.0793 0.93319,-2.50702 1.77451,-5.92217 1.42973,-5.80363 1.74531,-6.69128 2.2127,-6.22388 0.13632,0.13631 0.9286,2.96909 1.76063,6.29507 l 1.51278,6.04722 6.53205,0.0708 c 4.9655,0.0538 6.53063,0.14898 6.52616,0.39688 -0.003,0.17935 -2.08418,1.69532 -4.62432,3.36881 -2.54015,1.67349 -4.6211,3.19253 -4.62433,3.37564 -0.003,0.18312 1.36334,3.06939 3.03683,6.41394 2.94087,5.87749 3.34509,6.87917 2.776,6.87917 -0.14668,0 -3.14217,-1.43869 -6.65663,-3.1971 l -6.38993,-3.19709 -6.37608,6.37209 c -3.50685,3.50466 -6.50418,6.3721 -6.66073,6.3721 -0.15656,0 -0.35208,-0.0674 -0.43449,-0.14984 z"
         id="path3" /><path
         style="fill:#003a7c"
         d="m 79.67847,188.18096 c -7.36855,-1.35728 -12.896332,-5.00165 -15.440875,-10.17991 -1.173893,-2.38893 -1.877197,-5.10404 -1.88474,-7.27605 l -0.0046,-1.32291 h 5.66323 5.66323 l 0.171026,1.28926 c 0.66755,5.03224 3.934108,7.89162 9.887632,8.65513 4.537353,0.58189 8.915884,-0.45092 11.165883,-2.63381 2.931815,-2.84438 2.296701,-6.95648 -1.407302,-9.1117 -1.686721,-0.98144 -4.514481,-1.92062 -9.71466,-3.22652 -6.204892,-1.55821 -8.684758,-2.35127 -11.242581,-3.59536 -5.558808,-2.70375 -8.01421,-6.23224 -8.270884,-11.88552 -0.305737,-6.73389 2.645081,-11.51842 9.064634,-14.69764 3.862544,-1.91288 5.811571,-2.31911 11.244792,-2.34371 6.712213,-0.0304 10.736907,0.97098 14.824587,3.68847 4.000838,2.65975 6.421978,6.77768 6.789858,11.54836 l 0.15982,2.07241 h -5.7045 -5.704502 l -0.183785,-1.12448 c -0.481337,-2.94503 -2.560351,-5.55463 -5.096123,-6.3967 -3.343111,-1.11018 -7.625257,-1.0457 -10.420781,0.1569 -3.499974,1.50565 -4.821539,5.90474 -2.518303,8.38266 1.233555,1.32711 3.912037,2.31454 11.557896,4.26084 9.675803,2.46304 12.593878,3.68582 15.629258,6.54924 2.91936,2.75398 4.21449,5.9232 4.21449,10.313 0,8.14356 -5.06884,14.00899 -14.157458,16.38236 -2.263628,0.59112 -3.32808,0.70437 -7.406082,0.78795 -3.430446,0.0703 -5.354524,-0.0114 -6.879166,-0.29227 z m -47.817443,-0.25678 c -6.059934,-1.53219 -9.220186,-5.87033 -8.867115,-12.17209 0.249127,-4.44652 1.971789,-7.22519 5.574567,-8.99183 2.505704,-1.22868 5.010706,-1.83485 10.379573,-2.51165 5.514865,-0.69521 6.801593,-0.96548 8.37902,-1.75997 1.504506,-0.75776 2.056605,-1.70619 2.056605,-3.53295 0,-2.4679 -1.251145,-4.17267 -3.517759,-4.79319 -1.550157,-0.42439 -5.104896,-0.42874 -6.574434,-0.008 -2.256316,0.64591 -4.173592,2.8713 -4.189496,4.86276 l -0.0058,0.72761 h -5.525512 -5.525512 l 0.349661,-1.83509 c 1.055388,-5.53889 5.185448,-9.23583 11.891988,-10.64488 3.710968,-0.77968 10.015706,-0.77728 13.758127,0.005 5.245296,1.09675 8.54926,3.525 9.651388,7.09327 0.504913,1.63472 0.535277,2.43351 0.535277,14.08137 0,12.21593 0.177862,15.63785 0.922513,17.74842 l 0.380697,1.07901 -5.480251,-0.0715 -5.480251,-0.0715 -0.36599,-1.76422 -0.36599,-1.76421 -1.33814,1.05774 c -1.657016,1.30979 -3.206142,2.10371 -5.602797,2.87139 -2.400347,0.76886 -8.672917,0.99289 -11.040358,0.39431 z m 12.082377,-7.12686 c 3.872644,-1.16549 5.440273,-3.96312 5.440273,-9.70882 v -3.11234 l -1.389062,0.62919 c -0.862902,0.39086 -2.760867,0.83324 -5.010619,1.16787 -5.650571,0.84049 -7.643984,1.71884 -8.658861,3.81529 -0.647148,1.33683 -0.729039,3.47635 -0.183073,4.78303 0.401681,0.96136 1.685739,2.04737 2.93849,2.48527 1.186343,0.41469 5.408894,0.37809 6.862852,-0.0595 z m 74.700956,7.11105 c -6.46827,-1.56796 -9.91542,-7.15608 -8.64701,-14.01752 0.97811,-5.29111 4.85778,-8.08374 12.81945,-9.2276 1.59454,-0.22909 4.2369,-0.59988 5.87189,-0.82398 3.82345,-0.52406 5.50146,-1.07692 6.59862,-2.17408 0.8183,-0.8183 0.8797,-1.00122 0.8797,-2.62079 0,-2.39225 -0.6784,-3.57272 -2.59094,-4.50843 -1.25487,-0.61396 -1.75471,-0.69955 -4.11507,-0.70465 -2.78873,-0.006 -4.53606,0.4813 -5.82338,1.6241 -0.64254,0.57041 -1.7521,2.9052 -1.75552,3.69406 l -0.003,0.59532 h -5.45804 -5.45805 l 0.17846,-1.34528 c 0.40748,-3.07173 2.26538,-6.29534 4.62773,-8.02946 3.90732,-2.86824 10.25746,-4.20527 17.13595,-3.608 7.26788,0.63107 11.44239,2.71437 13.29066,6.63274 l 0.68642,1.4552 0.16385,14.15521 c 0.13364,11.54562 0.24102,14.48527 0.58241,15.94554 0.23021,0.98469 0.49093,1.90742 0.57937,2.05052 0.10339,0.1673 -1.77392,0.26019 -5.25825,0.26019 h -5.41905 l -0.26283,-0.85989 c -0.14455,-0.47294 -0.33728,-1.30376 -0.42828,-1.84626 l -0.16547,-0.98635 -1.37817,1.11865 c -1.77699,1.44237 -4.54914,2.69488 -7.1217,3.21771 -2.50012,0.50812 -7.44011,0.5097 -9.53016,0.003 z m 12.17129,-7.13598 c 1.95842,-0.58159 3.48269,-1.85225 4.41962,-3.68427 0.74023,-1.4474 0.80313,-1.8022 0.93611,-5.28031 0.0784,-2.05075 0.11237,-3.77537 0.0755,-3.83249 -0.0369,-0.0571 -0.22905,0.0306 -0.42704,0.1949 -0.69698,0.57844 -2.59079,1.07852 -6.12788,1.61811 -5.40926,0.8252 -7.87028,1.99297 -8.77789,4.16519 -0.50308,1.20403 -0.43432,3.19119 0.15534,4.48992 0.85933,1.89266 2.68278,2.70339 6.1199,2.72099 1.29661,0.007 2.84895,-0.16118 3.62635,-0.39204 z m 61.57532,7.00673 c -5.733,-1.44259 -10.44435,-5.31373 -12.71457,-10.44709 -1.36513,-3.08682 -1.81054,-5.51037 -1.79775,-9.78203 0.0106,-3.53762 0.09,-4.22742 0.73108,-6.35 1.1179,-3.70127 2.59315,-6.2484 5.04999,-8.71921 3.40603,-3.42539 7.00969,-5.1309 12.04708,-5.70155 6.91169,-0.78296 13.32747,1.73107 17.08118,6.69329 2.8007,3.70239 4.28369,8.07163 4.53115,13.34987 l 0.15195,3.24115 H 203.0128 188.55451 l 0.004,0.7276 c 0.006,1.145 0.73466,3.94781 1.32883,5.11248 0.7946,1.55755 2.47055,3.05173 4.17741,3.72434 2.1432,0.84457 6.15426,0.84326 8.30154,-0.003 1.72318,-0.67888 3.95253,-2.55301 4.4417,-3.73396 l 0.33165,-0.80067 h 4.74823 4.74823 l -0.18348,0.59531 c -0.45904,1.48948 -1.79728,4.09804 -2.88265,5.61906 -2.14295,3.00307 -4.62415,4.7923 -8.47891,6.11427 -1.89947,0.65141 -2.55106,0.73444 -6.35,0.80918 -3.55595,0.0699 -4.57202,-0.002 -6.35,-0.44933 z m 14.03205,-25.30056 c -0.60839,-3.24304 -2.19702,-5.65464 -4.50058,-6.83206 -1.43358,-0.73274 -1.77151,-0.7957 -4.22197,-0.78652 -2.20688,0.008 -2.90279,0.11634 -4.05805,0.63019 -2.0278,0.90194 -3.87115,3.01679 -4.55263,5.22317 -0.93647,3.03196 -1.85615,2.73562 8.49,2.73562 h 9.02528 z M -7.5017406,159.87709 v -27.38438 h 5.9516309 5.9516309 l 0.06764,22.42344 0.06764,22.42344 8.2682298,0.0699 8.268229,0.0699 v 4.89102 4.89102 H 6.7857597 -7.5017406 Z m 157.9562506,0 v -27.38438 h 5.42396 5.42396 v 27.38438 27.38437 h -5.42396 -5.42396 z m 14.2875,0 v -27.38438 h 5.42396 5.42396 v 27.38438 27.38437 h -5.42396 -5.42396 z M -2.8715321,123.10226 c -0.1455209,-0.0486 -0.5828289,-0.15817 -0.9717956,-0.24362 -0.9924249,-0.21801 -2.2555562,-1.35102 -2.9389442,-2.63619 -0.53224,-1.00092 -0.5878423,-1.53993 -0.6720855,-6.51516 l -0.091841,-5.42395 h 1.6097291 1.6097291 v 4.83714 c 0,3.53827 0.099064,5.07424 0.3689261,5.72011 0.9823178,2.35102 4.04270055,2.34076 4.93894922,-0.0166 0.13660618,-0.3593 0.24837478,-2.87795 0.24837478,-5.59699 v -4.94371 h 1.6059283 1.6059283 l -0.084574,5.42395 c -0.07831,5.02223 -0.1284861,5.50611 -0.6774443,6.53311 -0.7469302,1.39737 -1.9901946,2.35485 -3.51347574,2.70584 -1.15299021,0.26567 -2.50111006,0.33492 -3.03740416,0.15602 z m 86.3864601,-0.0418 c -0.363802,-0.0704 -1.121828,-0.24743 -1.684502,-0.39345 l -1.023044,-0.26549 0.176691,-1.10597 c 0.09718,-0.60829 0.262398,-1.19182 0.367152,-1.29675 0.104754,-0.10493 0.783269,-0.008 1.507811,0.21591 2.360695,0.72877 4.624642,0.0688 4.624642,-1.34805 0,-0.77806 -0.579849,-1.24499 -2.772731,-2.23278 -1.996804,-0.89945 -2.888454,-1.59708 -3.470117,-2.71502 -0.879884,-1.69111 0.01009,-4.11266 1.863299,-5.06987 1.148908,-0.59343 3.472743,-0.85514 5.231533,-0.58917 1.685363,0.25486 1.853463,0.42153 1.509133,1.49629 -0.16008,0.49965 -0.330615,1.04231 -0.378966,1.2059 -0.06346,0.21471 -0.478519,0.19612 -1.492188,-0.0668 -1.754143,-0.45502 -3.032398,-0.23751 -3.588068,0.61055 -0.391772,0.59792 -0.385924,0.69242 0.08119,1.31184 0.276855,0.36712 1.345993,1.01801 2.375861,1.44642 1.07599,0.44759 2.257717,1.17637 2.778125,1.71329 0.838591,0.86521 0.905637,1.05918 0.905637,2.62008 0,2.0314 -0.519728,2.89683 -2.262709,3.76777 -1.183391,0.59131 -3.518768,0.93327 -4.748749,0.69532 z m -73.8188811,-7.43495 -1.295e-4,-7.34218 1.9092566,0.0404 1.909258,0.0404 1.285068,2.20854 c 0.706787,1.2147 1.93342,3.51045 2.725849,5.10168 0.79243,1.59122 1.468402,2.92092 1.502159,2.95488 0.03376,0.034 0.02128,-2.27998 -0.02772,-5.14209 l -0.0891,-5.20384 h 1.478161 1.478161 v 7.34218 7.34219 h -1.707074 -1.707074 l -1.609174,-2.84427 c -0.885046,-1.56435 -2.170691,-4.00063 -2.856989,-5.41396 -0.686298,-1.41332 -1.307345,-2.57432 -1.380106,-2.57998 -0.07276,-0.006 -0.09572,2.43062 -0.05101,5.41396 l 0.08128,5.42425 h -1.47034 -1.4703396 z m 17.2600071,0.036 0.07033,-7.30618 1.521533,-0.036 1.521533,-0.036 -1.79e-4,7.34218 -1.78e-4,7.34219 h -1.591686 -1.591685 z m 11.976765,6.98713 c -0.06845,-0.18832 -1.078302,-3.31896 -2.244114,-6.95698 -1.165813,-3.63802 -2.178296,-6.79318 -2.249964,-7.01146 -0.107885,-0.32859 0.173474,-0.39015 1.63533,-0.35781 l 1.765635,0.0391 1.127732,3.92969 c 0.620252,2.16133 1.335334,4.76312 1.589069,5.78177 l 0.461338,1.85208 0.254134,-0.92604 c 0.206176,-0.75128 1.448943,-5.08702 2.84394,-9.92187 0.224354,-0.77758 0.264242,-0.79375 1.957564,-0.79375 1.433605,0 1.700322,0.0677 1.563146,0.39687 -0.09097,0.21828 -1.20342,3.4925 -2.472114,7.27604 l -2.306715,6.87917 -1.900263,0.0778 c -1.371628,0.0562 -1.934885,-0.0174 -2.024718,-0.26458 z m 13.096669,-7.02313 -2.3e-5,-7.34218 4.400014,0.0528 4.400013,0.0528 0.03178,1.20417 0.03178,1.20418 -2.844271,-2.1e-4 -2.844271,-2e-4 v 1.67515 1.67515 l 2.645833,-0.043 2.645834,-0.043 v 1.27827 1.27828 H 57.850343 55.20451 v 1.85208 1.85209 h 3.042708 3.042709 v 1.32291 1.32292 H 56.659718 52.02951 Z m 14.02294,0.0872 v -7.25498 l 1.759342,-0.18841 c 2.361091,-0.25286 5.199528,0.0116 6.389342,0.59528 1.509982,0.74074 2.241186,2.03024 2.106059,3.71409 -0.117993,1.47036 -0.565197,2.18122 -1.883314,2.99367 -0.744011,0.45859 -0.747351,0.47141 -0.199301,0.76472 0.723588,0.38725 1.431828,1.83078 1.967712,4.01058 0.236026,0.96008 0.506968,1.94841 0.602093,2.19631 0.153576,0.40021 -0.01608,0.44179 -1.514177,0.37107 l -1.687131,-0.0796 -0.661459,-2.29399 c -0.821473,-2.84894 -1.27725,-3.39455 -2.835637,-3.39455 h -1.166124 l 0.08265,2.91095 0.08265,2.91096 -1.521354,-5.4e-4 -1.521354,-5.4e-4 z m 6.494318,-1.59653 c 0.865006,-0.86501 0.859355,-2.07512 -0.01377,-2.94824 -0.567632,-0.56763 -0.86311,-0.65168 -2.050521,-0.58329 l -1.387322,0.0799 -0.07728,2.05052 -0.07728,2.05052 h 1.478365 c 1.216843,0 1.593248,-0.11489 2.127796,-0.64943 z m 22.345266,1.50932 v -7.34218 h 1.5875 1.5875 v 7.34218 7.34219 h -1.5875 -1.5875 z m 8.202088,0.11932 v -7.28171 l 2.3151,-0.196 c 6.95998,-0.58926 10.60071,1.77684 10.63787,6.9135 0.0243,3.3575 -1.24674,5.61094 -3.8964,6.90808 -1.40304,0.68686 -1.79677,0.74943 -5.28626,0.83999 l -3.77031,0.0979 z m 7.15274,4.24631 c 1.7898,-0.90338 2.41215,-2.17902 2.31479,-4.74464 -0.0595,-1.5694 -0.20377,-2.20256 -0.6328,-2.77813 -0.90424,-1.21308 -2.08942,-1.75337 -3.9046,-1.77999 l -1.62284,-0.0238 -0.072,4.96093 -0.072,4.96094 h 1.40498 c 0.93117,0 1.80275,-0.20076 2.58444,-0.59531 z m 8.19558,2.92304 c 0.001,-0.0433 0.99443,-3.33379 2.20679,-7.31215 l 2.20429,-7.23338 2.16312,-0.0427 2.16311,-0.0427 0.68531,2.24895 c 0.37692,1.23693 1.38703,4.49125 2.24468,7.23183 0.85766,2.74058 1.55938,5.03253 1.55938,5.09323 0,0.0607 -0.75763,0.11036 -1.68362,0.11036 h -1.68361 l -0.63149,-1.91434 -0.63149,-1.91434 -2.07296,-0.008 c -1.14013,-0.005 -2.1335,0.0895 -2.2075,0.20922 -0.074,0.11973 -0.33313,0.95522 -0.57585,1.85666 l -0.44132,1.63897 -1.65067,0.0788 c -0.90786,0.0433 -1.64954,0.0433 -1.64817,0 z m 8.12885,-6.49492 c -1.31998,-4.61423 -1.63123,-5.59611 -1.7396,-5.48775 -0.0707,0.0707 -0.40279,1.21352 -0.73801,2.53962 -0.33521,1.3261 -0.6809,2.6361 -0.76819,2.91112 -0.14481,0.45628 -0.004,0.50003 1.60978,0.50003 1.55834,0 1.75274,-0.055 1.63602,-0.46302 z m 8.53741,-0.70385 v -7.25229 l 2.27452,-0.18947 c 7.34229,-0.61161 10.99552,2.02287 10.63324,7.66801 -0.22701,3.53733 -2.27739,6.04574 -5.50814,6.73861 -0.73714,0.15809 -2.70361,0.28743 -4.36994,0.28743 h -3.02968 z m 7.15383,4.27573 c 1.72669,-0.87072 2.43221,-2.35713 2.31694,-4.88137 -0.13786,-3.01882 -1.53296,-4.37728 -4.54063,-4.42139 l -1.62285,-0.0238 -0.072,4.96093 -0.072,4.96094 h 1.40499 c 0.93084,0 1.80338,-0.2009 2.58552,-0.59531 z m 9.7795,-4.29948 v -7.27604 h 4.49792 4.49792 v 1.19062 1.19063 h -2.91042 -2.91042 v 1.71979 1.71979 h 2.64584 2.64583 v 1.19063 1.19062 h -2.64583 -2.64584 v 1.85208 1.85209 h 3.04271 3.04271 v 1.32291 1.32292 h -4.63021 -4.63021 z"
         id="path1" /></g></g></svg>
