<?xml version="1.0" encoding="UTF-8" standalone="no"?>
<!-- Created with Inkscape (http://www.inkscape.org/) -->

<svg
   width="210mm"
   height="297mm"
   viewBox="0 0 210 297"
   version="1.1"
   id="svg1"
   xml:space="preserve"
   inkscape:version="1.3 (0e150ed6c4, 2023-07-21)"
   sodipodi:docname="logoSpring.svg"
   xmlns:inkscape="http://www.inkscape.org/namespaces/inkscape"
   xmlns:sodipodi="http://sodipodi.sourceforge.net/DTD/sodipodi-0.dtd"
   xmlns="http://www.w3.org/2000/svg"
   xmlns:svg="http://www.w3.org/2000/svg"><sodipodi:namedview
     id="namedview1"
     pagecolor="#ffffff"
     bordercolor="#000000"
     borderopacity="0.25"
     inkscape:showpageshadow="2"
     inkscape:pageopacity="0.0"
     inkscape:pagecheckerboard="0"
     inkscape:deskcolor="#d1d1d1"
     inkscape:document-units="mm"
     inkscape:zoom="0.57103676"
     inkscape:cx="396.64697"
     inkscape:cy="561.25984"
     inkscape:window-width="1600"
     inkscape:window-height="837"
     inkscape:window-x="1042"
     inkscape:window-y="547"
     inkscape:window-maximized="1"
     inkscape:current-layer="layer1" /><defs
     id="defs1" /><g
     inkscape:label="Capa 1"
     inkscape:groupmode="layer"
     id="layer1"><g
       id="g1"
       transform="matrix(1.7950608,0,0,2.6972043,-80.385274,-145.74835)"><path
         style="fill:#6bb13c"
         d="m 58.353054,133.62301 c -1.668653,-0.45037 -4.735408,-1.98062 -4.735408,-2.36287 0,-0.0998 0.238125,-0.33023 0.529167,-0.51199 1.060988,-0.66259 0.327206,-2.44265 -1.006922,-2.44265 -0.316755,0 -0.763398,0.29764 -1.008895,0.67231 l -0.440515,0.67231 -0.644555,-0.60553 c -2.079542,-1.95362 -3.543374,-5.96217 -3.554978,-9.73492 -0.02577,-8.37783 6.461173,-14.87005 14.857948,-14.87005 3.769454,0 7.487145,1.41718 9.955495,3.79502 l 0.82737,0.79703 0.559957,-0.78639 c 0.307977,-0.43251 0.661197,-1.06006 0.784935,-1.39456 0.192562,-0.52054 0.31129,-0.32441 0.824054,1.36133 3.269522,10.74871 2.439028,17.09455 -2.881909,22.0208 -1.784325,1.65197 -4.613539,3.14198 -6.841779,3.60324 -2.038868,0.42206 -5.218181,0.32828 -7.223965,-0.21308 z m 7.435426,-4.08707 c 2.20123,-0.0647 3.525894,-0.24677 4.789864,-0.65855 5.6994,-1.85677 7.670834,-8.32323 5.296494,-17.37293 -0.419978,-1.60073 -0.876074,-3.19595 -1.013547,-3.54493 l -0.24995,-0.63451 -0.56982,0.92199 c -0.934748,1.51245 -3.286127,3.54482 -5.23508,4.52484 -2.069193,1.04048 -3.684646,1.40641 -7.136835,1.61661 -3.493509,0.21272 -5.586275,0.93703 -7.340994,2.54075 -1.80565,1.65026 -2.596122,3.37009 -2.596122,5.64837 0,2.32047 0.801457,4.07106 2.212636,4.83296 0.597184,0.32242 3.190255,-0.14417 6.878355,-1.23766 4.381839,-1.29917 8.528235,-4.10125 10.704521,-7.23397 0.515445,-0.74197 0.857887,-1.11091 0.760983,-0.81987 -0.436452,1.31084 -2.023209,3.55381 -3.735964,5.281 -2.254784,2.27378 -4.709499,3.61688 -9.174683,5.01992 -1.706567,0.53624 -3.153764,1.05727 -3.215994,1.15786 -0.107024,0.173 2.729949,0.16065 9.626136,-0.0419 z m 32.86125,1.09789 c -0.234223,-0.23422 -0.3175,-2.62684 -0.3175,-9.12202 v -8.80453 l 0.691947,-0.45338 c 0.619727,-0.40606 0.764706,-0.41273 1.389063,-0.0639 0.52471,0.29313 0.71743,0.63278 0.77924,1.37332 0.0452,0.54113 0.11508,0.98388 0.15537,0.98388 0.0403,0 0.56766,-0.47032 1.17193,-1.04515 3.05712,-2.90817 8.06753,-1.67332 9.83641,2.42424 0.91785,2.12615 0.86224,5.22898 -0.1288,7.18774 -1.23304,2.43706 -3.14781,3.604 -5.9136,3.604 -1.66341,0 -3.45573,-0.73532 -4.24829,-1.7429 -0.27617,-0.35109 -0.57429,-0.63835 -0.66249,-0.63835 -0.0882,0 -0.16036,1.34541 -0.16036,2.98979 0,1.97262 -0.10802,3.09781 -0.3175,3.30729 -0.41013,0.41013 -1.865293,0.41013 -2.27542,0 z m 8.68628,-6.89239 c 3.50139,-1.76885 3.48118,-6.9931 -0.0341,-8.81091 -1.99673,-1.03255 -4.46891,0.0324 -5.55921,2.39476 -1.41831,3.07308 0.71626,6.79459 4.00793,6.9876 0.22383,0.0131 0.93724,-0.24403 1.58536,-0.57145 z m 40.47331,6.83402 c -2.64991,-0.75708 -3.34341,-1.29836 -3.06823,-2.39479 0.23104,-0.92052 1.11959,-1.06349 2.58388,-0.41577 3.82675,1.69275 7.71327,0.45375 8.33298,-2.6565 l 0.18011,-0.90394 -1.01857,0.89299 c -1.36664,1.19817 -2.4697,1.62055 -4.23205,1.62055 -2.63894,0 -4.66213,-1.32667 -5.85065,-3.83646 -0.81442,-1.71981 -0.88482,-5.23994 -0.13757,-6.87916 1.06316,-2.33224 2.90443,-3.73164 5.27871,-4.01189 1.75728,-0.20743 3.22351,0.27309 4.64129,1.52107 l 1.2276,1.08058 v -0.93353 c 0,-1.57293 1.5837,-2.29024 2.66629,-1.20765 0.53223,0.53223 0.54635,0.75201 0.44606,6.94531 -0.0856,5.28519 -0.18463,6.61182 -0.57041,7.64044 -0.60293,1.60766 -2.12638,2.97696 -3.89712,3.50282 -1.65448,0.49133 -4.92584,0.50918 -6.58232,0.0359 z m 6.06494,-7.23821 c 3.45937,-2.56413 1.73647,-8.76765 -2.44006,-8.78573 -3.46164,-0.015 -5.52646,4.39364 -3.56698,7.61593 1.2565,2.06627 4.06081,2.61237 6.00704,1.1698 z m -65.557013,2.87448 c -2.660633,-0.91881 -3.643772,-2.20169 -2.341285,-3.05511 0.603601,-0.3955 0.738723,-0.37348 2.331315,0.37994 2.838834,1.34299 5.527037,0.97271 5.527037,-0.76131 0,-0.9877 -0.574434,-1.43121 -2.778125,-2.14491 -3.713185,-1.20258 -4.891761,-2.23953 -4.893803,-4.30573 -0.0031,-3.13338 2.743143,-4.88664 6.554292,-4.18441 1.750089,0.32247 3.206764,0.91631 3.56098,1.4517 0.369785,0.55892 0.199958,1.20931 -0.422219,1.61698 -0.570592,0.37386 -0.726412,0.36573 -1.798739,-0.0939 -2.454879,-1.05228 -4.350822,-0.95879 -4.995791,0.24634 -0.534604,0.99892 0.345281,1.77113 3.165377,2.77804 3.702956,1.32213 4.87985,2.7328 4.402548,5.27704 -0.2354,1.25478 -1.481944,2.61253 -2.746367,2.99136 -1.505693,0.45112 -3.939533,0.3654 -5.56522,-0.196 z m 26.736653,0.18877 c -0.23017,-0.23017 -0.3175,-2.15449 -0.3175,-6.99645 0,-6.60191 0.007,-6.68371 0.58804,-7.09084 0.32342,-0.22653 0.74014,-0.41188 0.92604,-0.41188 0.57463,0 1.39634,1.02315 1.39634,1.73863 v 0.6803 l 0.86636,-0.91861 c 1.13762,-1.20623 2.86758,-1.71503 3.78573,-1.11343 1.14602,0.7509 0.57356,2.78811 -0.78346,2.78811 -1.28396,0 -2.96245,1.60576 -3.56751,3.41292 -0.16562,0.49466 -0.30112,2.35144 -0.30112,4.12618 0,2.79006 -0.0655,3.28607 -0.48386,3.66469 -0.56598,0.5122 -1.65507,0.57437 -2.10906,0.12038 z m 9.88396,-0.27054 c -0.34404,-0.49119 -0.41188,-1.59881 -0.41188,-6.72523 0,-3.37546 0.0758,-6.33465 0.16838,-6.57598 0.37758,-0.98396 2.15396,-1.00163 2.80413,-0.0279 0.10692,0.16011 0.19621,3.15993 0.19844,6.66626 0.004,5.84311 -0.0363,6.41168 -0.4798,6.81302 -0.69059,0.62498 -1.78693,0.55275 -2.27927,-0.15016 z m 5.03098,0.17227 c -0.35425,-0.35425 -0.41577,-1.33052 -0.41577,-6.59736 0,-3.39987 0.1123,-6.47696 0.24956,-6.83798 0.28938,-0.76115 0.90905,-0.9631 1.92562,-0.62758 0.54176,0.17882 0.76287,0.46632 0.89329,1.16154 l 0.17333,0.9239 0.95879,-0.93004 c 1.98352,-1.92403 5.48825,-1.88614 7.26321,0.0785 1.22565,1.35665 1.50078,2.80624 1.50078,7.90726 0,4.64683 -0.20206,5.33751 -1.5615,5.33751 -1.44532,0 -1.6135,-0.53392 -1.6135,-5.12256 0,-4.67916 -0.2475,-5.69387 -1.55352,-6.36924 -1.69535,-0.8767 -3.867,-0.25463 -4.61943,1.32323 -0.35264,0.73948 -0.44163,1.73886 -0.44163,4.9593 0,3.22214 -0.0828,4.15145 -0.41188,4.62123 -0.48912,0.69832 -1.73022,0.7894 -2.34735,0.17227 z m -4.79342,-17.43158 c -0.75677,-0.75676 -0.80263,-1.13078 -0.23756,-1.93753 0.78055,-1.11438 2.76993,-0.4741 2.75907,0.88801 -0.005,0.65758 -0.25674,1.01894 -0.97074,1.39476 -0.77452,0.40767 -0.80455,0.40099 -1.55077,-0.34524 z"
         id="path1" /></g></g></svg>
