<?xml version="1.0" encoding="UTF-8" standalone="no"?>
<!-- Created with Inkscape (http://www.inkscape.org/) -->

<svg
   width="210mm"
   height="297mm"
   viewBox="0 0 210 297"
   version="1.1"
   id="svg1"
   xml:space="preserve"
   inkscape:version="1.3 (0e150ed6c4, 2023-07-21)"
   sodipodi:docname="musica.svg"
   xmlns:inkscape="http://www.inkscape.org/namespaces/inkscape"
   xmlns:sodipodi="http://sodipodi.sourceforge.net/DTD/sodipodi-0.dtd"
   xmlns="http://www.w3.org/2000/svg"
   xmlns:svg="http://www.w3.org/2000/svg"><sodipodi:namedview
     id="namedview1"
     pagecolor="#ffffff"
     bordercolor="#000000"
     borderopacity="0.25"
     inkscape:showpageshadow="2"
     inkscape:pageopacity="0.0"
     inkscape:pagecheckerboard="0"
     inkscape:deskcolor="#d1d1d1"
     inkscape:document-units="mm"
     inkscape:zoom="0.57103676"
     inkscape:cx="396.64697"
     inkscape:cy="561.25984"
     inkscape:window-width="1600"
     inkscape:window-height="837"
     inkscape:window-x="-8"
     inkscape:window-y="288"
     inkscape:window-maximized="1"
     inkscape:current-layer="layer1" /><defs
     id="defs1" /><g
     inkscape:label="Capa 1"
     inkscape:groupmode="layer"
     id="layer1"><g
       inkscape:label="Capa 1"
       id="layer1-7"
       transform="matrix(1.2027801,0,0,1.199276,-20.671509,-10.561718)"><g
         id="g1"><path
           style="fill:#505050"
           d="m 42.606695,204.43799 c -0.460693,-0.58743 -0.447593,-0.60053 0.139835,-0.13984 0.356482,0.27957 0.648148,0.57124 0.648148,0.64815 0,0.30483 -0.304142,0.10863 -0.787983,-0.50831 z m -2.592593,-2.5926 c -0.460693,-0.58743 -0.447592,-0.60053 0.139836,-0.13983 0.356481,0.27957 0.648148,0.57124 0.648148,0.64815 0,0.30482 -0.304143,0.10863 -0.787984,-0.50832 z m 36.885172,-12.03703 -1.837929,-1.94445 1.944444,1.83793 c 1.806813,1.70784 2.114297,2.05096 1.837929,2.05096 -0.05858,0 -0.933583,-0.875 -1.944444,-1.94444 z M 106.17246,161.7528 c 0.36869,-0.40741 0.75369,-0.74074 0.85554,-0.74074 0.10185,0 -0.11647,0.33333 -0.48517,0.74074 -0.3687,0.40741 -0.7537,0.74074 -0.85555,0.74074 -0.10185,0 0.11648,-0.33333 0.48518,-0.74074 z M 44.87616,148.65 c 0,-0.0769 0.291666,-0.36857 0.648148,-0.64815 0.587428,-0.46069 0.600528,-0.44759 0.139835,0.13984 -0.48384,0.61694 -0.787983,0.81314 -0.787983,0.50831 z m 37.962963,-10.23053 c 0.368698,-0.40741 0.753694,-0.74074 0.855546,-0.74074 0.101852,0 -0.116477,0.33333 -0.485176,0.74074 -0.368699,0.4074 -0.753694,0.74074 -0.855546,0.74074 -0.101852,0 0.116477,-0.33334 0.485176,-0.74074 z m 8.518518,-21.85185 c 0.368699,-0.40741 0.753695,-0.74075 0.855547,-0.74075 0.101851,0 -0.116478,0.33334 -0.485176,0.74075 -0.368699,0.4074 -0.753695,0.74074 -0.855547,0.74074 -0.101852,0 0.116478,-0.33334 0.485176,-0.74074 z M 102.21412,94.833128 c 0.26736,-0.106989 0.58681,-0.09383 0.70988,0.02924 0.12307,0.123071 -0.0957,0.210608 -0.48611,0.194526 -0.43146,-0.01777 -0.51922,-0.105534 -0.22377,-0.223766 z"
           id="path3" /><path
           style="fill:#333333"
           d="m 78.487271,220.76677 c 0.25463,-0.10274 0.671296,-0.10274 0.925926,0 0.254629,0.10275 0.0463,0.18681 -0.462963,0.18681 -0.509259,0 -0.717593,-0.0841 -0.462963,-0.18681 z m 4.467592,-0.008 c 0.267362,-0.10698 0.586806,-0.0938 0.709877,0.0292 0.123071,0.12308 -0.09568,0.21061 -0.486111,0.19453 -0.43146,-0.0178 -0.519222,-0.10553 -0.223766,-0.22377 z m -41.632412,-17.61736 -0.70555,-0.83333 0.833333,0.70555 c 0.783128,0.66304 1.001941,0.96111 0.705551,0.96111 -0.07028,0 -0.445281,-0.375 -0.833334,-0.83333 z m 55.03519,-3.38058 c 0,-0.0769 0.291667,-0.36857 0.648148,-0.64815 0.587428,-0.46069 0.600529,-0.44759 0.139836,0.13984 -0.483841,0.61694 -0.787984,0.81314 -0.787984,0.50831 z M 82.64732,187.9565 c 2.135249,-2.18981 3.926916,-3.98148 3.981482,-3.98148 0.267484,0 -0.184187,0.47476 -3.882272,4.08069 l -3.981481,3.88228 z m -12.030419,-4.35185 c -2.438076,-2.44444 -4.349533,-4.44444 -4.247681,-4.44444 0.101852,0 2.179975,2 4.618051,4.44444 2.438076,2.44445 4.349532,4.44445 4.24768,4.44445 -0.101852,0 -2.179975,-2 -4.61805,-4.44445 z m 32.095519,-0.37037 c 0,-0.50926 0.0841,-0.71759 0.18681,-0.46296 0.10274,0.25463 0.10274,0.6713 0,0.92592 -0.10275,0.25463 -0.18681,0.0463 -0.18681,-0.46296 z m -37.842302,-20.64815 -4.253217,-4.35185 4.351851,4.25322 c 2.393519,2.33927 4.351852,4.2976 4.351852,4.35185 0,0.26673 -0.499849,-0.21096 -4.450486,-4.25322 z m 44.820852,1.9898 c 0,-0.0769 0.29167,-0.36858 0.64815,-0.64815 0.58743,-0.46069 0.60053,-0.44759 0.13984,0.13984 -0.48384,0.61694 -0.78799,0.81314 -0.78799,0.50831 z m 31.48149,-5.18519 c 0,-0.0769 0.29166,-0.36857 0.64814,-0.64815 0.58743,-0.46069 0.60053,-0.44759 0.13984,0.13984 -0.48384,0.61694 -0.78798,0.81314 -0.78798,0.50831 z M 119.3206,137.12317 c 4.78379,-4.78704 8.78113,-8.7037 8.88298,-8.7037 0.10185,0 -3.72882,3.91666 -8.51261,8.7037 -4.78378,4.78704 -8.78112,8.7037 -8.88297,8.7037 -0.10186,0 3.72882,-3.91666 8.5126,-8.7037 z m -60.06944,5.11737 c 0.267361,-0.10699 0.586805,-0.0938 0.709876,0.0292 0.123071,0.12307 -0.09568,0.2106 -0.486111,0.19452 -0.43146,-0.0178 -0.519222,-0.10553 -0.223765,-0.22376 z m 73.43202,-1.44453 c 0.0178,-0.43146 0.10553,-0.51922 0.22376,-0.22377 0.10699,0.26737 0.0938,0.58681 -0.0292,0.70988 -0.12307,0.12307 -0.2106,-0.0957 -0.19452,-0.48611 z M 79.690975,134.9463 c 0,-0.0769 0.291666,-0.36858 0.648148,-0.64815 0.587428,-0.46069 0.600528,-0.44759 0.139835,0.13984 -0.483841,0.61694 -0.787983,0.81314 -0.787983,0.50831 z m 27.777775,-9.67498 c 4.78379,-4.78704 8.78113,-8.7037 8.88298,-8.7037 0.10185,0 -3.72882,3.91666 -8.51261,8.7037 -4.78378,4.78704 -8.781123,8.7037 -8.882975,8.7037 -0.101852,0 3.728825,-3.91666 8.512605,-8.7037 z m -25.555553,7.45276 c 0,-0.0769 0.291666,-0.36858 0.648148,-0.64815 0.587428,-0.46069 0.600528,-0.44759 0.139835,0.13983 -0.48384,0.61695 -0.787983,0.81314 -0.787983,0.50832 z m -24.907408,-3.80916 c 0.25463,-0.10275 0.671297,-0.10275 0.925926,0 0.25463,0.10274 0.0463,0.18681 -0.462963,0.18681 -0.509259,0 -0.717592,-0.0841 -0.462963,-0.18681 z M 155.6169,100.82687 c 8.45186,-8.453699 15.45036,-15.370366 15.55221,-15.370366 0.10185,0 -6.72998,6.916667 -15.18184,15.370366 -8.45186,8.45371 -15.45036,15.37037 -15.55221,15.37037 -0.10185,0 6.72998,-6.91666 15.18184,-15.37037 z M 143.95023,88.789837 c 8.55374,-8.555555 15.63559,-15.555555 15.73744,-15.555555 0.10185,0 -6.81333,7 -15.36707,15.555555 -8.55373,8.555556 -15.63558,15.555553 -15.73743,15.555553 -0.10185,0 6.81333,-6.999997 15.36706,-15.555553 z m -40.27777,6.034914 c 0.45833,-0.08828 1.20833,-0.08828 1.66666,0 0.45834,0.08828 0.0833,0.160507 -0.83333,0.160507 -0.91667,0 -1.29167,-0.07223 -0.83333,-0.160507 z"
           id="path2" /></g><path
         style="fill:#552200;fill-opacity:0.800937;stroke-width:1.7512"
         d="m 249.54611,675.08624 -48.15802,-47.122 14.0096,-13.94723 14.00961,-13.94722 48.64399,47.57845 48.64399,47.57846 -13.65872,13.57181 c -7.51229,7.46449 -14.0353,13.53534 -14.49557,13.49077 -0.46028,-0.0446 -22.50797,-21.28594 -48.99488,-47.20304 z"
         id="path9"
         transform="scale(0.26458333)" /><path
         style="fill:#552200;fill-opacity:0.800937;stroke-width:1.7512"
         d="M 284.57012,832.78419 C 214.90347,824.44935 143.52147,770.31554 110.53382,700.80068 89.810011,657.12942 85.472047,607.73606 99.078999,570.37269 109.63444,541.38846 128.6189,519.05804 154.98829,504.60957 c 16.34417,-8.95542 31.9166,-13.23735 58.28653,-16.02701 12.72551,-1.34622 26.36607,-3.59206 30.31238,-4.99075 25.53124,-9.04905 39.60785,-23.79882 49.64608,-52.02022 3.23518,-9.09535 8.43164,-20.47721 11.5477,-25.29301 23.60156,-36.47572 67.18227,-53.13514 114.91535,-43.92822 18.56323,3.58053 34.49454,10.55374 55.02943,24.0866 l 12.40877,8.1776 58.46217,-58.48171 58.46217,-58.48172 -5.60689,-5.78485 -5.60689,-5.78485 30.62066,-30.58317 30.62067,-30.58316 32.81625,32.81624 32.81624,32.81624 -30.57726,30.61476 -30.57727,30.61475 -4.53028,-4.34027 c -2.49165,-2.38716 -5.38153,-4.34028 -6.42197,-4.34028 -3.11173,0 -116.1227,113.63647 -116.1227,116.76539 0,1.58689 2.336,6.52559 5.19112,10.9749 14.2923,22.27261 24.5039,54.56789 24.55628,77.66183 0.0282,12.43428 -4.1856,33.53535 -8.88725,44.50386 -5.37229,12.53305 -18.1285,29.28913 -29.22571,38.38982 -5.5178,4.5251 -19.6947,12.80884 -31.54397,18.43158 -23.96466,11.37172 -35.35606,20.88561 -42.94955,35.87062 -6.11178,12.06106 -7.823,19.54895 -9.95067,43.54177 -3.45915,39.00759 -14.40204,64.49474 -37.59382,87.56003 -15.90636,15.81962 -31.19755,24.85443 -53.22319,31.447 -15.58772,4.6656 -44.75749,6.75836 -63.29255,4.54085 z m 48.15802,-59.96595 c 11.53513,-2.85752 26.58992,-11.84194 35.11512,-20.95608 12.91514,-13.80732 18.08403,-27.03798 20.87604,-53.43579 3.02032,-28.5563 5.03754,-36.64839 13.5354,-54.29727 5.14463,-10.68467 10.13716,-17.61638 19.65662,-27.29152 13.94586,-14.17392 20.86706,-18.62994 42.43355,-27.31961 17.49257,-7.0482 26.9338,-14.83815 31.85885,-26.28673 4.80743,-11.17518 7.32085,-29.03529 5.47409,-38.89816 -2.63566,-14.07596 -11.51183,-36.64992 -15.34159,-39.01684 -0.78277,-0.48379 -16.35124,13.61611 -34.5966,31.33311 l -33.17338,32.21271 -0.0668,16.26829 c -0.0578,14.0797 -0.73821,17.73705 -5.05726,27.18583 -6.06143,13.26051 -18.17428,25.14651 -32.17133,31.56879 -13.63373,6.25557 -31.83714,6.49676 -46.55474,0.61683 -13.73667,-5.48802 -28.55331,-20.35018 -33.94738,-34.05165 -8.15496,-20.71437 -4.35524,-44.25053 10.08791,-62.4865 11.56157,-14.59766 34.91895,-24.07983 54.02082,-21.9303 l 9.8795,1.11174 33.05959,-33.1629 c 19.22522,-19.28531 32.55741,-33.97545 31.85956,-35.10461 -1.99949,-3.23522 -20.29715,-10.86827 -34.96906,-14.58768 -16.49855,-4.18246 -26.84341,-2.85025 -44.324,5.70802 -13.48463,6.60193 -22.0283,16.30881 -26.73316,30.37288 -4.99768,14.93936 -12.27373,26.96538 -23.93606,39.5621 -22.90077,24.73555 -41.74469,32.70626 -90.81374,38.4129 -29.49778,3.43053 -50.60055,18.1748 -62.87269,43.92845 -5.30201,11.12654 -5.42304,11.95449 -5.3753,36.77522 0.045,23.40667 0.43923,26.48798 5.04098,39.40201 21.62435,60.68501 79.63974,109.73714 137.63305,116.36899 12.67197,1.44912 28.77238,0.63096 39.40201,-2.00223 z"
         id="path10"
         transform="scale(0.26458333)" /></g></g></svg>
