<?xml version="1.0" encoding="UTF-8" standalone="no"?>
<!-- Created with Inkscape (http://www.inkscape.org/) -->

<svg
   width="210mm"
   height="297mm"
   viewBox="0 0 210 297"
   version="1.1"
   id="svg1"
   xml:space="preserve"
   xmlns="http://www.w3.org/2000/svg"
   xmlns:svg="http://www.w3.org/2000/svg"><defs
     id="defs1" /><g
     id="layer1"><g
       id="g1"
       transform="translate(-119.078,41.237129)"><path
         style="fill:#000000"
         d="m 126.55269,188.99646 c -0.73129,-0.57639 -1.424,-1.59461 -1.65798,-2.43708 -0.56062,-2.01856 -0.55785,-142.682398 0.003,-144.701332 0.24547,-0.883867 0.91245,-1.844639 1.69485,-2.441406 l 1.2901,-0.984005 h 35.86376 35.86375 l 1.2901,0.984005 c 1.80533,1.376992 2.09927,2.864607 2.10178,10.637089 l 0.002,6.738281 -32.51953,0.0015 c -31.56432,0.0014 -32.55626,0.02386 -33.7701,0.763976 -3.57113,2.177446 -3.03966,7.157355 0.94505,8.85522 1.00944,0.430114 5.15339,0.535594 21.04166,0.535594 h 19.78466 l -0.23553,0.878906 c -0.12955,0.483403 -0.23794,3.208013 -0.24087,6.054683 l -0.005,5.17579 -19.62891,6e-4 c -21.88089,6.8e-4 -21.39781,-0.0553 -23.2344,2.69388 -1.0872,1.62744 -1.12893,3.34876 -0.12126,5.0014 1.5325,2.51337 1.03606,2.46037 23.04329,2.46037 h 19.94128 v 6.25 6.249999 l -20.01954,0.003 c -18.95348,0.002 -20.07899,0.0418 -21.13621,0.73879 -3.42242,2.25636 -3.33623,6.82381 0.16421,8.70111 1.2389,0.66443 2.70177,0.71378 21.16122,0.71378 h 19.83032 v 20.23043 c 0,16.97283 0.0971,20.60532 0.6031,22.55859 1.38829,5.35921 5.49094,9.00539 11.16959,9.92683 1.36682,0.22178 4.90211,0.40457 7.85621,0.4062 l 5.3711,0.003 -0.002,10.05859 c -0.001,5.73429 -0.17619,10.68515 -0.40694,11.516 -0.24547,0.88386 -0.91244,1.84463 -1.69485,2.4414 l -1.29009,0.98401 -35.90063,-0.004 -35.90063,-0.004 z M 168.19,160.19076 c 3.35387,-2.21949 4.23732,-7.60164 1.75913,-10.71697 -0.64351,-0.80896 -1.94415,-1.86635 -2.89031,-2.34975 -6.47684,-3.30907 -13.32891,3.68404 -10.11496,10.32316 1.95525,4.03902 7.31335,5.34615 11.24614,2.74356 z m 56.33548,28.79903 c -1.74172,-1.46557 -2.27337,-3.55318 -1.38281,-5.42989 1.27581,-2.68857 2.13973,-2.93665 10.23251,-2.9383 l 7.1289,-0.001 v -7.8125 -7.8125 h 15.625 15.625 v 7.8125 7.8125 h 7.26395 c 6.02312,0 7.4487,0.10913 8.34549,0.63888 3.1499,1.86069 3.13671,6.53617 -0.023,8.17014 -0.92807,0.47993 -5.69549,0.56598 -31.35733,0.56598 H 225.72027 Z M 190.2993,154.29602 c -0.64974,-0.28443 -1.39681,-0.99003 -1.66016,-1.56801 -0.67433,-1.48 -0.69792,-82.685349 -0.0244,-83.949959 0.24994,-0.46927 0.73334,-1.067363 1.07422,-1.329084 0.48141,-0.369617 15.33195,-0.478632 66.51598,-0.488282 l 65.89618,-0.01242 1.096,0.942741 1.09601,0.942738 v 41.821816 41.82182 l -1.08306,1.0831 -1.08306,1.08309 -65.32319,0.0848 c -53.48911,0.0694 -65.53721,-0.009 -66.50454,-0.43234 z"
         id="path1" /></g><path
       style="fill:#ffffff;stroke-width:1.7512"
       d="m 27.909046,867.60499 -5.143436,-5.3686 V 587.52785 312.81931 l 5.143436,-5.36859 5.143437,-5.36859 H 169.01325 304.97401 l 3.69101,3.9402 c 6.24669,6.66843 7.42672,12.87752 7.42672,39.07822 v 25.27841 H 193.59008 c -91.24652,0 -123.673188,0.53379 -127.093383,2.09213 -8.771837,3.99672 -12.011492,16.15059 -6.926229,25.9844 5.391841,10.42667 5.588516,10.44989 88.537932,10.44989 h 75.6075 l -1.0945,5.4725 c -0.60198,3.00988 -1.0945,13.2544 -1.0945,22.76561 v 17.29311 l -72.23704,0.01 c -45.30012,0.006 -74.719806,0.69922 -78.895124,1.85867 -17.052767,4.73542 -17.794488,32.51984 -0.947345,35.48694 3.219833,0.56707 38.754929,1.57517 78.966869,2.24022 l 73.11264,1.20915 v 22.50206 22.50203 H 145.17454 68.82219 l -5.954083,5.95409 c -8.014755,8.01475 -8.326763,17.60252 -0.845373,25.97769 l 5.108708,5.71904 77.034858,0.49041 77.03485,0.49042 0.63266,80.06481 c 0.62395,78.96066 0.68777,80.18557 4.6273,88.82083 4.65622,10.20616 14.35374,20.84276 23.14055,25.38138 9.15748,4.7301 24.40135,7.01584 46.78933,7.01584 h 19.93364 l -0.55426,41.04172 -0.55423,41.04171 -5.14344,5.36511 -5.14343,5.3651 H 168.99087 33.052483 Z M 176.95076,765.94763 c 24.15645,-6.08266 29.18305,-39.03845 8.02815,-52.63472 -7.02918,-4.51766 -9.40404,-5.12359 -17.85376,-4.55533 -12.02054,0.80841 -20.01198,6.03445 -24.56789,16.06629 -7.99957,17.61455 0.74429,37.18822 18.51657,41.45043 7.56437,1.8141 7.35832,1.81834 15.87693,-0.32667 z"
       id="path8"
       transform="scale(0.26458333)" /></g></svg>
